M48
; DRILL file {KiCad (5.1.2)-1} date 7/3/2019 10:54:11 PM
; FORMAT={-:-/ absolute / metric / decimal}
; #@! TF.CreationDate,2019-07-03T22:54:11-07:00
; #@! TF.GenerationSoftware,Kicad,Pcbnew,(5.1.2)-1
; #@! TF.FileFunction,Plated,1,2,PTH
FMAT,2
METRIC
T1C0.400
T2C0.500
T3C0.700
T4C0.800
T5C1.000
T6C1.200
T7C1.300
T8C3.200
%
G90
G05
T1
X35.65Y-76.35
X48.75Y-74.75
X51.25Y-47.75
X51.5Y-50.0
X52.5Y-45.25
X53.48Y-60.01
X53.5Y-59.0
X53.5Y-62.25
X53.589Y-61.004
X54.25Y-40.0
X57.75Y-52.5
X58.75Y-53.25
X59.0Y-41.25
X59.25Y-45.5
X59.25Y-74.0
X65.0Y-45.75
X66.0Y-40.0
X66.25Y-45.75
X66.5Y-63.0
X67.5Y-64.25
X67.613Y-65.553
X68.75Y-44.0
X68.75Y-81.25
X70.0Y-77.25
X71.5Y-72.25
X71.78Y-57.28
X72.396Y-52.232
X72.5Y-77.25
X73.707Y-47.793
X74.102Y-64.554
X74.5Y-77.25
X74.75Y-65.387
X74.75Y-67.887
X75.234Y-61.843
X75.353Y-62.836
X75.366Y-52.884
X76.75Y-45.75
X83.788Y-45.588
X83.95Y-47.3
X85.25Y-65.5
X86.0Y-63.25
T2
X43.75Y-52.75
X46.0Y-46.5
X46.75Y-51.25
X55.1Y-51.6
X57.409Y-69.447
X57.951Y-57.101
X58.324Y-58.944
X60.6Y-46.6
X61.3Y-70.75
X61.865Y-72.615
X62.242Y-58.464
X65.0Y-62.0
X66.25Y-71.75
X66.5Y-76.75
X68.25Y-54.0
X68.5Y-57.25
X68.918Y-82.433
X72.75Y-46.0
X73.0Y-56.25
X75.0Y-56.25
X75.5Y-51.0
X76.778Y-48.528
X79.0Y-34.75
X79.25Y-41.5
X81.0Y-44.25
X83.25Y-65.75
X83.25Y-68.5
X84.0Y-53.75
X84.75Y-71.75
X84.75Y-74.75
X82.6Y-95.0
X83.303Y-93.303
X83.303Y-96.697
X85.0Y-92.6
X85.0Y-97.4
X86.697Y-93.303
X86.697Y-96.697
X87.4Y-95.0
X32.6Y-58.0
X33.303Y-56.303
X33.303Y-59.697
X35.0Y-55.6
X35.0Y-60.4
X36.697Y-56.303
X36.697Y-59.697
X37.4Y-58.0
X82.6Y-25.0
X83.303Y-23.303
X83.303Y-26.697
X85.0Y-22.6
X85.0Y-27.4
X86.697Y-23.303
X86.697Y-26.697
X87.4Y-25.0
T3
X34.01Y-40.75
X39.09Y-40.75
X44.17Y-40.75
X49.25Y-40.75
X34.01Y-65.5
X39.09Y-65.5
X44.17Y-65.5
X49.25Y-65.5
X34.01Y-47.5
X39.09Y-47.5
X44.17Y-47.5
X49.25Y-47.5
X34.01Y-72.25
X39.09Y-72.25
X44.17Y-72.25
X49.25Y-72.25
T4
X80.38Y-56.76
X80.38Y-59.3
X80.38Y-61.84
X80.38Y-64.38
X80.38Y-66.92
X80.38Y-69.46
X80.38Y-72.0
X88.0Y-56.76
X88.0Y-59.3
X88.0Y-61.84
X88.0Y-64.38
X88.0Y-66.92
X88.0Y-69.46
X88.0Y-72.0
T5
X35.2Y-22.8
X35.2Y-34.8
X62.45Y-85.05
X62.45Y-97.05
X34.95Y-85.05
X34.95Y-97.05
X57.0Y-24.5
X67.0Y-24.5
T6
X34.0Y-79.0
X49.0Y-79.0
T7
X33.25Y-28.75
X47.4Y-34.8
X47.45Y-22.75
X60.5Y-91.0
X74.65Y-97.05
X74.7Y-85.0
X33.0Y-91.0
X47.15Y-97.05
X47.2Y-85.0
X55.0Y-76.5
X55.0Y-81.5
X64.0Y-76.5
X64.0Y-81.5
X84.0Y-32.0
X84.0Y-37.0
X84.0Y-42.0
X84.0Y-81.0
X84.0Y-86.0
T8
X85.0Y-95.0
X35.0Y-58.0
X85.0Y-25.0
T0
M30
