M48
; DRILL file {KiCad (5.1.5)-3} date 1/18/2020 8:13:02 PM
; FORMAT={-:-/ absolute / inch / decimal}
; #@! TF.CreationDate,2020-01-18T20:13:02-08:00
; #@! TF.GenerationSoftware,Kicad,Pcbnew,(5.1.5)-3
; #@! TF.FileFunction,Plated,1,2,PTH
FMAT,2
INCH
T1C0.0157
T2C0.0197
T3C0.0276
T4C0.0315
T5C0.0394
T6C0.0472
T7C0.0512
T8C0.1260
%
G90
G05
T1
X1.3Y-2.92
X1.4035Y-2.9635
X1.45Y-2.87
X1.6Y-2.92
X1.82Y-2.92
X1.9193Y-2.9429
X1.92Y-1.73
X1.93Y-1.47
X2.0177Y-1.8799
X2.0276Y-1.9685
X2.05Y-2.92
X2.0669Y-1.7815
X2.07Y-2.68
X2.1055Y-2.3626
X2.1063Y-2.3228
X2.1063Y-2.4508
X2.1098Y-2.4017
X2.1358Y-1.5748
X2.2736Y-2.0669
X2.313Y-2.0965
X2.3228Y-1.624
X2.3327Y-1.7913
X2.34Y-2.9
X2.4Y-2.97
X2.52Y-3.11
X2.5591Y-1.8012
X2.5984Y-1.5748
X2.6083Y-1.8012
X2.6181Y-2.4803
X2.6575Y-2.5295
X2.6619Y-2.5808
X2.7067Y-1.7323
X2.7328Y-3.1728
X2.77Y-1.57
X2.815Y-2.8445
X2.826Y-2.2551
X2.8502Y-2.0564
X2.89Y-3.0412
X2.9019Y-1.8816
X2.9174Y-2.5415
X2.9411Y-2.5743
X2.9411Y-2.6727
X2.962Y-2.4348
X2.9667Y-2.4738
X2.9672Y-2.082
X3.0059Y-3.1095
X3.0217Y-1.8012
X3.0476Y-2.1476
X3.06Y-2.97
X3.0966Y-2.8245
X3.2987Y-1.7948
X3.3051Y-1.8622
X3.319Y-2.9551
X3.32Y-3.02
X3.3452Y-2.6152
T2
X1.7224Y-2.0768
X1.811Y-1.8307
X1.8406Y-2.0177
X2.1693Y-2.0315
X2.2586Y-2.7452
X2.2815Y-2.2481
X2.2962Y-2.3206
X2.3858Y-1.8346
X2.4134Y-2.7854
X2.435Y-3.035
X2.4505Y-2.3017
X2.5591Y-2.4409
X2.6083Y-2.8248
X2.6181Y-3.0217
X2.687Y-2.126
X2.6969Y-2.2539
X2.715Y-3.22
X2.8642Y-1.811
X2.874Y-2.2146
X2.9528Y-2.2146
X2.9724Y-2.0079
X3.0227Y-1.9105
X3.1102Y-1.3681
X3.1201Y-1.6339
X3.189Y-1.7421
X3.3071Y-2.1161
X3.32Y-2.69
X3.32Y-2.89
X1.2835Y-2.2835
X1.3111Y-2.2167
X1.3111Y-2.3503
X1.378Y-2.189
X1.378Y-2.378
X1.4448Y-2.2167
X1.4448Y-2.3503
X1.4724Y-2.2835
X3.252Y-0.9843
X3.2796Y-0.9174
X3.2796Y-1.0511
X3.3465Y-0.8898
X3.3465Y-1.0787
X3.4133Y-0.9174
X3.4133Y-1.0511
X3.4409Y-0.9843
X3.252Y-3.7402
X3.2796Y-3.6733
X3.2796Y-3.807
X3.3465Y-3.6457
X3.3465Y-3.8346
X3.4133Y-3.6733
X3.4133Y-3.807
X3.4409Y-3.7402
T3
X2.7Y-2.97
X1.339Y-1.6043
X1.539Y-1.6043
X1.739Y-1.6043
X1.939Y-1.6043
X1.339Y-2.5787
X1.539Y-2.5787
X1.739Y-2.5787
X1.939Y-2.5787
X1.339Y-2.8445
X1.539Y-2.8445
X1.739Y-2.8445
X1.939Y-2.8445
X1.339Y-1.8701
X1.539Y-1.8701
X1.739Y-1.8701
X1.939Y-1.8701
T4
X3.1646Y-2.3
X3.1646Y-2.4
X3.1646Y-2.5
X3.1646Y-2.6
X3.1646Y-2.7
X3.1646Y-2.8
X3.1646Y-2.9
X3.4646Y-2.3
X3.4646Y-2.4
X3.4646Y-2.5
X3.4646Y-2.6
X3.4646Y-2.7
X3.4646Y-2.8
X3.4646Y-2.9
T5
X2.4587Y-3.3484
X2.4587Y-3.8209
X1.3858Y-0.8976
X1.3858Y-1.3701
X1.376Y-3.3484
X1.376Y-3.8209
X2.2441Y-0.9646
X2.6378Y-0.9646
T6
X1.3386Y-3.1102
X1.9291Y-3.1102
T7
X1.2992Y-3.5827
X1.8563Y-3.8209
X1.8583Y-3.3465
X3.3071Y-3.2631
X3.3071Y-3.46
X3.3071Y-1.2598
X3.3071Y-1.4567
X3.3071Y-1.6535
X2.1654Y-3.0118
X2.1654Y-3.2087
X2.5197Y-3.0118
X2.5197Y-3.2087
X2.3819Y-3.5827
X2.939Y-3.8209
X2.9409Y-3.3465
X1.3091Y-1.1319
X1.8661Y-1.3701
X1.8681Y-0.8957
T8
X3.3465Y-3.7402
X1.378Y-2.2835
X3.3465Y-0.9843
T0
M30
