%TF.GenerationSoftware,KiCad,Pcbnew,(5.1.2)-1*%
%TF.CreationDate,2019-07-03T22:54:06-07:00*%
%TF.ProjectId,Keithley1950,4b656974-686c-4657-9931-3935302e6b69,A*%
%TF.SameCoordinates,Original*%
%TF.FileFunction,Soldermask,Top*%
%TF.FilePolarity,Negative*%
%FSLAX46Y46*%
G04 Gerber Fmt 4.6, Leading zero omitted, Abs format (unit mm)*
G04 Created by KiCad (PCBNEW (5.1.2)-1) date 2019-07-03 22:54:06*
%MOMM*%
%LPD*%
G04 APERTURE LIST*
%ADD10C,0.100000*%
G04 APERTURE END LIST*
D10*
G36*
X75093368Y-95588412D02*
G01*
X75369990Y-95702993D01*
X75618944Y-95869339D01*
X75830661Y-96081056D01*
X75997007Y-96330010D01*
X76111588Y-96606632D01*
X76170000Y-96900293D01*
X76170000Y-97199707D01*
X76111588Y-97493368D01*
X75997007Y-97769990D01*
X75830661Y-98018944D01*
X75618944Y-98230661D01*
X75369990Y-98397007D01*
X75093368Y-98511588D01*
X74799707Y-98570000D01*
X74500293Y-98570000D01*
X74206632Y-98511588D01*
X73930010Y-98397007D01*
X73681056Y-98230661D01*
X73469339Y-98018944D01*
X73302993Y-97769990D01*
X73188412Y-97493368D01*
X73130000Y-97199707D01*
X73130000Y-96900293D01*
X73188412Y-96606632D01*
X73302993Y-96330010D01*
X73469339Y-96081056D01*
X73681056Y-95869339D01*
X73930010Y-95702993D01*
X74206632Y-95588412D01*
X74500293Y-95530000D01*
X74799707Y-95530000D01*
X75093368Y-95588412D01*
X75093368Y-95588412D01*
G37*
G36*
X47593368Y-95588412D02*
G01*
X47869990Y-95702993D01*
X48118944Y-95869339D01*
X48330661Y-96081056D01*
X48497007Y-96330010D01*
X48611588Y-96606632D01*
X48670000Y-96900293D01*
X48670000Y-97199707D01*
X48611588Y-97493368D01*
X48497007Y-97769990D01*
X48330661Y-98018944D01*
X48118944Y-98230661D01*
X47869990Y-98397007D01*
X47593368Y-98511588D01*
X47299707Y-98570000D01*
X47000293Y-98570000D01*
X46706632Y-98511588D01*
X46430010Y-98397007D01*
X46181056Y-98230661D01*
X45969339Y-98018944D01*
X45802993Y-97769990D01*
X45688412Y-97493368D01*
X45630000Y-97199707D01*
X45630000Y-96900293D01*
X45688412Y-96606632D01*
X45802993Y-96330010D01*
X45969339Y-96081056D01*
X46181056Y-95869339D01*
X46430010Y-95702993D01*
X46706632Y-95588412D01*
X47000293Y-95530000D01*
X47299707Y-95530000D01*
X47593368Y-95588412D01*
X47593368Y-95588412D01*
G37*
G36*
X35320445Y-95828805D02*
G01*
X35320448Y-95828806D01*
X35320447Y-95828806D01*
X35551570Y-95924540D01*
X35759582Y-96063530D01*
X35936470Y-96240418D01*
X36075460Y-96448430D01*
X36096038Y-96498111D01*
X36171195Y-96679555D01*
X36220000Y-96924916D01*
X36220000Y-97175084D01*
X36171195Y-97420445D01*
X36171194Y-97420447D01*
X36075460Y-97651570D01*
X35936470Y-97859582D01*
X35759582Y-98036470D01*
X35759579Y-98036472D01*
X35759578Y-98036473D01*
X35656292Y-98105486D01*
X35551570Y-98175460D01*
X35372805Y-98249507D01*
X35320445Y-98271195D01*
X35075084Y-98320000D01*
X34824916Y-98320000D01*
X34579555Y-98271195D01*
X34527195Y-98249507D01*
X34348430Y-98175460D01*
X34243708Y-98105486D01*
X34140422Y-98036473D01*
X34140421Y-98036472D01*
X34140418Y-98036470D01*
X33963530Y-97859582D01*
X33824540Y-97651570D01*
X33728806Y-97420447D01*
X33728805Y-97420445D01*
X33680000Y-97175084D01*
X33680000Y-96924916D01*
X33728805Y-96679555D01*
X33803962Y-96498111D01*
X33824540Y-96448430D01*
X33963530Y-96240418D01*
X34140418Y-96063530D01*
X34348430Y-95924540D01*
X34579553Y-95828806D01*
X34579552Y-95828806D01*
X34579555Y-95828805D01*
X34824916Y-95780000D01*
X35075084Y-95780000D01*
X35320445Y-95828805D01*
X35320445Y-95828805D01*
G37*
G36*
X62820445Y-95828805D02*
G01*
X62820448Y-95828806D01*
X62820447Y-95828806D01*
X63051570Y-95924540D01*
X63259582Y-96063530D01*
X63436470Y-96240418D01*
X63575460Y-96448430D01*
X63596038Y-96498111D01*
X63671195Y-96679555D01*
X63720000Y-96924916D01*
X63720000Y-97175084D01*
X63671195Y-97420445D01*
X63671194Y-97420447D01*
X63575460Y-97651570D01*
X63436470Y-97859582D01*
X63259582Y-98036470D01*
X63259579Y-98036472D01*
X63259578Y-98036473D01*
X63156292Y-98105486D01*
X63051570Y-98175460D01*
X62872805Y-98249507D01*
X62820445Y-98271195D01*
X62575084Y-98320000D01*
X62324916Y-98320000D01*
X62079555Y-98271195D01*
X62027195Y-98249507D01*
X61848430Y-98175460D01*
X61743708Y-98105486D01*
X61640422Y-98036473D01*
X61640421Y-98036472D01*
X61640418Y-98036470D01*
X61463530Y-97859582D01*
X61324540Y-97651570D01*
X61228806Y-97420447D01*
X61228805Y-97420445D01*
X61180000Y-97175084D01*
X61180000Y-96924916D01*
X61228805Y-96679555D01*
X61303962Y-96498111D01*
X61324540Y-96448430D01*
X61463530Y-96240418D01*
X61640418Y-96063530D01*
X61848430Y-95924540D01*
X62079553Y-95828806D01*
X62079552Y-95828806D01*
X62079555Y-95828805D01*
X62324916Y-95780000D01*
X62575084Y-95780000D01*
X62820445Y-95828805D01*
X62820445Y-95828805D01*
G37*
G36*
X85420354Y-91800530D02*
G01*
X85939239Y-91903742D01*
X86232240Y-92025108D01*
X86525242Y-92146473D01*
X86906250Y-92401055D01*
X87052635Y-92498866D01*
X87501134Y-92947365D01*
X87520741Y-92976709D01*
X87853527Y-93474758D01*
X87893258Y-93570678D01*
X88096258Y-94060761D01*
X88220000Y-94682859D01*
X88220000Y-95317141D01*
X88096258Y-95939239D01*
X88037515Y-96081056D01*
X87853527Y-96525242D01*
X87602924Y-96900295D01*
X87501134Y-97052635D01*
X87052635Y-97501134D01*
X87020645Y-97522509D01*
X86525242Y-97853527D01*
X86232241Y-97974892D01*
X85939239Y-98096258D01*
X85420354Y-98199470D01*
X85317142Y-98220000D01*
X84682858Y-98220000D01*
X84579646Y-98199470D01*
X84060761Y-98096258D01*
X83767759Y-97974892D01*
X83474758Y-97853527D01*
X82979355Y-97522509D01*
X82947365Y-97501134D01*
X82498866Y-97052635D01*
X82397076Y-96900295D01*
X82146473Y-96525242D01*
X81962485Y-96081056D01*
X81903742Y-95939239D01*
X81780000Y-95317141D01*
X81780000Y-94682859D01*
X81903742Y-94060761D01*
X82106742Y-93570678D01*
X82146473Y-93474758D01*
X82479259Y-92976709D01*
X82498866Y-92947365D01*
X82947365Y-92498866D01*
X83093750Y-92401055D01*
X83474758Y-92146473D01*
X83767759Y-92025108D01*
X84060761Y-91903742D01*
X84579646Y-91800530D01*
X84682858Y-91780000D01*
X85317142Y-91780000D01*
X85420354Y-91800530D01*
X85420354Y-91800530D01*
G37*
G36*
X60943368Y-89538412D02*
G01*
X61219990Y-89652993D01*
X61468944Y-89819339D01*
X61680661Y-90031056D01*
X61847007Y-90280010D01*
X61961588Y-90556632D01*
X62020000Y-90850293D01*
X62020000Y-91149707D01*
X61961588Y-91443368D01*
X61847007Y-91719990D01*
X61680661Y-91968944D01*
X61468944Y-92180661D01*
X61219990Y-92347007D01*
X60943368Y-92461588D01*
X60649707Y-92520000D01*
X60350293Y-92520000D01*
X60056632Y-92461588D01*
X59780010Y-92347007D01*
X59531056Y-92180661D01*
X59319339Y-91968944D01*
X59152993Y-91719990D01*
X59038412Y-91443368D01*
X58980000Y-91149707D01*
X58980000Y-90850293D01*
X59038412Y-90556632D01*
X59152993Y-90280010D01*
X59319339Y-90031056D01*
X59531056Y-89819339D01*
X59780010Y-89652993D01*
X60056632Y-89538412D01*
X60350293Y-89480000D01*
X60649707Y-89480000D01*
X60943368Y-89538412D01*
X60943368Y-89538412D01*
G37*
G36*
X33443368Y-89538412D02*
G01*
X33719990Y-89652993D01*
X33968944Y-89819339D01*
X34180661Y-90031056D01*
X34347007Y-90280010D01*
X34461588Y-90556632D01*
X34520000Y-90850293D01*
X34520000Y-91149707D01*
X34461588Y-91443368D01*
X34347007Y-91719990D01*
X34180661Y-91968944D01*
X33968944Y-92180661D01*
X33719990Y-92347007D01*
X33443368Y-92461588D01*
X33149707Y-92520000D01*
X32850293Y-92520000D01*
X32556632Y-92461588D01*
X32280010Y-92347007D01*
X32031056Y-92180661D01*
X31819339Y-91968944D01*
X31652993Y-91719990D01*
X31538412Y-91443368D01*
X31480000Y-91149707D01*
X31480000Y-90850293D01*
X31538412Y-90556632D01*
X31652993Y-90280010D01*
X31819339Y-90031056D01*
X32031056Y-89819339D01*
X32280010Y-89652993D01*
X32556632Y-89538412D01*
X32850293Y-89480000D01*
X33149707Y-89480000D01*
X33443368Y-89538412D01*
X33443368Y-89538412D01*
G37*
G36*
X85320000Y-87320000D02*
G01*
X82680000Y-87320000D01*
X82680000Y-84680000D01*
X85320000Y-84680000D01*
X85320000Y-87320000D01*
X85320000Y-87320000D01*
G37*
G36*
X47643368Y-83538412D02*
G01*
X47919990Y-83652993D01*
X48168944Y-83819339D01*
X48380661Y-84031056D01*
X48547007Y-84280010D01*
X48661588Y-84556632D01*
X48720000Y-84850293D01*
X48720000Y-85149707D01*
X48661588Y-85443368D01*
X48547007Y-85719990D01*
X48380661Y-85968944D01*
X48168944Y-86180661D01*
X47919990Y-86347007D01*
X47643368Y-86461588D01*
X47349707Y-86520000D01*
X47050293Y-86520000D01*
X46756632Y-86461588D01*
X46480010Y-86347007D01*
X46231056Y-86180661D01*
X46019339Y-85968944D01*
X45852993Y-85719990D01*
X45738412Y-85443368D01*
X45680000Y-85149707D01*
X45680000Y-84850293D01*
X45738412Y-84556632D01*
X45852993Y-84280010D01*
X46019339Y-84031056D01*
X46231056Y-83819339D01*
X46480010Y-83652993D01*
X46756632Y-83538412D01*
X47050293Y-83480000D01*
X47349707Y-83480000D01*
X47643368Y-83538412D01*
X47643368Y-83538412D01*
G37*
G36*
X75143368Y-83538412D02*
G01*
X75419990Y-83652993D01*
X75668944Y-83819339D01*
X75880661Y-84031056D01*
X76047007Y-84280010D01*
X76161588Y-84556632D01*
X76220000Y-84850293D01*
X76220000Y-85149707D01*
X76161588Y-85443368D01*
X76047007Y-85719990D01*
X75880661Y-85968944D01*
X75668944Y-86180661D01*
X75419990Y-86347007D01*
X75143368Y-86461588D01*
X74849707Y-86520000D01*
X74550293Y-86520000D01*
X74256632Y-86461588D01*
X73980010Y-86347007D01*
X73731056Y-86180661D01*
X73519339Y-85968944D01*
X73352993Y-85719990D01*
X73238412Y-85443368D01*
X73180000Y-85149707D01*
X73180000Y-84850293D01*
X73238412Y-84556632D01*
X73352993Y-84280010D01*
X73519339Y-84031056D01*
X73731056Y-83819339D01*
X73980010Y-83652993D01*
X74256632Y-83538412D01*
X74550293Y-83480000D01*
X74849707Y-83480000D01*
X75143368Y-83538412D01*
X75143368Y-83538412D01*
G37*
G36*
X35320445Y-83828805D02*
G01*
X35320448Y-83828806D01*
X35320447Y-83828806D01*
X35551570Y-83924540D01*
X35759582Y-84063530D01*
X35936470Y-84240418D01*
X36075460Y-84448430D01*
X36120279Y-84556633D01*
X36171195Y-84679555D01*
X36220000Y-84924916D01*
X36220000Y-85175084D01*
X36171195Y-85420445D01*
X36171194Y-85420447D01*
X36075460Y-85651570D01*
X35936470Y-85859582D01*
X35759582Y-86036470D01*
X35551570Y-86175460D01*
X35372805Y-86249507D01*
X35320445Y-86271195D01*
X35075084Y-86320000D01*
X34824916Y-86320000D01*
X34579555Y-86271195D01*
X34527195Y-86249507D01*
X34348430Y-86175460D01*
X34140418Y-86036470D01*
X33963530Y-85859582D01*
X33824540Y-85651570D01*
X33728806Y-85420447D01*
X33728805Y-85420445D01*
X33680000Y-85175084D01*
X33680000Y-84924916D01*
X33728805Y-84679555D01*
X33779721Y-84556633D01*
X33824540Y-84448430D01*
X33963530Y-84240418D01*
X34140418Y-84063530D01*
X34348430Y-83924540D01*
X34579553Y-83828806D01*
X34579552Y-83828806D01*
X34579555Y-83828805D01*
X34824916Y-83780000D01*
X35075084Y-83780000D01*
X35320445Y-83828805D01*
X35320445Y-83828805D01*
G37*
G36*
X62820445Y-83828805D02*
G01*
X62820448Y-83828806D01*
X62820447Y-83828806D01*
X63051570Y-83924540D01*
X63259582Y-84063530D01*
X63436470Y-84240418D01*
X63575460Y-84448430D01*
X63620279Y-84556633D01*
X63671195Y-84679555D01*
X63720000Y-84924916D01*
X63720000Y-85175084D01*
X63671195Y-85420445D01*
X63671194Y-85420447D01*
X63575460Y-85651570D01*
X63436470Y-85859582D01*
X63259582Y-86036470D01*
X63051570Y-86175460D01*
X62872805Y-86249507D01*
X62820445Y-86271195D01*
X62575084Y-86320000D01*
X62324916Y-86320000D01*
X62079555Y-86271195D01*
X62027195Y-86249507D01*
X61848430Y-86175460D01*
X61640418Y-86036470D01*
X61463530Y-85859582D01*
X61324540Y-85651570D01*
X61228806Y-85420447D01*
X61228805Y-85420445D01*
X61180000Y-85175084D01*
X61180000Y-84924916D01*
X61228805Y-84679555D01*
X61279721Y-84556633D01*
X61324540Y-84448430D01*
X61463530Y-84240418D01*
X61640418Y-84063530D01*
X61848430Y-83924540D01*
X62079553Y-83828806D01*
X62079552Y-83828806D01*
X62079555Y-83828805D01*
X62324916Y-83780000D01*
X62575084Y-83780000D01*
X62820445Y-83828805D01*
X62820445Y-83828805D01*
G37*
G36*
X64190582Y-80344988D02*
G01*
X64341278Y-80374963D01*
X64554202Y-80463159D01*
X64745836Y-80591205D01*
X64908795Y-80754164D01*
X65036841Y-80945798D01*
X65125037Y-81158722D01*
X65170000Y-81384766D01*
X65170000Y-81615234D01*
X65125037Y-81841278D01*
X65036841Y-82054202D01*
X64908795Y-82245836D01*
X64745836Y-82408795D01*
X64554202Y-82536841D01*
X64341278Y-82625037D01*
X64190582Y-82655012D01*
X64115235Y-82670000D01*
X63884765Y-82670000D01*
X63809418Y-82655012D01*
X63658722Y-82625037D01*
X63445798Y-82536841D01*
X63254164Y-82408795D01*
X63091205Y-82245836D01*
X62963159Y-82054202D01*
X62874963Y-81841278D01*
X62830000Y-81615234D01*
X62830000Y-81384766D01*
X62874963Y-81158722D01*
X62963159Y-80945798D01*
X63091205Y-80754164D01*
X63254164Y-80591205D01*
X63445798Y-80463159D01*
X63658722Y-80374963D01*
X63809418Y-80344988D01*
X63884765Y-80330000D01*
X64115235Y-80330000D01*
X64190582Y-80344988D01*
X64190582Y-80344988D01*
G37*
G36*
X55190582Y-80344988D02*
G01*
X55341278Y-80374963D01*
X55554202Y-80463159D01*
X55745836Y-80591205D01*
X55908795Y-80754164D01*
X56036841Y-80945798D01*
X56125037Y-81158722D01*
X56170000Y-81384766D01*
X56170000Y-81615234D01*
X56125037Y-81841278D01*
X56036841Y-82054202D01*
X55908795Y-82245836D01*
X55745836Y-82408795D01*
X55554202Y-82536841D01*
X55341278Y-82625037D01*
X55190582Y-82655012D01*
X55115235Y-82670000D01*
X54884765Y-82670000D01*
X54809418Y-82655012D01*
X54658722Y-82625037D01*
X54445798Y-82536841D01*
X54254164Y-82408795D01*
X54091205Y-82245836D01*
X53963159Y-82054202D01*
X53874963Y-81841278D01*
X53830000Y-81615234D01*
X53830000Y-81384766D01*
X53874963Y-81158722D01*
X53963159Y-80945798D01*
X54091205Y-80754164D01*
X54254164Y-80591205D01*
X54445798Y-80463159D01*
X54658722Y-80374963D01*
X54809418Y-80344988D01*
X54884765Y-80330000D01*
X55115235Y-80330000D01*
X55190582Y-80344988D01*
X55190582Y-80344988D01*
G37*
G36*
X84214629Y-79696832D02*
G01*
X84385029Y-79730726D01*
X84473768Y-79767483D01*
X84625255Y-79830231D01*
X84786490Y-79937965D01*
X84841456Y-79974692D01*
X85025308Y-80158544D01*
X85035045Y-80173117D01*
X85169769Y-80374745D01*
X85227347Y-80513751D01*
X85269274Y-80614971D01*
X85303168Y-80785371D01*
X85320000Y-80869991D01*
X85320000Y-81130009D01*
X85314288Y-81158724D01*
X85269274Y-81385029D01*
X85232517Y-81473768D01*
X85169769Y-81625255D01*
X85062035Y-81786490D01*
X85025308Y-81841456D01*
X84841456Y-82025308D01*
X84798213Y-82054202D01*
X84625255Y-82169769D01*
X84473768Y-82232517D01*
X84385029Y-82269274D01*
X84214629Y-82303168D01*
X84130009Y-82320000D01*
X83869991Y-82320000D01*
X83785371Y-82303168D01*
X83614971Y-82269274D01*
X83526232Y-82232517D01*
X83374745Y-82169769D01*
X83201787Y-82054202D01*
X83158544Y-82025308D01*
X82974692Y-81841456D01*
X82937965Y-81786490D01*
X82830231Y-81625255D01*
X82767483Y-81473768D01*
X82730726Y-81385029D01*
X82685712Y-81158724D01*
X82680000Y-81130009D01*
X82680000Y-80869991D01*
X82696832Y-80785371D01*
X82730726Y-80614971D01*
X82772653Y-80513751D01*
X82830231Y-80374745D01*
X82964955Y-80173117D01*
X82974692Y-80158544D01*
X83158544Y-79974692D01*
X83213510Y-79937965D01*
X83374745Y-79830231D01*
X83526232Y-79767483D01*
X83614971Y-79730726D01*
X83785371Y-79696832D01*
X83869991Y-79680000D01*
X84130009Y-79680000D01*
X84214629Y-79696832D01*
X84214629Y-79696832D01*
G37*
G36*
X72166224Y-78934120D02*
G01*
X72201956Y-78944960D01*
X72234885Y-78962560D01*
X72263751Y-78986249D01*
X72287440Y-79015115D01*
X72305040Y-79048044D01*
X72315880Y-79083776D01*
X72320000Y-79125609D01*
X72320000Y-80374391D01*
X72315880Y-80416224D01*
X72305040Y-80451956D01*
X72287440Y-80484885D01*
X72263751Y-80513751D01*
X72234885Y-80537440D01*
X72201956Y-80555040D01*
X72166224Y-80565880D01*
X72124391Y-80570000D01*
X69475609Y-80570000D01*
X69433776Y-80565880D01*
X69398044Y-80555040D01*
X69365115Y-80537440D01*
X69336249Y-80513751D01*
X69312560Y-80484885D01*
X69294960Y-80451956D01*
X69284120Y-80416224D01*
X69280000Y-80374391D01*
X69280000Y-79125609D01*
X69284120Y-79083776D01*
X69294960Y-79048044D01*
X69312560Y-79015115D01*
X69336249Y-78986249D01*
X69365115Y-78962560D01*
X69398044Y-78944960D01*
X69433776Y-78934120D01*
X69475609Y-78930000D01*
X72124391Y-78930000D01*
X72166224Y-78934120D01*
X72166224Y-78934120D01*
G37*
G36*
X76566224Y-78934120D02*
G01*
X76601956Y-78944960D01*
X76634885Y-78962560D01*
X76663751Y-78986249D01*
X76687440Y-79015115D01*
X76705040Y-79048044D01*
X76715880Y-79083776D01*
X76720000Y-79125609D01*
X76720000Y-80374391D01*
X76715880Y-80416224D01*
X76705040Y-80451956D01*
X76687440Y-80484885D01*
X76663751Y-80513751D01*
X76634885Y-80537440D01*
X76601956Y-80555040D01*
X76566224Y-80565880D01*
X76524391Y-80570000D01*
X73875609Y-80570000D01*
X73833776Y-80565880D01*
X73798044Y-80555040D01*
X73765115Y-80537440D01*
X73736249Y-80513751D01*
X73712560Y-80484885D01*
X73694960Y-80451956D01*
X73684120Y-80416224D01*
X73680000Y-80374391D01*
X73680000Y-79125609D01*
X73684120Y-79083776D01*
X73694960Y-79048044D01*
X73712560Y-79015115D01*
X73736249Y-78986249D01*
X73765115Y-78962560D01*
X73798044Y-78944960D01*
X73833776Y-78934120D01*
X73875609Y-78930000D01*
X76524391Y-78930000D01*
X76566224Y-78934120D01*
X76566224Y-78934120D01*
G37*
G36*
X60053901Y-79434414D02*
G01*
X60092502Y-79446124D01*
X60128080Y-79465141D01*
X60159266Y-79490734D01*
X60184859Y-79521920D01*
X60203876Y-79557498D01*
X60215586Y-79596099D01*
X60220000Y-79640921D01*
X60220000Y-80234079D01*
X60215586Y-80278901D01*
X60203876Y-80317502D01*
X60184859Y-80353080D01*
X60159266Y-80384266D01*
X60128080Y-80409859D01*
X60092502Y-80428876D01*
X60053901Y-80440586D01*
X60009079Y-80445000D01*
X58990921Y-80445000D01*
X58946099Y-80440586D01*
X58907498Y-80428876D01*
X58871920Y-80409859D01*
X58840734Y-80384266D01*
X58815141Y-80353080D01*
X58796124Y-80317502D01*
X58784414Y-80278901D01*
X58780000Y-80234079D01*
X58780000Y-79640921D01*
X58784414Y-79596099D01*
X58796124Y-79557498D01*
X58815141Y-79521920D01*
X58840734Y-79490734D01*
X58871920Y-79465141D01*
X58907498Y-79446124D01*
X58946099Y-79434414D01*
X58990921Y-79430000D01*
X60009079Y-79430000D01*
X60053901Y-79434414D01*
X60053901Y-79434414D01*
G37*
G36*
X34198369Y-77795557D02*
G01*
X34355860Y-77826883D01*
X34437876Y-77860856D01*
X34577887Y-77918850D01*
X34777705Y-78052364D01*
X34777709Y-78052367D01*
X34947633Y-78222291D01*
X34947635Y-78222294D01*
X34947636Y-78222295D01*
X35081150Y-78422113D01*
X35117250Y-78509266D01*
X35173117Y-78644140D01*
X35220000Y-78879842D01*
X35220000Y-79120158D01*
X35173117Y-79355860D01*
X35142407Y-79430000D01*
X35081150Y-79577887D01*
X34947636Y-79777705D01*
X34947633Y-79777709D01*
X34777709Y-79947633D01*
X34777706Y-79947635D01*
X34777705Y-79947636D01*
X34577887Y-80081150D01*
X34437876Y-80139144D01*
X34355860Y-80173117D01*
X34198369Y-80204443D01*
X34120160Y-80220000D01*
X33879840Y-80220000D01*
X33801631Y-80204443D01*
X33644140Y-80173117D01*
X33562124Y-80139144D01*
X33422113Y-80081150D01*
X33222295Y-79947636D01*
X33222294Y-79947635D01*
X33222291Y-79947633D01*
X33052367Y-79777709D01*
X33052364Y-79777705D01*
X32918850Y-79577887D01*
X32857593Y-79430000D01*
X32826883Y-79355860D01*
X32780000Y-79120158D01*
X32780000Y-78879842D01*
X32826883Y-78644140D01*
X32882750Y-78509266D01*
X32918850Y-78422113D01*
X33052364Y-78222295D01*
X33052365Y-78222294D01*
X33052367Y-78222291D01*
X33222291Y-78052367D01*
X33222295Y-78052364D01*
X33422113Y-77918850D01*
X33562124Y-77860856D01*
X33644140Y-77826883D01*
X33801631Y-77795557D01*
X33879840Y-77780000D01*
X34120160Y-77780000D01*
X34198369Y-77795557D01*
X34198369Y-77795557D01*
G37*
G36*
X49198369Y-77795557D02*
G01*
X49355860Y-77826883D01*
X49437876Y-77860856D01*
X49577887Y-77918850D01*
X49777705Y-78052364D01*
X49777709Y-78052367D01*
X49947633Y-78222291D01*
X49947635Y-78222294D01*
X49947636Y-78222295D01*
X50081150Y-78422113D01*
X50117250Y-78509266D01*
X50173117Y-78644140D01*
X50220000Y-78879842D01*
X50220000Y-79120158D01*
X50173117Y-79355860D01*
X50142407Y-79430000D01*
X50081150Y-79577887D01*
X49947636Y-79777705D01*
X49947633Y-79777709D01*
X49777709Y-79947633D01*
X49777706Y-79947635D01*
X49777705Y-79947636D01*
X49577887Y-80081150D01*
X49437876Y-80139144D01*
X49355860Y-80173117D01*
X49198369Y-80204443D01*
X49120160Y-80220000D01*
X48879840Y-80220000D01*
X48801631Y-80204443D01*
X48644140Y-80173117D01*
X48562124Y-80139144D01*
X48422113Y-80081150D01*
X48222295Y-79947636D01*
X48222294Y-79947635D01*
X48222291Y-79947633D01*
X48052367Y-79777709D01*
X48052364Y-79777705D01*
X47918850Y-79577887D01*
X47857593Y-79430000D01*
X47826883Y-79355860D01*
X47780000Y-79120158D01*
X47780000Y-78879842D01*
X47826883Y-78644140D01*
X47882750Y-78509266D01*
X47918850Y-78422113D01*
X48052364Y-78222295D01*
X48052365Y-78222294D01*
X48052367Y-78222291D01*
X48222291Y-78052367D01*
X48222295Y-78052364D01*
X48422113Y-77918850D01*
X48562124Y-77860856D01*
X48644140Y-77826883D01*
X48801631Y-77795557D01*
X48879840Y-77780000D01*
X49120160Y-77780000D01*
X49198369Y-77795557D01*
X49198369Y-77795557D01*
G37*
G36*
X60053901Y-77559414D02*
G01*
X60092502Y-77571124D01*
X60128080Y-77590141D01*
X60159266Y-77615734D01*
X60184859Y-77646920D01*
X60203876Y-77682498D01*
X60215586Y-77721099D01*
X60220000Y-77765921D01*
X60220000Y-78359079D01*
X60215586Y-78403901D01*
X60203876Y-78442502D01*
X60184859Y-78478080D01*
X60159266Y-78509266D01*
X60128080Y-78534859D01*
X60092502Y-78553876D01*
X60053901Y-78565586D01*
X60009079Y-78570000D01*
X58990921Y-78570000D01*
X58946099Y-78565586D01*
X58907498Y-78553876D01*
X58871920Y-78534859D01*
X58840734Y-78509266D01*
X58815141Y-78478080D01*
X58796124Y-78442502D01*
X58784414Y-78403901D01*
X58780000Y-78359079D01*
X58780000Y-77765921D01*
X58784414Y-77721099D01*
X58796124Y-77682498D01*
X58815141Y-77646920D01*
X58840734Y-77615734D01*
X58871920Y-77590141D01*
X58907498Y-77571124D01*
X58946099Y-77559414D01*
X58990921Y-77555000D01*
X60009079Y-77555000D01*
X60053901Y-77559414D01*
X60053901Y-77559414D01*
G37*
G36*
X64190582Y-75344988D02*
G01*
X64341278Y-75374963D01*
X64554202Y-75463159D01*
X64745836Y-75591205D01*
X64908795Y-75754164D01*
X65036841Y-75945798D01*
X65125037Y-76158722D01*
X65170000Y-76384766D01*
X65170000Y-76615234D01*
X65125037Y-76841278D01*
X65036841Y-77054202D01*
X64908795Y-77245836D01*
X64745836Y-77408795D01*
X64554202Y-77536841D01*
X64341278Y-77625037D01*
X64190582Y-77655012D01*
X64115235Y-77670000D01*
X63884765Y-77670000D01*
X63809418Y-77655012D01*
X63658722Y-77625037D01*
X63445798Y-77536841D01*
X63254164Y-77408795D01*
X63091205Y-77245836D01*
X62963159Y-77054202D01*
X62874963Y-76841278D01*
X62830000Y-76615234D01*
X62830000Y-76384766D01*
X62874963Y-76158722D01*
X62963159Y-75945798D01*
X63091205Y-75754164D01*
X63254164Y-75591205D01*
X63445798Y-75463159D01*
X63658722Y-75374963D01*
X63809418Y-75344988D01*
X63884765Y-75330000D01*
X64115235Y-75330000D01*
X64190582Y-75344988D01*
X64190582Y-75344988D01*
G37*
G36*
X55190582Y-75344988D02*
G01*
X55341278Y-75374963D01*
X55554202Y-75463159D01*
X55745836Y-75591205D01*
X55908795Y-75754164D01*
X56036841Y-75945798D01*
X56125037Y-76158722D01*
X56170000Y-76384766D01*
X56170000Y-76615234D01*
X56125037Y-76841278D01*
X56036841Y-77054202D01*
X55908795Y-77245836D01*
X55745836Y-77408795D01*
X55554202Y-77536841D01*
X55341278Y-77625037D01*
X55190582Y-77655012D01*
X55115235Y-77670000D01*
X54884765Y-77670000D01*
X54809418Y-77655012D01*
X54658722Y-77625037D01*
X54445798Y-77536841D01*
X54254164Y-77408795D01*
X54091205Y-77245836D01*
X53963159Y-77054202D01*
X53874963Y-76841278D01*
X53830000Y-76615234D01*
X53830000Y-76384766D01*
X53874963Y-76158722D01*
X53963159Y-75945798D01*
X54091205Y-75754164D01*
X54254164Y-75591205D01*
X54445798Y-75463159D01*
X54658722Y-75374963D01*
X54809418Y-75344988D01*
X54884765Y-75330000D01*
X55115235Y-75330000D01*
X55190582Y-75344988D01*
X55190582Y-75344988D01*
G37*
G36*
X76370445Y-74278805D02*
G01*
X76370448Y-74278806D01*
X76370447Y-74278806D01*
X76601570Y-74374540D01*
X76809582Y-74513530D01*
X76986470Y-74690418D01*
X76986472Y-74690421D01*
X76986473Y-74690422D01*
X77000231Y-74711013D01*
X77125460Y-74898430D01*
X77199507Y-75077195D01*
X77221195Y-75129555D01*
X77270000Y-75374916D01*
X77270000Y-75625084D01*
X77221195Y-75870445D01*
X77221194Y-75870447D01*
X77125460Y-76101570D01*
X76986470Y-76309582D01*
X76809582Y-76486470D01*
X76601570Y-76625460D01*
X76422805Y-76699507D01*
X76370445Y-76721195D01*
X76125084Y-76770000D01*
X75874916Y-76770000D01*
X75629555Y-76721195D01*
X75577195Y-76699507D01*
X75398430Y-76625460D01*
X75190418Y-76486470D01*
X75013530Y-76309582D01*
X74874540Y-76101570D01*
X74778806Y-75870447D01*
X74778805Y-75870445D01*
X74730000Y-75625084D01*
X74730000Y-75374916D01*
X74778805Y-75129555D01*
X74800493Y-75077195D01*
X74874540Y-74898430D01*
X74999769Y-74711013D01*
X75013527Y-74690422D01*
X75013528Y-74690421D01*
X75013530Y-74690418D01*
X75190418Y-74513530D01*
X75398430Y-74374540D01*
X75629553Y-74278806D01*
X75629552Y-74278806D01*
X75629555Y-74278805D01*
X75874916Y-74230000D01*
X76125084Y-74230000D01*
X76370445Y-74278805D01*
X76370445Y-74278805D01*
G37*
G36*
X69370445Y-74278805D02*
G01*
X69370448Y-74278806D01*
X69370447Y-74278806D01*
X69601570Y-74374540D01*
X69809582Y-74513530D01*
X69986470Y-74690418D01*
X69986472Y-74690421D01*
X69986473Y-74690422D01*
X70000231Y-74711013D01*
X70125460Y-74898430D01*
X70199507Y-75077195D01*
X70221195Y-75129555D01*
X70270000Y-75374916D01*
X70270000Y-75625084D01*
X70221195Y-75870445D01*
X70221194Y-75870447D01*
X70125460Y-76101570D01*
X69986470Y-76309582D01*
X69809582Y-76486470D01*
X69601570Y-76625460D01*
X69422805Y-76699507D01*
X69370445Y-76721195D01*
X69125084Y-76770000D01*
X68874916Y-76770000D01*
X68629555Y-76721195D01*
X68577195Y-76699507D01*
X68398430Y-76625460D01*
X68190418Y-76486470D01*
X68013530Y-76309582D01*
X67874540Y-76101570D01*
X67778806Y-75870447D01*
X67778805Y-75870445D01*
X67730000Y-75625084D01*
X67730000Y-75374916D01*
X67778805Y-75129555D01*
X67800493Y-75077195D01*
X67874540Y-74898430D01*
X67999769Y-74711013D01*
X68013527Y-74690422D01*
X68013528Y-74690421D01*
X68013530Y-74690418D01*
X68190418Y-74513530D01*
X68398430Y-74374540D01*
X68629553Y-74278806D01*
X68629552Y-74278806D01*
X68629555Y-74278805D01*
X68874916Y-74230000D01*
X69125084Y-74230000D01*
X69370445Y-74278805D01*
X69370445Y-74278805D01*
G37*
G36*
X72870445Y-72778805D02*
G01*
X72922805Y-72800493D01*
X73101570Y-72874540D01*
X73141134Y-72900976D01*
X73275746Y-72990921D01*
X73309582Y-73013530D01*
X73486470Y-73190418D01*
X73625460Y-73398430D01*
X73679456Y-73528789D01*
X73721195Y-73629555D01*
X73770000Y-73874916D01*
X73770000Y-74125084D01*
X73721195Y-74370445D01*
X73721194Y-74370447D01*
X73625460Y-74601570D01*
X73486470Y-74809582D01*
X73309582Y-74986470D01*
X73309579Y-74986472D01*
X73309578Y-74986473D01*
X73206292Y-75055486D01*
X73101570Y-75125460D01*
X72974724Y-75178001D01*
X72870445Y-75221195D01*
X72625084Y-75270000D01*
X72374916Y-75270000D01*
X72129555Y-75221195D01*
X72025276Y-75178001D01*
X71898430Y-75125460D01*
X71793708Y-75055486D01*
X71690422Y-74986473D01*
X71690421Y-74986472D01*
X71690418Y-74986470D01*
X71513530Y-74809582D01*
X71374540Y-74601570D01*
X71278806Y-74370447D01*
X71278805Y-74370445D01*
X71230000Y-74125084D01*
X71230000Y-73874916D01*
X71278805Y-73629555D01*
X71320544Y-73528789D01*
X71374540Y-73398430D01*
X71513530Y-73190418D01*
X71690418Y-73013530D01*
X71724255Y-72990921D01*
X71858866Y-72900976D01*
X71898430Y-72874540D01*
X72077195Y-72800493D01*
X72129555Y-72778805D01*
X72374916Y-72730000D01*
X72625084Y-72730000D01*
X72870445Y-72778805D01*
X72870445Y-72778805D01*
G37*
G36*
X66599024Y-74333934D02*
G01*
X66632933Y-74344220D01*
X66664196Y-74360930D01*
X66691589Y-74383411D01*
X66714070Y-74410804D01*
X66730780Y-74442067D01*
X66741066Y-74475976D01*
X66745000Y-74515921D01*
X66745000Y-75059079D01*
X66741066Y-75099024D01*
X66730780Y-75132933D01*
X66714070Y-75164196D01*
X66691589Y-75191589D01*
X66664196Y-75214070D01*
X66632933Y-75230780D01*
X66599024Y-75241066D01*
X66559079Y-75245000D01*
X65940921Y-75245000D01*
X65900976Y-75241066D01*
X65867067Y-75230780D01*
X65835804Y-75214070D01*
X65808411Y-75191589D01*
X65785930Y-75164196D01*
X65769220Y-75132933D01*
X65758934Y-75099024D01*
X65755000Y-75059079D01*
X65755000Y-74515921D01*
X65758934Y-74475976D01*
X65769220Y-74442067D01*
X65785930Y-74410804D01*
X65808411Y-74383411D01*
X65835804Y-74360930D01*
X65867067Y-74344220D01*
X65900976Y-74333934D01*
X65940921Y-74330000D01*
X66559079Y-74330000D01*
X66599024Y-74333934D01*
X66599024Y-74333934D01*
G37*
G36*
X64634361Y-72732613D02*
G01*
X64655373Y-72738987D01*
X64674747Y-72749343D01*
X64691724Y-72763276D01*
X64705657Y-72780253D01*
X64716013Y-72799627D01*
X64722387Y-72820639D01*
X64725000Y-72847171D01*
X64725000Y-74602829D01*
X64722387Y-74629361D01*
X64716013Y-74650373D01*
X64705657Y-74669747D01*
X64691724Y-74686724D01*
X64674747Y-74700657D01*
X64655373Y-74711013D01*
X64634361Y-74717387D01*
X64607829Y-74720000D01*
X64202171Y-74720000D01*
X64175639Y-74717387D01*
X64154627Y-74711013D01*
X64135253Y-74700657D01*
X64118276Y-74686724D01*
X64104343Y-74669747D01*
X64093987Y-74650373D01*
X64087613Y-74629361D01*
X64085000Y-74602829D01*
X64085000Y-72847171D01*
X64087613Y-72820639D01*
X64093987Y-72799627D01*
X64104343Y-72780253D01*
X64118276Y-72763276D01*
X64135253Y-72749343D01*
X64154627Y-72738987D01*
X64175639Y-72732613D01*
X64202171Y-72730000D01*
X64607829Y-72730000D01*
X64634361Y-72732613D01*
X64634361Y-72732613D01*
G37*
G36*
X63364361Y-72732613D02*
G01*
X63385373Y-72738987D01*
X63404747Y-72749343D01*
X63421724Y-72763276D01*
X63435657Y-72780253D01*
X63446013Y-72799627D01*
X63452387Y-72820639D01*
X63455000Y-72847171D01*
X63455000Y-74602829D01*
X63452387Y-74629361D01*
X63446013Y-74650373D01*
X63435657Y-74669747D01*
X63421724Y-74686724D01*
X63404747Y-74700657D01*
X63385373Y-74711013D01*
X63364361Y-74717387D01*
X63337829Y-74720000D01*
X62932171Y-74720000D01*
X62905639Y-74717387D01*
X62884627Y-74711013D01*
X62865253Y-74700657D01*
X62848276Y-74686724D01*
X62834343Y-74669747D01*
X62823987Y-74650373D01*
X62817613Y-74629361D01*
X62815000Y-74602829D01*
X62815000Y-72847171D01*
X62817613Y-72820639D01*
X62823987Y-72799627D01*
X62834343Y-72780253D01*
X62848276Y-72763276D01*
X62865253Y-72749343D01*
X62884627Y-72738987D01*
X62905639Y-72732613D01*
X62932171Y-72730000D01*
X63337829Y-72730000D01*
X63364361Y-72732613D01*
X63364361Y-72732613D01*
G37*
G36*
X62094361Y-72732613D02*
G01*
X62115373Y-72738987D01*
X62134747Y-72749343D01*
X62151724Y-72763276D01*
X62165657Y-72780253D01*
X62176013Y-72799627D01*
X62182387Y-72820639D01*
X62185000Y-72847171D01*
X62185000Y-74602829D01*
X62182387Y-74629361D01*
X62176013Y-74650373D01*
X62165657Y-74669747D01*
X62151724Y-74686724D01*
X62134747Y-74700657D01*
X62115373Y-74711013D01*
X62094361Y-74717387D01*
X62067829Y-74720000D01*
X61662171Y-74720000D01*
X61635639Y-74717387D01*
X61614627Y-74711013D01*
X61595253Y-74700657D01*
X61578276Y-74686724D01*
X61564343Y-74669747D01*
X61553987Y-74650373D01*
X61547613Y-74629361D01*
X61545000Y-74602829D01*
X61545000Y-72847171D01*
X61547613Y-72820639D01*
X61553987Y-72799627D01*
X61564343Y-72780253D01*
X61578276Y-72763276D01*
X61595253Y-72749343D01*
X61614627Y-72738987D01*
X61635639Y-72732613D01*
X61662171Y-72730000D01*
X62067829Y-72730000D01*
X62094361Y-72732613D01*
X62094361Y-72732613D01*
G37*
G36*
X60824361Y-72732613D02*
G01*
X60845373Y-72738987D01*
X60864747Y-72749343D01*
X60881724Y-72763276D01*
X60895657Y-72780253D01*
X60906013Y-72799627D01*
X60912387Y-72820639D01*
X60915000Y-72847171D01*
X60915000Y-74602829D01*
X60912387Y-74629361D01*
X60906013Y-74650373D01*
X60895657Y-74669747D01*
X60881724Y-74686724D01*
X60864747Y-74700657D01*
X60845373Y-74711013D01*
X60824361Y-74717387D01*
X60797829Y-74720000D01*
X60392171Y-74720000D01*
X60365639Y-74717387D01*
X60344627Y-74711013D01*
X60325253Y-74700657D01*
X60308276Y-74686724D01*
X60294343Y-74669747D01*
X60283987Y-74650373D01*
X60277613Y-74629361D01*
X60275000Y-74602829D01*
X60275000Y-72847171D01*
X60277613Y-72820639D01*
X60283987Y-72799627D01*
X60294343Y-72780253D01*
X60308276Y-72763276D01*
X60325253Y-72749343D01*
X60344627Y-72738987D01*
X60365639Y-72732613D01*
X60392171Y-72730000D01*
X60797829Y-72730000D01*
X60824361Y-72732613D01*
X60824361Y-72732613D01*
G37*
G36*
X56278901Y-72784414D02*
G01*
X56317502Y-72796124D01*
X56353080Y-72815141D01*
X56384266Y-72840734D01*
X56409859Y-72871920D01*
X56428876Y-72907498D01*
X56440586Y-72946099D01*
X56445000Y-72990921D01*
X56445000Y-74009079D01*
X56440586Y-74053901D01*
X56428876Y-74092502D01*
X56409859Y-74128080D01*
X56384266Y-74159266D01*
X56353080Y-74184859D01*
X56317502Y-74203876D01*
X56278901Y-74215586D01*
X56234079Y-74220000D01*
X55640921Y-74220000D01*
X55596099Y-74215586D01*
X55557498Y-74203876D01*
X55521920Y-74184859D01*
X55490734Y-74159266D01*
X55465141Y-74128080D01*
X55446124Y-74092502D01*
X55434414Y-74053901D01*
X55430000Y-74009079D01*
X55430000Y-72990921D01*
X55434414Y-72946099D01*
X55446124Y-72907498D01*
X55465141Y-72871920D01*
X55490734Y-72840734D01*
X55521920Y-72815141D01*
X55557498Y-72796124D01*
X55596099Y-72784414D01*
X55640921Y-72780000D01*
X56234079Y-72780000D01*
X56278901Y-72784414D01*
X56278901Y-72784414D01*
G37*
G36*
X54403901Y-72784414D02*
G01*
X54442502Y-72796124D01*
X54478080Y-72815141D01*
X54509266Y-72840734D01*
X54534859Y-72871920D01*
X54553876Y-72907498D01*
X54565586Y-72946099D01*
X54570000Y-72990921D01*
X54570000Y-74009079D01*
X54565586Y-74053901D01*
X54553876Y-74092502D01*
X54534859Y-74128080D01*
X54509266Y-74159266D01*
X54478080Y-74184859D01*
X54442502Y-74203876D01*
X54403901Y-74215586D01*
X54359079Y-74220000D01*
X53765921Y-74220000D01*
X53721099Y-74215586D01*
X53682498Y-74203876D01*
X53646920Y-74184859D01*
X53615734Y-74159266D01*
X53590141Y-74128080D01*
X53571124Y-74092502D01*
X53559414Y-74053901D01*
X53555000Y-74009079D01*
X53555000Y-72990921D01*
X53559414Y-72946099D01*
X53571124Y-72907498D01*
X53590141Y-72871920D01*
X53615734Y-72840734D01*
X53646920Y-72815141D01*
X53682498Y-72796124D01*
X53721099Y-72784414D01*
X53765921Y-72780000D01*
X54359079Y-72780000D01*
X54403901Y-72784414D01*
X54403901Y-72784414D01*
G37*
G36*
X66599024Y-72758934D02*
G01*
X66632933Y-72769220D01*
X66664196Y-72785930D01*
X66691589Y-72808411D01*
X66714070Y-72835804D01*
X66730780Y-72867067D01*
X66741066Y-72900976D01*
X66745000Y-72940921D01*
X66745000Y-73484079D01*
X66741066Y-73524024D01*
X66730780Y-73557933D01*
X66714070Y-73589196D01*
X66691589Y-73616589D01*
X66664196Y-73639070D01*
X66632933Y-73655780D01*
X66599024Y-73666066D01*
X66559079Y-73670000D01*
X65940921Y-73670000D01*
X65900976Y-73666066D01*
X65867067Y-73655780D01*
X65835804Y-73639070D01*
X65808411Y-73616589D01*
X65785930Y-73589196D01*
X65769220Y-73557933D01*
X65758934Y-73524024D01*
X65755000Y-73484079D01*
X65755000Y-72940921D01*
X65758934Y-72900976D01*
X65769220Y-72867067D01*
X65785930Y-72835804D01*
X65808411Y-72808411D01*
X65835804Y-72785930D01*
X65867067Y-72769220D01*
X65900976Y-72758934D01*
X65940921Y-72755000D01*
X66559079Y-72755000D01*
X66599024Y-72758934D01*
X66599024Y-72758934D01*
G37*
G36*
X69370445Y-70778805D02*
G01*
X69419963Y-70799316D01*
X69601570Y-70874540D01*
X69694515Y-70936644D01*
X69775963Y-70991066D01*
X69809582Y-71013530D01*
X69986470Y-71190418D01*
X70125460Y-71398430D01*
X70179958Y-71530000D01*
X70221195Y-71629555D01*
X70270000Y-71874916D01*
X70270000Y-72125084D01*
X70221195Y-72370445D01*
X70221194Y-72370447D01*
X70125460Y-72601570D01*
X70125459Y-72601571D01*
X69986685Y-72809261D01*
X69986470Y-72809582D01*
X69809582Y-72986470D01*
X69601570Y-73125460D01*
X69444747Y-73190418D01*
X69370445Y-73221195D01*
X69125084Y-73270000D01*
X68874916Y-73270000D01*
X68629555Y-73221195D01*
X68555253Y-73190418D01*
X68398430Y-73125460D01*
X68190418Y-72986470D01*
X68013530Y-72809582D01*
X68013316Y-72809261D01*
X67874541Y-72601571D01*
X67874540Y-72601570D01*
X67778806Y-72370447D01*
X67778805Y-72370445D01*
X67730000Y-72125084D01*
X67730000Y-71874916D01*
X67778805Y-71629555D01*
X67820042Y-71530000D01*
X67874540Y-71398430D01*
X68013530Y-71190418D01*
X68190418Y-71013530D01*
X68224038Y-70991066D01*
X68305485Y-70936644D01*
X68398430Y-70874540D01*
X68580037Y-70799316D01*
X68629555Y-70778805D01*
X68874916Y-70730000D01*
X69125084Y-70730000D01*
X69370445Y-70778805D01*
X69370445Y-70778805D01*
G37*
G36*
X44380016Y-71557669D02*
G01*
X44511048Y-71611944D01*
X44628973Y-71690739D01*
X44729261Y-71791027D01*
X44808056Y-71908952D01*
X44862331Y-72039984D01*
X44890000Y-72179086D01*
X44890000Y-72320914D01*
X44862331Y-72460016D01*
X44808056Y-72591048D01*
X44729261Y-72708973D01*
X44628973Y-72809261D01*
X44511048Y-72888056D01*
X44380016Y-72942331D01*
X44240914Y-72970000D01*
X44099086Y-72970000D01*
X43959984Y-72942331D01*
X43828952Y-72888056D01*
X43711027Y-72809261D01*
X43610739Y-72708973D01*
X43531944Y-72591048D01*
X43477669Y-72460016D01*
X43450000Y-72320914D01*
X43450000Y-72179086D01*
X43477669Y-72039984D01*
X43531944Y-71908952D01*
X43610739Y-71791027D01*
X43711027Y-71690739D01*
X43828952Y-71611944D01*
X43959984Y-71557669D01*
X44099086Y-71530000D01*
X44240914Y-71530000D01*
X44380016Y-71557669D01*
X44380016Y-71557669D01*
G37*
G36*
X49970000Y-72970000D02*
G01*
X48530000Y-72970000D01*
X48530000Y-71530000D01*
X49970000Y-71530000D01*
X49970000Y-72970000D01*
X49970000Y-72970000D01*
G37*
G36*
X39300016Y-71557669D02*
G01*
X39431048Y-71611944D01*
X39548973Y-71690739D01*
X39649261Y-71791027D01*
X39728056Y-71908952D01*
X39782331Y-72039984D01*
X39810000Y-72179086D01*
X39810000Y-72320914D01*
X39782331Y-72460016D01*
X39728056Y-72591048D01*
X39649261Y-72708973D01*
X39548973Y-72809261D01*
X39431048Y-72888056D01*
X39300016Y-72942331D01*
X39160914Y-72970000D01*
X39019086Y-72970000D01*
X38879984Y-72942331D01*
X38748952Y-72888056D01*
X38631027Y-72809261D01*
X38530739Y-72708973D01*
X38451944Y-72591048D01*
X38397669Y-72460016D01*
X38370000Y-72320914D01*
X38370000Y-72179086D01*
X38397669Y-72039984D01*
X38451944Y-71908952D01*
X38530739Y-71791027D01*
X38631027Y-71690739D01*
X38748952Y-71611944D01*
X38879984Y-71557669D01*
X39019086Y-71530000D01*
X39160914Y-71530000D01*
X39300016Y-71557669D01*
X39300016Y-71557669D01*
G37*
G36*
X34220016Y-71557669D02*
G01*
X34351048Y-71611944D01*
X34468973Y-71690739D01*
X34569261Y-71791027D01*
X34648056Y-71908952D01*
X34702331Y-72039984D01*
X34730000Y-72179086D01*
X34730000Y-72320914D01*
X34702331Y-72460016D01*
X34648056Y-72591048D01*
X34569261Y-72708973D01*
X34468973Y-72809261D01*
X34351048Y-72888056D01*
X34220016Y-72942331D01*
X34080914Y-72970000D01*
X33939086Y-72970000D01*
X33799984Y-72942331D01*
X33668952Y-72888056D01*
X33551027Y-72809261D01*
X33450739Y-72708973D01*
X33371944Y-72591048D01*
X33317669Y-72460016D01*
X33290000Y-72320914D01*
X33290000Y-72179086D01*
X33317669Y-72039984D01*
X33371944Y-71908952D01*
X33450739Y-71791027D01*
X33551027Y-71690739D01*
X33668952Y-71611944D01*
X33799984Y-71557669D01*
X33939086Y-71530000D01*
X34080914Y-71530000D01*
X34220016Y-71557669D01*
X34220016Y-71557669D01*
G37*
G36*
X80940748Y-71191865D02*
G01*
X80940750Y-71191866D01*
X80940753Y-71191866D01*
X81095315Y-71238752D01*
X81095318Y-71238754D01*
X81095319Y-71238754D01*
X81237772Y-71314896D01*
X81362633Y-71417367D01*
X81465104Y-71542228D01*
X81511781Y-71629555D01*
X81541248Y-71684685D01*
X81588134Y-71839247D01*
X81588134Y-71839250D01*
X81588135Y-71839252D01*
X81603967Y-72000000D01*
X81588135Y-72160748D01*
X81588134Y-72160750D01*
X81588134Y-72160753D01*
X81541248Y-72315315D01*
X81541246Y-72315318D01*
X81541246Y-72315319D01*
X81465104Y-72457772D01*
X81362633Y-72582633D01*
X81237772Y-72685104D01*
X81103328Y-72756965D01*
X81095315Y-72761248D01*
X80940753Y-72808134D01*
X80940750Y-72808134D01*
X80940748Y-72808135D01*
X80820278Y-72820000D01*
X79939722Y-72820000D01*
X79819252Y-72808135D01*
X79819250Y-72808134D01*
X79819247Y-72808134D01*
X79664685Y-72761248D01*
X79656672Y-72756965D01*
X79522228Y-72685104D01*
X79397367Y-72582633D01*
X79294896Y-72457772D01*
X79218754Y-72315319D01*
X79218754Y-72315318D01*
X79218752Y-72315315D01*
X79171866Y-72160753D01*
X79171866Y-72160750D01*
X79171865Y-72160748D01*
X79156033Y-72000000D01*
X79171865Y-71839252D01*
X79171866Y-71839250D01*
X79171866Y-71839247D01*
X79218752Y-71684685D01*
X79248219Y-71629555D01*
X79294896Y-71542228D01*
X79397367Y-71417367D01*
X79522228Y-71314896D01*
X79664681Y-71238754D01*
X79664682Y-71238754D01*
X79664685Y-71238752D01*
X79819247Y-71191866D01*
X79819250Y-71191866D01*
X79819252Y-71191865D01*
X79939722Y-71180000D01*
X80820278Y-71180000D01*
X80940748Y-71191865D01*
X80940748Y-71191865D01*
G37*
G36*
X89220000Y-72820000D02*
G01*
X86780000Y-72820000D01*
X86780000Y-71180000D01*
X89220000Y-71180000D01*
X89220000Y-72820000D01*
X89220000Y-72820000D01*
G37*
G36*
X54403901Y-70784414D02*
G01*
X54442502Y-70796124D01*
X54478080Y-70815141D01*
X54509266Y-70840734D01*
X54534859Y-70871920D01*
X54553876Y-70907498D01*
X54565586Y-70946099D01*
X54570000Y-70990921D01*
X54570000Y-72009079D01*
X54565586Y-72053901D01*
X54553876Y-72092502D01*
X54534859Y-72128080D01*
X54509266Y-72159266D01*
X54478080Y-72184859D01*
X54442502Y-72203876D01*
X54403901Y-72215586D01*
X54359079Y-72220000D01*
X53765921Y-72220000D01*
X53721099Y-72215586D01*
X53682498Y-72203876D01*
X53646920Y-72184859D01*
X53615734Y-72159266D01*
X53590141Y-72128080D01*
X53571124Y-72092502D01*
X53559414Y-72053901D01*
X53555000Y-72009079D01*
X53555000Y-70990921D01*
X53559414Y-70946099D01*
X53571124Y-70907498D01*
X53590141Y-70871920D01*
X53615734Y-70840734D01*
X53646920Y-70815141D01*
X53682498Y-70796124D01*
X53721099Y-70784414D01*
X53765921Y-70780000D01*
X54359079Y-70780000D01*
X54403901Y-70784414D01*
X54403901Y-70784414D01*
G37*
G36*
X56278901Y-70784414D02*
G01*
X56317502Y-70796124D01*
X56353080Y-70815141D01*
X56384266Y-70840734D01*
X56409859Y-70871920D01*
X56428876Y-70907498D01*
X56440586Y-70946099D01*
X56445000Y-70990921D01*
X56445000Y-72009079D01*
X56440586Y-72053901D01*
X56428876Y-72092502D01*
X56409859Y-72128080D01*
X56384266Y-72159266D01*
X56353080Y-72184859D01*
X56317502Y-72203876D01*
X56278901Y-72215586D01*
X56234079Y-72220000D01*
X55640921Y-72220000D01*
X55596099Y-72215586D01*
X55557498Y-72203876D01*
X55521920Y-72184859D01*
X55490734Y-72159266D01*
X55465141Y-72128080D01*
X55446124Y-72092502D01*
X55434414Y-72053901D01*
X55430000Y-72009079D01*
X55430000Y-70990921D01*
X55434414Y-70946099D01*
X55446124Y-70907498D01*
X55465141Y-70871920D01*
X55490734Y-70840734D01*
X55521920Y-70815141D01*
X55557498Y-70796124D01*
X55596099Y-70784414D01*
X55640921Y-70780000D01*
X56234079Y-70780000D01*
X56278901Y-70784414D01*
X56278901Y-70784414D01*
G37*
G36*
X59099024Y-70083934D02*
G01*
X59132933Y-70094220D01*
X59164196Y-70110930D01*
X59191589Y-70133411D01*
X59214070Y-70160804D01*
X59230780Y-70192067D01*
X59241066Y-70225976D01*
X59245000Y-70265921D01*
X59245000Y-70809079D01*
X59241066Y-70849024D01*
X59230780Y-70882933D01*
X59214070Y-70914196D01*
X59191589Y-70941589D01*
X59164196Y-70964070D01*
X59132933Y-70980780D01*
X59099024Y-70991066D01*
X59059079Y-70995000D01*
X58440921Y-70995000D01*
X58400976Y-70991066D01*
X58367067Y-70980780D01*
X58335804Y-70964070D01*
X58308411Y-70941589D01*
X58285930Y-70914196D01*
X58269220Y-70882933D01*
X58258934Y-70849024D01*
X58255000Y-70809079D01*
X58255000Y-70265921D01*
X58258934Y-70225976D01*
X58269220Y-70192067D01*
X58285930Y-70160804D01*
X58308411Y-70133411D01*
X58335804Y-70110930D01*
X58367067Y-70094220D01*
X58400976Y-70083934D01*
X58440921Y-70080000D01*
X59059079Y-70080000D01*
X59099024Y-70083934D01*
X59099024Y-70083934D01*
G37*
G36*
X77970000Y-70870000D02*
G01*
X77030000Y-70870000D01*
X77030000Y-70030000D01*
X77970000Y-70030000D01*
X77970000Y-70870000D01*
X77970000Y-70870000D01*
G37*
G36*
X88560748Y-68651865D02*
G01*
X88560750Y-68651866D01*
X88560753Y-68651866D01*
X88715315Y-68698752D01*
X88715318Y-68698754D01*
X88715319Y-68698754D01*
X88857772Y-68774896D01*
X88982633Y-68877367D01*
X89085104Y-69002228D01*
X89161246Y-69144681D01*
X89161248Y-69144685D01*
X89208134Y-69299247D01*
X89208134Y-69299250D01*
X89208135Y-69299252D01*
X89223967Y-69460000D01*
X89208135Y-69620748D01*
X89208134Y-69620750D01*
X89208134Y-69620753D01*
X89161248Y-69775315D01*
X89161246Y-69775318D01*
X89161246Y-69775319D01*
X89085104Y-69917772D01*
X88982633Y-70042633D01*
X88857772Y-70145104D01*
X88725908Y-70215586D01*
X88715315Y-70221248D01*
X88560753Y-70268134D01*
X88560750Y-70268134D01*
X88560748Y-70268135D01*
X88440278Y-70280000D01*
X87559722Y-70280000D01*
X87439252Y-70268135D01*
X87439250Y-70268134D01*
X87439247Y-70268134D01*
X87284685Y-70221248D01*
X87274092Y-70215586D01*
X87142228Y-70145104D01*
X87017367Y-70042633D01*
X86914896Y-69917772D01*
X86838754Y-69775319D01*
X86838754Y-69775318D01*
X86838752Y-69775315D01*
X86791866Y-69620753D01*
X86791866Y-69620750D01*
X86791865Y-69620748D01*
X86776033Y-69460000D01*
X86791865Y-69299252D01*
X86791866Y-69299250D01*
X86791866Y-69299247D01*
X86838752Y-69144685D01*
X86838754Y-69144681D01*
X86914896Y-69002228D01*
X87017367Y-68877367D01*
X87142228Y-68774896D01*
X87284681Y-68698754D01*
X87284682Y-68698754D01*
X87284685Y-68698752D01*
X87439247Y-68651866D01*
X87439250Y-68651866D01*
X87439252Y-68651865D01*
X87559722Y-68640000D01*
X88440278Y-68640000D01*
X88560748Y-68651865D01*
X88560748Y-68651865D01*
G37*
G36*
X80940748Y-68651865D02*
G01*
X80940750Y-68651866D01*
X80940753Y-68651866D01*
X81095315Y-68698752D01*
X81095318Y-68698754D01*
X81095319Y-68698754D01*
X81237772Y-68774896D01*
X81362633Y-68877367D01*
X81465104Y-69002228D01*
X81541246Y-69144681D01*
X81541248Y-69144685D01*
X81588134Y-69299247D01*
X81588134Y-69299250D01*
X81588135Y-69299252D01*
X81603967Y-69460000D01*
X81588135Y-69620748D01*
X81588134Y-69620750D01*
X81588134Y-69620753D01*
X81541248Y-69775315D01*
X81541246Y-69775318D01*
X81541246Y-69775319D01*
X81465104Y-69917772D01*
X81362633Y-70042633D01*
X81237772Y-70145104D01*
X81105908Y-70215586D01*
X81095315Y-70221248D01*
X80940753Y-70268134D01*
X80940750Y-70268134D01*
X80940748Y-70268135D01*
X80820278Y-70280000D01*
X79939722Y-70280000D01*
X79819252Y-70268135D01*
X79819250Y-70268134D01*
X79819247Y-70268134D01*
X79664685Y-70221248D01*
X79654092Y-70215586D01*
X79522228Y-70145104D01*
X79397367Y-70042633D01*
X79294896Y-69917772D01*
X79218754Y-69775319D01*
X79218754Y-69775318D01*
X79218752Y-69775315D01*
X79171866Y-69620753D01*
X79171866Y-69620750D01*
X79171865Y-69620748D01*
X79156033Y-69460000D01*
X79171865Y-69299252D01*
X79171866Y-69299250D01*
X79171866Y-69299247D01*
X79218752Y-69144685D01*
X79218754Y-69144681D01*
X79294896Y-69002228D01*
X79397367Y-68877367D01*
X79522228Y-68774896D01*
X79664681Y-68698754D01*
X79664682Y-68698754D01*
X79664685Y-68698752D01*
X79819247Y-68651866D01*
X79819250Y-68651866D01*
X79819252Y-68651865D01*
X79939722Y-68640000D01*
X80820278Y-68640000D01*
X80940748Y-68651865D01*
X80940748Y-68651865D01*
G37*
G36*
X73778901Y-68784414D02*
G01*
X73817502Y-68796124D01*
X73853080Y-68815141D01*
X73884266Y-68840734D01*
X73909859Y-68871920D01*
X73928876Y-68907498D01*
X73940586Y-68946099D01*
X73945000Y-68990921D01*
X73945000Y-70009079D01*
X73940586Y-70053901D01*
X73928876Y-70092502D01*
X73909859Y-70128080D01*
X73884266Y-70159266D01*
X73853080Y-70184859D01*
X73817502Y-70203876D01*
X73778901Y-70215586D01*
X73734079Y-70220000D01*
X73140921Y-70220000D01*
X73096099Y-70215586D01*
X73057498Y-70203876D01*
X73021920Y-70184859D01*
X72990734Y-70159266D01*
X72965141Y-70128080D01*
X72946124Y-70092502D01*
X72934414Y-70053901D01*
X72930000Y-70009079D01*
X72930000Y-68990921D01*
X72934414Y-68946099D01*
X72946124Y-68907498D01*
X72965141Y-68871920D01*
X72990734Y-68840734D01*
X73021920Y-68815141D01*
X73057498Y-68796124D01*
X73096099Y-68784414D01*
X73140921Y-68780000D01*
X73734079Y-68780000D01*
X73778901Y-68784414D01*
X73778901Y-68784414D01*
G37*
G36*
X54403901Y-68784414D02*
G01*
X54442502Y-68796124D01*
X54478080Y-68815141D01*
X54509266Y-68840734D01*
X54534859Y-68871920D01*
X54553876Y-68907498D01*
X54565586Y-68946099D01*
X54570000Y-68990921D01*
X54570000Y-70009079D01*
X54565586Y-70053901D01*
X54553876Y-70092502D01*
X54534859Y-70128080D01*
X54509266Y-70159266D01*
X54478080Y-70184859D01*
X54442502Y-70203876D01*
X54403901Y-70215586D01*
X54359079Y-70220000D01*
X53765921Y-70220000D01*
X53721099Y-70215586D01*
X53682498Y-70203876D01*
X53646920Y-70184859D01*
X53615734Y-70159266D01*
X53590141Y-70128080D01*
X53571124Y-70092502D01*
X53559414Y-70053901D01*
X53555000Y-70009079D01*
X53555000Y-68990921D01*
X53559414Y-68946099D01*
X53571124Y-68907498D01*
X53590141Y-68871920D01*
X53615734Y-68840734D01*
X53646920Y-68815141D01*
X53682498Y-68796124D01*
X53721099Y-68784414D01*
X53765921Y-68780000D01*
X54359079Y-68780000D01*
X54403901Y-68784414D01*
X54403901Y-68784414D01*
G37*
G36*
X56278901Y-68784414D02*
G01*
X56317502Y-68796124D01*
X56353080Y-68815141D01*
X56384266Y-68840734D01*
X56409859Y-68871920D01*
X56428876Y-68907498D01*
X56440586Y-68946099D01*
X56445000Y-68990921D01*
X56445000Y-70009079D01*
X56440586Y-70053901D01*
X56428876Y-70092502D01*
X56409859Y-70128080D01*
X56384266Y-70159266D01*
X56353080Y-70184859D01*
X56317502Y-70203876D01*
X56278901Y-70215586D01*
X56234079Y-70220000D01*
X55640921Y-70220000D01*
X55596099Y-70215586D01*
X55557498Y-70203876D01*
X55521920Y-70184859D01*
X55490734Y-70159266D01*
X55465141Y-70128080D01*
X55446124Y-70092502D01*
X55434414Y-70053901D01*
X55430000Y-70009079D01*
X55430000Y-68990921D01*
X55434414Y-68946099D01*
X55446124Y-68907498D01*
X55465141Y-68871920D01*
X55490734Y-68840734D01*
X55521920Y-68815141D01*
X55557498Y-68796124D01*
X55596099Y-68784414D01*
X55640921Y-68780000D01*
X56234079Y-68780000D01*
X56278901Y-68784414D01*
X56278901Y-68784414D01*
G37*
G36*
X71903901Y-68784414D02*
G01*
X71942502Y-68796124D01*
X71978080Y-68815141D01*
X72009266Y-68840734D01*
X72034859Y-68871920D01*
X72053876Y-68907498D01*
X72065586Y-68946099D01*
X72070000Y-68990921D01*
X72070000Y-70009079D01*
X72065586Y-70053901D01*
X72053876Y-70092502D01*
X72034859Y-70128080D01*
X72009266Y-70159266D01*
X71978080Y-70184859D01*
X71942502Y-70203876D01*
X71903901Y-70215586D01*
X71859079Y-70220000D01*
X71265921Y-70220000D01*
X71221099Y-70215586D01*
X71182498Y-70203876D01*
X71146920Y-70184859D01*
X71115734Y-70159266D01*
X71090141Y-70128080D01*
X71071124Y-70092502D01*
X71059414Y-70053901D01*
X71055000Y-70009079D01*
X71055000Y-68990921D01*
X71059414Y-68946099D01*
X71071124Y-68907498D01*
X71090141Y-68871920D01*
X71115734Y-68840734D01*
X71146920Y-68815141D01*
X71182498Y-68796124D01*
X71221099Y-68784414D01*
X71265921Y-68780000D01*
X71859079Y-68780000D01*
X71903901Y-68784414D01*
X71903901Y-68784414D01*
G37*
G36*
X75970000Y-69920000D02*
G01*
X75030000Y-69920000D01*
X75030000Y-69080000D01*
X75970000Y-69080000D01*
X75970000Y-69920000D01*
X75970000Y-69920000D01*
G37*
G36*
X60824361Y-67782613D02*
G01*
X60845373Y-67788987D01*
X60864747Y-67799343D01*
X60881724Y-67813276D01*
X60895657Y-67830253D01*
X60906013Y-67849627D01*
X60912387Y-67870639D01*
X60915000Y-67897171D01*
X60915000Y-69652829D01*
X60912387Y-69679361D01*
X60906013Y-69700373D01*
X60895657Y-69719747D01*
X60881724Y-69736724D01*
X60864747Y-69750657D01*
X60845373Y-69761013D01*
X60824361Y-69767387D01*
X60797829Y-69770000D01*
X60392171Y-69770000D01*
X60365639Y-69767387D01*
X60344627Y-69761013D01*
X60325253Y-69750657D01*
X60308276Y-69736724D01*
X60294343Y-69719747D01*
X60283987Y-69700373D01*
X60277613Y-69679361D01*
X60275000Y-69652829D01*
X60275000Y-67897171D01*
X60277613Y-67870639D01*
X60283987Y-67849627D01*
X60294343Y-67830253D01*
X60308276Y-67813276D01*
X60325253Y-67799343D01*
X60344627Y-67788987D01*
X60365639Y-67782613D01*
X60392171Y-67780000D01*
X60797829Y-67780000D01*
X60824361Y-67782613D01*
X60824361Y-67782613D01*
G37*
G36*
X62094361Y-67782613D02*
G01*
X62115373Y-67788987D01*
X62134747Y-67799343D01*
X62151724Y-67813276D01*
X62165657Y-67830253D01*
X62176013Y-67849627D01*
X62182387Y-67870639D01*
X62185000Y-67897171D01*
X62185000Y-69652829D01*
X62182387Y-69679361D01*
X62176013Y-69700373D01*
X62165657Y-69719747D01*
X62151724Y-69736724D01*
X62134747Y-69750657D01*
X62115373Y-69761013D01*
X62094361Y-69767387D01*
X62067829Y-69770000D01*
X61662171Y-69770000D01*
X61635639Y-69767387D01*
X61614627Y-69761013D01*
X61595253Y-69750657D01*
X61578276Y-69736724D01*
X61564343Y-69719747D01*
X61553987Y-69700373D01*
X61547613Y-69679361D01*
X61545000Y-69652829D01*
X61545000Y-67897171D01*
X61547613Y-67870639D01*
X61553987Y-67849627D01*
X61564343Y-67830253D01*
X61578276Y-67813276D01*
X61595253Y-67799343D01*
X61614627Y-67788987D01*
X61635639Y-67782613D01*
X61662171Y-67780000D01*
X62067829Y-67780000D01*
X62094361Y-67782613D01*
X62094361Y-67782613D01*
G37*
G36*
X64634361Y-67782613D02*
G01*
X64655373Y-67788987D01*
X64674747Y-67799343D01*
X64691724Y-67813276D01*
X64705657Y-67830253D01*
X64716013Y-67849627D01*
X64722387Y-67870639D01*
X64725000Y-67897171D01*
X64725000Y-69652829D01*
X64722387Y-69679361D01*
X64716013Y-69700373D01*
X64705657Y-69719747D01*
X64691724Y-69736724D01*
X64674747Y-69750657D01*
X64655373Y-69761013D01*
X64634361Y-69767387D01*
X64607829Y-69770000D01*
X64202171Y-69770000D01*
X64175639Y-69767387D01*
X64154627Y-69761013D01*
X64135253Y-69750657D01*
X64118276Y-69736724D01*
X64104343Y-69719747D01*
X64093987Y-69700373D01*
X64087613Y-69679361D01*
X64085000Y-69652829D01*
X64085000Y-67897171D01*
X64087613Y-67870639D01*
X64093987Y-67849627D01*
X64104343Y-67830253D01*
X64118276Y-67813276D01*
X64135253Y-67799343D01*
X64154627Y-67788987D01*
X64175639Y-67782613D01*
X64202171Y-67780000D01*
X64607829Y-67780000D01*
X64634361Y-67782613D01*
X64634361Y-67782613D01*
G37*
G36*
X63364361Y-67782613D02*
G01*
X63385373Y-67788987D01*
X63404747Y-67799343D01*
X63421724Y-67813276D01*
X63435657Y-67830253D01*
X63446013Y-67849627D01*
X63452387Y-67870639D01*
X63455000Y-67897171D01*
X63455000Y-69652829D01*
X63452387Y-69679361D01*
X63446013Y-69700373D01*
X63435657Y-69719747D01*
X63421724Y-69736724D01*
X63404747Y-69750657D01*
X63385373Y-69761013D01*
X63364361Y-69767387D01*
X63337829Y-69770000D01*
X62932171Y-69770000D01*
X62905639Y-69767387D01*
X62884627Y-69761013D01*
X62865253Y-69750657D01*
X62848276Y-69736724D01*
X62834343Y-69719747D01*
X62823987Y-69700373D01*
X62817613Y-69679361D01*
X62815000Y-69652829D01*
X62815000Y-67897171D01*
X62817613Y-67870639D01*
X62823987Y-67849627D01*
X62834343Y-67830253D01*
X62848276Y-67813276D01*
X62865253Y-67799343D01*
X62884627Y-67788987D01*
X62905639Y-67782613D01*
X62932171Y-67780000D01*
X63337829Y-67780000D01*
X63364361Y-67782613D01*
X63364361Y-67782613D01*
G37*
G36*
X59099024Y-68508934D02*
G01*
X59132933Y-68519220D01*
X59164196Y-68535930D01*
X59191589Y-68558411D01*
X59214070Y-68585804D01*
X59230780Y-68617067D01*
X59241066Y-68650976D01*
X59245000Y-68690921D01*
X59245000Y-69234079D01*
X59241066Y-69274024D01*
X59230780Y-69307933D01*
X59214070Y-69339196D01*
X59191589Y-69366589D01*
X59164196Y-69389070D01*
X59132933Y-69405780D01*
X59099024Y-69416066D01*
X59059079Y-69420000D01*
X58440921Y-69420000D01*
X58400976Y-69416066D01*
X58367067Y-69405780D01*
X58335804Y-69389070D01*
X58308411Y-69366589D01*
X58285930Y-69339196D01*
X58269220Y-69307933D01*
X58258934Y-69274024D01*
X58255000Y-69234079D01*
X58255000Y-68690921D01*
X58258934Y-68650976D01*
X58269220Y-68617067D01*
X58285930Y-68585804D01*
X58308411Y-68558411D01*
X58335804Y-68535930D01*
X58367067Y-68519220D01*
X58400976Y-68508934D01*
X58440921Y-68505000D01*
X59059079Y-68505000D01*
X59099024Y-68508934D01*
X59099024Y-68508934D01*
G37*
G36*
X77970000Y-68970000D02*
G01*
X77030000Y-68970000D01*
X77030000Y-68130000D01*
X77970000Y-68130000D01*
X77970000Y-68970000D01*
X77970000Y-68970000D01*
G37*
G36*
X80940748Y-66111865D02*
G01*
X80940750Y-66111866D01*
X80940753Y-66111866D01*
X81095315Y-66158752D01*
X81095318Y-66158754D01*
X81095319Y-66158754D01*
X81237772Y-66234896D01*
X81237774Y-66234897D01*
X81237773Y-66234897D01*
X81362633Y-66337367D01*
X81465103Y-66462227D01*
X81541248Y-66604685D01*
X81588134Y-66759247D01*
X81588134Y-66759250D01*
X81588135Y-66759252D01*
X81603967Y-66920000D01*
X81588135Y-67080748D01*
X81588134Y-67080750D01*
X81588134Y-67080753D01*
X81541248Y-67235315D01*
X81541246Y-67235318D01*
X81541246Y-67235319D01*
X81465104Y-67377772D01*
X81362633Y-67502633D01*
X81237772Y-67605104D01*
X81095319Y-67681246D01*
X81095315Y-67681248D01*
X80940753Y-67728134D01*
X80940750Y-67728134D01*
X80940748Y-67728135D01*
X80820278Y-67740000D01*
X79939722Y-67740000D01*
X79819252Y-67728135D01*
X79819250Y-67728134D01*
X79819247Y-67728134D01*
X79664685Y-67681248D01*
X79664681Y-67681246D01*
X79522228Y-67605104D01*
X79397367Y-67502633D01*
X79294896Y-67377772D01*
X79218754Y-67235319D01*
X79218754Y-67235318D01*
X79218752Y-67235315D01*
X79171866Y-67080753D01*
X79171866Y-67080750D01*
X79171865Y-67080748D01*
X79156033Y-66920000D01*
X79171865Y-66759252D01*
X79171866Y-66759250D01*
X79171866Y-66759247D01*
X79218752Y-66604685D01*
X79294897Y-66462227D01*
X79397367Y-66337367D01*
X79522227Y-66234897D01*
X79522226Y-66234897D01*
X79522228Y-66234896D01*
X79664681Y-66158754D01*
X79664682Y-66158754D01*
X79664685Y-66158752D01*
X79819247Y-66111866D01*
X79819250Y-66111866D01*
X79819252Y-66111865D01*
X79939722Y-66100000D01*
X80820278Y-66100000D01*
X80940748Y-66111865D01*
X80940748Y-66111865D01*
G37*
G36*
X88560748Y-66111865D02*
G01*
X88560750Y-66111866D01*
X88560753Y-66111866D01*
X88715315Y-66158752D01*
X88715318Y-66158754D01*
X88715319Y-66158754D01*
X88857772Y-66234896D01*
X88857774Y-66234897D01*
X88857773Y-66234897D01*
X88982633Y-66337367D01*
X89085103Y-66462227D01*
X89161248Y-66604685D01*
X89208134Y-66759247D01*
X89208134Y-66759250D01*
X89208135Y-66759252D01*
X89223967Y-66920000D01*
X89208135Y-67080748D01*
X89208134Y-67080750D01*
X89208134Y-67080753D01*
X89161248Y-67235315D01*
X89161246Y-67235318D01*
X89161246Y-67235319D01*
X89085104Y-67377772D01*
X88982633Y-67502633D01*
X88857772Y-67605104D01*
X88715319Y-67681246D01*
X88715315Y-67681248D01*
X88560753Y-67728134D01*
X88560750Y-67728134D01*
X88560748Y-67728135D01*
X88440278Y-67740000D01*
X87559722Y-67740000D01*
X87439252Y-67728135D01*
X87439250Y-67728134D01*
X87439247Y-67728134D01*
X87284685Y-67681248D01*
X87284681Y-67681246D01*
X87142228Y-67605104D01*
X87017367Y-67502633D01*
X86914896Y-67377772D01*
X86838754Y-67235319D01*
X86838754Y-67235318D01*
X86838752Y-67235315D01*
X86791866Y-67080753D01*
X86791866Y-67080750D01*
X86791865Y-67080748D01*
X86776033Y-66920000D01*
X86791865Y-66759252D01*
X86791866Y-66759250D01*
X86791866Y-66759247D01*
X86838752Y-66604685D01*
X86914897Y-66462227D01*
X87017367Y-66337367D01*
X87142227Y-66234897D01*
X87142226Y-66234897D01*
X87142228Y-66234896D01*
X87284681Y-66158754D01*
X87284682Y-66158754D01*
X87284685Y-66158752D01*
X87439247Y-66111866D01*
X87439250Y-66111866D01*
X87439252Y-66111865D01*
X87559722Y-66100000D01*
X88440278Y-66100000D01*
X88560748Y-66111865D01*
X88560748Y-66111865D01*
G37*
G36*
X61778901Y-65784414D02*
G01*
X61817502Y-65796124D01*
X61853080Y-65815141D01*
X61884266Y-65840734D01*
X61909859Y-65871920D01*
X61928876Y-65907498D01*
X61940586Y-65946099D01*
X61945000Y-65990921D01*
X61945000Y-67009079D01*
X61940586Y-67053901D01*
X61928876Y-67092502D01*
X61909859Y-67128080D01*
X61884266Y-67159266D01*
X61853080Y-67184859D01*
X61817502Y-67203876D01*
X61778901Y-67215586D01*
X61734079Y-67220000D01*
X61140921Y-67220000D01*
X61096099Y-67215586D01*
X61057498Y-67203876D01*
X61021920Y-67184859D01*
X60990734Y-67159266D01*
X60965141Y-67128080D01*
X60946124Y-67092502D01*
X60934414Y-67053901D01*
X60930000Y-67009079D01*
X60930000Y-65990921D01*
X60934414Y-65946099D01*
X60946124Y-65907498D01*
X60965141Y-65871920D01*
X60990734Y-65840734D01*
X61021920Y-65815141D01*
X61057498Y-65796124D01*
X61096099Y-65784414D01*
X61140921Y-65780000D01*
X61734079Y-65780000D01*
X61778901Y-65784414D01*
X61778901Y-65784414D01*
G37*
G36*
X63403901Y-65784414D02*
G01*
X63442502Y-65796124D01*
X63478080Y-65815141D01*
X63509266Y-65840734D01*
X63534859Y-65871920D01*
X63553876Y-65907498D01*
X63565586Y-65946099D01*
X63570000Y-65990921D01*
X63570000Y-67009079D01*
X63565586Y-67053901D01*
X63553876Y-67092502D01*
X63534859Y-67128080D01*
X63509266Y-67159266D01*
X63478080Y-67184859D01*
X63442502Y-67203876D01*
X63403901Y-67215586D01*
X63359079Y-67220000D01*
X62765921Y-67220000D01*
X62721099Y-67215586D01*
X62682498Y-67203876D01*
X62646920Y-67184859D01*
X62615734Y-67159266D01*
X62590141Y-67128080D01*
X62571124Y-67092502D01*
X62559414Y-67053901D01*
X62555000Y-67009079D01*
X62555000Y-65990921D01*
X62559414Y-65946099D01*
X62571124Y-65907498D01*
X62590141Y-65871920D01*
X62615734Y-65840734D01*
X62646920Y-65815141D01*
X62682498Y-65796124D01*
X62721099Y-65784414D01*
X62765921Y-65780000D01*
X63359079Y-65780000D01*
X63403901Y-65784414D01*
X63403901Y-65784414D01*
G37*
G36*
X65278901Y-65784414D02*
G01*
X65317502Y-65796124D01*
X65353080Y-65815141D01*
X65384266Y-65840734D01*
X65409859Y-65871920D01*
X65428876Y-65907498D01*
X65440586Y-65946099D01*
X65445000Y-65990921D01*
X65445000Y-67009079D01*
X65440586Y-67053901D01*
X65428876Y-67092502D01*
X65409859Y-67128080D01*
X65384266Y-67159266D01*
X65353080Y-67184859D01*
X65317502Y-67203876D01*
X65278901Y-67215586D01*
X65234079Y-67220000D01*
X64640921Y-67220000D01*
X64596099Y-67215586D01*
X64557498Y-67203876D01*
X64521920Y-67184859D01*
X64490734Y-67159266D01*
X64465141Y-67128080D01*
X64446124Y-67092502D01*
X64434414Y-67053901D01*
X64430000Y-67009079D01*
X64430000Y-65990921D01*
X64434414Y-65946099D01*
X64446124Y-65907498D01*
X64465141Y-65871920D01*
X64490734Y-65840734D01*
X64521920Y-65815141D01*
X64557498Y-65796124D01*
X64596099Y-65784414D01*
X64640921Y-65780000D01*
X65234079Y-65780000D01*
X65278901Y-65784414D01*
X65278901Y-65784414D01*
G37*
G36*
X59903901Y-65784414D02*
G01*
X59942502Y-65796124D01*
X59978080Y-65815141D01*
X60009266Y-65840734D01*
X60034859Y-65871920D01*
X60053876Y-65907498D01*
X60065586Y-65946099D01*
X60070000Y-65990921D01*
X60070000Y-67009079D01*
X60065586Y-67053901D01*
X60053876Y-67092502D01*
X60034859Y-67128080D01*
X60009266Y-67159266D01*
X59978080Y-67184859D01*
X59942502Y-67203876D01*
X59903901Y-67215586D01*
X59859079Y-67220000D01*
X59265921Y-67220000D01*
X59221099Y-67215586D01*
X59182498Y-67203876D01*
X59146920Y-67184859D01*
X59115734Y-67159266D01*
X59090141Y-67128080D01*
X59071124Y-67092502D01*
X59059414Y-67053901D01*
X59055000Y-67009079D01*
X59055000Y-65990921D01*
X59059414Y-65946099D01*
X59071124Y-65907498D01*
X59090141Y-65871920D01*
X59115734Y-65840734D01*
X59146920Y-65815141D01*
X59182498Y-65796124D01*
X59221099Y-65784414D01*
X59265921Y-65780000D01*
X59859079Y-65780000D01*
X59903901Y-65784414D01*
X59903901Y-65784414D01*
G37*
G36*
X56278901Y-65784414D02*
G01*
X56317502Y-65796124D01*
X56353080Y-65815141D01*
X56384266Y-65840734D01*
X56409859Y-65871920D01*
X56428876Y-65907498D01*
X56440586Y-65946099D01*
X56445000Y-65990921D01*
X56445000Y-67009079D01*
X56440586Y-67053901D01*
X56428876Y-67092502D01*
X56409859Y-67128080D01*
X56384266Y-67159266D01*
X56353080Y-67184859D01*
X56317502Y-67203876D01*
X56278901Y-67215586D01*
X56234079Y-67220000D01*
X55640921Y-67220000D01*
X55596099Y-67215586D01*
X55557498Y-67203876D01*
X55521920Y-67184859D01*
X55490734Y-67159266D01*
X55465141Y-67128080D01*
X55446124Y-67092502D01*
X55434414Y-67053901D01*
X55430000Y-67009079D01*
X55430000Y-65990921D01*
X55434414Y-65946099D01*
X55446124Y-65907498D01*
X55465141Y-65871920D01*
X55490734Y-65840734D01*
X55521920Y-65815141D01*
X55557498Y-65796124D01*
X55596099Y-65784414D01*
X55640921Y-65780000D01*
X56234079Y-65780000D01*
X56278901Y-65784414D01*
X56278901Y-65784414D01*
G37*
G36*
X54403901Y-65784414D02*
G01*
X54442502Y-65796124D01*
X54478080Y-65815141D01*
X54509266Y-65840734D01*
X54534859Y-65871920D01*
X54553876Y-65907498D01*
X54565586Y-65946099D01*
X54570000Y-65990921D01*
X54570000Y-67009079D01*
X54565586Y-67053901D01*
X54553876Y-67092502D01*
X54534859Y-67128080D01*
X54509266Y-67159266D01*
X54478080Y-67184859D01*
X54442502Y-67203876D01*
X54403901Y-67215586D01*
X54359079Y-67220000D01*
X53765921Y-67220000D01*
X53721099Y-67215586D01*
X53682498Y-67203876D01*
X53646920Y-67184859D01*
X53615734Y-67159266D01*
X53590141Y-67128080D01*
X53571124Y-67092502D01*
X53559414Y-67053901D01*
X53555000Y-67009079D01*
X53555000Y-65990921D01*
X53559414Y-65946099D01*
X53571124Y-65907498D01*
X53590141Y-65871920D01*
X53615734Y-65840734D01*
X53646920Y-65815141D01*
X53682498Y-65796124D01*
X53721099Y-65784414D01*
X53765921Y-65780000D01*
X54359079Y-65780000D01*
X54403901Y-65784414D01*
X54403901Y-65784414D01*
G37*
G36*
X34220016Y-64807669D02*
G01*
X34351048Y-64861944D01*
X34468973Y-64940739D01*
X34569261Y-65041027D01*
X34648056Y-65158952D01*
X34702331Y-65289984D01*
X34730000Y-65429086D01*
X34730000Y-65570914D01*
X34702331Y-65710016D01*
X34648056Y-65841048D01*
X34569261Y-65958973D01*
X34468973Y-66059261D01*
X34351048Y-66138056D01*
X34220016Y-66192331D01*
X34080914Y-66220000D01*
X33939086Y-66220000D01*
X33799984Y-66192331D01*
X33668952Y-66138056D01*
X33551027Y-66059261D01*
X33450739Y-65958973D01*
X33371944Y-65841048D01*
X33317669Y-65710016D01*
X33290000Y-65570914D01*
X33290000Y-65429086D01*
X33317669Y-65289984D01*
X33371944Y-65158952D01*
X33450739Y-65041027D01*
X33551027Y-64940739D01*
X33668952Y-64861944D01*
X33799984Y-64807669D01*
X33939086Y-64780000D01*
X34080914Y-64780000D01*
X34220016Y-64807669D01*
X34220016Y-64807669D01*
G37*
G36*
X39300016Y-64807669D02*
G01*
X39431048Y-64861944D01*
X39548973Y-64940739D01*
X39649261Y-65041027D01*
X39728056Y-65158952D01*
X39782331Y-65289984D01*
X39810000Y-65429086D01*
X39810000Y-65570914D01*
X39782331Y-65710016D01*
X39728056Y-65841048D01*
X39649261Y-65958973D01*
X39548973Y-66059261D01*
X39431048Y-66138056D01*
X39300016Y-66192331D01*
X39160914Y-66220000D01*
X39019086Y-66220000D01*
X38879984Y-66192331D01*
X38748952Y-66138056D01*
X38631027Y-66059261D01*
X38530739Y-65958973D01*
X38451944Y-65841048D01*
X38397669Y-65710016D01*
X38370000Y-65570914D01*
X38370000Y-65429086D01*
X38397669Y-65289984D01*
X38451944Y-65158952D01*
X38530739Y-65041027D01*
X38631027Y-64940739D01*
X38748952Y-64861944D01*
X38879984Y-64807669D01*
X39019086Y-64780000D01*
X39160914Y-64780000D01*
X39300016Y-64807669D01*
X39300016Y-64807669D01*
G37*
G36*
X44380016Y-64807669D02*
G01*
X44511048Y-64861944D01*
X44628973Y-64940739D01*
X44729261Y-65041027D01*
X44808056Y-65158952D01*
X44862331Y-65289984D01*
X44890000Y-65429086D01*
X44890000Y-65570914D01*
X44862331Y-65710016D01*
X44808056Y-65841048D01*
X44729261Y-65958973D01*
X44628973Y-66059261D01*
X44511048Y-66138056D01*
X44380016Y-66192331D01*
X44240914Y-66220000D01*
X44099086Y-66220000D01*
X43959984Y-66192331D01*
X43828952Y-66138056D01*
X43711027Y-66059261D01*
X43610739Y-65958973D01*
X43531944Y-65841048D01*
X43477669Y-65710016D01*
X43450000Y-65570914D01*
X43450000Y-65429086D01*
X43477669Y-65289984D01*
X43531944Y-65158952D01*
X43610739Y-65041027D01*
X43711027Y-64940739D01*
X43828952Y-64861944D01*
X43959984Y-64807669D01*
X44099086Y-64780000D01*
X44240914Y-64780000D01*
X44380016Y-64807669D01*
X44380016Y-64807669D01*
G37*
G36*
X49970000Y-66220000D02*
G01*
X48530000Y-66220000D01*
X48530000Y-64780000D01*
X49970000Y-64780000D01*
X49970000Y-66220000D01*
X49970000Y-66220000D01*
G37*
G36*
X54403901Y-63784414D02*
G01*
X54442502Y-63796124D01*
X54478080Y-63815141D01*
X54509266Y-63840734D01*
X54534859Y-63871920D01*
X54553876Y-63907498D01*
X54565586Y-63946099D01*
X54570000Y-63990921D01*
X54570000Y-65009079D01*
X54565586Y-65053901D01*
X54553876Y-65092502D01*
X54534859Y-65128080D01*
X54509266Y-65159266D01*
X54478080Y-65184859D01*
X54442502Y-65203876D01*
X54403901Y-65215586D01*
X54359079Y-65220000D01*
X53765921Y-65220000D01*
X53721099Y-65215586D01*
X53682498Y-65203876D01*
X53646920Y-65184859D01*
X53615734Y-65159266D01*
X53590141Y-65128080D01*
X53571124Y-65092502D01*
X53559414Y-65053901D01*
X53555000Y-65009079D01*
X53555000Y-63990921D01*
X53559414Y-63946099D01*
X53571124Y-63907498D01*
X53590141Y-63871920D01*
X53615734Y-63840734D01*
X53646920Y-63815141D01*
X53682498Y-63796124D01*
X53721099Y-63784414D01*
X53765921Y-63780000D01*
X54359079Y-63780000D01*
X54403901Y-63784414D01*
X54403901Y-63784414D01*
G37*
G36*
X56278901Y-63784414D02*
G01*
X56317502Y-63796124D01*
X56353080Y-63815141D01*
X56384266Y-63840734D01*
X56409859Y-63871920D01*
X56428876Y-63907498D01*
X56440586Y-63946099D01*
X56445000Y-63990921D01*
X56445000Y-65009079D01*
X56440586Y-65053901D01*
X56428876Y-65092502D01*
X56409859Y-65128080D01*
X56384266Y-65159266D01*
X56353080Y-65184859D01*
X56317502Y-65203876D01*
X56278901Y-65215586D01*
X56234079Y-65220000D01*
X55640921Y-65220000D01*
X55596099Y-65215586D01*
X55557498Y-65203876D01*
X55521920Y-65184859D01*
X55490734Y-65159266D01*
X55465141Y-65128080D01*
X55446124Y-65092502D01*
X55434414Y-65053901D01*
X55430000Y-65009079D01*
X55430000Y-63990921D01*
X55434414Y-63946099D01*
X55446124Y-63907498D01*
X55465141Y-63871920D01*
X55490734Y-63840734D01*
X55521920Y-63815141D01*
X55557498Y-63796124D01*
X55596099Y-63784414D01*
X55640921Y-63780000D01*
X56234079Y-63780000D01*
X56278901Y-63784414D01*
X56278901Y-63784414D01*
G37*
G36*
X61778901Y-63784414D02*
G01*
X61817502Y-63796124D01*
X61853080Y-63815141D01*
X61884266Y-63840734D01*
X61909859Y-63871920D01*
X61928876Y-63907498D01*
X61940586Y-63946099D01*
X61945000Y-63990921D01*
X61945000Y-65009079D01*
X61940586Y-65053901D01*
X61928876Y-65092502D01*
X61909859Y-65128080D01*
X61884266Y-65159266D01*
X61853080Y-65184859D01*
X61817502Y-65203876D01*
X61778901Y-65215586D01*
X61734079Y-65220000D01*
X61140921Y-65220000D01*
X61096099Y-65215586D01*
X61057498Y-65203876D01*
X61021920Y-65184859D01*
X60990734Y-65159266D01*
X60965141Y-65128080D01*
X60946124Y-65092502D01*
X60934414Y-65053901D01*
X60930000Y-65009079D01*
X60930000Y-63990921D01*
X60934414Y-63946099D01*
X60946124Y-63907498D01*
X60965141Y-63871920D01*
X60990734Y-63840734D01*
X61021920Y-63815141D01*
X61057498Y-63796124D01*
X61096099Y-63784414D01*
X61140921Y-63780000D01*
X61734079Y-63780000D01*
X61778901Y-63784414D01*
X61778901Y-63784414D01*
G37*
G36*
X59903901Y-63784414D02*
G01*
X59942502Y-63796124D01*
X59978080Y-63815141D01*
X60009266Y-63840734D01*
X60034859Y-63871920D01*
X60053876Y-63907498D01*
X60065586Y-63946099D01*
X60070000Y-63990921D01*
X60070000Y-65009079D01*
X60065586Y-65053901D01*
X60053876Y-65092502D01*
X60034859Y-65128080D01*
X60009266Y-65159266D01*
X59978080Y-65184859D01*
X59942502Y-65203876D01*
X59903901Y-65215586D01*
X59859079Y-65220000D01*
X59265921Y-65220000D01*
X59221099Y-65215586D01*
X59182498Y-65203876D01*
X59146920Y-65184859D01*
X59115734Y-65159266D01*
X59090141Y-65128080D01*
X59071124Y-65092502D01*
X59059414Y-65053901D01*
X59055000Y-65009079D01*
X59055000Y-63990921D01*
X59059414Y-63946099D01*
X59071124Y-63907498D01*
X59090141Y-63871920D01*
X59115734Y-63840734D01*
X59146920Y-63815141D01*
X59182498Y-63796124D01*
X59221099Y-63784414D01*
X59265921Y-63780000D01*
X59859079Y-63780000D01*
X59903901Y-63784414D01*
X59903901Y-63784414D01*
G37*
G36*
X80940748Y-63571865D02*
G01*
X80940750Y-63571866D01*
X80940753Y-63571866D01*
X81095315Y-63618752D01*
X81095318Y-63618754D01*
X81095319Y-63618754D01*
X81237772Y-63694896D01*
X81237774Y-63694897D01*
X81237773Y-63694897D01*
X81362633Y-63797367D01*
X81465103Y-63922227D01*
X81541248Y-64064685D01*
X81588134Y-64219247D01*
X81588134Y-64219250D01*
X81588135Y-64219252D01*
X81603967Y-64380000D01*
X81588135Y-64540748D01*
X81588134Y-64540750D01*
X81588134Y-64540753D01*
X81541248Y-64695315D01*
X81541246Y-64695318D01*
X81541246Y-64695319D01*
X81465104Y-64837772D01*
X81362633Y-64962633D01*
X81237772Y-65065104D01*
X81119951Y-65128080D01*
X81095315Y-65141248D01*
X80940753Y-65188134D01*
X80940750Y-65188134D01*
X80940748Y-65188135D01*
X80820278Y-65200000D01*
X79939722Y-65200000D01*
X79819252Y-65188135D01*
X79819250Y-65188134D01*
X79819247Y-65188134D01*
X79664685Y-65141248D01*
X79640049Y-65128080D01*
X79522228Y-65065104D01*
X79397367Y-64962633D01*
X79294896Y-64837772D01*
X79218754Y-64695319D01*
X79218754Y-64695318D01*
X79218752Y-64695315D01*
X79171866Y-64540753D01*
X79171866Y-64540750D01*
X79171865Y-64540748D01*
X79156033Y-64380000D01*
X79171865Y-64219252D01*
X79171866Y-64219250D01*
X79171866Y-64219247D01*
X79218752Y-64064685D01*
X79294897Y-63922227D01*
X79397367Y-63797367D01*
X79522227Y-63694897D01*
X79522226Y-63694897D01*
X79522228Y-63694896D01*
X79664681Y-63618754D01*
X79664682Y-63618754D01*
X79664685Y-63618752D01*
X79819247Y-63571866D01*
X79819250Y-63571866D01*
X79819252Y-63571865D01*
X79939722Y-63560000D01*
X80820278Y-63560000D01*
X80940748Y-63571865D01*
X80940748Y-63571865D01*
G37*
G36*
X88560748Y-63571865D02*
G01*
X88560750Y-63571866D01*
X88560753Y-63571866D01*
X88715315Y-63618752D01*
X88715318Y-63618754D01*
X88715319Y-63618754D01*
X88857772Y-63694896D01*
X88857774Y-63694897D01*
X88857773Y-63694897D01*
X88982633Y-63797367D01*
X89085103Y-63922227D01*
X89161248Y-64064685D01*
X89208134Y-64219247D01*
X89208134Y-64219250D01*
X89208135Y-64219252D01*
X89223967Y-64380000D01*
X89208135Y-64540748D01*
X89208134Y-64540750D01*
X89208134Y-64540753D01*
X89161248Y-64695315D01*
X89161246Y-64695318D01*
X89161246Y-64695319D01*
X89085104Y-64837772D01*
X88982633Y-64962633D01*
X88857772Y-65065104D01*
X88739951Y-65128080D01*
X88715315Y-65141248D01*
X88560753Y-65188134D01*
X88560750Y-65188134D01*
X88560748Y-65188135D01*
X88440278Y-65200000D01*
X87559722Y-65200000D01*
X87439252Y-65188135D01*
X87439250Y-65188134D01*
X87439247Y-65188134D01*
X87284685Y-65141248D01*
X87260049Y-65128080D01*
X87142228Y-65065104D01*
X87017367Y-64962633D01*
X86914896Y-64837772D01*
X86838754Y-64695319D01*
X86838754Y-64695318D01*
X86838752Y-64695315D01*
X86791866Y-64540753D01*
X86791866Y-64540750D01*
X86791865Y-64540748D01*
X86776033Y-64380000D01*
X86791865Y-64219252D01*
X86791866Y-64219250D01*
X86791866Y-64219247D01*
X86838752Y-64064685D01*
X86914897Y-63922227D01*
X87017367Y-63797367D01*
X87142227Y-63694897D01*
X87142226Y-63694897D01*
X87142228Y-63694896D01*
X87284681Y-63618754D01*
X87284682Y-63618754D01*
X87284685Y-63618752D01*
X87439247Y-63571866D01*
X87439250Y-63571866D01*
X87439252Y-63571865D01*
X87559722Y-63560000D01*
X88440278Y-63560000D01*
X88560748Y-63571865D01*
X88560748Y-63571865D01*
G37*
G36*
X59903901Y-61784414D02*
G01*
X59942502Y-61796124D01*
X59978080Y-61815141D01*
X60009266Y-61840734D01*
X60034859Y-61871920D01*
X60053876Y-61907498D01*
X60065586Y-61946099D01*
X60070000Y-61990921D01*
X60070000Y-63009079D01*
X60065586Y-63053901D01*
X60053876Y-63092502D01*
X60034859Y-63128080D01*
X60009266Y-63159266D01*
X59978080Y-63184859D01*
X59942502Y-63203876D01*
X59903901Y-63215586D01*
X59859079Y-63220000D01*
X59265921Y-63220000D01*
X59221099Y-63215586D01*
X59182498Y-63203876D01*
X59146920Y-63184859D01*
X59115734Y-63159266D01*
X59090141Y-63128080D01*
X59071124Y-63092502D01*
X59059414Y-63053901D01*
X59055000Y-63009079D01*
X59055000Y-61990921D01*
X59059414Y-61946099D01*
X59071124Y-61907498D01*
X59090141Y-61871920D01*
X59115734Y-61840734D01*
X59146920Y-61815141D01*
X59182498Y-61796124D01*
X59221099Y-61784414D01*
X59265921Y-61780000D01*
X59859079Y-61780000D01*
X59903901Y-61784414D01*
X59903901Y-61784414D01*
G37*
G36*
X61778901Y-61784414D02*
G01*
X61817502Y-61796124D01*
X61853080Y-61815141D01*
X61884266Y-61840734D01*
X61909859Y-61871920D01*
X61928876Y-61907498D01*
X61940586Y-61946099D01*
X61945000Y-61990921D01*
X61945000Y-63009079D01*
X61940586Y-63053901D01*
X61928876Y-63092502D01*
X61909859Y-63128080D01*
X61884266Y-63159266D01*
X61853080Y-63184859D01*
X61817502Y-63203876D01*
X61778901Y-63215586D01*
X61734079Y-63220000D01*
X61140921Y-63220000D01*
X61096099Y-63215586D01*
X61057498Y-63203876D01*
X61021920Y-63184859D01*
X60990734Y-63159266D01*
X60965141Y-63128080D01*
X60946124Y-63092502D01*
X60934414Y-63053901D01*
X60930000Y-63009079D01*
X60930000Y-61990921D01*
X60934414Y-61946099D01*
X60946124Y-61907498D01*
X60965141Y-61871920D01*
X60990734Y-61840734D01*
X61021920Y-61815141D01*
X61057498Y-61796124D01*
X61096099Y-61784414D01*
X61140921Y-61780000D01*
X61734079Y-61780000D01*
X61778901Y-61784414D01*
X61778901Y-61784414D01*
G37*
G36*
X80940748Y-61031865D02*
G01*
X80940750Y-61031866D01*
X80940753Y-61031866D01*
X81095315Y-61078752D01*
X81095318Y-61078754D01*
X81095319Y-61078754D01*
X81237772Y-61154896D01*
X81362633Y-61257367D01*
X81465104Y-61382228D01*
X81514034Y-61473771D01*
X81541248Y-61524685D01*
X81588134Y-61679247D01*
X81588134Y-61679250D01*
X81588135Y-61679252D01*
X81603967Y-61840000D01*
X81588135Y-62000748D01*
X81588134Y-62000750D01*
X81588134Y-62000753D01*
X81541248Y-62155315D01*
X81541246Y-62155318D01*
X81541246Y-62155319D01*
X81465104Y-62297772D01*
X81362633Y-62422633D01*
X81237772Y-62525104D01*
X81095319Y-62601246D01*
X81095315Y-62601248D01*
X80940753Y-62648134D01*
X80940750Y-62648134D01*
X80940748Y-62648135D01*
X80820278Y-62660000D01*
X79939722Y-62660000D01*
X79819252Y-62648135D01*
X79819250Y-62648134D01*
X79819247Y-62648134D01*
X79664685Y-62601248D01*
X79664681Y-62601246D01*
X79522228Y-62525104D01*
X79397367Y-62422633D01*
X79294896Y-62297772D01*
X79218754Y-62155319D01*
X79218754Y-62155318D01*
X79218752Y-62155315D01*
X79171866Y-62000753D01*
X79171866Y-62000750D01*
X79171865Y-62000748D01*
X79156033Y-61840000D01*
X79171865Y-61679252D01*
X79171866Y-61679250D01*
X79171866Y-61679247D01*
X79218752Y-61524685D01*
X79245966Y-61473771D01*
X79294896Y-61382228D01*
X79397367Y-61257367D01*
X79522228Y-61154896D01*
X79664681Y-61078754D01*
X79664682Y-61078754D01*
X79664685Y-61078752D01*
X79819247Y-61031866D01*
X79819250Y-61031866D01*
X79819252Y-61031865D01*
X79939722Y-61020000D01*
X80820278Y-61020000D01*
X80940748Y-61031865D01*
X80940748Y-61031865D01*
G37*
G36*
X88560748Y-61031865D02*
G01*
X88560750Y-61031866D01*
X88560753Y-61031866D01*
X88715315Y-61078752D01*
X88715318Y-61078754D01*
X88715319Y-61078754D01*
X88857772Y-61154896D01*
X88982633Y-61257367D01*
X89085104Y-61382228D01*
X89134034Y-61473771D01*
X89161248Y-61524685D01*
X89208134Y-61679247D01*
X89208134Y-61679250D01*
X89208135Y-61679252D01*
X89223967Y-61840000D01*
X89208135Y-62000748D01*
X89208134Y-62000750D01*
X89208134Y-62000753D01*
X89161248Y-62155315D01*
X89161246Y-62155318D01*
X89161246Y-62155319D01*
X89085104Y-62297772D01*
X88982633Y-62422633D01*
X88857772Y-62525104D01*
X88715319Y-62601246D01*
X88715315Y-62601248D01*
X88560753Y-62648134D01*
X88560750Y-62648134D01*
X88560748Y-62648135D01*
X88440278Y-62660000D01*
X87559722Y-62660000D01*
X87439252Y-62648135D01*
X87439250Y-62648134D01*
X87439247Y-62648134D01*
X87284685Y-62601248D01*
X87284681Y-62601246D01*
X87142228Y-62525104D01*
X87017367Y-62422633D01*
X86914896Y-62297772D01*
X86838754Y-62155319D01*
X86838754Y-62155318D01*
X86838752Y-62155315D01*
X86791866Y-62000753D01*
X86791866Y-62000750D01*
X86791865Y-62000748D01*
X86776033Y-61840000D01*
X86791865Y-61679252D01*
X86791866Y-61679250D01*
X86791866Y-61679247D01*
X86838752Y-61524685D01*
X86865966Y-61473771D01*
X86914896Y-61382228D01*
X87017367Y-61257367D01*
X87142228Y-61154896D01*
X87284681Y-61078754D01*
X87284682Y-61078754D01*
X87284685Y-61078752D01*
X87439247Y-61031866D01*
X87439250Y-61031866D01*
X87439252Y-61031865D01*
X87559722Y-61020000D01*
X88440278Y-61020000D01*
X88560748Y-61031865D01*
X88560748Y-61031865D01*
G37*
G36*
X47629361Y-61377613D02*
G01*
X47650373Y-61383987D01*
X47669747Y-61394343D01*
X47686724Y-61408276D01*
X47700657Y-61425253D01*
X47711013Y-61444627D01*
X47717387Y-61465639D01*
X47720000Y-61492171D01*
X47720000Y-61897829D01*
X47717387Y-61924361D01*
X47711013Y-61945373D01*
X47700657Y-61964747D01*
X47686724Y-61981724D01*
X47669747Y-61995657D01*
X47650373Y-62006013D01*
X47629361Y-62012387D01*
X47602829Y-62015000D01*
X45847171Y-62015000D01*
X45820639Y-62012387D01*
X45799627Y-62006013D01*
X45780253Y-61995657D01*
X45763276Y-61981724D01*
X45749343Y-61964747D01*
X45738987Y-61945373D01*
X45732613Y-61924361D01*
X45730000Y-61897829D01*
X45730000Y-61492171D01*
X45732613Y-61465639D01*
X45738987Y-61444627D01*
X45749343Y-61425253D01*
X45763276Y-61408276D01*
X45780253Y-61394343D01*
X45799627Y-61383987D01*
X45820639Y-61377613D01*
X45847171Y-61375000D01*
X47602829Y-61375000D01*
X47629361Y-61377613D01*
X47629361Y-61377613D01*
G37*
G36*
X42679361Y-61377613D02*
G01*
X42700373Y-61383987D01*
X42719747Y-61394343D01*
X42736724Y-61408276D01*
X42750657Y-61425253D01*
X42761013Y-61444627D01*
X42767387Y-61465639D01*
X42770000Y-61492171D01*
X42770000Y-61897829D01*
X42767387Y-61924361D01*
X42761013Y-61945373D01*
X42750657Y-61964747D01*
X42736724Y-61981724D01*
X42719747Y-61995657D01*
X42700373Y-62006013D01*
X42679361Y-62012387D01*
X42652829Y-62015000D01*
X40897171Y-62015000D01*
X40870639Y-62012387D01*
X40849627Y-62006013D01*
X40830253Y-61995657D01*
X40813276Y-61981724D01*
X40799343Y-61964747D01*
X40788987Y-61945373D01*
X40782613Y-61924361D01*
X40780000Y-61897829D01*
X40780000Y-61492171D01*
X40782613Y-61465639D01*
X40788987Y-61444627D01*
X40799343Y-61425253D01*
X40813276Y-61408276D01*
X40830253Y-61394343D01*
X40849627Y-61383987D01*
X40870639Y-61377613D01*
X40897171Y-61375000D01*
X42652829Y-61375000D01*
X42679361Y-61377613D01*
X42679361Y-61377613D01*
G37*
G36*
X35414250Y-54799316D02*
G01*
X35939239Y-54903742D01*
X36149706Y-54990921D01*
X36525242Y-55146473D01*
X36893857Y-55392774D01*
X37052635Y-55498866D01*
X37501134Y-55947365D01*
X37535471Y-55998754D01*
X37853527Y-56474758D01*
X37949643Y-56706803D01*
X38096258Y-57060761D01*
X38127489Y-57217773D01*
X38206553Y-57615253D01*
X38220000Y-57682859D01*
X38220000Y-58317141D01*
X38096258Y-58939239D01*
X38037952Y-59080000D01*
X37853527Y-59525242D01*
X37605793Y-59896001D01*
X37501134Y-60052635D01*
X37052635Y-60501134D01*
X37020645Y-60522509D01*
X36525242Y-60853527D01*
X36232240Y-60974892D01*
X35939239Y-61096258D01*
X35420354Y-61199470D01*
X35317142Y-61220000D01*
X34682858Y-61220000D01*
X34579646Y-61199470D01*
X34060761Y-61096258D01*
X33767760Y-60974892D01*
X33474758Y-60853527D01*
X32979355Y-60522509D01*
X32947365Y-60501134D01*
X32498866Y-60052635D01*
X32394207Y-59896001D01*
X32146473Y-59525242D01*
X31962048Y-59080000D01*
X31903742Y-58939239D01*
X31780000Y-58317141D01*
X31780000Y-57682859D01*
X31793448Y-57615253D01*
X31872511Y-57217773D01*
X31903742Y-57060761D01*
X32050357Y-56706803D01*
X32146473Y-56474758D01*
X32464529Y-55998754D01*
X32498866Y-55947365D01*
X32947365Y-55498866D01*
X33106143Y-55392774D01*
X33474758Y-55146473D01*
X33850294Y-54990921D01*
X34060761Y-54903742D01*
X34585750Y-54799316D01*
X34682858Y-54780000D01*
X35317142Y-54780000D01*
X35414250Y-54799316D01*
X35414250Y-54799316D01*
G37*
G36*
X65470000Y-60870000D02*
G01*
X64530000Y-60870000D01*
X64530000Y-60030000D01*
X65470000Y-60030000D01*
X65470000Y-60870000D01*
X65470000Y-60870000D01*
G37*
G36*
X59970000Y-60870000D02*
G01*
X59030000Y-60870000D01*
X59030000Y-60030000D01*
X59970000Y-60030000D01*
X59970000Y-60870000D01*
X59970000Y-60870000D01*
G37*
G36*
X47629361Y-60107613D02*
G01*
X47650373Y-60113987D01*
X47669747Y-60124343D01*
X47686724Y-60138276D01*
X47700657Y-60155253D01*
X47711013Y-60174627D01*
X47717387Y-60195639D01*
X47720000Y-60222171D01*
X47720000Y-60627829D01*
X47717387Y-60654361D01*
X47711013Y-60675373D01*
X47700657Y-60694747D01*
X47686724Y-60711724D01*
X47669747Y-60725657D01*
X47650373Y-60736013D01*
X47629361Y-60742387D01*
X47602829Y-60745000D01*
X45847171Y-60745000D01*
X45820639Y-60742387D01*
X45799627Y-60736013D01*
X45780253Y-60725657D01*
X45763276Y-60711724D01*
X45749343Y-60694747D01*
X45738987Y-60675373D01*
X45732613Y-60654361D01*
X45730000Y-60627829D01*
X45730000Y-60222171D01*
X45732613Y-60195639D01*
X45738987Y-60174627D01*
X45749343Y-60155253D01*
X45763276Y-60138276D01*
X45780253Y-60124343D01*
X45799627Y-60113987D01*
X45820639Y-60107613D01*
X45847171Y-60105000D01*
X47602829Y-60105000D01*
X47629361Y-60107613D01*
X47629361Y-60107613D01*
G37*
G36*
X42679361Y-60107613D02*
G01*
X42700373Y-60113987D01*
X42719747Y-60124343D01*
X42736724Y-60138276D01*
X42750657Y-60155253D01*
X42761013Y-60174627D01*
X42767387Y-60195639D01*
X42770000Y-60222171D01*
X42770000Y-60627829D01*
X42767387Y-60654361D01*
X42761013Y-60675373D01*
X42750657Y-60694747D01*
X42736724Y-60711724D01*
X42719747Y-60725657D01*
X42700373Y-60736013D01*
X42679361Y-60742387D01*
X42652829Y-60745000D01*
X40897171Y-60745000D01*
X40870639Y-60742387D01*
X40849627Y-60736013D01*
X40830253Y-60725657D01*
X40813276Y-60711724D01*
X40799343Y-60694747D01*
X40788987Y-60675373D01*
X40782613Y-60654361D01*
X40780000Y-60627829D01*
X40780000Y-60222171D01*
X40782613Y-60195639D01*
X40788987Y-60174627D01*
X40799343Y-60155253D01*
X40813276Y-60138276D01*
X40830253Y-60124343D01*
X40849627Y-60113987D01*
X40870639Y-60107613D01*
X40897171Y-60105000D01*
X42652829Y-60105000D01*
X42679361Y-60107613D01*
X42679361Y-60107613D01*
G37*
G36*
X80940748Y-58491865D02*
G01*
X80940750Y-58491866D01*
X80940753Y-58491866D01*
X81095315Y-58538752D01*
X81095318Y-58538754D01*
X81095319Y-58538754D01*
X81237772Y-58614896D01*
X81362633Y-58717367D01*
X81465104Y-58842228D01*
X81514034Y-58933771D01*
X81541248Y-58984685D01*
X81588134Y-59139247D01*
X81588134Y-59139250D01*
X81588135Y-59139252D01*
X81603967Y-59300000D01*
X81588135Y-59460748D01*
X81588134Y-59460750D01*
X81588134Y-59460753D01*
X81541248Y-59615315D01*
X81541246Y-59615318D01*
X81541246Y-59615319D01*
X81465104Y-59757772D01*
X81362633Y-59882633D01*
X81237772Y-59985104D01*
X81111429Y-60052635D01*
X81095315Y-60061248D01*
X80940753Y-60108134D01*
X80940750Y-60108134D01*
X80940748Y-60108135D01*
X80820278Y-60120000D01*
X79939722Y-60120000D01*
X79819252Y-60108135D01*
X79819250Y-60108134D01*
X79819247Y-60108134D01*
X79664685Y-60061248D01*
X79648571Y-60052635D01*
X79522228Y-59985104D01*
X79397367Y-59882633D01*
X79294896Y-59757772D01*
X79218754Y-59615319D01*
X79218754Y-59615318D01*
X79218752Y-59615315D01*
X79171866Y-59460753D01*
X79171866Y-59460750D01*
X79171865Y-59460748D01*
X79156033Y-59300000D01*
X79171865Y-59139252D01*
X79171866Y-59139250D01*
X79171866Y-59139247D01*
X79218752Y-58984685D01*
X79245966Y-58933771D01*
X79294896Y-58842228D01*
X79397367Y-58717367D01*
X79522228Y-58614896D01*
X79664681Y-58538754D01*
X79664682Y-58538754D01*
X79664685Y-58538752D01*
X79819247Y-58491866D01*
X79819250Y-58491866D01*
X79819252Y-58491865D01*
X79939722Y-58480000D01*
X80820278Y-58480000D01*
X80940748Y-58491865D01*
X80940748Y-58491865D01*
G37*
G36*
X88560748Y-58491865D02*
G01*
X88560750Y-58491866D01*
X88560753Y-58491866D01*
X88715315Y-58538752D01*
X88715318Y-58538754D01*
X88715319Y-58538754D01*
X88857772Y-58614896D01*
X88982633Y-58717367D01*
X89085104Y-58842228D01*
X89134034Y-58933771D01*
X89161248Y-58984685D01*
X89208134Y-59139247D01*
X89208134Y-59139250D01*
X89208135Y-59139252D01*
X89223967Y-59300000D01*
X89208135Y-59460748D01*
X89208134Y-59460750D01*
X89208134Y-59460753D01*
X89161248Y-59615315D01*
X89161246Y-59615318D01*
X89161246Y-59615319D01*
X89085104Y-59757772D01*
X88982633Y-59882633D01*
X88857772Y-59985104D01*
X88731429Y-60052635D01*
X88715315Y-60061248D01*
X88560753Y-60108134D01*
X88560750Y-60108134D01*
X88560748Y-60108135D01*
X88440278Y-60120000D01*
X87559722Y-60120000D01*
X87439252Y-60108135D01*
X87439250Y-60108134D01*
X87439247Y-60108134D01*
X87284685Y-60061248D01*
X87268571Y-60052635D01*
X87142228Y-59985104D01*
X87017367Y-59882633D01*
X86914896Y-59757772D01*
X86838754Y-59615319D01*
X86838754Y-59615318D01*
X86838752Y-59615315D01*
X86791866Y-59460753D01*
X86791866Y-59460750D01*
X86791865Y-59460748D01*
X86776033Y-59300000D01*
X86791865Y-59139252D01*
X86791866Y-59139250D01*
X86791866Y-59139247D01*
X86838752Y-58984685D01*
X86865966Y-58933771D01*
X86914896Y-58842228D01*
X87017367Y-58717367D01*
X87142228Y-58614896D01*
X87284681Y-58538754D01*
X87284682Y-58538754D01*
X87284685Y-58538752D01*
X87439247Y-58491866D01*
X87439250Y-58491866D01*
X87439252Y-58491865D01*
X87559722Y-58480000D01*
X88440278Y-58480000D01*
X88560748Y-58491865D01*
X88560748Y-58491865D01*
G37*
G36*
X61970000Y-59920000D02*
G01*
X61030000Y-59920000D01*
X61030000Y-59080000D01*
X61970000Y-59080000D01*
X61970000Y-59920000D01*
X61970000Y-59920000D01*
G37*
G36*
X63470000Y-59920000D02*
G01*
X62530000Y-59920000D01*
X62530000Y-59080000D01*
X63470000Y-59080000D01*
X63470000Y-59920000D01*
X63470000Y-59920000D01*
G37*
G36*
X42679361Y-58837613D02*
G01*
X42700373Y-58843987D01*
X42719747Y-58854343D01*
X42736724Y-58868276D01*
X42750657Y-58885253D01*
X42761013Y-58904627D01*
X42767387Y-58925639D01*
X42770000Y-58952171D01*
X42770000Y-59357829D01*
X42767387Y-59384361D01*
X42761013Y-59405373D01*
X42750657Y-59424747D01*
X42736724Y-59441724D01*
X42719747Y-59455657D01*
X42700373Y-59466013D01*
X42679361Y-59472387D01*
X42652829Y-59475000D01*
X40897171Y-59475000D01*
X40870639Y-59472387D01*
X40849627Y-59466013D01*
X40830253Y-59455657D01*
X40813276Y-59441724D01*
X40799343Y-59424747D01*
X40788987Y-59405373D01*
X40782613Y-59384361D01*
X40780000Y-59357829D01*
X40780000Y-58952171D01*
X40782613Y-58925639D01*
X40788987Y-58904627D01*
X40799343Y-58885253D01*
X40813276Y-58868276D01*
X40830253Y-58854343D01*
X40849627Y-58843987D01*
X40870639Y-58837613D01*
X40897171Y-58835000D01*
X42652829Y-58835000D01*
X42679361Y-58837613D01*
X42679361Y-58837613D01*
G37*
G36*
X47629361Y-58837613D02*
G01*
X47650373Y-58843987D01*
X47669747Y-58854343D01*
X47686724Y-58868276D01*
X47700657Y-58885253D01*
X47711013Y-58904627D01*
X47717387Y-58925639D01*
X47720000Y-58952171D01*
X47720000Y-59357829D01*
X47717387Y-59384361D01*
X47711013Y-59405373D01*
X47700657Y-59424747D01*
X47686724Y-59441724D01*
X47669747Y-59455657D01*
X47650373Y-59466013D01*
X47629361Y-59472387D01*
X47602829Y-59475000D01*
X45847171Y-59475000D01*
X45820639Y-59472387D01*
X45799627Y-59466013D01*
X45780253Y-59455657D01*
X45763276Y-59441724D01*
X45749343Y-59424747D01*
X45738987Y-59405373D01*
X45732613Y-59384361D01*
X45730000Y-59357829D01*
X45730000Y-58952171D01*
X45732613Y-58925639D01*
X45738987Y-58904627D01*
X45749343Y-58885253D01*
X45763276Y-58868276D01*
X45780253Y-58854343D01*
X45799627Y-58843987D01*
X45820639Y-58837613D01*
X45847171Y-58835000D01*
X47602829Y-58835000D01*
X47629361Y-58837613D01*
X47629361Y-58837613D01*
G37*
G36*
X65470000Y-58970000D02*
G01*
X64530000Y-58970000D01*
X64530000Y-58130000D01*
X65470000Y-58130000D01*
X65470000Y-58970000D01*
X65470000Y-58970000D01*
G37*
G36*
X59970000Y-58970000D02*
G01*
X59030000Y-58970000D01*
X59030000Y-58130000D01*
X59970000Y-58130000D01*
X59970000Y-58970000D01*
X59970000Y-58970000D01*
G37*
G36*
X42679361Y-57567613D02*
G01*
X42700373Y-57573987D01*
X42719747Y-57584343D01*
X42736724Y-57598276D01*
X42750657Y-57615253D01*
X42761013Y-57634627D01*
X42767387Y-57655639D01*
X42770000Y-57682171D01*
X42770000Y-58087829D01*
X42767387Y-58114361D01*
X42761013Y-58135373D01*
X42750657Y-58154747D01*
X42736724Y-58171724D01*
X42719747Y-58185657D01*
X42700373Y-58196013D01*
X42679361Y-58202387D01*
X42652829Y-58205000D01*
X40897171Y-58205000D01*
X40870639Y-58202387D01*
X40849627Y-58196013D01*
X40830253Y-58185657D01*
X40813276Y-58171724D01*
X40799343Y-58154747D01*
X40788987Y-58135373D01*
X40782613Y-58114361D01*
X40780000Y-58087829D01*
X40780000Y-57682171D01*
X40782613Y-57655639D01*
X40788987Y-57634627D01*
X40799343Y-57615253D01*
X40813276Y-57598276D01*
X40830253Y-57584343D01*
X40849627Y-57573987D01*
X40870639Y-57567613D01*
X40897171Y-57565000D01*
X42652829Y-57565000D01*
X42679361Y-57567613D01*
X42679361Y-57567613D01*
G37*
G36*
X47629361Y-57567613D02*
G01*
X47650373Y-57573987D01*
X47669747Y-57584343D01*
X47686724Y-57598276D01*
X47700657Y-57615253D01*
X47711013Y-57634627D01*
X47717387Y-57655639D01*
X47720000Y-57682171D01*
X47720000Y-58087829D01*
X47717387Y-58114361D01*
X47711013Y-58135373D01*
X47700657Y-58154747D01*
X47686724Y-58171724D01*
X47669747Y-58185657D01*
X47650373Y-58196013D01*
X47629361Y-58202387D01*
X47602829Y-58205000D01*
X45847171Y-58205000D01*
X45820639Y-58202387D01*
X45799627Y-58196013D01*
X45780253Y-58185657D01*
X45763276Y-58171724D01*
X45749343Y-58154747D01*
X45738987Y-58135373D01*
X45732613Y-58114361D01*
X45730000Y-58087829D01*
X45730000Y-57682171D01*
X45732613Y-57655639D01*
X45738987Y-57634627D01*
X45749343Y-57615253D01*
X45763276Y-57598276D01*
X45780253Y-57584343D01*
X45799627Y-57573987D01*
X45820639Y-57567613D01*
X45847171Y-57565000D01*
X47602829Y-57565000D01*
X47629361Y-57567613D01*
X47629361Y-57567613D01*
G37*
G36*
X52220000Y-57870000D02*
G01*
X51280000Y-57870000D01*
X51280000Y-57030000D01*
X52220000Y-57030000D01*
X52220000Y-57870000D01*
X52220000Y-57870000D01*
G37*
G36*
X88560748Y-55951865D02*
G01*
X88560750Y-55951866D01*
X88560753Y-55951866D01*
X88715315Y-55998752D01*
X88715318Y-55998754D01*
X88715319Y-55998754D01*
X88857772Y-56074896D01*
X88982633Y-56177367D01*
X89085104Y-56302228D01*
X89161246Y-56444681D01*
X89161248Y-56444685D01*
X89208134Y-56599247D01*
X89208134Y-56599250D01*
X89208135Y-56599252D01*
X89223967Y-56760000D01*
X89208135Y-56920748D01*
X89208134Y-56920750D01*
X89208134Y-56920753D01*
X89161248Y-57075315D01*
X89161246Y-57075318D01*
X89161246Y-57075319D01*
X89085104Y-57217772D01*
X88982633Y-57342633D01*
X88857772Y-57445104D01*
X88715319Y-57521246D01*
X88715315Y-57521248D01*
X88560753Y-57568134D01*
X88560750Y-57568134D01*
X88560748Y-57568135D01*
X88440278Y-57580000D01*
X87559722Y-57580000D01*
X87439252Y-57568135D01*
X87439250Y-57568134D01*
X87439247Y-57568134D01*
X87284685Y-57521248D01*
X87284681Y-57521246D01*
X87142228Y-57445104D01*
X87017367Y-57342633D01*
X86914896Y-57217772D01*
X86838754Y-57075319D01*
X86838754Y-57075318D01*
X86838752Y-57075315D01*
X86791866Y-56920753D01*
X86791866Y-56920750D01*
X86791865Y-56920748D01*
X86776033Y-56760000D01*
X86791865Y-56599252D01*
X86791866Y-56599250D01*
X86791866Y-56599247D01*
X86838752Y-56444685D01*
X86838754Y-56444681D01*
X86914896Y-56302228D01*
X87017367Y-56177367D01*
X87142228Y-56074896D01*
X87284681Y-55998754D01*
X87284682Y-55998754D01*
X87284685Y-55998752D01*
X87439247Y-55951866D01*
X87439250Y-55951866D01*
X87439252Y-55951865D01*
X87559722Y-55940000D01*
X88440278Y-55940000D01*
X88560748Y-55951865D01*
X88560748Y-55951865D01*
G37*
G36*
X80940748Y-55951865D02*
G01*
X80940750Y-55951866D01*
X80940753Y-55951866D01*
X81095315Y-55998752D01*
X81095318Y-55998754D01*
X81095319Y-55998754D01*
X81237772Y-56074896D01*
X81362633Y-56177367D01*
X81465104Y-56302228D01*
X81541246Y-56444681D01*
X81541248Y-56444685D01*
X81588134Y-56599247D01*
X81588134Y-56599250D01*
X81588135Y-56599252D01*
X81603967Y-56760000D01*
X81588135Y-56920748D01*
X81588134Y-56920750D01*
X81588134Y-56920753D01*
X81541248Y-57075315D01*
X81541246Y-57075318D01*
X81541246Y-57075319D01*
X81465104Y-57217772D01*
X81362633Y-57342633D01*
X81237772Y-57445104D01*
X81095319Y-57521246D01*
X81095315Y-57521248D01*
X80940753Y-57568134D01*
X80940750Y-57568134D01*
X80940748Y-57568135D01*
X80820278Y-57580000D01*
X79939722Y-57580000D01*
X79819252Y-57568135D01*
X79819250Y-57568134D01*
X79819247Y-57568134D01*
X79664685Y-57521248D01*
X79664681Y-57521246D01*
X79522228Y-57445104D01*
X79397367Y-57342633D01*
X79294896Y-57217772D01*
X79218754Y-57075319D01*
X79218754Y-57075318D01*
X79218752Y-57075315D01*
X79171866Y-56920753D01*
X79171866Y-56920750D01*
X79171865Y-56920748D01*
X79156033Y-56760000D01*
X79171865Y-56599252D01*
X79171866Y-56599250D01*
X79171866Y-56599247D01*
X79218752Y-56444685D01*
X79218754Y-56444681D01*
X79294896Y-56302228D01*
X79397367Y-56177367D01*
X79522228Y-56074896D01*
X79664681Y-55998754D01*
X79664682Y-55998754D01*
X79664685Y-55998752D01*
X79819247Y-55951866D01*
X79819250Y-55951866D01*
X79819252Y-55951865D01*
X79939722Y-55940000D01*
X80820278Y-55940000D01*
X80940748Y-55951865D01*
X80940748Y-55951865D01*
G37*
G36*
X47629361Y-56297613D02*
G01*
X47650373Y-56303987D01*
X47669747Y-56314343D01*
X47686724Y-56328276D01*
X47700657Y-56345253D01*
X47711013Y-56364627D01*
X47717387Y-56385639D01*
X47720000Y-56412171D01*
X47720000Y-56817829D01*
X47717387Y-56844361D01*
X47711013Y-56865373D01*
X47700657Y-56884747D01*
X47686724Y-56901724D01*
X47669747Y-56915657D01*
X47650373Y-56926013D01*
X47629361Y-56932387D01*
X47602829Y-56935000D01*
X45847171Y-56935000D01*
X45820639Y-56932387D01*
X45799627Y-56926013D01*
X45780253Y-56915657D01*
X45763276Y-56901724D01*
X45749343Y-56884747D01*
X45738987Y-56865373D01*
X45732613Y-56844361D01*
X45730000Y-56817829D01*
X45730000Y-56412171D01*
X45732613Y-56385639D01*
X45738987Y-56364627D01*
X45749343Y-56345253D01*
X45763276Y-56328276D01*
X45780253Y-56314343D01*
X45799627Y-56303987D01*
X45820639Y-56297613D01*
X45847171Y-56295000D01*
X47602829Y-56295000D01*
X47629361Y-56297613D01*
X47629361Y-56297613D01*
G37*
G36*
X42679361Y-56297613D02*
G01*
X42700373Y-56303987D01*
X42719747Y-56314343D01*
X42736724Y-56328276D01*
X42750657Y-56345253D01*
X42761013Y-56364627D01*
X42767387Y-56385639D01*
X42770000Y-56412171D01*
X42770000Y-56817829D01*
X42767387Y-56844361D01*
X42761013Y-56865373D01*
X42750657Y-56884747D01*
X42736724Y-56901724D01*
X42719747Y-56915657D01*
X42700373Y-56926013D01*
X42679361Y-56932387D01*
X42652829Y-56935000D01*
X40897171Y-56935000D01*
X40870639Y-56932387D01*
X40849627Y-56926013D01*
X40830253Y-56915657D01*
X40813276Y-56901724D01*
X40799343Y-56884747D01*
X40788987Y-56865373D01*
X40782613Y-56844361D01*
X40780000Y-56817829D01*
X40780000Y-56412171D01*
X40782613Y-56385639D01*
X40788987Y-56364627D01*
X40799343Y-56345253D01*
X40813276Y-56328276D01*
X40830253Y-56314343D01*
X40849627Y-56303987D01*
X40870639Y-56297613D01*
X40897171Y-56295000D01*
X42652829Y-56295000D01*
X42679361Y-56297613D01*
X42679361Y-56297613D01*
G37*
G36*
X50220000Y-56920000D02*
G01*
X49280000Y-56920000D01*
X49280000Y-56080000D01*
X50220000Y-56080000D01*
X50220000Y-56920000D01*
X50220000Y-56920000D01*
G37*
G36*
X63403901Y-55284414D02*
G01*
X63442502Y-55296124D01*
X63478080Y-55315141D01*
X63509266Y-55340734D01*
X63534859Y-55371920D01*
X63553876Y-55407498D01*
X63565586Y-55446099D01*
X63570000Y-55490921D01*
X63570000Y-56509079D01*
X63565586Y-56553901D01*
X63553876Y-56592502D01*
X63534859Y-56628080D01*
X63509266Y-56659266D01*
X63478080Y-56684859D01*
X63442502Y-56703876D01*
X63403901Y-56715586D01*
X63359079Y-56720000D01*
X62765921Y-56720000D01*
X62721099Y-56715586D01*
X62682498Y-56703876D01*
X62646920Y-56684859D01*
X62615734Y-56659266D01*
X62590141Y-56628080D01*
X62571124Y-56592502D01*
X62559414Y-56553901D01*
X62555000Y-56509079D01*
X62555000Y-55490921D01*
X62559414Y-55446099D01*
X62571124Y-55407498D01*
X62590141Y-55371920D01*
X62615734Y-55340734D01*
X62646920Y-55315141D01*
X62682498Y-55296124D01*
X62721099Y-55284414D01*
X62765921Y-55280000D01*
X63359079Y-55280000D01*
X63403901Y-55284414D01*
X63403901Y-55284414D01*
G37*
G36*
X65278901Y-55284414D02*
G01*
X65317502Y-55296124D01*
X65353080Y-55315141D01*
X65384266Y-55340734D01*
X65409859Y-55371920D01*
X65428876Y-55407498D01*
X65440586Y-55446099D01*
X65445000Y-55490921D01*
X65445000Y-56509079D01*
X65440586Y-56553901D01*
X65428876Y-56592502D01*
X65409859Y-56628080D01*
X65384266Y-56659266D01*
X65353080Y-56684859D01*
X65317502Y-56703876D01*
X65278901Y-56715586D01*
X65234079Y-56720000D01*
X64640921Y-56720000D01*
X64596099Y-56715586D01*
X64557498Y-56703876D01*
X64521920Y-56684859D01*
X64490734Y-56659266D01*
X64465141Y-56628080D01*
X64446124Y-56592502D01*
X64434414Y-56553901D01*
X64430000Y-56509079D01*
X64430000Y-55490921D01*
X64434414Y-55446099D01*
X64446124Y-55407498D01*
X64465141Y-55371920D01*
X64490734Y-55340734D01*
X64521920Y-55315141D01*
X64557498Y-55296124D01*
X64596099Y-55284414D01*
X64640921Y-55280000D01*
X65234079Y-55280000D01*
X65278901Y-55284414D01*
X65278901Y-55284414D01*
G37*
G36*
X54153901Y-54784414D02*
G01*
X54192502Y-54796124D01*
X54228080Y-54815141D01*
X54259266Y-54840734D01*
X54284859Y-54871920D01*
X54303876Y-54907498D01*
X54315586Y-54946099D01*
X54320000Y-54990921D01*
X54320000Y-56009079D01*
X54315586Y-56053901D01*
X54303876Y-56092502D01*
X54284859Y-56128080D01*
X54259266Y-56159266D01*
X54228080Y-56184859D01*
X54192502Y-56203876D01*
X54153901Y-56215586D01*
X54109079Y-56220000D01*
X53515921Y-56220000D01*
X53471099Y-56215586D01*
X53432498Y-56203876D01*
X53396920Y-56184859D01*
X53365734Y-56159266D01*
X53340141Y-56128080D01*
X53321124Y-56092502D01*
X53309414Y-56053901D01*
X53305000Y-56009079D01*
X53305000Y-54990921D01*
X53309414Y-54946099D01*
X53321124Y-54907498D01*
X53340141Y-54871920D01*
X53365734Y-54840734D01*
X53396920Y-54815141D01*
X53432498Y-54796124D01*
X53471099Y-54784414D01*
X53515921Y-54780000D01*
X54109079Y-54780000D01*
X54153901Y-54784414D01*
X54153901Y-54784414D01*
G37*
G36*
X56028901Y-54784414D02*
G01*
X56067502Y-54796124D01*
X56103080Y-54815141D01*
X56134266Y-54840734D01*
X56159859Y-54871920D01*
X56178876Y-54907498D01*
X56190586Y-54946099D01*
X56195000Y-54990921D01*
X56195000Y-56009079D01*
X56190586Y-56053901D01*
X56178876Y-56092502D01*
X56159859Y-56128080D01*
X56134266Y-56159266D01*
X56103080Y-56184859D01*
X56067502Y-56203876D01*
X56028901Y-56215586D01*
X55984079Y-56220000D01*
X55390921Y-56220000D01*
X55346099Y-56215586D01*
X55307498Y-56203876D01*
X55271920Y-56184859D01*
X55240734Y-56159266D01*
X55215141Y-56128080D01*
X55196124Y-56092502D01*
X55184414Y-56053901D01*
X55180000Y-56009079D01*
X55180000Y-54990921D01*
X55184414Y-54946099D01*
X55196124Y-54907498D01*
X55215141Y-54871920D01*
X55240734Y-54840734D01*
X55271920Y-54815141D01*
X55307498Y-54796124D01*
X55346099Y-54784414D01*
X55390921Y-54780000D01*
X55984079Y-54780000D01*
X56028901Y-54784414D01*
X56028901Y-54784414D01*
G37*
G36*
X52220000Y-55970000D02*
G01*
X51280000Y-55970000D01*
X51280000Y-55130000D01*
X52220000Y-55130000D01*
X52220000Y-55970000D01*
X52220000Y-55970000D01*
G37*
G36*
X42679361Y-55027613D02*
G01*
X42700373Y-55033987D01*
X42719747Y-55044343D01*
X42736724Y-55058276D01*
X42750657Y-55075253D01*
X42761013Y-55094627D01*
X42767387Y-55115639D01*
X42770000Y-55142171D01*
X42770000Y-55547829D01*
X42767387Y-55574361D01*
X42761013Y-55595373D01*
X42750657Y-55614747D01*
X42736724Y-55631724D01*
X42719747Y-55645657D01*
X42700373Y-55656013D01*
X42679361Y-55662387D01*
X42652829Y-55665000D01*
X40897171Y-55665000D01*
X40870639Y-55662387D01*
X40849627Y-55656013D01*
X40830253Y-55645657D01*
X40813276Y-55631724D01*
X40799343Y-55614747D01*
X40788987Y-55595373D01*
X40782613Y-55574361D01*
X40780000Y-55547829D01*
X40780000Y-55142171D01*
X40782613Y-55115639D01*
X40788987Y-55094627D01*
X40799343Y-55075253D01*
X40813276Y-55058276D01*
X40830253Y-55044343D01*
X40849627Y-55033987D01*
X40870639Y-55027613D01*
X40897171Y-55025000D01*
X42652829Y-55025000D01*
X42679361Y-55027613D01*
X42679361Y-55027613D01*
G37*
G36*
X47629361Y-55027613D02*
G01*
X47650373Y-55033987D01*
X47669747Y-55044343D01*
X47686724Y-55058276D01*
X47700657Y-55075253D01*
X47711013Y-55094627D01*
X47717387Y-55115639D01*
X47720000Y-55142171D01*
X47720000Y-55547829D01*
X47717387Y-55574361D01*
X47711013Y-55595373D01*
X47700657Y-55614747D01*
X47686724Y-55631724D01*
X47669747Y-55645657D01*
X47650373Y-55656013D01*
X47629361Y-55662387D01*
X47602829Y-55665000D01*
X45847171Y-55665000D01*
X45820639Y-55662387D01*
X45799627Y-55656013D01*
X45780253Y-55645657D01*
X45763276Y-55631724D01*
X45749343Y-55614747D01*
X45738987Y-55595373D01*
X45732613Y-55574361D01*
X45730000Y-55547829D01*
X45730000Y-55142171D01*
X45732613Y-55115639D01*
X45738987Y-55094627D01*
X45749343Y-55075253D01*
X45763276Y-55058276D01*
X45780253Y-55044343D01*
X45799627Y-55033987D01*
X45820639Y-55027613D01*
X45847171Y-55025000D01*
X47602829Y-55025000D01*
X47629361Y-55027613D01*
X47629361Y-55027613D01*
G37*
G36*
X79666224Y-51034120D02*
G01*
X79701956Y-51044960D01*
X79734885Y-51062560D01*
X79763751Y-51086249D01*
X79787440Y-51115115D01*
X79805040Y-51148044D01*
X79815880Y-51183776D01*
X79820000Y-51225609D01*
X79820000Y-54374391D01*
X79815880Y-54416224D01*
X79805040Y-54451956D01*
X79787440Y-54484885D01*
X79763751Y-54513751D01*
X79734885Y-54537440D01*
X79701956Y-54555040D01*
X79666224Y-54565880D01*
X79624391Y-54570000D01*
X78375609Y-54570000D01*
X78333776Y-54565880D01*
X78298044Y-54555040D01*
X78265115Y-54537440D01*
X78236249Y-54513751D01*
X78212560Y-54484885D01*
X78194960Y-54451956D01*
X78184120Y-54416224D01*
X78180000Y-54374391D01*
X78180000Y-51225609D01*
X78184120Y-51183776D01*
X78194960Y-51148044D01*
X78212560Y-51115115D01*
X78236249Y-51086249D01*
X78265115Y-51062560D01*
X78298044Y-51044960D01*
X78333776Y-51034120D01*
X78375609Y-51030000D01*
X79624391Y-51030000D01*
X79666224Y-51034120D01*
X79666224Y-51034120D01*
G37*
G36*
X71166224Y-51034120D02*
G01*
X71201956Y-51044960D01*
X71234885Y-51062560D01*
X71263751Y-51086249D01*
X71287440Y-51115115D01*
X71305040Y-51148044D01*
X71315880Y-51183776D01*
X71320000Y-51225609D01*
X71320000Y-54374391D01*
X71315880Y-54416224D01*
X71305040Y-54451956D01*
X71287440Y-54484885D01*
X71263751Y-54513751D01*
X71234885Y-54537440D01*
X71201956Y-54555040D01*
X71166224Y-54565880D01*
X71124391Y-54570000D01*
X69875609Y-54570000D01*
X69833776Y-54565880D01*
X69798044Y-54555040D01*
X69765115Y-54537440D01*
X69736249Y-54513751D01*
X69712560Y-54484885D01*
X69694960Y-54451956D01*
X69684120Y-54416224D01*
X69680000Y-54374391D01*
X69680000Y-51225609D01*
X69684120Y-51183776D01*
X69694960Y-51148044D01*
X69712560Y-51115115D01*
X69736249Y-51086249D01*
X69765115Y-51062560D01*
X69798044Y-51044960D01*
X69833776Y-51034120D01*
X69875609Y-51030000D01*
X71124391Y-51030000D01*
X71166224Y-51034120D01*
X71166224Y-51034120D01*
G37*
G36*
X62666224Y-51034120D02*
G01*
X62701956Y-51044960D01*
X62734885Y-51062560D01*
X62763751Y-51086249D01*
X62787440Y-51115115D01*
X62805040Y-51148044D01*
X62815880Y-51183776D01*
X62820000Y-51225609D01*
X62820000Y-54374391D01*
X62815880Y-54416224D01*
X62805040Y-54451956D01*
X62787440Y-54484885D01*
X62763751Y-54513751D01*
X62734885Y-54537440D01*
X62701956Y-54555040D01*
X62666224Y-54565880D01*
X62624391Y-54570000D01*
X61375609Y-54570000D01*
X61333776Y-54565880D01*
X61298044Y-54555040D01*
X61265115Y-54537440D01*
X61236249Y-54513751D01*
X61212560Y-54484885D01*
X61194960Y-54451956D01*
X61184120Y-54416224D01*
X61180000Y-54374391D01*
X61180000Y-51225609D01*
X61184120Y-51183776D01*
X61194960Y-51148044D01*
X61212560Y-51115115D01*
X61236249Y-51086249D01*
X61265115Y-51062560D01*
X61298044Y-51044960D01*
X61333776Y-51034120D01*
X61375609Y-51030000D01*
X62624391Y-51030000D01*
X62666224Y-51034120D01*
X62666224Y-51034120D01*
G37*
G36*
X42679361Y-53757613D02*
G01*
X42700373Y-53763987D01*
X42719747Y-53774343D01*
X42736724Y-53788276D01*
X42750657Y-53805253D01*
X42761013Y-53824627D01*
X42767387Y-53845639D01*
X42770000Y-53872171D01*
X42770000Y-54277829D01*
X42767387Y-54304361D01*
X42761013Y-54325373D01*
X42750657Y-54344747D01*
X42736724Y-54361724D01*
X42719747Y-54375657D01*
X42700373Y-54386013D01*
X42679361Y-54392387D01*
X42652829Y-54395000D01*
X40897171Y-54395000D01*
X40870639Y-54392387D01*
X40849627Y-54386013D01*
X40830253Y-54375657D01*
X40813276Y-54361724D01*
X40799343Y-54344747D01*
X40788987Y-54325373D01*
X40782613Y-54304361D01*
X40780000Y-54277829D01*
X40780000Y-53872171D01*
X40782613Y-53845639D01*
X40788987Y-53824627D01*
X40799343Y-53805253D01*
X40813276Y-53788276D01*
X40830253Y-53774343D01*
X40849627Y-53763987D01*
X40870639Y-53757613D01*
X40897171Y-53755000D01*
X42652829Y-53755000D01*
X42679361Y-53757613D01*
X42679361Y-53757613D01*
G37*
G36*
X47629361Y-53757613D02*
G01*
X47650373Y-53763987D01*
X47669747Y-53774343D01*
X47686724Y-53788276D01*
X47700657Y-53805253D01*
X47711013Y-53824627D01*
X47717387Y-53845639D01*
X47720000Y-53872171D01*
X47720000Y-54277829D01*
X47717387Y-54304361D01*
X47711013Y-54325373D01*
X47700657Y-54344747D01*
X47686724Y-54361724D01*
X47669747Y-54375657D01*
X47650373Y-54386013D01*
X47629361Y-54392387D01*
X47602829Y-54395000D01*
X45847171Y-54395000D01*
X45820639Y-54392387D01*
X45799627Y-54386013D01*
X45780253Y-54375657D01*
X45763276Y-54361724D01*
X45749343Y-54344747D01*
X45738987Y-54325373D01*
X45732613Y-54304361D01*
X45730000Y-54277829D01*
X45730000Y-53872171D01*
X45732613Y-53845639D01*
X45738987Y-53824627D01*
X45749343Y-53805253D01*
X45763276Y-53788276D01*
X45780253Y-53774343D01*
X45799627Y-53763987D01*
X45820639Y-53757613D01*
X45847171Y-53755000D01*
X47602829Y-53755000D01*
X47629361Y-53757613D01*
X47629361Y-53757613D01*
G37*
G36*
X52220000Y-54120000D02*
G01*
X51280000Y-54120000D01*
X51280000Y-53280000D01*
X52220000Y-53280000D01*
X52220000Y-54120000D01*
X52220000Y-54120000D01*
G37*
G36*
X56028901Y-52534414D02*
G01*
X56067502Y-52546124D01*
X56103080Y-52565141D01*
X56134266Y-52590734D01*
X56159859Y-52621920D01*
X56178876Y-52657498D01*
X56190586Y-52696099D01*
X56195000Y-52740921D01*
X56195000Y-53759079D01*
X56190586Y-53803901D01*
X56178876Y-53842502D01*
X56159859Y-53878080D01*
X56134266Y-53909266D01*
X56103080Y-53934859D01*
X56067502Y-53953876D01*
X56028901Y-53965586D01*
X55984079Y-53970000D01*
X55390921Y-53970000D01*
X55346099Y-53965586D01*
X55307498Y-53953876D01*
X55271920Y-53934859D01*
X55240734Y-53909266D01*
X55215141Y-53878080D01*
X55196124Y-53842502D01*
X55184414Y-53803901D01*
X55180000Y-53759079D01*
X55180000Y-52740921D01*
X55184414Y-52696099D01*
X55196124Y-52657498D01*
X55215141Y-52621920D01*
X55240734Y-52590734D01*
X55271920Y-52565141D01*
X55307498Y-52546124D01*
X55346099Y-52534414D01*
X55390921Y-52530000D01*
X55984079Y-52530000D01*
X56028901Y-52534414D01*
X56028901Y-52534414D01*
G37*
G36*
X54153901Y-52534414D02*
G01*
X54192502Y-52546124D01*
X54228080Y-52565141D01*
X54259266Y-52590734D01*
X54284859Y-52621920D01*
X54303876Y-52657498D01*
X54315586Y-52696099D01*
X54320000Y-52740921D01*
X54320000Y-53759079D01*
X54315586Y-53803901D01*
X54303876Y-53842502D01*
X54284859Y-53878080D01*
X54259266Y-53909266D01*
X54228080Y-53934859D01*
X54192502Y-53953876D01*
X54153901Y-53965586D01*
X54109079Y-53970000D01*
X53515921Y-53970000D01*
X53471099Y-53965586D01*
X53432498Y-53953876D01*
X53396920Y-53934859D01*
X53365734Y-53909266D01*
X53340141Y-53878080D01*
X53321124Y-53842502D01*
X53309414Y-53803901D01*
X53305000Y-53759079D01*
X53305000Y-52740921D01*
X53309414Y-52696099D01*
X53321124Y-52657498D01*
X53340141Y-52621920D01*
X53365734Y-52590734D01*
X53396920Y-52565141D01*
X53432498Y-52546124D01*
X53471099Y-52534414D01*
X53515921Y-52530000D01*
X54109079Y-52530000D01*
X54153901Y-52534414D01*
X54153901Y-52534414D01*
G37*
G36*
X50220000Y-53170000D02*
G01*
X49280000Y-53170000D01*
X49280000Y-52330000D01*
X50220000Y-52330000D01*
X50220000Y-53170000D01*
X50220000Y-53170000D01*
G37*
G36*
X47629361Y-52487613D02*
G01*
X47650373Y-52493987D01*
X47669747Y-52504343D01*
X47686724Y-52518276D01*
X47700657Y-52535253D01*
X47711013Y-52554627D01*
X47717387Y-52575639D01*
X47720000Y-52602171D01*
X47720000Y-53007829D01*
X47717387Y-53034361D01*
X47711013Y-53055373D01*
X47700657Y-53074747D01*
X47686724Y-53091724D01*
X47669747Y-53105657D01*
X47650373Y-53116013D01*
X47629361Y-53122387D01*
X47602829Y-53125000D01*
X45847171Y-53125000D01*
X45820639Y-53122387D01*
X45799627Y-53116013D01*
X45780253Y-53105657D01*
X45763276Y-53091724D01*
X45749343Y-53074747D01*
X45738987Y-53055373D01*
X45732613Y-53034361D01*
X45730000Y-53007829D01*
X45730000Y-52602171D01*
X45732613Y-52575639D01*
X45738987Y-52554627D01*
X45749343Y-52535253D01*
X45763276Y-52518276D01*
X45780253Y-52504343D01*
X45799627Y-52493987D01*
X45820639Y-52487613D01*
X45847171Y-52485000D01*
X47602829Y-52485000D01*
X47629361Y-52487613D01*
X47629361Y-52487613D01*
G37*
G36*
X42679361Y-52487613D02*
G01*
X42700373Y-52493987D01*
X42719747Y-52504343D01*
X42736724Y-52518276D01*
X42750657Y-52535253D01*
X42761013Y-52554627D01*
X42767387Y-52575639D01*
X42770000Y-52602171D01*
X42770000Y-53007829D01*
X42767387Y-53034361D01*
X42761013Y-53055373D01*
X42750657Y-53074747D01*
X42736724Y-53091724D01*
X42719747Y-53105657D01*
X42700373Y-53116013D01*
X42679361Y-53122387D01*
X42652829Y-53125000D01*
X40897171Y-53125000D01*
X40870639Y-53122387D01*
X40849627Y-53116013D01*
X40830253Y-53105657D01*
X40813276Y-53091724D01*
X40799343Y-53074747D01*
X40788987Y-53055373D01*
X40782613Y-53034361D01*
X40780000Y-53007829D01*
X40780000Y-52602171D01*
X40782613Y-52575639D01*
X40788987Y-52554627D01*
X40799343Y-52535253D01*
X40813276Y-52518276D01*
X40830253Y-52504343D01*
X40849627Y-52493987D01*
X40870639Y-52487613D01*
X40897171Y-52485000D01*
X42652829Y-52485000D01*
X42679361Y-52487613D01*
X42679361Y-52487613D01*
G37*
G36*
X87303901Y-51684414D02*
G01*
X87342502Y-51696124D01*
X87378080Y-51715141D01*
X87409266Y-51740734D01*
X87434859Y-51771920D01*
X87453876Y-51807498D01*
X87465586Y-51846099D01*
X87470000Y-51890921D01*
X87470000Y-52484079D01*
X87465586Y-52528901D01*
X87453876Y-52567502D01*
X87434859Y-52603080D01*
X87409266Y-52634266D01*
X87378080Y-52659859D01*
X87342502Y-52678876D01*
X87303901Y-52690586D01*
X87259079Y-52695000D01*
X86240921Y-52695000D01*
X86196099Y-52690586D01*
X86157498Y-52678876D01*
X86121920Y-52659859D01*
X86090734Y-52634266D01*
X86065141Y-52603080D01*
X86046124Y-52567502D01*
X86034414Y-52528901D01*
X86030000Y-52484079D01*
X86030000Y-51890921D01*
X86034414Y-51846099D01*
X86046124Y-51807498D01*
X86065141Y-51771920D01*
X86090734Y-51740734D01*
X86121920Y-51715141D01*
X86157498Y-51696124D01*
X86196099Y-51684414D01*
X86240921Y-51680000D01*
X87259079Y-51680000D01*
X87303901Y-51684414D01*
X87303901Y-51684414D01*
G37*
G36*
X84553901Y-51684414D02*
G01*
X84592502Y-51696124D01*
X84628080Y-51715141D01*
X84659266Y-51740734D01*
X84684859Y-51771920D01*
X84703876Y-51807498D01*
X84715586Y-51846099D01*
X84720000Y-51890921D01*
X84720000Y-52484079D01*
X84715586Y-52528901D01*
X84703876Y-52567502D01*
X84684859Y-52603080D01*
X84659266Y-52634266D01*
X84628080Y-52659859D01*
X84592502Y-52678876D01*
X84553901Y-52690586D01*
X84509079Y-52695000D01*
X83490921Y-52695000D01*
X83446099Y-52690586D01*
X83407498Y-52678876D01*
X83371920Y-52659859D01*
X83340734Y-52634266D01*
X83315141Y-52603080D01*
X83296124Y-52567502D01*
X83284414Y-52528901D01*
X83280000Y-52484079D01*
X83280000Y-51890921D01*
X83284414Y-51846099D01*
X83296124Y-51807498D01*
X83315141Y-51771920D01*
X83340734Y-51740734D01*
X83371920Y-51715141D01*
X83407498Y-51696124D01*
X83446099Y-51684414D01*
X83490921Y-51680000D01*
X84509079Y-51680000D01*
X84553901Y-51684414D01*
X84553901Y-51684414D01*
G37*
G36*
X52220000Y-52220000D02*
G01*
X51280000Y-52220000D01*
X51280000Y-51380000D01*
X52220000Y-51380000D01*
X52220000Y-52220000D01*
X52220000Y-52220000D01*
G37*
G36*
X42024024Y-50758934D02*
G01*
X42057933Y-50769220D01*
X42089196Y-50785930D01*
X42116589Y-50808411D01*
X42139070Y-50835804D01*
X42155780Y-50867067D01*
X42166066Y-50900976D01*
X42170000Y-50940921D01*
X42170000Y-51559079D01*
X42166066Y-51599024D01*
X42155780Y-51632933D01*
X42139070Y-51664196D01*
X42116589Y-51691589D01*
X42089196Y-51714070D01*
X42057933Y-51730780D01*
X42024024Y-51741066D01*
X41984079Y-51745000D01*
X41440921Y-51745000D01*
X41400976Y-51741066D01*
X41367067Y-51730780D01*
X41335804Y-51714070D01*
X41308411Y-51691589D01*
X41285930Y-51664196D01*
X41269220Y-51632933D01*
X41258934Y-51599024D01*
X41255000Y-51559079D01*
X41255000Y-50940921D01*
X41258934Y-50900976D01*
X41269220Y-50867067D01*
X41285930Y-50835804D01*
X41308411Y-50808411D01*
X41335804Y-50785930D01*
X41367067Y-50769220D01*
X41400976Y-50758934D01*
X41440921Y-50755000D01*
X41984079Y-50755000D01*
X42024024Y-50758934D01*
X42024024Y-50758934D01*
G37*
G36*
X43599024Y-50758934D02*
G01*
X43632933Y-50769220D01*
X43664196Y-50785930D01*
X43691589Y-50808411D01*
X43714070Y-50835804D01*
X43730780Y-50867067D01*
X43741066Y-50900976D01*
X43745000Y-50940921D01*
X43745000Y-51559079D01*
X43741066Y-51599024D01*
X43730780Y-51632933D01*
X43714070Y-51664196D01*
X43691589Y-51691589D01*
X43664196Y-51714070D01*
X43632933Y-51730780D01*
X43599024Y-51741066D01*
X43559079Y-51745000D01*
X43015921Y-51745000D01*
X42975976Y-51741066D01*
X42942067Y-51730780D01*
X42910804Y-51714070D01*
X42883411Y-51691589D01*
X42860930Y-51664196D01*
X42844220Y-51632933D01*
X42833934Y-51599024D01*
X42830000Y-51559079D01*
X42830000Y-50940921D01*
X42833934Y-50900976D01*
X42844220Y-50867067D01*
X42860930Y-50835804D01*
X42883411Y-50808411D01*
X42910804Y-50785930D01*
X42942067Y-50769220D01*
X42975976Y-50758934D01*
X43015921Y-50755000D01*
X43559079Y-50755000D01*
X43599024Y-50758934D01*
X43599024Y-50758934D01*
G37*
G36*
X87303901Y-49809414D02*
G01*
X87342502Y-49821124D01*
X87378080Y-49840141D01*
X87409266Y-49865734D01*
X87434859Y-49896920D01*
X87453876Y-49932498D01*
X87465586Y-49971099D01*
X87470000Y-50015921D01*
X87470000Y-50609079D01*
X87465586Y-50653901D01*
X87453876Y-50692502D01*
X87434859Y-50728080D01*
X87409266Y-50759266D01*
X87378080Y-50784859D01*
X87342502Y-50803876D01*
X87303901Y-50815586D01*
X87259079Y-50820000D01*
X86240921Y-50820000D01*
X86196099Y-50815586D01*
X86157498Y-50803876D01*
X86121920Y-50784859D01*
X86090734Y-50759266D01*
X86065141Y-50728080D01*
X86046124Y-50692502D01*
X86034414Y-50653901D01*
X86030000Y-50609079D01*
X86030000Y-50015921D01*
X86034414Y-49971099D01*
X86046124Y-49932498D01*
X86065141Y-49896920D01*
X86090734Y-49865734D01*
X86121920Y-49840141D01*
X86157498Y-49821124D01*
X86196099Y-49809414D01*
X86240921Y-49805000D01*
X87259079Y-49805000D01*
X87303901Y-49809414D01*
X87303901Y-49809414D01*
G37*
G36*
X84553901Y-49809414D02*
G01*
X84592502Y-49821124D01*
X84628080Y-49840141D01*
X84659266Y-49865734D01*
X84684859Y-49896920D01*
X84703876Y-49932498D01*
X84715586Y-49971099D01*
X84720000Y-50015921D01*
X84720000Y-50609079D01*
X84715586Y-50653901D01*
X84703876Y-50692502D01*
X84684859Y-50728080D01*
X84659266Y-50759266D01*
X84628080Y-50784859D01*
X84592502Y-50803876D01*
X84553901Y-50815586D01*
X84509079Y-50820000D01*
X83490921Y-50820000D01*
X83446099Y-50815586D01*
X83407498Y-50803876D01*
X83371920Y-50784859D01*
X83340734Y-50759266D01*
X83315141Y-50728080D01*
X83296124Y-50692502D01*
X83284414Y-50653901D01*
X83280000Y-50609079D01*
X83280000Y-50015921D01*
X83284414Y-49971099D01*
X83296124Y-49932498D01*
X83315141Y-49896920D01*
X83340734Y-49865734D01*
X83371920Y-49840141D01*
X83407498Y-49821124D01*
X83446099Y-49809414D01*
X83490921Y-49805000D01*
X84509079Y-49805000D01*
X84553901Y-49809414D01*
X84553901Y-49809414D01*
G37*
G36*
X55870445Y-47778805D02*
G01*
X55870448Y-47778806D01*
X55870447Y-47778806D01*
X56101570Y-47874540D01*
X56309582Y-48013530D01*
X56486470Y-48190418D01*
X56486472Y-48190421D01*
X56486473Y-48190422D01*
X56506236Y-48220000D01*
X56625460Y-48398430D01*
X56699507Y-48577195D01*
X56721195Y-48629555D01*
X56770000Y-48874916D01*
X56770000Y-49125084D01*
X56721195Y-49370445D01*
X56721194Y-49370447D01*
X56625460Y-49601570D01*
X56625459Y-49601571D01*
X56486583Y-49809414D01*
X56486470Y-49809582D01*
X56309582Y-49986470D01*
X56101570Y-50125460D01*
X55922805Y-50199507D01*
X55870445Y-50221195D01*
X55625084Y-50270000D01*
X55374916Y-50270000D01*
X55129555Y-50221195D01*
X55077195Y-50199507D01*
X54898430Y-50125460D01*
X54690418Y-49986470D01*
X54513530Y-49809582D01*
X54513418Y-49809414D01*
X54374541Y-49601571D01*
X54374540Y-49601570D01*
X54278806Y-49370447D01*
X54278805Y-49370445D01*
X54230000Y-49125084D01*
X54230000Y-48874916D01*
X54278805Y-48629555D01*
X54300493Y-48577195D01*
X54374540Y-48398430D01*
X54493764Y-48220000D01*
X54513527Y-48190422D01*
X54513528Y-48190421D01*
X54513530Y-48190418D01*
X54690418Y-48013530D01*
X54898430Y-47874540D01*
X55129553Y-47778806D01*
X55129552Y-47778806D01*
X55129555Y-47778805D01*
X55374916Y-47730000D01*
X55625084Y-47730000D01*
X55870445Y-47778805D01*
X55870445Y-47778805D01*
G37*
G36*
X79666224Y-45434120D02*
G01*
X79701956Y-45444960D01*
X79734885Y-45462560D01*
X79763751Y-45486249D01*
X79787440Y-45515115D01*
X79805040Y-45548044D01*
X79815880Y-45583776D01*
X79820000Y-45625609D01*
X79820000Y-48774391D01*
X79815880Y-48816224D01*
X79805040Y-48851956D01*
X79787440Y-48884885D01*
X79763751Y-48913751D01*
X79734885Y-48937440D01*
X79701956Y-48955040D01*
X79666224Y-48965880D01*
X79624391Y-48970000D01*
X78375609Y-48970000D01*
X78333776Y-48965880D01*
X78298044Y-48955040D01*
X78265115Y-48937440D01*
X78236249Y-48913751D01*
X78212560Y-48884885D01*
X78194960Y-48851956D01*
X78184120Y-48816224D01*
X78180000Y-48774391D01*
X78180000Y-45625609D01*
X78184120Y-45583776D01*
X78194960Y-45548044D01*
X78212560Y-45515115D01*
X78236249Y-45486249D01*
X78265115Y-45462560D01*
X78298044Y-45444960D01*
X78333776Y-45434120D01*
X78375609Y-45430000D01*
X79624391Y-45430000D01*
X79666224Y-45434120D01*
X79666224Y-45434120D01*
G37*
G36*
X71166224Y-45434120D02*
G01*
X71201956Y-45444960D01*
X71234885Y-45462560D01*
X71263751Y-45486249D01*
X71287440Y-45515115D01*
X71305040Y-45548044D01*
X71315880Y-45583776D01*
X71320000Y-45625609D01*
X71320000Y-48774391D01*
X71315880Y-48816224D01*
X71305040Y-48851956D01*
X71287440Y-48884885D01*
X71263751Y-48913751D01*
X71234885Y-48937440D01*
X71201956Y-48955040D01*
X71166224Y-48965880D01*
X71124391Y-48970000D01*
X69875609Y-48970000D01*
X69833776Y-48965880D01*
X69798044Y-48955040D01*
X69765115Y-48937440D01*
X69736249Y-48913751D01*
X69712560Y-48884885D01*
X69694960Y-48851956D01*
X69684120Y-48816224D01*
X69680000Y-48774391D01*
X69680000Y-45625609D01*
X69684120Y-45583776D01*
X69694960Y-45548044D01*
X69712560Y-45515115D01*
X69736249Y-45486249D01*
X69765115Y-45462560D01*
X69798044Y-45444960D01*
X69833776Y-45434120D01*
X69875609Y-45430000D01*
X71124391Y-45430000D01*
X71166224Y-45434120D01*
X71166224Y-45434120D01*
G37*
G36*
X62666224Y-45434120D02*
G01*
X62701956Y-45444960D01*
X62734885Y-45462560D01*
X62763751Y-45486249D01*
X62787440Y-45515115D01*
X62805040Y-45548044D01*
X62815880Y-45583776D01*
X62820000Y-45625609D01*
X62820000Y-48774391D01*
X62815880Y-48816224D01*
X62805040Y-48851956D01*
X62787440Y-48884885D01*
X62763751Y-48913751D01*
X62734885Y-48937440D01*
X62701956Y-48955040D01*
X62666224Y-48965880D01*
X62624391Y-48970000D01*
X61375609Y-48970000D01*
X61333776Y-48965880D01*
X61298044Y-48955040D01*
X61265115Y-48937440D01*
X61236249Y-48913751D01*
X61212560Y-48884885D01*
X61194960Y-48851956D01*
X61184120Y-48816224D01*
X61180000Y-48774391D01*
X61180000Y-45625609D01*
X61184120Y-45583776D01*
X61194960Y-45548044D01*
X61212560Y-45515115D01*
X61236249Y-45486249D01*
X61265115Y-45462560D01*
X61298044Y-45444960D01*
X61333776Y-45434120D01*
X61375609Y-45430000D01*
X62624391Y-45430000D01*
X62666224Y-45434120D01*
X62666224Y-45434120D01*
G37*
G36*
X85220000Y-48620000D02*
G01*
X84280000Y-48620000D01*
X84280000Y-47780000D01*
X85220000Y-47780000D01*
X85220000Y-48620000D01*
X85220000Y-48620000D01*
G37*
G36*
X44380016Y-46807669D02*
G01*
X44511048Y-46861944D01*
X44628973Y-46940739D01*
X44729261Y-47041027D01*
X44808056Y-47158952D01*
X44862331Y-47289984D01*
X44890000Y-47429086D01*
X44890000Y-47570914D01*
X44862331Y-47710016D01*
X44808056Y-47841048D01*
X44729261Y-47958973D01*
X44628973Y-48059261D01*
X44511048Y-48138056D01*
X44380016Y-48192331D01*
X44240914Y-48220000D01*
X44099086Y-48220000D01*
X43959984Y-48192331D01*
X43828952Y-48138056D01*
X43711027Y-48059261D01*
X43610739Y-47958973D01*
X43531944Y-47841048D01*
X43477669Y-47710016D01*
X43450000Y-47570914D01*
X43450000Y-47429086D01*
X43477669Y-47289984D01*
X43531944Y-47158952D01*
X43610739Y-47041027D01*
X43711027Y-46940739D01*
X43828952Y-46861944D01*
X43959984Y-46807669D01*
X44099086Y-46780000D01*
X44240914Y-46780000D01*
X44380016Y-46807669D01*
X44380016Y-46807669D01*
G37*
G36*
X39300016Y-46807669D02*
G01*
X39431048Y-46861944D01*
X39548973Y-46940739D01*
X39649261Y-47041027D01*
X39728056Y-47158952D01*
X39782331Y-47289984D01*
X39810000Y-47429086D01*
X39810000Y-47570914D01*
X39782331Y-47710016D01*
X39728056Y-47841048D01*
X39649261Y-47958973D01*
X39548973Y-48059261D01*
X39431048Y-48138056D01*
X39300016Y-48192331D01*
X39160914Y-48220000D01*
X39019086Y-48220000D01*
X38879984Y-48192331D01*
X38748952Y-48138056D01*
X38631027Y-48059261D01*
X38530739Y-47958973D01*
X38451944Y-47841048D01*
X38397669Y-47710016D01*
X38370000Y-47570914D01*
X38370000Y-47429086D01*
X38397669Y-47289984D01*
X38451944Y-47158952D01*
X38530739Y-47041027D01*
X38631027Y-46940739D01*
X38748952Y-46861944D01*
X38879984Y-46807669D01*
X39019086Y-46780000D01*
X39160914Y-46780000D01*
X39300016Y-46807669D01*
X39300016Y-46807669D01*
G37*
G36*
X49970000Y-48220000D02*
G01*
X48530000Y-48220000D01*
X48530000Y-46780000D01*
X49970000Y-46780000D01*
X49970000Y-48220000D01*
X49970000Y-48220000D01*
G37*
G36*
X34220016Y-46807669D02*
G01*
X34351048Y-46861944D01*
X34468973Y-46940739D01*
X34569261Y-47041027D01*
X34648056Y-47158952D01*
X34702331Y-47289984D01*
X34730000Y-47429086D01*
X34730000Y-47570914D01*
X34702331Y-47710016D01*
X34648056Y-47841048D01*
X34569261Y-47958973D01*
X34468973Y-48059261D01*
X34351048Y-48138056D01*
X34220016Y-48192331D01*
X34080914Y-48220000D01*
X33939086Y-48220000D01*
X33799984Y-48192331D01*
X33668952Y-48138056D01*
X33551027Y-48059261D01*
X33450739Y-47958973D01*
X33371944Y-47841048D01*
X33317669Y-47710016D01*
X33290000Y-47570914D01*
X33290000Y-47429086D01*
X33317669Y-47289984D01*
X33371944Y-47158952D01*
X33450739Y-47041027D01*
X33551027Y-46940739D01*
X33668952Y-46861944D01*
X33799984Y-46807669D01*
X33939086Y-46780000D01*
X34080914Y-46780000D01*
X34220016Y-46807669D01*
X34220016Y-46807669D01*
G37*
G36*
X87220000Y-47670000D02*
G01*
X86280000Y-47670000D01*
X86280000Y-46830000D01*
X87220000Y-46830000D01*
X87220000Y-47670000D01*
X87220000Y-47670000D01*
G37*
G36*
X85220000Y-46720000D02*
G01*
X84280000Y-46720000D01*
X84280000Y-45880000D01*
X85220000Y-45880000D01*
X85220000Y-46720000D01*
X85220000Y-46720000D01*
G37*
G36*
X55970000Y-45870000D02*
G01*
X55030000Y-45870000D01*
X55030000Y-45030000D01*
X55970000Y-45030000D01*
X55970000Y-45870000D01*
X55970000Y-45870000D01*
G37*
G36*
X53970000Y-44920000D02*
G01*
X53030000Y-44920000D01*
X53030000Y-44080000D01*
X53970000Y-44080000D01*
X53970000Y-44920000D01*
X53970000Y-44920000D01*
G37*
G36*
X64778901Y-42784414D02*
G01*
X64817502Y-42796124D01*
X64853080Y-42815141D01*
X64884266Y-42840734D01*
X64909859Y-42871920D01*
X64928876Y-42907498D01*
X64940586Y-42946099D01*
X64945000Y-42990921D01*
X64945000Y-44009079D01*
X64940586Y-44053901D01*
X64928876Y-44092502D01*
X64909859Y-44128080D01*
X64884266Y-44159266D01*
X64853080Y-44184859D01*
X64817502Y-44203876D01*
X64778901Y-44215586D01*
X64734079Y-44220000D01*
X64140921Y-44220000D01*
X64096099Y-44215586D01*
X64057498Y-44203876D01*
X64021920Y-44184859D01*
X63990734Y-44159266D01*
X63965141Y-44128080D01*
X63946124Y-44092502D01*
X63934414Y-44053901D01*
X63930000Y-44009079D01*
X63930000Y-42990921D01*
X63934414Y-42946099D01*
X63946124Y-42907498D01*
X63965141Y-42871920D01*
X63990734Y-42840734D01*
X64021920Y-42815141D01*
X64057498Y-42796124D01*
X64096099Y-42784414D01*
X64140921Y-42780000D01*
X64734079Y-42780000D01*
X64778901Y-42784414D01*
X64778901Y-42784414D01*
G37*
G36*
X60278901Y-42784414D02*
G01*
X60317502Y-42796124D01*
X60353080Y-42815141D01*
X60384266Y-42840734D01*
X60409859Y-42871920D01*
X60428876Y-42907498D01*
X60440586Y-42946099D01*
X60445000Y-42990921D01*
X60445000Y-44009079D01*
X60440586Y-44053901D01*
X60428876Y-44092502D01*
X60409859Y-44128080D01*
X60384266Y-44159266D01*
X60353080Y-44184859D01*
X60317502Y-44203876D01*
X60278901Y-44215586D01*
X60234079Y-44220000D01*
X59640921Y-44220000D01*
X59596099Y-44215586D01*
X59557498Y-44203876D01*
X59521920Y-44184859D01*
X59490734Y-44159266D01*
X59465141Y-44128080D01*
X59446124Y-44092502D01*
X59434414Y-44053901D01*
X59430000Y-44009079D01*
X59430000Y-42990921D01*
X59434414Y-42946099D01*
X59446124Y-42907498D01*
X59465141Y-42871920D01*
X59490734Y-42840734D01*
X59521920Y-42815141D01*
X59557498Y-42796124D01*
X59596099Y-42784414D01*
X59640921Y-42780000D01*
X60234079Y-42780000D01*
X60278901Y-42784414D01*
X60278901Y-42784414D01*
G37*
G36*
X62903901Y-42784414D02*
G01*
X62942502Y-42796124D01*
X62978080Y-42815141D01*
X63009266Y-42840734D01*
X63034859Y-42871920D01*
X63053876Y-42907498D01*
X63065586Y-42946099D01*
X63070000Y-42990921D01*
X63070000Y-44009079D01*
X63065586Y-44053901D01*
X63053876Y-44092502D01*
X63034859Y-44128080D01*
X63009266Y-44159266D01*
X62978080Y-44184859D01*
X62942502Y-44203876D01*
X62903901Y-44215586D01*
X62859079Y-44220000D01*
X62265921Y-44220000D01*
X62221099Y-44215586D01*
X62182498Y-44203876D01*
X62146920Y-44184859D01*
X62115734Y-44159266D01*
X62090141Y-44128080D01*
X62071124Y-44092502D01*
X62059414Y-44053901D01*
X62055000Y-44009079D01*
X62055000Y-42990921D01*
X62059414Y-42946099D01*
X62071124Y-42907498D01*
X62090141Y-42871920D01*
X62115734Y-42840734D01*
X62146920Y-42815141D01*
X62182498Y-42796124D01*
X62221099Y-42784414D01*
X62265921Y-42780000D01*
X62859079Y-42780000D01*
X62903901Y-42784414D01*
X62903901Y-42784414D01*
G37*
G36*
X58403901Y-42784414D02*
G01*
X58442502Y-42796124D01*
X58478080Y-42815141D01*
X58509266Y-42840734D01*
X58534859Y-42871920D01*
X58553876Y-42907498D01*
X58565586Y-42946099D01*
X58570000Y-42990921D01*
X58570000Y-44009079D01*
X58565586Y-44053901D01*
X58553876Y-44092502D01*
X58534859Y-44128080D01*
X58509266Y-44159266D01*
X58478080Y-44184859D01*
X58442502Y-44203876D01*
X58403901Y-44215586D01*
X58359079Y-44220000D01*
X57765921Y-44220000D01*
X57721099Y-44215586D01*
X57682498Y-44203876D01*
X57646920Y-44184859D01*
X57615734Y-44159266D01*
X57590141Y-44128080D01*
X57571124Y-44092502D01*
X57559414Y-44053901D01*
X57555000Y-44009079D01*
X57555000Y-42990921D01*
X57559414Y-42946099D01*
X57571124Y-42907498D01*
X57590141Y-42871920D01*
X57615734Y-42840734D01*
X57646920Y-42815141D01*
X57682498Y-42796124D01*
X57721099Y-42784414D01*
X57765921Y-42780000D01*
X58359079Y-42780000D01*
X58403901Y-42784414D01*
X58403901Y-42784414D01*
G37*
G36*
X55970000Y-43970000D02*
G01*
X55030000Y-43970000D01*
X55030000Y-43130000D01*
X55970000Y-43130000D01*
X55970000Y-43970000D01*
X55970000Y-43970000D01*
G37*
G36*
X74629361Y-42992613D02*
G01*
X74650373Y-42998987D01*
X74669747Y-43009343D01*
X74686724Y-43023276D01*
X74700657Y-43040253D01*
X74711013Y-43059627D01*
X74717387Y-43080639D01*
X74720000Y-43107171D01*
X74720000Y-43512829D01*
X74717387Y-43539361D01*
X74711013Y-43560373D01*
X74700657Y-43579747D01*
X74686724Y-43596724D01*
X74669747Y-43610657D01*
X74650373Y-43621013D01*
X74629361Y-43627387D01*
X74602829Y-43630000D01*
X72847171Y-43630000D01*
X72820639Y-43627387D01*
X72799627Y-43621013D01*
X72780253Y-43610657D01*
X72763276Y-43596724D01*
X72749343Y-43579747D01*
X72738987Y-43560373D01*
X72732613Y-43539361D01*
X72730000Y-43512829D01*
X72730000Y-43107171D01*
X72732613Y-43080639D01*
X72738987Y-43059627D01*
X72749343Y-43040253D01*
X72763276Y-43023276D01*
X72780253Y-43009343D01*
X72799627Y-42998987D01*
X72820639Y-42992613D01*
X72847171Y-42990000D01*
X74602829Y-42990000D01*
X74629361Y-42992613D01*
X74629361Y-42992613D01*
G37*
G36*
X69679361Y-42992613D02*
G01*
X69700373Y-42998987D01*
X69719747Y-43009343D01*
X69736724Y-43023276D01*
X69750657Y-43040253D01*
X69761013Y-43059627D01*
X69767387Y-43080639D01*
X69770000Y-43107171D01*
X69770000Y-43512829D01*
X69767387Y-43539361D01*
X69761013Y-43560373D01*
X69750657Y-43579747D01*
X69736724Y-43596724D01*
X69719747Y-43610657D01*
X69700373Y-43621013D01*
X69679361Y-43627387D01*
X69652829Y-43630000D01*
X67897171Y-43630000D01*
X67870639Y-43627387D01*
X67849627Y-43621013D01*
X67830253Y-43610657D01*
X67813276Y-43596724D01*
X67799343Y-43579747D01*
X67788987Y-43560373D01*
X67782613Y-43539361D01*
X67780000Y-43512829D01*
X67780000Y-43107171D01*
X67782613Y-43080639D01*
X67788987Y-43059627D01*
X67799343Y-43040253D01*
X67813276Y-43023276D01*
X67830253Y-43009343D01*
X67849627Y-42998987D01*
X67870639Y-42992613D01*
X67897171Y-42990000D01*
X69652829Y-42990000D01*
X69679361Y-42992613D01*
X69679361Y-42992613D01*
G37*
G36*
X85320000Y-43320000D02*
G01*
X82680000Y-43320000D01*
X82680000Y-40680000D01*
X85320000Y-40680000D01*
X85320000Y-43320000D01*
X85320000Y-43320000D01*
G37*
G36*
X74629361Y-41722613D02*
G01*
X74650373Y-41728987D01*
X74669747Y-41739343D01*
X74686724Y-41753276D01*
X74700657Y-41770253D01*
X74711013Y-41789627D01*
X74717387Y-41810639D01*
X74720000Y-41837171D01*
X74720000Y-42242829D01*
X74717387Y-42269361D01*
X74711013Y-42290373D01*
X74700657Y-42309747D01*
X74686724Y-42326724D01*
X74669747Y-42340657D01*
X74650373Y-42351013D01*
X74629361Y-42357387D01*
X74602829Y-42360000D01*
X72847171Y-42360000D01*
X72820639Y-42357387D01*
X72799627Y-42351013D01*
X72780253Y-42340657D01*
X72763276Y-42326724D01*
X72749343Y-42309747D01*
X72738987Y-42290373D01*
X72732613Y-42269361D01*
X72730000Y-42242829D01*
X72730000Y-41837171D01*
X72732613Y-41810639D01*
X72738987Y-41789627D01*
X72749343Y-41770253D01*
X72763276Y-41753276D01*
X72780253Y-41739343D01*
X72799627Y-41728987D01*
X72820639Y-41722613D01*
X72847171Y-41720000D01*
X74602829Y-41720000D01*
X74629361Y-41722613D01*
X74629361Y-41722613D01*
G37*
G36*
X69679361Y-41722613D02*
G01*
X69700373Y-41728987D01*
X69719747Y-41739343D01*
X69736724Y-41753276D01*
X69750657Y-41770253D01*
X69761013Y-41789627D01*
X69767387Y-41810639D01*
X69770000Y-41837171D01*
X69770000Y-42242829D01*
X69767387Y-42269361D01*
X69761013Y-42290373D01*
X69750657Y-42309747D01*
X69736724Y-42326724D01*
X69719747Y-42340657D01*
X69700373Y-42351013D01*
X69679361Y-42357387D01*
X69652829Y-42360000D01*
X67897171Y-42360000D01*
X67870639Y-42357387D01*
X67849627Y-42351013D01*
X67830253Y-42340657D01*
X67813276Y-42326724D01*
X67799343Y-42309747D01*
X67788987Y-42290373D01*
X67782613Y-42269361D01*
X67780000Y-42242829D01*
X67780000Y-41837171D01*
X67782613Y-41810639D01*
X67788987Y-41789627D01*
X67799343Y-41770253D01*
X67813276Y-41753276D01*
X67830253Y-41739343D01*
X67849627Y-41728987D01*
X67870639Y-41722613D01*
X67897171Y-41720000D01*
X69652829Y-41720000D01*
X69679361Y-41722613D01*
X69679361Y-41722613D01*
G37*
G36*
X39300016Y-40057669D02*
G01*
X39431048Y-40111944D01*
X39548973Y-40190739D01*
X39649261Y-40291027D01*
X39728056Y-40408952D01*
X39782331Y-40539984D01*
X39810000Y-40679086D01*
X39810000Y-40820914D01*
X39782331Y-40960016D01*
X39728056Y-41091048D01*
X39649261Y-41208973D01*
X39548973Y-41309261D01*
X39431048Y-41388056D01*
X39300016Y-41442331D01*
X39160914Y-41470000D01*
X39019086Y-41470000D01*
X38879984Y-41442331D01*
X38748952Y-41388056D01*
X38631027Y-41309261D01*
X38530739Y-41208973D01*
X38451944Y-41091048D01*
X38397669Y-40960016D01*
X38370000Y-40820914D01*
X38370000Y-40679086D01*
X38397669Y-40539984D01*
X38451944Y-40408952D01*
X38530739Y-40291027D01*
X38631027Y-40190739D01*
X38748952Y-40111944D01*
X38879984Y-40057669D01*
X39019086Y-40030000D01*
X39160914Y-40030000D01*
X39300016Y-40057669D01*
X39300016Y-40057669D01*
G37*
G36*
X49970000Y-41470000D02*
G01*
X48530000Y-41470000D01*
X48530000Y-40030000D01*
X49970000Y-40030000D01*
X49970000Y-41470000D01*
X49970000Y-41470000D01*
G37*
G36*
X44380016Y-40057669D02*
G01*
X44511048Y-40111944D01*
X44628973Y-40190739D01*
X44729261Y-40291027D01*
X44808056Y-40408952D01*
X44862331Y-40539984D01*
X44890000Y-40679086D01*
X44890000Y-40820914D01*
X44862331Y-40960016D01*
X44808056Y-41091048D01*
X44729261Y-41208973D01*
X44628973Y-41309261D01*
X44511048Y-41388056D01*
X44380016Y-41442331D01*
X44240914Y-41470000D01*
X44099086Y-41470000D01*
X43959984Y-41442331D01*
X43828952Y-41388056D01*
X43711027Y-41309261D01*
X43610739Y-41208973D01*
X43531944Y-41091048D01*
X43477669Y-40960016D01*
X43450000Y-40820914D01*
X43450000Y-40679086D01*
X43477669Y-40539984D01*
X43531944Y-40408952D01*
X43610739Y-40291027D01*
X43711027Y-40190739D01*
X43828952Y-40111944D01*
X43959984Y-40057669D01*
X44099086Y-40030000D01*
X44240914Y-40030000D01*
X44380016Y-40057669D01*
X44380016Y-40057669D01*
G37*
G36*
X34220016Y-40057669D02*
G01*
X34351048Y-40111944D01*
X34468973Y-40190739D01*
X34569261Y-40291027D01*
X34648056Y-40408952D01*
X34702331Y-40539984D01*
X34730000Y-40679086D01*
X34730000Y-40820914D01*
X34702331Y-40960016D01*
X34648056Y-41091048D01*
X34569261Y-41208973D01*
X34468973Y-41309261D01*
X34351048Y-41388056D01*
X34220016Y-41442331D01*
X34080914Y-41470000D01*
X33939086Y-41470000D01*
X33799984Y-41442331D01*
X33668952Y-41388056D01*
X33551027Y-41309261D01*
X33450739Y-41208973D01*
X33371944Y-41091048D01*
X33317669Y-40960016D01*
X33290000Y-40820914D01*
X33290000Y-40679086D01*
X33317669Y-40539984D01*
X33371944Y-40408952D01*
X33450739Y-40291027D01*
X33551027Y-40190739D01*
X33668952Y-40111944D01*
X33799984Y-40057669D01*
X33939086Y-40030000D01*
X34080914Y-40030000D01*
X34220016Y-40057669D01*
X34220016Y-40057669D01*
G37*
G36*
X55970000Y-41370000D02*
G01*
X55030000Y-41370000D01*
X55030000Y-40530000D01*
X55970000Y-40530000D01*
X55970000Y-41370000D01*
X55970000Y-41370000D01*
G37*
G36*
X74629361Y-40452613D02*
G01*
X74650373Y-40458987D01*
X74669747Y-40469343D01*
X74686724Y-40483276D01*
X74700657Y-40500253D01*
X74711013Y-40519627D01*
X74717387Y-40540639D01*
X74720000Y-40567171D01*
X74720000Y-40972829D01*
X74717387Y-40999361D01*
X74711013Y-41020373D01*
X74700657Y-41039747D01*
X74686724Y-41056724D01*
X74669747Y-41070657D01*
X74650373Y-41081013D01*
X74629361Y-41087387D01*
X74602829Y-41090000D01*
X72847171Y-41090000D01*
X72820639Y-41087387D01*
X72799627Y-41081013D01*
X72780253Y-41070657D01*
X72763276Y-41056724D01*
X72749343Y-41039747D01*
X72738987Y-41020373D01*
X72732613Y-40999361D01*
X72730000Y-40972829D01*
X72730000Y-40567171D01*
X72732613Y-40540639D01*
X72738987Y-40519627D01*
X72749343Y-40500253D01*
X72763276Y-40483276D01*
X72780253Y-40469343D01*
X72799627Y-40458987D01*
X72820639Y-40452613D01*
X72847171Y-40450000D01*
X74602829Y-40450000D01*
X74629361Y-40452613D01*
X74629361Y-40452613D01*
G37*
G36*
X69679361Y-40452613D02*
G01*
X69700373Y-40458987D01*
X69719747Y-40469343D01*
X69736724Y-40483276D01*
X69750657Y-40500253D01*
X69761013Y-40519627D01*
X69767387Y-40540639D01*
X69770000Y-40567171D01*
X69770000Y-40972829D01*
X69767387Y-40999361D01*
X69761013Y-41020373D01*
X69750657Y-41039747D01*
X69736724Y-41056724D01*
X69719747Y-41070657D01*
X69700373Y-41081013D01*
X69679361Y-41087387D01*
X69652829Y-41090000D01*
X67897171Y-41090000D01*
X67870639Y-41087387D01*
X67849627Y-41081013D01*
X67830253Y-41070657D01*
X67813276Y-41056724D01*
X67799343Y-41039747D01*
X67788987Y-41020373D01*
X67782613Y-40999361D01*
X67780000Y-40972829D01*
X67780000Y-40567171D01*
X67782613Y-40540639D01*
X67788987Y-40519627D01*
X67799343Y-40500253D01*
X67813276Y-40483276D01*
X67830253Y-40469343D01*
X67849627Y-40458987D01*
X67870639Y-40452613D01*
X67897171Y-40450000D01*
X69652829Y-40450000D01*
X69679361Y-40452613D01*
X69679361Y-40452613D01*
G37*
G36*
X77553901Y-39934414D02*
G01*
X77592502Y-39946124D01*
X77628080Y-39965141D01*
X77659266Y-39990734D01*
X77684859Y-40021920D01*
X77703876Y-40057498D01*
X77715586Y-40096099D01*
X77720000Y-40140921D01*
X77720000Y-40734079D01*
X77715586Y-40778901D01*
X77703876Y-40817502D01*
X77684859Y-40853080D01*
X77659266Y-40884266D01*
X77628080Y-40909859D01*
X77592502Y-40928876D01*
X77553901Y-40940586D01*
X77509079Y-40945000D01*
X76490921Y-40945000D01*
X76446099Y-40940586D01*
X76407498Y-40928876D01*
X76371920Y-40909859D01*
X76340734Y-40884266D01*
X76315141Y-40853080D01*
X76296124Y-40817502D01*
X76284414Y-40778901D01*
X76280000Y-40734079D01*
X76280000Y-40140921D01*
X76284414Y-40096099D01*
X76296124Y-40057498D01*
X76315141Y-40021920D01*
X76340734Y-39990734D01*
X76371920Y-39965141D01*
X76407498Y-39946124D01*
X76446099Y-39934414D01*
X76490921Y-39930000D01*
X77509079Y-39930000D01*
X77553901Y-39934414D01*
X77553901Y-39934414D01*
G37*
G36*
X60278901Y-39284414D02*
G01*
X60317502Y-39296124D01*
X60353080Y-39315141D01*
X60384266Y-39340734D01*
X60409859Y-39371920D01*
X60428876Y-39407498D01*
X60440586Y-39446099D01*
X60445000Y-39490921D01*
X60445000Y-40509079D01*
X60440586Y-40553901D01*
X60428876Y-40592502D01*
X60409859Y-40628080D01*
X60384266Y-40659266D01*
X60353080Y-40684859D01*
X60317502Y-40703876D01*
X60278901Y-40715586D01*
X60234079Y-40720000D01*
X59640921Y-40720000D01*
X59596099Y-40715586D01*
X59557498Y-40703876D01*
X59521920Y-40684859D01*
X59490734Y-40659266D01*
X59465141Y-40628080D01*
X59446124Y-40592502D01*
X59434414Y-40553901D01*
X59430000Y-40509079D01*
X59430000Y-39490921D01*
X59434414Y-39446099D01*
X59446124Y-39407498D01*
X59465141Y-39371920D01*
X59490734Y-39340734D01*
X59521920Y-39315141D01*
X59557498Y-39296124D01*
X59596099Y-39284414D01*
X59640921Y-39280000D01*
X60234079Y-39280000D01*
X60278901Y-39284414D01*
X60278901Y-39284414D01*
G37*
G36*
X64778901Y-39284414D02*
G01*
X64817502Y-39296124D01*
X64853080Y-39315141D01*
X64884266Y-39340734D01*
X64909859Y-39371920D01*
X64928876Y-39407498D01*
X64940586Y-39446099D01*
X64945000Y-39490921D01*
X64945000Y-40509079D01*
X64940586Y-40553901D01*
X64928876Y-40592502D01*
X64909859Y-40628080D01*
X64884266Y-40659266D01*
X64853080Y-40684859D01*
X64817502Y-40703876D01*
X64778901Y-40715586D01*
X64734079Y-40720000D01*
X64140921Y-40720000D01*
X64096099Y-40715586D01*
X64057498Y-40703876D01*
X64021920Y-40684859D01*
X63990734Y-40659266D01*
X63965141Y-40628080D01*
X63946124Y-40592502D01*
X63934414Y-40553901D01*
X63930000Y-40509079D01*
X63930000Y-39490921D01*
X63934414Y-39446099D01*
X63946124Y-39407498D01*
X63965141Y-39371920D01*
X63990734Y-39340734D01*
X64021920Y-39315141D01*
X64057498Y-39296124D01*
X64096099Y-39284414D01*
X64140921Y-39280000D01*
X64734079Y-39280000D01*
X64778901Y-39284414D01*
X64778901Y-39284414D01*
G37*
G36*
X62903901Y-39284414D02*
G01*
X62942502Y-39296124D01*
X62978080Y-39315141D01*
X63009266Y-39340734D01*
X63034859Y-39371920D01*
X63053876Y-39407498D01*
X63065586Y-39446099D01*
X63070000Y-39490921D01*
X63070000Y-40509079D01*
X63065586Y-40553901D01*
X63053876Y-40592502D01*
X63034859Y-40628080D01*
X63009266Y-40659266D01*
X62978080Y-40684859D01*
X62942502Y-40703876D01*
X62903901Y-40715586D01*
X62859079Y-40720000D01*
X62265921Y-40720000D01*
X62221099Y-40715586D01*
X62182498Y-40703876D01*
X62146920Y-40684859D01*
X62115734Y-40659266D01*
X62090141Y-40628080D01*
X62071124Y-40592502D01*
X62059414Y-40553901D01*
X62055000Y-40509079D01*
X62055000Y-39490921D01*
X62059414Y-39446099D01*
X62071124Y-39407498D01*
X62090141Y-39371920D01*
X62115734Y-39340734D01*
X62146920Y-39315141D01*
X62182498Y-39296124D01*
X62221099Y-39284414D01*
X62265921Y-39280000D01*
X62859079Y-39280000D01*
X62903901Y-39284414D01*
X62903901Y-39284414D01*
G37*
G36*
X58403901Y-39284414D02*
G01*
X58442502Y-39296124D01*
X58478080Y-39315141D01*
X58509266Y-39340734D01*
X58534859Y-39371920D01*
X58553876Y-39407498D01*
X58565586Y-39446099D01*
X58570000Y-39490921D01*
X58570000Y-40509079D01*
X58565586Y-40553901D01*
X58553876Y-40592502D01*
X58534859Y-40628080D01*
X58509266Y-40659266D01*
X58478080Y-40684859D01*
X58442502Y-40703876D01*
X58403901Y-40715586D01*
X58359079Y-40720000D01*
X57765921Y-40720000D01*
X57721099Y-40715586D01*
X57682498Y-40703876D01*
X57646920Y-40684859D01*
X57615734Y-40659266D01*
X57590141Y-40628080D01*
X57571124Y-40592502D01*
X57559414Y-40553901D01*
X57555000Y-40509079D01*
X57555000Y-39490921D01*
X57559414Y-39446099D01*
X57571124Y-39407498D01*
X57590141Y-39371920D01*
X57615734Y-39340734D01*
X57646920Y-39315141D01*
X57682498Y-39296124D01*
X57721099Y-39284414D01*
X57765921Y-39280000D01*
X58359079Y-39280000D01*
X58403901Y-39284414D01*
X58403901Y-39284414D01*
G37*
G36*
X53970000Y-40420000D02*
G01*
X53030000Y-40420000D01*
X53030000Y-39580000D01*
X53970000Y-39580000D01*
X53970000Y-40420000D01*
X53970000Y-40420000D01*
G37*
G36*
X69679361Y-39182613D02*
G01*
X69700373Y-39188987D01*
X69719747Y-39199343D01*
X69736724Y-39213276D01*
X69750657Y-39230253D01*
X69761013Y-39249627D01*
X69767387Y-39270639D01*
X69770000Y-39297171D01*
X69770000Y-39702829D01*
X69767387Y-39729361D01*
X69761013Y-39750373D01*
X69750657Y-39769747D01*
X69736724Y-39786724D01*
X69719747Y-39800657D01*
X69700373Y-39811013D01*
X69679361Y-39817387D01*
X69652829Y-39820000D01*
X67897171Y-39820000D01*
X67870639Y-39817387D01*
X67849627Y-39811013D01*
X67830253Y-39800657D01*
X67813276Y-39786724D01*
X67799343Y-39769747D01*
X67788987Y-39750373D01*
X67782613Y-39729361D01*
X67780000Y-39702829D01*
X67780000Y-39297171D01*
X67782613Y-39270639D01*
X67788987Y-39249627D01*
X67799343Y-39230253D01*
X67813276Y-39213276D01*
X67830253Y-39199343D01*
X67849627Y-39188987D01*
X67870639Y-39182613D01*
X67897171Y-39180000D01*
X69652829Y-39180000D01*
X69679361Y-39182613D01*
X69679361Y-39182613D01*
G37*
G36*
X74629361Y-39182613D02*
G01*
X74650373Y-39188987D01*
X74669747Y-39199343D01*
X74686724Y-39213276D01*
X74700657Y-39230253D01*
X74711013Y-39249627D01*
X74717387Y-39270639D01*
X74720000Y-39297171D01*
X74720000Y-39702829D01*
X74717387Y-39729361D01*
X74711013Y-39750373D01*
X74700657Y-39769747D01*
X74686724Y-39786724D01*
X74669747Y-39800657D01*
X74650373Y-39811013D01*
X74629361Y-39817387D01*
X74602829Y-39820000D01*
X72847171Y-39820000D01*
X72820639Y-39817387D01*
X72799627Y-39811013D01*
X72780253Y-39800657D01*
X72763276Y-39786724D01*
X72749343Y-39769747D01*
X72738987Y-39750373D01*
X72732613Y-39729361D01*
X72730000Y-39702829D01*
X72730000Y-39297171D01*
X72732613Y-39270639D01*
X72738987Y-39249627D01*
X72749343Y-39230253D01*
X72763276Y-39213276D01*
X72780253Y-39199343D01*
X72799627Y-39188987D01*
X72820639Y-39182613D01*
X72847171Y-39180000D01*
X74602829Y-39180000D01*
X74629361Y-39182613D01*
X74629361Y-39182613D01*
G37*
G36*
X55970000Y-39470000D02*
G01*
X55030000Y-39470000D01*
X55030000Y-38630000D01*
X55970000Y-38630000D01*
X55970000Y-39470000D01*
X55970000Y-39470000D01*
G37*
G36*
X77553901Y-38059414D02*
G01*
X77592502Y-38071124D01*
X77628080Y-38090141D01*
X77659266Y-38115734D01*
X77684859Y-38146920D01*
X77703876Y-38182498D01*
X77715586Y-38221099D01*
X77720000Y-38265921D01*
X77720000Y-38859079D01*
X77715586Y-38903901D01*
X77703876Y-38942502D01*
X77684859Y-38978080D01*
X77659266Y-39009266D01*
X77628080Y-39034859D01*
X77592502Y-39053876D01*
X77553901Y-39065586D01*
X77509079Y-39070000D01*
X76490921Y-39070000D01*
X76446099Y-39065586D01*
X76407498Y-39053876D01*
X76371920Y-39034859D01*
X76340734Y-39009266D01*
X76315141Y-38978080D01*
X76296124Y-38942502D01*
X76284414Y-38903901D01*
X76280000Y-38859079D01*
X76280000Y-38265921D01*
X76284414Y-38221099D01*
X76296124Y-38182498D01*
X76315141Y-38146920D01*
X76340734Y-38115734D01*
X76371920Y-38090141D01*
X76407498Y-38071124D01*
X76446099Y-38059414D01*
X76490921Y-38055000D01*
X77509079Y-38055000D01*
X77553901Y-38059414D01*
X77553901Y-38059414D01*
G37*
G36*
X69679361Y-37912613D02*
G01*
X69700373Y-37918987D01*
X69719747Y-37929343D01*
X69736724Y-37943276D01*
X69750657Y-37960253D01*
X69761013Y-37979627D01*
X69767387Y-38000639D01*
X69770000Y-38027171D01*
X69770000Y-38432829D01*
X69767387Y-38459361D01*
X69761013Y-38480373D01*
X69750657Y-38499747D01*
X69736724Y-38516724D01*
X69719747Y-38530657D01*
X69700373Y-38541013D01*
X69679361Y-38547387D01*
X69652829Y-38550000D01*
X67897171Y-38550000D01*
X67870639Y-38547387D01*
X67849627Y-38541013D01*
X67830253Y-38530657D01*
X67813276Y-38516724D01*
X67799343Y-38499747D01*
X67788987Y-38480373D01*
X67782613Y-38459361D01*
X67780000Y-38432829D01*
X67780000Y-38027171D01*
X67782613Y-38000639D01*
X67788987Y-37979627D01*
X67799343Y-37960253D01*
X67813276Y-37943276D01*
X67830253Y-37929343D01*
X67849627Y-37918987D01*
X67870639Y-37912613D01*
X67897171Y-37910000D01*
X69652829Y-37910000D01*
X69679361Y-37912613D01*
X69679361Y-37912613D01*
G37*
G36*
X74629361Y-37912613D02*
G01*
X74650373Y-37918987D01*
X74669747Y-37929343D01*
X74686724Y-37943276D01*
X74700657Y-37960253D01*
X74711013Y-37979627D01*
X74717387Y-38000639D01*
X74720000Y-38027171D01*
X74720000Y-38432829D01*
X74717387Y-38459361D01*
X74711013Y-38480373D01*
X74700657Y-38499747D01*
X74686724Y-38516724D01*
X74669747Y-38530657D01*
X74650373Y-38541013D01*
X74629361Y-38547387D01*
X74602829Y-38550000D01*
X72847171Y-38550000D01*
X72820639Y-38547387D01*
X72799627Y-38541013D01*
X72780253Y-38530657D01*
X72763276Y-38516724D01*
X72749343Y-38499747D01*
X72738987Y-38480373D01*
X72732613Y-38459361D01*
X72730000Y-38432829D01*
X72730000Y-38027171D01*
X72732613Y-38000639D01*
X72738987Y-37979627D01*
X72749343Y-37960253D01*
X72763276Y-37943276D01*
X72780253Y-37929343D01*
X72799627Y-37918987D01*
X72820639Y-37912613D01*
X72847171Y-37910000D01*
X74602829Y-37910000D01*
X74629361Y-37912613D01*
X74629361Y-37912613D01*
G37*
G36*
X84214629Y-35696832D02*
G01*
X84385029Y-35730726D01*
X84473768Y-35767483D01*
X84625255Y-35830231D01*
X84758647Y-35919361D01*
X84841456Y-35974692D01*
X85025308Y-36158544D01*
X85055294Y-36203421D01*
X85169769Y-36374745D01*
X85232517Y-36526232D01*
X85269274Y-36614971D01*
X85292281Y-36730639D01*
X85320000Y-36869991D01*
X85320000Y-37130009D01*
X85308194Y-37189361D01*
X85269274Y-37385029D01*
X85232517Y-37473768D01*
X85169769Y-37625255D01*
X85062035Y-37786490D01*
X85025308Y-37841456D01*
X84841456Y-38025308D01*
X84790412Y-38059414D01*
X84625255Y-38169769D01*
X84473768Y-38232517D01*
X84385029Y-38269274D01*
X84214629Y-38303168D01*
X84130009Y-38320000D01*
X83869991Y-38320000D01*
X83785371Y-38303168D01*
X83614971Y-38269274D01*
X83526232Y-38232517D01*
X83374745Y-38169769D01*
X83209588Y-38059414D01*
X83158544Y-38025308D01*
X82974692Y-37841456D01*
X82937965Y-37786490D01*
X82830231Y-37625255D01*
X82767483Y-37473768D01*
X82730726Y-37385029D01*
X82691806Y-37189361D01*
X82680000Y-37130009D01*
X82680000Y-36869991D01*
X82707719Y-36730639D01*
X82730726Y-36614971D01*
X82767483Y-36526232D01*
X82830231Y-36374745D01*
X82944706Y-36203421D01*
X82974692Y-36158544D01*
X83158544Y-35974692D01*
X83241353Y-35919361D01*
X83374745Y-35830231D01*
X83526232Y-35767483D01*
X83614971Y-35730726D01*
X83785371Y-35696832D01*
X83869991Y-35680000D01*
X84130009Y-35680000D01*
X84214629Y-35696832D01*
X84214629Y-35696832D01*
G37*
G36*
X69679361Y-36642613D02*
G01*
X69700373Y-36648987D01*
X69719747Y-36659343D01*
X69736724Y-36673276D01*
X69750657Y-36690253D01*
X69761013Y-36709627D01*
X69767387Y-36730639D01*
X69770000Y-36757171D01*
X69770000Y-37162829D01*
X69767387Y-37189361D01*
X69761013Y-37210373D01*
X69750657Y-37229747D01*
X69736724Y-37246724D01*
X69719747Y-37260657D01*
X69700373Y-37271013D01*
X69679361Y-37277387D01*
X69652829Y-37280000D01*
X67897171Y-37280000D01*
X67870639Y-37277387D01*
X67849627Y-37271013D01*
X67830253Y-37260657D01*
X67813276Y-37246724D01*
X67799343Y-37229747D01*
X67788987Y-37210373D01*
X67782613Y-37189361D01*
X67780000Y-37162829D01*
X67780000Y-36757171D01*
X67782613Y-36730639D01*
X67788987Y-36709627D01*
X67799343Y-36690253D01*
X67813276Y-36673276D01*
X67830253Y-36659343D01*
X67849627Y-36648987D01*
X67870639Y-36642613D01*
X67897171Y-36640000D01*
X69652829Y-36640000D01*
X69679361Y-36642613D01*
X69679361Y-36642613D01*
G37*
G36*
X74629361Y-36642613D02*
G01*
X74650373Y-36648987D01*
X74669747Y-36659343D01*
X74686724Y-36673276D01*
X74700657Y-36690253D01*
X74711013Y-36709627D01*
X74717387Y-36730639D01*
X74720000Y-36757171D01*
X74720000Y-37162829D01*
X74717387Y-37189361D01*
X74711013Y-37210373D01*
X74700657Y-37229747D01*
X74686724Y-37246724D01*
X74669747Y-37260657D01*
X74650373Y-37271013D01*
X74629361Y-37277387D01*
X74602829Y-37280000D01*
X72847171Y-37280000D01*
X72820639Y-37277387D01*
X72799627Y-37271013D01*
X72780253Y-37260657D01*
X72763276Y-37246724D01*
X72749343Y-37229747D01*
X72738987Y-37210373D01*
X72732613Y-37189361D01*
X72730000Y-37162829D01*
X72730000Y-36757171D01*
X72732613Y-36730639D01*
X72738987Y-36709627D01*
X72749343Y-36690253D01*
X72763276Y-36673276D01*
X72780253Y-36659343D01*
X72799627Y-36648987D01*
X72820639Y-36642613D01*
X72847171Y-36640000D01*
X74602829Y-36640000D01*
X74629361Y-36642613D01*
X74629361Y-36642613D01*
G37*
G36*
X64778901Y-35784414D02*
G01*
X64817502Y-35796124D01*
X64853080Y-35815141D01*
X64884266Y-35840734D01*
X64909859Y-35871920D01*
X64928876Y-35907498D01*
X64940586Y-35946099D01*
X64945000Y-35990921D01*
X64945000Y-37009079D01*
X64940586Y-37053901D01*
X64928876Y-37092502D01*
X64909859Y-37128080D01*
X64884266Y-37159266D01*
X64853080Y-37184859D01*
X64817502Y-37203876D01*
X64778901Y-37215586D01*
X64734079Y-37220000D01*
X64140921Y-37220000D01*
X64096099Y-37215586D01*
X64057498Y-37203876D01*
X64021920Y-37184859D01*
X63990734Y-37159266D01*
X63965141Y-37128080D01*
X63946124Y-37092502D01*
X63934414Y-37053901D01*
X63930000Y-37009079D01*
X63930000Y-35990921D01*
X63934414Y-35946099D01*
X63946124Y-35907498D01*
X63965141Y-35871920D01*
X63990734Y-35840734D01*
X64021920Y-35815141D01*
X64057498Y-35796124D01*
X64096099Y-35784414D01*
X64140921Y-35780000D01*
X64734079Y-35780000D01*
X64778901Y-35784414D01*
X64778901Y-35784414D01*
G37*
G36*
X60278901Y-35784414D02*
G01*
X60317502Y-35796124D01*
X60353080Y-35815141D01*
X60384266Y-35840734D01*
X60409859Y-35871920D01*
X60428876Y-35907498D01*
X60440586Y-35946099D01*
X60445000Y-35990921D01*
X60445000Y-37009079D01*
X60440586Y-37053901D01*
X60428876Y-37092502D01*
X60409859Y-37128080D01*
X60384266Y-37159266D01*
X60353080Y-37184859D01*
X60317502Y-37203876D01*
X60278901Y-37215586D01*
X60234079Y-37220000D01*
X59640921Y-37220000D01*
X59596099Y-37215586D01*
X59557498Y-37203876D01*
X59521920Y-37184859D01*
X59490734Y-37159266D01*
X59465141Y-37128080D01*
X59446124Y-37092502D01*
X59434414Y-37053901D01*
X59430000Y-37009079D01*
X59430000Y-35990921D01*
X59434414Y-35946099D01*
X59446124Y-35907498D01*
X59465141Y-35871920D01*
X59490734Y-35840734D01*
X59521920Y-35815141D01*
X59557498Y-35796124D01*
X59596099Y-35784414D01*
X59640921Y-35780000D01*
X60234079Y-35780000D01*
X60278901Y-35784414D01*
X60278901Y-35784414D01*
G37*
G36*
X62903901Y-35784414D02*
G01*
X62942502Y-35796124D01*
X62978080Y-35815141D01*
X63009266Y-35840734D01*
X63034859Y-35871920D01*
X63053876Y-35907498D01*
X63065586Y-35946099D01*
X63070000Y-35990921D01*
X63070000Y-37009079D01*
X63065586Y-37053901D01*
X63053876Y-37092502D01*
X63034859Y-37128080D01*
X63009266Y-37159266D01*
X62978080Y-37184859D01*
X62942502Y-37203876D01*
X62903901Y-37215586D01*
X62859079Y-37220000D01*
X62265921Y-37220000D01*
X62221099Y-37215586D01*
X62182498Y-37203876D01*
X62146920Y-37184859D01*
X62115734Y-37159266D01*
X62090141Y-37128080D01*
X62071124Y-37092502D01*
X62059414Y-37053901D01*
X62055000Y-37009079D01*
X62055000Y-35990921D01*
X62059414Y-35946099D01*
X62071124Y-35907498D01*
X62090141Y-35871920D01*
X62115734Y-35840734D01*
X62146920Y-35815141D01*
X62182498Y-35796124D01*
X62221099Y-35784414D01*
X62265921Y-35780000D01*
X62859079Y-35780000D01*
X62903901Y-35784414D01*
X62903901Y-35784414D01*
G37*
G36*
X58403901Y-35784414D02*
G01*
X58442502Y-35796124D01*
X58478080Y-35815141D01*
X58509266Y-35840734D01*
X58534859Y-35871920D01*
X58553876Y-35907498D01*
X58565586Y-35946099D01*
X58570000Y-35990921D01*
X58570000Y-37009079D01*
X58565586Y-37053901D01*
X58553876Y-37092502D01*
X58534859Y-37128080D01*
X58509266Y-37159266D01*
X58478080Y-37184859D01*
X58442502Y-37203876D01*
X58403901Y-37215586D01*
X58359079Y-37220000D01*
X57765921Y-37220000D01*
X57721099Y-37215586D01*
X57682498Y-37203876D01*
X57646920Y-37184859D01*
X57615734Y-37159266D01*
X57590141Y-37128080D01*
X57571124Y-37092502D01*
X57559414Y-37053901D01*
X57555000Y-37009079D01*
X57555000Y-35990921D01*
X57559414Y-35946099D01*
X57571124Y-35907498D01*
X57590141Y-35871920D01*
X57615734Y-35840734D01*
X57646920Y-35815141D01*
X57682498Y-35796124D01*
X57721099Y-35784414D01*
X57765921Y-35780000D01*
X58359079Y-35780000D01*
X58403901Y-35784414D01*
X58403901Y-35784414D01*
G37*
G36*
X77553901Y-35996914D02*
G01*
X77592502Y-36008624D01*
X77628080Y-36027641D01*
X77659266Y-36053234D01*
X77684859Y-36084420D01*
X77703876Y-36119998D01*
X77715586Y-36158599D01*
X77720000Y-36203421D01*
X77720000Y-36796579D01*
X77715586Y-36841401D01*
X77703876Y-36880002D01*
X77684859Y-36915580D01*
X77659266Y-36946766D01*
X77628080Y-36972359D01*
X77592502Y-36991376D01*
X77553901Y-37003086D01*
X77509079Y-37007500D01*
X76490921Y-37007500D01*
X76446099Y-37003086D01*
X76407498Y-36991376D01*
X76371920Y-36972359D01*
X76340734Y-36946766D01*
X76315141Y-36915580D01*
X76296124Y-36880002D01*
X76284414Y-36841401D01*
X76280000Y-36796579D01*
X76280000Y-36203421D01*
X76284414Y-36158599D01*
X76296124Y-36119998D01*
X76315141Y-36084420D01*
X76340734Y-36053234D01*
X76371920Y-36027641D01*
X76407498Y-36008624D01*
X76446099Y-35996914D01*
X76490921Y-35992500D01*
X77509079Y-35992500D01*
X77553901Y-35996914D01*
X77553901Y-35996914D01*
G37*
G36*
X47843368Y-33338412D02*
G01*
X48119990Y-33452993D01*
X48368944Y-33619339D01*
X48580661Y-33831056D01*
X48747007Y-34080010D01*
X48861588Y-34356632D01*
X48920000Y-34650293D01*
X48920000Y-34949707D01*
X48861588Y-35243368D01*
X48747007Y-35519990D01*
X48580661Y-35768944D01*
X48368944Y-35980661D01*
X48119990Y-36147007D01*
X47843368Y-36261588D01*
X47549707Y-36320000D01*
X47250293Y-36320000D01*
X46956632Y-36261588D01*
X46680010Y-36147007D01*
X46431056Y-35980661D01*
X46219339Y-35768944D01*
X46052993Y-35519990D01*
X45938412Y-35243368D01*
X45880000Y-34949707D01*
X45880000Y-34650293D01*
X45938412Y-34356632D01*
X46052993Y-34080010D01*
X46219339Y-33831056D01*
X46431056Y-33619339D01*
X46680010Y-33452993D01*
X46956632Y-33338412D01*
X47250293Y-33280000D01*
X47549707Y-33280000D01*
X47843368Y-33338412D01*
X47843368Y-33338412D01*
G37*
G36*
X35570445Y-33578805D02*
G01*
X35570448Y-33578806D01*
X35570447Y-33578806D01*
X35801570Y-33674540D01*
X36009582Y-33813530D01*
X36186470Y-33990418D01*
X36325460Y-34198430D01*
X36360738Y-34283599D01*
X36421195Y-34429555D01*
X36470000Y-34674916D01*
X36470000Y-34925084D01*
X36421195Y-35170445D01*
X36421194Y-35170447D01*
X36325460Y-35401570D01*
X36186470Y-35609582D01*
X36009582Y-35786470D01*
X36009579Y-35786472D01*
X36009578Y-35786473D01*
X35944088Y-35830232D01*
X35801570Y-35925460D01*
X35644170Y-35990657D01*
X35570445Y-36021195D01*
X35325084Y-36070000D01*
X35074916Y-36070000D01*
X34829555Y-36021195D01*
X34755830Y-35990657D01*
X34598430Y-35925460D01*
X34455912Y-35830232D01*
X34390422Y-35786473D01*
X34390421Y-35786472D01*
X34390418Y-35786470D01*
X34213530Y-35609582D01*
X34074540Y-35401570D01*
X33978806Y-35170447D01*
X33978805Y-35170445D01*
X33930000Y-34925084D01*
X33930000Y-34674916D01*
X33978805Y-34429555D01*
X34039262Y-34283599D01*
X34074540Y-34198430D01*
X34213530Y-33990418D01*
X34390418Y-33813530D01*
X34598430Y-33674540D01*
X34829553Y-33578806D01*
X34829552Y-33578806D01*
X34829555Y-33578805D01*
X35074916Y-33530000D01*
X35325084Y-33530000D01*
X35570445Y-33578805D01*
X35570445Y-33578805D01*
G37*
G36*
X69679361Y-35372613D02*
G01*
X69700373Y-35378987D01*
X69719747Y-35389343D01*
X69736724Y-35403276D01*
X69750657Y-35420253D01*
X69761013Y-35439627D01*
X69767387Y-35460639D01*
X69770000Y-35487171D01*
X69770000Y-35892829D01*
X69767387Y-35919361D01*
X69761013Y-35940373D01*
X69750657Y-35959747D01*
X69736724Y-35976724D01*
X69719747Y-35990657D01*
X69700373Y-36001013D01*
X69679361Y-36007387D01*
X69652829Y-36010000D01*
X67897171Y-36010000D01*
X67870639Y-36007387D01*
X67849627Y-36001013D01*
X67830253Y-35990657D01*
X67813276Y-35976724D01*
X67799343Y-35959747D01*
X67788987Y-35940373D01*
X67782613Y-35919361D01*
X67780000Y-35892829D01*
X67780000Y-35487171D01*
X67782613Y-35460639D01*
X67788987Y-35439627D01*
X67799343Y-35420253D01*
X67813276Y-35403276D01*
X67830253Y-35389343D01*
X67849627Y-35378987D01*
X67870639Y-35372613D01*
X67897171Y-35370000D01*
X69652829Y-35370000D01*
X69679361Y-35372613D01*
X69679361Y-35372613D01*
G37*
G36*
X74629361Y-35372613D02*
G01*
X74650373Y-35378987D01*
X74669747Y-35389343D01*
X74686724Y-35403276D01*
X74700657Y-35420253D01*
X74711013Y-35439627D01*
X74717387Y-35460639D01*
X74720000Y-35487171D01*
X74720000Y-35892829D01*
X74717387Y-35919361D01*
X74711013Y-35940373D01*
X74700657Y-35959747D01*
X74686724Y-35976724D01*
X74669747Y-35990657D01*
X74650373Y-36001013D01*
X74629361Y-36007387D01*
X74602829Y-36010000D01*
X72847171Y-36010000D01*
X72820639Y-36007387D01*
X72799627Y-36001013D01*
X72780253Y-35990657D01*
X72763276Y-35976724D01*
X72749343Y-35959747D01*
X72738987Y-35940373D01*
X72732613Y-35919361D01*
X72730000Y-35892829D01*
X72730000Y-35487171D01*
X72732613Y-35460639D01*
X72738987Y-35439627D01*
X72749343Y-35420253D01*
X72763276Y-35403276D01*
X72780253Y-35389343D01*
X72799627Y-35378987D01*
X72820639Y-35372613D01*
X72847171Y-35370000D01*
X74602829Y-35370000D01*
X74629361Y-35372613D01*
X74629361Y-35372613D01*
G37*
G36*
X77553901Y-34121914D02*
G01*
X77592502Y-34133624D01*
X77628080Y-34152641D01*
X77659266Y-34178234D01*
X77684859Y-34209420D01*
X77703876Y-34244998D01*
X77715586Y-34283599D01*
X77720000Y-34328421D01*
X77720000Y-34921579D01*
X77715586Y-34966401D01*
X77703876Y-35005002D01*
X77684859Y-35040580D01*
X77659266Y-35071766D01*
X77628080Y-35097359D01*
X77592502Y-35116376D01*
X77553901Y-35128086D01*
X77509079Y-35132500D01*
X76490921Y-35132500D01*
X76446099Y-35128086D01*
X76407498Y-35116376D01*
X76371920Y-35097359D01*
X76340734Y-35071766D01*
X76315141Y-35040580D01*
X76296124Y-35005002D01*
X76284414Y-34966401D01*
X76280000Y-34921579D01*
X76280000Y-34328421D01*
X76284414Y-34283599D01*
X76296124Y-34244998D01*
X76315141Y-34209420D01*
X76340734Y-34178234D01*
X76371920Y-34152641D01*
X76407498Y-34133624D01*
X76446099Y-34121914D01*
X76490921Y-34117500D01*
X77509079Y-34117500D01*
X77553901Y-34121914D01*
X77553901Y-34121914D01*
G37*
G36*
X64135870Y-30309248D02*
G01*
X64172845Y-30320464D01*
X64206930Y-30338683D01*
X64236802Y-30363198D01*
X64261317Y-30393070D01*
X64279536Y-30427155D01*
X64290752Y-30464130D01*
X64295000Y-30507263D01*
X64295000Y-33492737D01*
X64290752Y-33535870D01*
X64279536Y-33572845D01*
X64261317Y-33606930D01*
X64236802Y-33636802D01*
X64206930Y-33661317D01*
X64172845Y-33679536D01*
X64135870Y-33690752D01*
X64092737Y-33695000D01*
X63107263Y-33695000D01*
X63064130Y-33690752D01*
X63027155Y-33679536D01*
X62993070Y-33661317D01*
X62963198Y-33636802D01*
X62938683Y-33606930D01*
X62920464Y-33572845D01*
X62909248Y-33535870D01*
X62905000Y-33492737D01*
X62905000Y-30507263D01*
X62909248Y-30464130D01*
X62920464Y-30427155D01*
X62938683Y-30393070D01*
X62963198Y-30363198D01*
X62993070Y-30338683D01*
X63027155Y-30320464D01*
X63064130Y-30309248D01*
X63107263Y-30305000D01*
X64092737Y-30305000D01*
X64135870Y-30309248D01*
X64135870Y-30309248D01*
G37*
G36*
X55135870Y-30309248D02*
G01*
X55172845Y-30320464D01*
X55206930Y-30338683D01*
X55236802Y-30363198D01*
X55261317Y-30393070D01*
X55279536Y-30427155D01*
X55290752Y-30464130D01*
X55295000Y-30507263D01*
X55295000Y-33492737D01*
X55290752Y-33535870D01*
X55279536Y-33572845D01*
X55261317Y-33606930D01*
X55236802Y-33636802D01*
X55206930Y-33661317D01*
X55172845Y-33679536D01*
X55135870Y-33690752D01*
X55092737Y-33695000D01*
X54107263Y-33695000D01*
X54064130Y-33690752D01*
X54027155Y-33679536D01*
X53993070Y-33661317D01*
X53963198Y-33636802D01*
X53938683Y-33606930D01*
X53920464Y-33572845D01*
X53909248Y-33535870D01*
X53905000Y-33492737D01*
X53905000Y-30507263D01*
X53909248Y-30464130D01*
X53920464Y-30427155D01*
X53938683Y-30393070D01*
X53963198Y-30363198D01*
X53993070Y-30338683D01*
X54027155Y-30320464D01*
X54064130Y-30309248D01*
X54107263Y-30305000D01*
X55092737Y-30305000D01*
X55135870Y-30309248D01*
X55135870Y-30309248D01*
G37*
G36*
X60935870Y-30309248D02*
G01*
X60972845Y-30320464D01*
X61006930Y-30338683D01*
X61036802Y-30363198D01*
X61061317Y-30393070D01*
X61079536Y-30427155D01*
X61090752Y-30464130D01*
X61095000Y-30507263D01*
X61095000Y-33492737D01*
X61090752Y-33535870D01*
X61079536Y-33572845D01*
X61061317Y-33606930D01*
X61036802Y-33636802D01*
X61006930Y-33661317D01*
X60972845Y-33679536D01*
X60935870Y-33690752D01*
X60892737Y-33695000D01*
X59907263Y-33695000D01*
X59864130Y-33690752D01*
X59827155Y-33679536D01*
X59793070Y-33661317D01*
X59763198Y-33636802D01*
X59738683Y-33606930D01*
X59720464Y-33572845D01*
X59709248Y-33535870D01*
X59705000Y-33492737D01*
X59705000Y-30507263D01*
X59709248Y-30464130D01*
X59720464Y-30427155D01*
X59738683Y-30393070D01*
X59763198Y-30363198D01*
X59793070Y-30338683D01*
X59827155Y-30320464D01*
X59864130Y-30309248D01*
X59907263Y-30305000D01*
X60892737Y-30305000D01*
X60935870Y-30309248D01*
X60935870Y-30309248D01*
G37*
G36*
X69935870Y-30309248D02*
G01*
X69972845Y-30320464D01*
X70006930Y-30338683D01*
X70036802Y-30363198D01*
X70061317Y-30393070D01*
X70079536Y-30427155D01*
X70090752Y-30464130D01*
X70095000Y-30507263D01*
X70095000Y-33492737D01*
X70090752Y-33535870D01*
X70079536Y-33572845D01*
X70061317Y-33606930D01*
X70036802Y-33636802D01*
X70006930Y-33661317D01*
X69972845Y-33679536D01*
X69935870Y-33690752D01*
X69892737Y-33695000D01*
X68907263Y-33695000D01*
X68864130Y-33690752D01*
X68827155Y-33679536D01*
X68793070Y-33661317D01*
X68763198Y-33636802D01*
X68738683Y-33606930D01*
X68720464Y-33572845D01*
X68709248Y-33535870D01*
X68705000Y-33492737D01*
X68705000Y-30507263D01*
X68709248Y-30464130D01*
X68720464Y-30427155D01*
X68738683Y-30393070D01*
X68763198Y-30363198D01*
X68793070Y-30338683D01*
X68827155Y-30320464D01*
X68864130Y-30309248D01*
X68907263Y-30305000D01*
X69892737Y-30305000D01*
X69935870Y-30309248D01*
X69935870Y-30309248D01*
G37*
G36*
X84214629Y-30696832D02*
G01*
X84385029Y-30730726D01*
X84473768Y-30767483D01*
X84625255Y-30830231D01*
X84786490Y-30937965D01*
X84841456Y-30974692D01*
X85025308Y-31158544D01*
X85025311Y-31158549D01*
X85169769Y-31374745D01*
X85232517Y-31526232D01*
X85269274Y-31614971D01*
X85320000Y-31869993D01*
X85320000Y-32130007D01*
X85269274Y-32385029D01*
X85232517Y-32473768D01*
X85169769Y-32625255D01*
X85062035Y-32786490D01*
X85025308Y-32841456D01*
X84841456Y-33025308D01*
X84786490Y-33062035D01*
X84625255Y-33169769D01*
X84473768Y-33232517D01*
X84385029Y-33269274D01*
X84214629Y-33303168D01*
X84130009Y-33320000D01*
X83869991Y-33320000D01*
X83785371Y-33303168D01*
X83614971Y-33269274D01*
X83526232Y-33232517D01*
X83374745Y-33169769D01*
X83213510Y-33062035D01*
X83158544Y-33025308D01*
X82974692Y-32841456D01*
X82937965Y-32786490D01*
X82830231Y-32625255D01*
X82767483Y-32473768D01*
X82730726Y-32385029D01*
X82680000Y-32130007D01*
X82680000Y-31869993D01*
X82730726Y-31614971D01*
X82767483Y-31526232D01*
X82830231Y-31374745D01*
X82974689Y-31158549D01*
X82974692Y-31158544D01*
X83158544Y-30974692D01*
X83213510Y-30937965D01*
X83374745Y-30830231D01*
X83526232Y-30767483D01*
X83614971Y-30730726D01*
X83785371Y-30696832D01*
X83869991Y-30680000D01*
X84130009Y-30680000D01*
X84214629Y-30696832D01*
X84214629Y-30696832D01*
G37*
G36*
X33693368Y-27288412D02*
G01*
X33969990Y-27402993D01*
X34218944Y-27569339D01*
X34430661Y-27781056D01*
X34597007Y-28030010D01*
X34711588Y-28306632D01*
X34770000Y-28600293D01*
X34770000Y-28899707D01*
X34711588Y-29193368D01*
X34597007Y-29469990D01*
X34430661Y-29718944D01*
X34218944Y-29930661D01*
X33969990Y-30097007D01*
X33693368Y-30211588D01*
X33399707Y-30270000D01*
X33100293Y-30270000D01*
X32806632Y-30211588D01*
X32530010Y-30097007D01*
X32281056Y-29930661D01*
X32069339Y-29718944D01*
X31902993Y-29469990D01*
X31788412Y-29193368D01*
X31730000Y-28899707D01*
X31730000Y-28600293D01*
X31788412Y-28306632D01*
X31902993Y-28030010D01*
X32069339Y-27781056D01*
X32281056Y-27569339D01*
X32530010Y-27402993D01*
X32806632Y-27288412D01*
X33100293Y-27230000D01*
X33399707Y-27230000D01*
X33693368Y-27288412D01*
X33693368Y-27288412D01*
G37*
G36*
X85420354Y-21800530D02*
G01*
X85939239Y-21903742D01*
X86232240Y-22025108D01*
X86525242Y-22146473D01*
X86803300Y-22332266D01*
X87052635Y-22498866D01*
X87501134Y-22947365D01*
X87520741Y-22976709D01*
X87853527Y-23474758D01*
X87956329Y-23722944D01*
X88096258Y-24060761D01*
X88220000Y-24682859D01*
X88220000Y-25317141D01*
X88096258Y-25939239D01*
X87974892Y-26232241D01*
X87853527Y-26525242D01*
X87820582Y-26574547D01*
X87501134Y-27052635D01*
X87052635Y-27501134D01*
X87020645Y-27522509D01*
X86525242Y-27853527D01*
X86263635Y-27961888D01*
X85939239Y-28096258D01*
X85420354Y-28199470D01*
X85317142Y-28220000D01*
X84682858Y-28220000D01*
X84579646Y-28199470D01*
X84060761Y-28096258D01*
X83736365Y-27961888D01*
X83474758Y-27853527D01*
X82979355Y-27522509D01*
X82947365Y-27501134D01*
X82498866Y-27052635D01*
X82179418Y-26574547D01*
X82146473Y-26525242D01*
X82025108Y-26232241D01*
X81903742Y-25939239D01*
X81780000Y-25317141D01*
X81780000Y-24682859D01*
X81903742Y-24060761D01*
X82043671Y-23722944D01*
X82146473Y-23474758D01*
X82479259Y-22976709D01*
X82498866Y-22947365D01*
X82947365Y-22498866D01*
X83196700Y-22332266D01*
X83474758Y-22146473D01*
X83767760Y-22025108D01*
X84060761Y-21903742D01*
X84579646Y-21800530D01*
X84682858Y-21780000D01*
X85317142Y-21780000D01*
X85420354Y-21800530D01*
X85420354Y-21800530D01*
G37*
G36*
X59636104Y-20984242D02*
G01*
X59673026Y-20995443D01*
X59707060Y-21013634D01*
X59736888Y-21038112D01*
X59761366Y-21067940D01*
X59779557Y-21101974D01*
X59790758Y-21138896D01*
X59795000Y-21181971D01*
X59795000Y-27818029D01*
X59790758Y-27861104D01*
X59779557Y-27898026D01*
X59761366Y-27932060D01*
X59736888Y-27961888D01*
X59707060Y-27986366D01*
X59673026Y-28004557D01*
X59636104Y-28015758D01*
X59593029Y-28020000D01*
X58606971Y-28020000D01*
X58563896Y-28015758D01*
X58526974Y-28004557D01*
X58492940Y-27986366D01*
X58463112Y-27961888D01*
X58438634Y-27932060D01*
X58420443Y-27898026D01*
X58409242Y-27861104D01*
X58405000Y-27818029D01*
X58405000Y-21181971D01*
X58409242Y-21138896D01*
X58420443Y-21101974D01*
X58438634Y-21067940D01*
X58463112Y-21038112D01*
X58492940Y-21013634D01*
X58526974Y-20995443D01*
X58563896Y-20984242D01*
X58606971Y-20980000D01*
X59593029Y-20980000D01*
X59636104Y-20984242D01*
X59636104Y-20984242D01*
G37*
G36*
X65436104Y-20984242D02*
G01*
X65473026Y-20995443D01*
X65507060Y-21013634D01*
X65536888Y-21038112D01*
X65561366Y-21067940D01*
X65579557Y-21101974D01*
X65590758Y-21138896D01*
X65595000Y-21181971D01*
X65595000Y-27818029D01*
X65590758Y-27861104D01*
X65579557Y-27898026D01*
X65561366Y-27932060D01*
X65536888Y-27961888D01*
X65507060Y-27986366D01*
X65473026Y-28004557D01*
X65436104Y-28015758D01*
X65393029Y-28020000D01*
X64406971Y-28020000D01*
X64363896Y-28015758D01*
X64326974Y-28004557D01*
X64292940Y-27986366D01*
X64263112Y-27961888D01*
X64238634Y-27932060D01*
X64220443Y-27898026D01*
X64209242Y-27861104D01*
X64205000Y-27818029D01*
X64205000Y-21181971D01*
X64209242Y-21138896D01*
X64220443Y-21101974D01*
X64238634Y-21067940D01*
X64263112Y-21038112D01*
X64292940Y-21013634D01*
X64326974Y-20995443D01*
X64363896Y-20984242D01*
X64406971Y-20980000D01*
X65393029Y-20980000D01*
X65436104Y-20984242D01*
X65436104Y-20984242D01*
G37*
G36*
X67326692Y-23423041D02*
G01*
X67530519Y-23507469D01*
X67713958Y-23630039D01*
X67713960Y-23630041D01*
X67713963Y-23630043D01*
X67869957Y-23786037D01*
X67869959Y-23786040D01*
X67869961Y-23786042D01*
X67992531Y-23969481D01*
X68076959Y-24173308D01*
X68120000Y-24389690D01*
X68120000Y-24610310D01*
X68076959Y-24826692D01*
X67992531Y-25030519D01*
X67869961Y-25213958D01*
X67869959Y-25213960D01*
X67869957Y-25213963D01*
X67713963Y-25369957D01*
X67713960Y-25369959D01*
X67713958Y-25369961D01*
X67530519Y-25492531D01*
X67326692Y-25576959D01*
X67110310Y-25620000D01*
X66889690Y-25620000D01*
X66673308Y-25576959D01*
X66469481Y-25492531D01*
X66286042Y-25369961D01*
X66286040Y-25369959D01*
X66286037Y-25369957D01*
X66130043Y-25213963D01*
X66130041Y-25213960D01*
X66130039Y-25213958D01*
X66007469Y-25030519D01*
X65923041Y-24826692D01*
X65880000Y-24610310D01*
X65880000Y-24389690D01*
X65923041Y-24173308D01*
X66007469Y-23969481D01*
X66130039Y-23786042D01*
X66130041Y-23786040D01*
X66130043Y-23786037D01*
X66286037Y-23630043D01*
X66286040Y-23630041D01*
X66286042Y-23630039D01*
X66469481Y-23507469D01*
X66673308Y-23423041D01*
X66889690Y-23380000D01*
X67110310Y-23380000D01*
X67326692Y-23423041D01*
X67326692Y-23423041D01*
G37*
G36*
X57326692Y-23423041D02*
G01*
X57530519Y-23507469D01*
X57713958Y-23630039D01*
X57713960Y-23630041D01*
X57713963Y-23630043D01*
X57869957Y-23786037D01*
X57869959Y-23786040D01*
X57869961Y-23786042D01*
X57992531Y-23969481D01*
X58076959Y-24173308D01*
X58120000Y-24389690D01*
X58120000Y-24610310D01*
X58076959Y-24826692D01*
X57992531Y-25030519D01*
X57869961Y-25213958D01*
X57869959Y-25213960D01*
X57869957Y-25213963D01*
X57713963Y-25369957D01*
X57713960Y-25369959D01*
X57713958Y-25369961D01*
X57530519Y-25492531D01*
X57326692Y-25576959D01*
X57110310Y-25620000D01*
X56889690Y-25620000D01*
X56673308Y-25576959D01*
X56469481Y-25492531D01*
X56286042Y-25369961D01*
X56286040Y-25369959D01*
X56286037Y-25369957D01*
X56130043Y-25213963D01*
X56130041Y-25213960D01*
X56130039Y-25213958D01*
X56007469Y-25030519D01*
X55923041Y-24826692D01*
X55880000Y-24610310D01*
X55880000Y-24389690D01*
X55923041Y-24173308D01*
X56007469Y-23969481D01*
X56130039Y-23786042D01*
X56130041Y-23786040D01*
X56130043Y-23786037D01*
X56286037Y-23630043D01*
X56286040Y-23630041D01*
X56286042Y-23630039D01*
X56469481Y-23507469D01*
X56673308Y-23423041D01*
X56889690Y-23380000D01*
X57110310Y-23380000D01*
X57326692Y-23423041D01*
X57326692Y-23423041D01*
G37*
G36*
X47893368Y-21288412D02*
G01*
X48169990Y-21402993D01*
X48418944Y-21569339D01*
X48630661Y-21781056D01*
X48797007Y-22030010D01*
X48911588Y-22306632D01*
X48970000Y-22600293D01*
X48970000Y-22899707D01*
X48911588Y-23193368D01*
X48797007Y-23469990D01*
X48630661Y-23718944D01*
X48418944Y-23930661D01*
X48169990Y-24097007D01*
X47893368Y-24211588D01*
X47599707Y-24270000D01*
X47300293Y-24270000D01*
X47006632Y-24211588D01*
X46730010Y-24097007D01*
X46481056Y-23930661D01*
X46269339Y-23718944D01*
X46102993Y-23469990D01*
X45988412Y-23193368D01*
X45930000Y-22899707D01*
X45930000Y-22600293D01*
X45988412Y-22306632D01*
X46102993Y-22030010D01*
X46269339Y-21781056D01*
X46481056Y-21569339D01*
X46730010Y-21402993D01*
X47006632Y-21288412D01*
X47300293Y-21230000D01*
X47599707Y-21230000D01*
X47893368Y-21288412D01*
X47893368Y-21288412D01*
G37*
G36*
X35570445Y-21578805D02*
G01*
X35570448Y-21578806D01*
X35570447Y-21578806D01*
X35801570Y-21674540D01*
X36009582Y-21813530D01*
X36186470Y-21990418D01*
X36325460Y-22198430D01*
X36399507Y-22377195D01*
X36421195Y-22429555D01*
X36470000Y-22674916D01*
X36470000Y-22925084D01*
X36421195Y-23170445D01*
X36421194Y-23170447D01*
X36325460Y-23401570D01*
X36186470Y-23609582D01*
X36009582Y-23786470D01*
X35801570Y-23925460D01*
X35695291Y-23969482D01*
X35570445Y-24021195D01*
X35325084Y-24070000D01*
X35074916Y-24070000D01*
X34829555Y-24021195D01*
X34704709Y-23969482D01*
X34598430Y-23925460D01*
X34390418Y-23786470D01*
X34213530Y-23609582D01*
X34074540Y-23401570D01*
X33978806Y-23170447D01*
X33978805Y-23170445D01*
X33930000Y-22925084D01*
X33930000Y-22674916D01*
X33978805Y-22429555D01*
X34000493Y-22377195D01*
X34074540Y-22198430D01*
X34213530Y-21990418D01*
X34390418Y-21813530D01*
X34598430Y-21674540D01*
X34829553Y-21578806D01*
X34829552Y-21578806D01*
X34829555Y-21578805D01*
X35074916Y-21530000D01*
X35325084Y-21530000D01*
X35570445Y-21578805D01*
X35570445Y-21578805D01*
G37*
M02*
