%TF.GenerationSoftware,KiCad,Pcbnew,(5.1.2)-1*%
%TF.CreationDate,2019-07-03T22:54:06-07:00*%
%TF.ProjectId,Keithley1950,4b656974-686c-4657-9931-3935302e6b69,A*%
%TF.SameCoordinates,Original*%
%TF.FileFunction,Legend,Bot*%
%TF.FilePolarity,Positive*%
%FSLAX46Y46*%
G04 Gerber Fmt 4.6, Leading zero omitted, Abs format (unit mm)*
G04 Created by KiCad (PCBNEW (5.1.2)-1) date 2019-07-03 22:54:06*
%MOMM*%
%LPD*%
G04 APERTURE LIST*
%ADD10C,0.010000*%
%ADD11C,0.120000*%
%ADD12C,0.150000*%
G04 APERTURE END LIST*
D10*
G36*
X71357125Y-88928250D02*
G01*
X71627000Y-88928250D01*
X71627000Y-88658375D01*
X71357125Y-88658375D01*
X71357125Y-88928250D01*
X71357125Y-88928250D01*
G37*
X71357125Y-88928250D02*
X71627000Y-88928250D01*
X71627000Y-88658375D01*
X71357125Y-88658375D01*
X71357125Y-88928250D01*
G36*
X71357125Y-89468000D02*
G01*
X71627000Y-89468000D01*
X71627000Y-89198125D01*
X71357125Y-89198125D01*
X71357125Y-89468000D01*
X71357125Y-89468000D01*
G37*
X71357125Y-89468000D02*
X71627000Y-89468000D01*
X71627000Y-89198125D01*
X71357125Y-89198125D01*
X71357125Y-89468000D01*
G36*
X71357125Y-90007750D02*
G01*
X71627000Y-90007750D01*
X71627000Y-89737875D01*
X71357125Y-89737875D01*
X71357125Y-90007750D01*
X71357125Y-90007750D01*
G37*
X71357125Y-90007750D02*
X71627000Y-90007750D01*
X71627000Y-89737875D01*
X71357125Y-89737875D01*
X71357125Y-90007750D01*
G36*
X71357125Y-90547500D02*
G01*
X71627000Y-90547500D01*
X71627000Y-90277625D01*
X71357125Y-90277625D01*
X71357125Y-90547500D01*
X71357125Y-90547500D01*
G37*
X71357125Y-90547500D02*
X71627000Y-90547500D01*
X71627000Y-90277625D01*
X71357125Y-90277625D01*
X71357125Y-90547500D01*
G36*
X71357125Y-91087250D02*
G01*
X71627000Y-91087250D01*
X71627000Y-90817375D01*
X71357125Y-90817375D01*
X71357125Y-91087250D01*
X71357125Y-91087250D01*
G37*
X71357125Y-91087250D02*
X71627000Y-91087250D01*
X71627000Y-90817375D01*
X71357125Y-90817375D01*
X71357125Y-91087250D01*
G36*
X68658375Y-91642875D02*
G01*
X68928250Y-91642875D01*
X68928250Y-91373000D01*
X68658375Y-91373000D01*
X68658375Y-91642875D01*
X68658375Y-91642875D01*
G37*
X68658375Y-91642875D02*
X68928250Y-91642875D01*
X68928250Y-91373000D01*
X68658375Y-91373000D01*
X68658375Y-91642875D01*
G36*
X71357125Y-91642875D02*
G01*
X71627000Y-91642875D01*
X71627000Y-91357125D01*
X71357125Y-91357125D01*
X71357125Y-91642875D01*
X71357125Y-91642875D01*
G37*
X71357125Y-91642875D02*
X71627000Y-91642875D01*
X71627000Y-91357125D01*
X71357125Y-91357125D01*
X71357125Y-91642875D01*
G36*
X73516125Y-91642875D02*
G01*
X73786000Y-91642875D01*
X73786000Y-91373000D01*
X73516125Y-91373000D01*
X73516125Y-91642875D01*
X73516125Y-91642875D01*
G37*
X73516125Y-91642875D02*
X73786000Y-91642875D01*
X73786000Y-91373000D01*
X73516125Y-91373000D01*
X73516125Y-91642875D01*
G36*
X71357125Y-92166750D02*
G01*
X71627000Y-92166750D01*
X71627000Y-91896875D01*
X71357125Y-91896875D01*
X71357125Y-92166750D01*
X71357125Y-92166750D01*
G37*
X71357125Y-92166750D02*
X71627000Y-92166750D01*
X71627000Y-91896875D01*
X71357125Y-91896875D01*
X71357125Y-92166750D01*
G36*
X71357125Y-92706500D02*
G01*
X71627000Y-92706500D01*
X71627000Y-92436625D01*
X71357125Y-92436625D01*
X71357125Y-92706500D01*
X71357125Y-92706500D01*
G37*
X71357125Y-92706500D02*
X71627000Y-92706500D01*
X71627000Y-92436625D01*
X71357125Y-92436625D01*
X71357125Y-92706500D01*
G36*
X71357125Y-93246250D02*
G01*
X71627000Y-93246250D01*
X71627000Y-92976375D01*
X71357125Y-92976375D01*
X71357125Y-93246250D01*
X71357125Y-93246250D01*
G37*
X71357125Y-93246250D02*
X71627000Y-93246250D01*
X71627000Y-92976375D01*
X71357125Y-92976375D01*
X71357125Y-93246250D01*
G36*
X69737875Y-91642875D02*
G01*
X70007750Y-91642875D01*
X70007750Y-91373000D01*
X69737875Y-91373000D01*
X69737875Y-91642875D01*
X69737875Y-91642875D01*
G37*
X69737875Y-91642875D02*
X70007750Y-91642875D01*
X70007750Y-91373000D01*
X69737875Y-91373000D01*
X69737875Y-91642875D01*
G36*
X70277625Y-91642875D02*
G01*
X70547500Y-91642875D01*
X70547500Y-91373000D01*
X70277625Y-91373000D01*
X70277625Y-91642875D01*
X70277625Y-91642875D01*
G37*
X70277625Y-91642875D02*
X70547500Y-91642875D01*
X70547500Y-91373000D01*
X70277625Y-91373000D01*
X70277625Y-91642875D01*
G36*
X72436625Y-91642875D02*
G01*
X72706500Y-91642875D01*
X72706500Y-91373000D01*
X72436625Y-91373000D01*
X72436625Y-91642875D01*
X72436625Y-91642875D01*
G37*
X72436625Y-91642875D02*
X72706500Y-91642875D01*
X72706500Y-91373000D01*
X72436625Y-91373000D01*
X72436625Y-91642875D01*
G36*
X71357125Y-94325750D02*
G01*
X71627000Y-94325750D01*
X71627000Y-94055875D01*
X71357125Y-94055875D01*
X71357125Y-94325750D01*
X71357125Y-94325750D01*
G37*
X71357125Y-94325750D02*
X71627000Y-94325750D01*
X71627000Y-94055875D01*
X71357125Y-94055875D01*
X71357125Y-94325750D01*
G36*
X66598594Y-88826188D02*
G01*
X66342809Y-88827808D01*
X66116650Y-88829382D01*
X65917993Y-88830967D01*
X65744713Y-88832622D01*
X65594686Y-88834404D01*
X65465789Y-88836371D01*
X65355898Y-88838582D01*
X65262888Y-88841093D01*
X65184635Y-88843964D01*
X65119015Y-88847252D01*
X65063904Y-88851014D01*
X65017179Y-88855309D01*
X64976714Y-88860195D01*
X64940386Y-88865729D01*
X64906071Y-88871970D01*
X64903938Y-88872386D01*
X64671101Y-88929419D01*
X64462523Y-89005279D01*
X64275883Y-89101433D01*
X64108860Y-89219343D01*
X63959130Y-89360475D01*
X63824374Y-89526293D01*
X63790970Y-89574424D01*
X63691671Y-89739318D01*
X63617031Y-89904429D01*
X63564784Y-90076902D01*
X63532665Y-90263883D01*
X63519904Y-90429574D01*
X63523289Y-90674571D01*
X63554705Y-90905464D01*
X63613975Y-91121795D01*
X63700923Y-91323109D01*
X63815372Y-91508948D01*
X63957144Y-91678855D01*
X64031861Y-91751882D01*
X64190471Y-91883385D01*
X64355548Y-91990869D01*
X64533563Y-92077716D01*
X64730985Y-92147312D01*
X64848375Y-92179020D01*
X64885004Y-92187902D01*
X64918616Y-92195426D01*
X64952178Y-92201735D01*
X64988655Y-92206974D01*
X65031011Y-92211286D01*
X65082211Y-92214815D01*
X65145220Y-92217705D01*
X65223004Y-92220099D01*
X65318526Y-92222142D01*
X65434752Y-92223977D01*
X65574648Y-92225749D01*
X65741177Y-92227600D01*
X65880250Y-92229074D01*
X66745438Y-92238187D01*
X66753590Y-94468625D01*
X67769375Y-94468625D01*
X67769375Y-91358869D01*
X66753375Y-91358869D01*
X66019157Y-91353290D01*
X65843184Y-91351832D01*
X65695942Y-91350286D01*
X65574409Y-91348529D01*
X65475568Y-91346443D01*
X65396396Y-91343906D01*
X65333876Y-91340799D01*
X65284987Y-91337000D01*
X65246708Y-91332388D01*
X65216021Y-91326845D01*
X65189906Y-91320248D01*
X65189688Y-91320185D01*
X65033553Y-91260576D01*
X64897466Y-91178754D01*
X64783297Y-91076703D01*
X64692915Y-90956410D01*
X64628192Y-90819860D01*
X64593911Y-90687621D01*
X64580410Y-90528827D01*
X64591885Y-90370338D01*
X64627129Y-90219587D01*
X64684935Y-90084010D01*
X64694750Y-90066680D01*
X64778245Y-89950738D01*
X64881228Y-89856308D01*
X65006290Y-89781523D01*
X65156019Y-89724521D01*
X65179304Y-89717796D01*
X65209593Y-89709770D01*
X65239881Y-89703074D01*
X65273364Y-89697560D01*
X65313239Y-89693078D01*
X65362703Y-89689478D01*
X65424953Y-89686611D01*
X65503184Y-89684328D01*
X65600595Y-89682478D01*
X65720382Y-89680913D01*
X65865741Y-89679482D01*
X66027094Y-89678137D01*
X66753375Y-89672355D01*
X66753375Y-91358869D01*
X67769375Y-91358869D01*
X67769375Y-88819014D01*
X66598594Y-88826188D01*
X66598594Y-88826188D01*
G37*
X66598594Y-88826188D02*
X66342809Y-88827808D01*
X66116650Y-88829382D01*
X65917993Y-88830967D01*
X65744713Y-88832622D01*
X65594686Y-88834404D01*
X65465789Y-88836371D01*
X65355898Y-88838582D01*
X65262888Y-88841093D01*
X65184635Y-88843964D01*
X65119015Y-88847252D01*
X65063904Y-88851014D01*
X65017179Y-88855309D01*
X64976714Y-88860195D01*
X64940386Y-88865729D01*
X64906071Y-88871970D01*
X64903938Y-88872386D01*
X64671101Y-88929419D01*
X64462523Y-89005279D01*
X64275883Y-89101433D01*
X64108860Y-89219343D01*
X63959130Y-89360475D01*
X63824374Y-89526293D01*
X63790970Y-89574424D01*
X63691671Y-89739318D01*
X63617031Y-89904429D01*
X63564784Y-90076902D01*
X63532665Y-90263883D01*
X63519904Y-90429574D01*
X63523289Y-90674571D01*
X63554705Y-90905464D01*
X63613975Y-91121795D01*
X63700923Y-91323109D01*
X63815372Y-91508948D01*
X63957144Y-91678855D01*
X64031861Y-91751882D01*
X64190471Y-91883385D01*
X64355548Y-91990869D01*
X64533563Y-92077716D01*
X64730985Y-92147312D01*
X64848375Y-92179020D01*
X64885004Y-92187902D01*
X64918616Y-92195426D01*
X64952178Y-92201735D01*
X64988655Y-92206974D01*
X65031011Y-92211286D01*
X65082211Y-92214815D01*
X65145220Y-92217705D01*
X65223004Y-92220099D01*
X65318526Y-92222142D01*
X65434752Y-92223977D01*
X65574648Y-92225749D01*
X65741177Y-92227600D01*
X65880250Y-92229074D01*
X66745438Y-92238187D01*
X66753590Y-94468625D01*
X67769375Y-94468625D01*
X67769375Y-91358869D01*
X66753375Y-91358869D01*
X66019157Y-91353290D01*
X65843184Y-91351832D01*
X65695942Y-91350286D01*
X65574409Y-91348529D01*
X65475568Y-91346443D01*
X65396396Y-91343906D01*
X65333876Y-91340799D01*
X65284987Y-91337000D01*
X65246708Y-91332388D01*
X65216021Y-91326845D01*
X65189906Y-91320248D01*
X65189688Y-91320185D01*
X65033553Y-91260576D01*
X64897466Y-91178754D01*
X64783297Y-91076703D01*
X64692915Y-90956410D01*
X64628192Y-90819860D01*
X64593911Y-90687621D01*
X64580410Y-90528827D01*
X64591885Y-90370338D01*
X64627129Y-90219587D01*
X64684935Y-90084010D01*
X64694750Y-90066680D01*
X64778245Y-89950738D01*
X64881228Y-89856308D01*
X65006290Y-89781523D01*
X65156019Y-89724521D01*
X65179304Y-89717796D01*
X65209593Y-89709770D01*
X65239881Y-89703074D01*
X65273364Y-89697560D01*
X65313239Y-89693078D01*
X65362703Y-89689478D01*
X65424953Y-89686611D01*
X65503184Y-89684328D01*
X65600595Y-89682478D01*
X65720382Y-89680913D01*
X65865741Y-89679482D01*
X66027094Y-89678137D01*
X66753375Y-89672355D01*
X66753375Y-91358869D01*
X67769375Y-91358869D01*
X67769375Y-88819014D01*
X66598594Y-88826188D01*
G36*
X77246677Y-88747623D02*
G01*
X77112847Y-88753081D01*
X76994072Y-88763373D01*
X76920494Y-88774255D01*
X76677362Y-88834838D01*
X76449623Y-88922825D01*
X76237102Y-89038361D01*
X76039623Y-89181591D01*
X75857013Y-89352659D01*
X75689095Y-89551709D01*
X75535694Y-89778885D01*
X75399802Y-90027880D01*
X75342243Y-90149575D01*
X75295468Y-90260593D01*
X75255618Y-90371627D01*
X75218833Y-90493372D01*
X75183667Y-90626875D01*
X75119264Y-90942433D01*
X75079841Y-91274135D01*
X75065729Y-91618106D01*
X75073397Y-91908690D01*
X75101450Y-92227955D01*
X75148853Y-92524280D01*
X75216482Y-92800548D01*
X75305212Y-93059640D01*
X75415918Y-93304440D01*
X75549476Y-93537829D01*
X75584666Y-93591922D01*
X75744470Y-93807241D01*
X75918885Y-93994602D01*
X76108910Y-94154730D01*
X76315542Y-94288349D01*
X76539777Y-94396186D01*
X76782613Y-94478964D01*
X76818125Y-94488587D01*
X76882971Y-94505120D01*
X76938584Y-94517487D01*
X76991681Y-94526390D01*
X77048977Y-94532527D01*
X77117189Y-94536599D01*
X77203032Y-94539306D01*
X77313223Y-94541349D01*
X77326125Y-94541548D01*
X77468305Y-94542607D01*
X77583713Y-94540856D01*
X77677220Y-94536103D01*
X77753697Y-94528152D01*
X77784965Y-94523286D01*
X78027705Y-94465591D01*
X78255941Y-94379740D01*
X78469156Y-94266081D01*
X78666828Y-94124963D01*
X78848440Y-93956734D01*
X79013473Y-93761743D01*
X79097607Y-93642273D01*
X79249962Y-93386753D01*
X79376712Y-93120058D01*
X79478578Y-92839854D01*
X79556286Y-92543808D01*
X79610557Y-92229585D01*
X79642116Y-91894851D01*
X79642818Y-91882742D01*
X79645839Y-91722371D01*
X78594195Y-91722371D01*
X78592331Y-91900777D01*
X78585581Y-92060111D01*
X78573530Y-92206582D01*
X78555762Y-92346400D01*
X78531863Y-92485772D01*
X78524345Y-92523937D01*
X78465496Y-92766349D01*
X78392317Y-92980727D01*
X78304404Y-93167568D01*
X78201352Y-93327371D01*
X78082757Y-93460634D01*
X77948215Y-93567857D01*
X77797319Y-93649537D01*
X77629667Y-93706173D01*
X77551061Y-93723183D01*
X77452128Y-93733077D01*
X77336187Y-93731812D01*
X77215580Y-93720335D01*
X77102649Y-93699594D01*
X77048313Y-93684591D01*
X76903909Y-93628081D01*
X76775055Y-93554201D01*
X76653131Y-93457523D01*
X76587938Y-93394742D01*
X76497618Y-93296109D01*
X76423924Y-93198957D01*
X76363264Y-93096452D01*
X76312050Y-92981759D01*
X76266692Y-92848043D01*
X76229604Y-92712520D01*
X76196161Y-92565555D01*
X76169892Y-92415541D01*
X76150041Y-92255964D01*
X76135857Y-92080313D01*
X76126585Y-91882074D01*
X76124247Y-91801625D01*
X76124268Y-91465192D01*
X76141796Y-91154628D01*
X76176806Y-90870045D01*
X76229272Y-90611556D01*
X76299169Y-90379275D01*
X76386473Y-90173316D01*
X76491159Y-89993792D01*
X76536005Y-89931859D01*
X76643502Y-89816999D01*
X76774056Y-89719456D01*
X76922216Y-89642576D01*
X77082529Y-89589705D01*
X77100398Y-89585559D01*
X77200848Y-89570673D01*
X77318858Y-89564904D01*
X77443497Y-89567836D01*
X77563838Y-89579048D01*
X77668950Y-89598125D01*
X77707125Y-89608763D01*
X77869179Y-89676905D01*
X78015338Y-89772386D01*
X78145343Y-89894913D01*
X78258937Y-90044195D01*
X78355862Y-90219937D01*
X78435861Y-90421848D01*
X78443492Y-90445252D01*
X78484778Y-90584901D01*
X78518068Y-90722752D01*
X78544174Y-90864674D01*
X78563903Y-91016538D01*
X78578067Y-91184213D01*
X78587474Y-91373569D01*
X78591589Y-91518684D01*
X78594195Y-91722371D01*
X79645839Y-91722371D01*
X79649445Y-91531030D01*
X79628838Y-91192437D01*
X79581238Y-90867772D01*
X79506882Y-90557844D01*
X79406013Y-90263461D01*
X79278868Y-89985432D01*
X79125689Y-89724563D01*
X78946714Y-89481665D01*
X78921563Y-89451447D01*
X78750912Y-89273567D01*
X78559329Y-89118444D01*
X78349516Y-88987638D01*
X78124177Y-88882706D01*
X77886013Y-88805208D01*
X77746813Y-88774140D01*
X77645630Y-88760256D01*
X77522355Y-88751208D01*
X77386275Y-88746998D01*
X77246677Y-88747623D01*
X77246677Y-88747623D01*
G37*
X77246677Y-88747623D02*
X77112847Y-88753081D01*
X76994072Y-88763373D01*
X76920494Y-88774255D01*
X76677362Y-88834838D01*
X76449623Y-88922825D01*
X76237102Y-89038361D01*
X76039623Y-89181591D01*
X75857013Y-89352659D01*
X75689095Y-89551709D01*
X75535694Y-89778885D01*
X75399802Y-90027880D01*
X75342243Y-90149575D01*
X75295468Y-90260593D01*
X75255618Y-90371627D01*
X75218833Y-90493372D01*
X75183667Y-90626875D01*
X75119264Y-90942433D01*
X75079841Y-91274135D01*
X75065729Y-91618106D01*
X75073397Y-91908690D01*
X75101450Y-92227955D01*
X75148853Y-92524280D01*
X75216482Y-92800548D01*
X75305212Y-93059640D01*
X75415918Y-93304440D01*
X75549476Y-93537829D01*
X75584666Y-93591922D01*
X75744470Y-93807241D01*
X75918885Y-93994602D01*
X76108910Y-94154730D01*
X76315542Y-94288349D01*
X76539777Y-94396186D01*
X76782613Y-94478964D01*
X76818125Y-94488587D01*
X76882971Y-94505120D01*
X76938584Y-94517487D01*
X76991681Y-94526390D01*
X77048977Y-94532527D01*
X77117189Y-94536599D01*
X77203032Y-94539306D01*
X77313223Y-94541349D01*
X77326125Y-94541548D01*
X77468305Y-94542607D01*
X77583713Y-94540856D01*
X77677220Y-94536103D01*
X77753697Y-94528152D01*
X77784965Y-94523286D01*
X78027705Y-94465591D01*
X78255941Y-94379740D01*
X78469156Y-94266081D01*
X78666828Y-94124963D01*
X78848440Y-93956734D01*
X79013473Y-93761743D01*
X79097607Y-93642273D01*
X79249962Y-93386753D01*
X79376712Y-93120058D01*
X79478578Y-92839854D01*
X79556286Y-92543808D01*
X79610557Y-92229585D01*
X79642116Y-91894851D01*
X79642818Y-91882742D01*
X79645839Y-91722371D01*
X78594195Y-91722371D01*
X78592331Y-91900777D01*
X78585581Y-92060111D01*
X78573530Y-92206582D01*
X78555762Y-92346400D01*
X78531863Y-92485772D01*
X78524345Y-92523937D01*
X78465496Y-92766349D01*
X78392317Y-92980727D01*
X78304404Y-93167568D01*
X78201352Y-93327371D01*
X78082757Y-93460634D01*
X77948215Y-93567857D01*
X77797319Y-93649537D01*
X77629667Y-93706173D01*
X77551061Y-93723183D01*
X77452128Y-93733077D01*
X77336187Y-93731812D01*
X77215580Y-93720335D01*
X77102649Y-93699594D01*
X77048313Y-93684591D01*
X76903909Y-93628081D01*
X76775055Y-93554201D01*
X76653131Y-93457523D01*
X76587938Y-93394742D01*
X76497618Y-93296109D01*
X76423924Y-93198957D01*
X76363264Y-93096452D01*
X76312050Y-92981759D01*
X76266692Y-92848043D01*
X76229604Y-92712520D01*
X76196161Y-92565555D01*
X76169892Y-92415541D01*
X76150041Y-92255964D01*
X76135857Y-92080313D01*
X76126585Y-91882074D01*
X76124247Y-91801625D01*
X76124268Y-91465192D01*
X76141796Y-91154628D01*
X76176806Y-90870045D01*
X76229272Y-90611556D01*
X76299169Y-90379275D01*
X76386473Y-90173316D01*
X76491159Y-89993792D01*
X76536005Y-89931859D01*
X76643502Y-89816999D01*
X76774056Y-89719456D01*
X76922216Y-89642576D01*
X77082529Y-89589705D01*
X77100398Y-89585559D01*
X77200848Y-89570673D01*
X77318858Y-89564904D01*
X77443497Y-89567836D01*
X77563838Y-89579048D01*
X77668950Y-89598125D01*
X77707125Y-89608763D01*
X77869179Y-89676905D01*
X78015338Y-89772386D01*
X78145343Y-89894913D01*
X78258937Y-90044195D01*
X78355862Y-90219937D01*
X78435861Y-90421848D01*
X78443492Y-90445252D01*
X78484778Y-90584901D01*
X78518068Y-90722752D01*
X78544174Y-90864674D01*
X78563903Y-91016538D01*
X78578067Y-91184213D01*
X78587474Y-91373569D01*
X78591589Y-91518684D01*
X78594195Y-91722371D01*
X79645839Y-91722371D01*
X79649445Y-91531030D01*
X79628838Y-91192437D01*
X79581238Y-90867772D01*
X79506882Y-90557844D01*
X79406013Y-90263461D01*
X79278868Y-89985432D01*
X79125689Y-89724563D01*
X78946714Y-89481665D01*
X78921563Y-89451447D01*
X78750912Y-89273567D01*
X78559329Y-89118444D01*
X78349516Y-88987638D01*
X78124177Y-88882706D01*
X77886013Y-88805208D01*
X77746813Y-88774140D01*
X77645630Y-88760256D01*
X77522355Y-88751208D01*
X77386275Y-88746998D01*
X77246677Y-88747623D01*
G36*
X71330528Y-88108168D02*
G01*
X71000439Y-88137245D01*
X70680385Y-88195644D01*
X70371733Y-88282141D01*
X70075850Y-88395513D01*
X69794106Y-88534539D01*
X69527867Y-88697994D01*
X69278501Y-88884657D01*
X69047376Y-89093303D01*
X68835860Y-89322712D01*
X68645320Y-89571659D01*
X68477124Y-89838921D01*
X68332640Y-90123277D01*
X68213236Y-90423502D01*
X68120279Y-90738375D01*
X68060616Y-91031687D01*
X68046824Y-91144721D01*
X68037353Y-91280603D01*
X68032201Y-91430849D01*
X68031367Y-91586975D01*
X68034848Y-91740499D01*
X68042643Y-91882936D01*
X68054750Y-92005804D01*
X68060819Y-92047687D01*
X68129623Y-92376461D01*
X68226183Y-92691700D01*
X68349246Y-92992135D01*
X68497559Y-93276496D01*
X68669870Y-93543513D01*
X68864925Y-93791918D01*
X69081473Y-94020440D01*
X69318261Y-94227810D01*
X69574036Y-94412758D01*
X69847545Y-94574015D01*
X70137536Y-94710311D01*
X70442756Y-94820378D01*
X70761953Y-94902944D01*
X70904688Y-94929929D01*
X71016161Y-94944870D01*
X71149618Y-94956678D01*
X71295898Y-94965047D01*
X71445842Y-94969676D01*
X71590287Y-94970260D01*
X71720075Y-94966495D01*
X71809563Y-94959908D01*
X72131268Y-94911363D01*
X72441592Y-94834244D01*
X72739292Y-94730060D01*
X73023125Y-94600326D01*
X73291850Y-94446552D01*
X73544224Y-94270251D01*
X73779003Y-94072935D01*
X73994945Y-93856116D01*
X74190807Y-93621307D01*
X74365348Y-93370019D01*
X74517323Y-93103765D01*
X74645491Y-92824056D01*
X74748609Y-92532406D01*
X74825434Y-92230325D01*
X74874724Y-91919327D01*
X74895236Y-91600923D01*
X74892743Y-91515875D01*
X74516250Y-91515875D01*
X74516250Y-91607253D01*
X74512778Y-91694395D01*
X74503210Y-91802821D01*
X74488822Y-91922932D01*
X74470890Y-92045129D01*
X74450689Y-92159815D01*
X74430314Y-92254062D01*
X74342222Y-92549639D01*
X74227409Y-92830210D01*
X74087587Y-93094583D01*
X73924466Y-93341566D01*
X73739758Y-93569966D01*
X73535177Y-93778590D01*
X73312432Y-93966247D01*
X73073236Y-94131742D01*
X72819301Y-94273885D01*
X72552339Y-94391482D01*
X72274061Y-94483340D01*
X71986178Y-94548268D01*
X71690404Y-94585072D01*
X71388449Y-94592560D01*
X71103028Y-94572104D01*
X70801134Y-94520723D01*
X70508478Y-94440072D01*
X70226995Y-94331571D01*
X69958618Y-94196641D01*
X69705281Y-94036702D01*
X69468917Y-93853175D01*
X69251459Y-93647479D01*
X69054842Y-93421035D01*
X68880999Y-93175263D01*
X68731864Y-92911584D01*
X68673250Y-92787286D01*
X68634087Y-92699651D01*
X68607255Y-92637290D01*
X68593432Y-92595943D01*
X68593298Y-92571349D01*
X68607530Y-92559247D01*
X68636810Y-92555377D01*
X68681814Y-92555479D01*
X68710159Y-92555687D01*
X68780279Y-92554258D01*
X68829819Y-92548416D01*
X68869883Y-92535827D01*
X68911573Y-92514158D01*
X68913703Y-92512909D01*
X69007431Y-92443164D01*
X69090696Y-92349559D01*
X69164443Y-92230453D01*
X69229618Y-92084204D01*
X69287166Y-91909173D01*
X69309603Y-91825437D01*
X69353703Y-91650812D01*
X69410852Y-91645885D01*
X69468000Y-91640958D01*
X69468000Y-91506979D01*
X69466972Y-91439792D01*
X69463230Y-91398763D01*
X69455789Y-91378349D01*
X69444188Y-91373000D01*
X69423356Y-91360222D01*
X69420375Y-91348286D01*
X69423899Y-91326159D01*
X69433765Y-91277960D01*
X69448917Y-91208495D01*
X69468297Y-91122567D01*
X69490847Y-91024982D01*
X69501595Y-90979193D01*
X69570508Y-90696589D01*
X69638626Y-90436202D01*
X69705565Y-90199142D01*
X69770941Y-89986516D01*
X69834372Y-89799436D01*
X69895474Y-89639010D01*
X69953862Y-89506347D01*
X70009154Y-89402556D01*
X70060966Y-89328748D01*
X70078952Y-89309478D01*
X70112615Y-89278072D01*
X70133219Y-89266356D01*
X70150431Y-89271847D01*
X70167888Y-89286630D01*
X70209016Y-89338092D01*
X70252660Y-89419782D01*
X70298409Y-89530308D01*
X70345855Y-89668283D01*
X70394590Y-89832317D01*
X70444205Y-90021023D01*
X70494292Y-90233009D01*
X70544443Y-90466889D01*
X70594247Y-90721273D01*
X70601792Y-90761812D01*
X70617828Y-90849618D01*
X70638167Y-90962679D01*
X70661742Y-91094955D01*
X70687482Y-91240409D01*
X70714319Y-91393003D01*
X70741184Y-91546699D01*
X70762027Y-91666687D01*
X70801136Y-91891260D01*
X70835902Y-92088008D01*
X70867007Y-92260456D01*
X70895126Y-92412129D01*
X70920939Y-92546553D01*
X70945124Y-92667253D01*
X70968360Y-92777754D01*
X70991324Y-92881582D01*
X71014695Y-92982262D01*
X71017070Y-92992250D01*
X71066793Y-93187315D01*
X71116152Y-93352595D01*
X71166010Y-93490028D01*
X71217227Y-93601555D01*
X71270665Y-93689116D01*
X71327185Y-93754650D01*
X71371136Y-93789864D01*
X71428526Y-93811975D01*
X71498791Y-93816538D01*
X71568475Y-93803745D01*
X71606677Y-93786465D01*
X71663700Y-93739675D01*
X71720504Y-93668567D01*
X71777356Y-93572363D01*
X71834527Y-93450287D01*
X71892285Y-93301563D01*
X71950899Y-93125413D01*
X72010637Y-92921060D01*
X72071769Y-92687728D01*
X72134563Y-92424639D01*
X72199289Y-92131017D01*
X72229552Y-91986609D01*
X72291884Y-91695279D01*
X72352674Y-91432269D01*
X72411767Y-91198137D01*
X72469007Y-90993442D01*
X72524237Y-90818742D01*
X72577302Y-90674597D01*
X72626508Y-90564598D01*
X72661874Y-90497874D01*
X72688748Y-90459859D01*
X72711284Y-90450139D01*
X72733638Y-90468300D01*
X72759965Y-90513931D01*
X72777184Y-90549608D01*
X72813072Y-90635370D01*
X72852396Y-90745879D01*
X72893126Y-90874609D01*
X72933233Y-91015030D01*
X72970689Y-91160614D01*
X72982495Y-91210281D01*
X72999063Y-91284859D01*
X73007652Y-91333547D01*
X73008721Y-91361063D01*
X73002729Y-91372125D01*
X72998348Y-91373000D01*
X72987154Y-91380398D01*
X72980311Y-91405901D01*
X72977011Y-91454466D01*
X72976375Y-91507937D01*
X72976375Y-91642875D01*
X73027969Y-91643057D01*
X73079563Y-91643240D01*
X73162357Y-92020088D01*
X73210844Y-92234126D01*
X73255985Y-92418789D01*
X73298514Y-92576189D01*
X73339167Y-92708438D01*
X73378679Y-92817648D01*
X73417787Y-92905931D01*
X73457225Y-92975398D01*
X73497728Y-93028163D01*
X73521549Y-93051551D01*
X73584192Y-93096679D01*
X73642860Y-93115230D01*
X73706546Y-93109606D01*
X73722466Y-93105260D01*
X73779185Y-93077313D01*
X73833541Y-93027434D01*
X73886060Y-92954372D01*
X73937263Y-92856875D01*
X73987676Y-92733691D01*
X74037822Y-92583569D01*
X74088225Y-92405254D01*
X74139409Y-92197497D01*
X74181537Y-92008000D01*
X74206448Y-91892156D01*
X74226090Y-91803728D01*
X74241616Y-91739037D01*
X74254181Y-91694404D01*
X74264937Y-91666152D01*
X74275040Y-91650602D01*
X74285641Y-91644075D01*
X74296064Y-91642875D01*
X74318546Y-91633777D01*
X74325707Y-91602021D01*
X74325750Y-91597798D01*
X74339768Y-91555419D01*
X74380552Y-91527834D01*
X74446201Y-91516190D01*
X74461435Y-91515875D01*
X74516250Y-91515875D01*
X74892743Y-91515875D01*
X74885727Y-91276625D01*
X74885420Y-91272979D01*
X74503563Y-91272979D01*
X74411994Y-91282429D01*
X74342747Y-91295867D01*
X74271445Y-91319215D01*
X74242247Y-91332440D01*
X74187251Y-91355810D01*
X74133616Y-91370469D01*
X74109973Y-91373000D01*
X74055875Y-91373000D01*
X74055875Y-91459991D01*
X74051554Y-91522708D01*
X74040585Y-91583254D01*
X74033451Y-91606834D01*
X74023427Y-91640011D01*
X74008171Y-91698683D01*
X73989028Y-91777285D01*
X73967343Y-91870252D01*
X73944459Y-91972019D01*
X73937168Y-92005238D01*
X73898732Y-92172509D01*
X73858583Y-92330862D01*
X73818004Y-92475979D01*
X73778281Y-92603542D01*
X73740701Y-92709232D01*
X73706547Y-92788732D01*
X73700334Y-92800933D01*
X73663076Y-92871554D01*
X73639148Y-92824746D01*
X73614348Y-92771738D01*
X73589193Y-92708296D01*
X73563052Y-92632054D01*
X73535294Y-92540649D01*
X73505288Y-92431713D01*
X73472403Y-92302883D01*
X73436008Y-92151792D01*
X73395472Y-91976076D01*
X73350165Y-91773370D01*
X73311161Y-91595250D01*
X73281436Y-91460226D01*
X73251023Y-91325138D01*
X73221267Y-91195751D01*
X73193517Y-91077833D01*
X73169119Y-90977150D01*
X73149420Y-90899469D01*
X73143195Y-90876264D01*
X73089848Y-90695911D01*
X73036914Y-90545855D01*
X72983502Y-90424668D01*
X72928718Y-90330924D01*
X72871672Y-90263195D01*
X72811471Y-90220055D01*
X72747222Y-90200077D01*
X72719240Y-90198250D01*
X72655386Y-90206672D01*
X72595079Y-90232936D01*
X72537533Y-90278535D01*
X72481959Y-90344962D01*
X72427569Y-90433711D01*
X72373576Y-90546275D01*
X72319193Y-90684147D01*
X72263630Y-90848821D01*
X72206101Y-91041791D01*
X72145819Y-91264550D01*
X72135229Y-91305531D01*
X72117902Y-91373000D01*
X71896875Y-91373000D01*
X71896875Y-91642875D01*
X72054832Y-91642875D01*
X72045410Y-91694468D01*
X72004537Y-91907815D01*
X71959828Y-92122337D01*
X71912279Y-92334241D01*
X71862887Y-92539731D01*
X71812648Y-92735015D01*
X71762557Y-92916298D01*
X71713611Y-93079786D01*
X71666806Y-93221684D01*
X71623138Y-93338199D01*
X71599437Y-93393093D01*
X71571175Y-93452791D01*
X71550604Y-93489200D01*
X71532557Y-93508063D01*
X71511866Y-93515120D01*
X71488686Y-93516125D01*
X71457733Y-93513797D01*
X71436439Y-93502222D01*
X71417575Y-93474507D01*
X71395463Y-93427282D01*
X71363854Y-93345541D01*
X71328511Y-93235575D01*
X71290346Y-93100571D01*
X71250266Y-92943711D01*
X71216772Y-92801718D01*
X71200437Y-92726719D01*
X71180425Y-92629537D01*
X71157808Y-92515898D01*
X71133663Y-92391523D01*
X71109061Y-92262137D01*
X71085079Y-92133464D01*
X71062790Y-92011226D01*
X71043268Y-91901149D01*
X71027588Y-91808954D01*
X71016823Y-91740367D01*
X71014643Y-91724722D01*
X71009117Y-91676981D01*
X71011025Y-91652727D01*
X71023367Y-91644009D01*
X71045518Y-91642875D01*
X71087250Y-91642875D01*
X71087250Y-91373000D01*
X70951621Y-91373000D01*
X70914868Y-91154718D01*
X70893464Y-91032095D01*
X70868007Y-90893673D01*
X70839533Y-90744493D01*
X70809076Y-90589594D01*
X70777672Y-90434017D01*
X70746355Y-90282802D01*
X70716161Y-90140990D01*
X70688123Y-90013620D01*
X70663277Y-89905732D01*
X70642658Y-89822368D01*
X70636879Y-89800811D01*
X70575600Y-89597757D01*
X70512293Y-89426040D01*
X70446653Y-89285295D01*
X70378375Y-89175156D01*
X70307157Y-89095259D01*
X70232694Y-89045237D01*
X70154682Y-89024725D01*
X70072817Y-89033357D01*
X70016613Y-89054802D01*
X69953300Y-89096062D01*
X69890442Y-89158804D01*
X69827717Y-89243906D01*
X69764803Y-89352242D01*
X69701376Y-89484691D01*
X69637115Y-89642129D01*
X69571697Y-89825433D01*
X69504799Y-90035479D01*
X69436099Y-90273145D01*
X69365274Y-90539307D01*
X69292002Y-90834842D01*
X69215960Y-91160627D01*
X69175241Y-91342170D01*
X69138112Y-91507655D01*
X69105901Y-91645809D01*
X69077482Y-91760473D01*
X69051731Y-91855485D01*
X69027521Y-91934685D01*
X69003727Y-92001911D01*
X68979221Y-92061003D01*
X68952879Y-92115801D01*
X68942588Y-92135482D01*
X68884660Y-92227297D01*
X68823686Y-92288454D01*
X68756979Y-92320044D01*
X68681851Y-92323156D01*
X68595616Y-92298880D01*
X68568729Y-92287145D01*
X68521541Y-92263339D01*
X68494734Y-92240841D01*
X68479385Y-92208730D01*
X68468365Y-92164268D01*
X68458676Y-92112873D01*
X68447147Y-92040632D01*
X68435414Y-91958256D01*
X68427538Y-91896875D01*
X68406012Y-91593150D01*
X68414794Y-91294167D01*
X68452593Y-91001561D01*
X68518119Y-90716966D01*
X68610082Y-90442017D01*
X68727192Y-90178347D01*
X68868159Y-89927592D01*
X69031693Y-89691385D01*
X69216504Y-89471362D01*
X69421301Y-89269156D01*
X69644795Y-89086403D01*
X69885695Y-88924736D01*
X70142712Y-88785790D01*
X70414554Y-88671200D01*
X70699933Y-88582599D01*
X70997558Y-88521623D01*
X71103028Y-88507270D01*
X71409155Y-88486444D01*
X71711220Y-88496151D01*
X72007414Y-88535257D01*
X72295925Y-88602625D01*
X72574943Y-88697118D01*
X72842656Y-88817601D01*
X73097254Y-88962939D01*
X73336926Y-89131994D01*
X73559861Y-89323631D01*
X73764248Y-89536713D01*
X73948277Y-89770105D01*
X74110136Y-90022671D01*
X74248015Y-90293274D01*
X74347039Y-90542444D01*
X74383450Y-90657141D01*
X74418492Y-90785792D01*
X74449736Y-90917983D01*
X74474753Y-91043299D01*
X74491115Y-91151328D01*
X74492961Y-91168208D01*
X74503563Y-91272979D01*
X74885420Y-91272979D01*
X74881143Y-91222187D01*
X74836273Y-90901376D01*
X74762649Y-90591228D01*
X74661773Y-90293059D01*
X74535147Y-90008186D01*
X74384271Y-89737926D01*
X74210648Y-89483596D01*
X74015778Y-89246512D01*
X73801164Y-89027992D01*
X73568306Y-88829352D01*
X73318706Y-88651909D01*
X73053866Y-88496980D01*
X72775286Y-88365882D01*
X72484470Y-88259931D01*
X72182916Y-88180444D01*
X71872128Y-88128739D01*
X71553607Y-88106131D01*
X71330528Y-88108168D01*
X71330528Y-88108168D01*
G37*
X71330528Y-88108168D02*
X71000439Y-88137245D01*
X70680385Y-88195644D01*
X70371733Y-88282141D01*
X70075850Y-88395513D01*
X69794106Y-88534539D01*
X69527867Y-88697994D01*
X69278501Y-88884657D01*
X69047376Y-89093303D01*
X68835860Y-89322712D01*
X68645320Y-89571659D01*
X68477124Y-89838921D01*
X68332640Y-90123277D01*
X68213236Y-90423502D01*
X68120279Y-90738375D01*
X68060616Y-91031687D01*
X68046824Y-91144721D01*
X68037353Y-91280603D01*
X68032201Y-91430849D01*
X68031367Y-91586975D01*
X68034848Y-91740499D01*
X68042643Y-91882936D01*
X68054750Y-92005804D01*
X68060819Y-92047687D01*
X68129623Y-92376461D01*
X68226183Y-92691700D01*
X68349246Y-92992135D01*
X68497559Y-93276496D01*
X68669870Y-93543513D01*
X68864925Y-93791918D01*
X69081473Y-94020440D01*
X69318261Y-94227810D01*
X69574036Y-94412758D01*
X69847545Y-94574015D01*
X70137536Y-94710311D01*
X70442756Y-94820378D01*
X70761953Y-94902944D01*
X70904688Y-94929929D01*
X71016161Y-94944870D01*
X71149618Y-94956678D01*
X71295898Y-94965047D01*
X71445842Y-94969676D01*
X71590287Y-94970260D01*
X71720075Y-94966495D01*
X71809563Y-94959908D01*
X72131268Y-94911363D01*
X72441592Y-94834244D01*
X72739292Y-94730060D01*
X73023125Y-94600326D01*
X73291850Y-94446552D01*
X73544224Y-94270251D01*
X73779003Y-94072935D01*
X73994945Y-93856116D01*
X74190807Y-93621307D01*
X74365348Y-93370019D01*
X74517323Y-93103765D01*
X74645491Y-92824056D01*
X74748609Y-92532406D01*
X74825434Y-92230325D01*
X74874724Y-91919327D01*
X74895236Y-91600923D01*
X74892743Y-91515875D01*
X74516250Y-91515875D01*
X74516250Y-91607253D01*
X74512778Y-91694395D01*
X74503210Y-91802821D01*
X74488822Y-91922932D01*
X74470890Y-92045129D01*
X74450689Y-92159815D01*
X74430314Y-92254062D01*
X74342222Y-92549639D01*
X74227409Y-92830210D01*
X74087587Y-93094583D01*
X73924466Y-93341566D01*
X73739758Y-93569966D01*
X73535177Y-93778590D01*
X73312432Y-93966247D01*
X73073236Y-94131742D01*
X72819301Y-94273885D01*
X72552339Y-94391482D01*
X72274061Y-94483340D01*
X71986178Y-94548268D01*
X71690404Y-94585072D01*
X71388449Y-94592560D01*
X71103028Y-94572104D01*
X70801134Y-94520723D01*
X70508478Y-94440072D01*
X70226995Y-94331571D01*
X69958618Y-94196641D01*
X69705281Y-94036702D01*
X69468917Y-93853175D01*
X69251459Y-93647479D01*
X69054842Y-93421035D01*
X68880999Y-93175263D01*
X68731864Y-92911584D01*
X68673250Y-92787286D01*
X68634087Y-92699651D01*
X68607255Y-92637290D01*
X68593432Y-92595943D01*
X68593298Y-92571349D01*
X68607530Y-92559247D01*
X68636810Y-92555377D01*
X68681814Y-92555479D01*
X68710159Y-92555687D01*
X68780279Y-92554258D01*
X68829819Y-92548416D01*
X68869883Y-92535827D01*
X68911573Y-92514158D01*
X68913703Y-92512909D01*
X69007431Y-92443164D01*
X69090696Y-92349559D01*
X69164443Y-92230453D01*
X69229618Y-92084204D01*
X69287166Y-91909173D01*
X69309603Y-91825437D01*
X69353703Y-91650812D01*
X69410852Y-91645885D01*
X69468000Y-91640958D01*
X69468000Y-91506979D01*
X69466972Y-91439792D01*
X69463230Y-91398763D01*
X69455789Y-91378349D01*
X69444188Y-91373000D01*
X69423356Y-91360222D01*
X69420375Y-91348286D01*
X69423899Y-91326159D01*
X69433765Y-91277960D01*
X69448917Y-91208495D01*
X69468297Y-91122567D01*
X69490847Y-91024982D01*
X69501595Y-90979193D01*
X69570508Y-90696589D01*
X69638626Y-90436202D01*
X69705565Y-90199142D01*
X69770941Y-89986516D01*
X69834372Y-89799436D01*
X69895474Y-89639010D01*
X69953862Y-89506347D01*
X70009154Y-89402556D01*
X70060966Y-89328748D01*
X70078952Y-89309478D01*
X70112615Y-89278072D01*
X70133219Y-89266356D01*
X70150431Y-89271847D01*
X70167888Y-89286630D01*
X70209016Y-89338092D01*
X70252660Y-89419782D01*
X70298409Y-89530308D01*
X70345855Y-89668283D01*
X70394590Y-89832317D01*
X70444205Y-90021023D01*
X70494292Y-90233009D01*
X70544443Y-90466889D01*
X70594247Y-90721273D01*
X70601792Y-90761812D01*
X70617828Y-90849618D01*
X70638167Y-90962679D01*
X70661742Y-91094955D01*
X70687482Y-91240409D01*
X70714319Y-91393003D01*
X70741184Y-91546699D01*
X70762027Y-91666687D01*
X70801136Y-91891260D01*
X70835902Y-92088008D01*
X70867007Y-92260456D01*
X70895126Y-92412129D01*
X70920939Y-92546553D01*
X70945124Y-92667253D01*
X70968360Y-92777754D01*
X70991324Y-92881582D01*
X71014695Y-92982262D01*
X71017070Y-92992250D01*
X71066793Y-93187315D01*
X71116152Y-93352595D01*
X71166010Y-93490028D01*
X71217227Y-93601555D01*
X71270665Y-93689116D01*
X71327185Y-93754650D01*
X71371136Y-93789864D01*
X71428526Y-93811975D01*
X71498791Y-93816538D01*
X71568475Y-93803745D01*
X71606677Y-93786465D01*
X71663700Y-93739675D01*
X71720504Y-93668567D01*
X71777356Y-93572363D01*
X71834527Y-93450287D01*
X71892285Y-93301563D01*
X71950899Y-93125413D01*
X72010637Y-92921060D01*
X72071769Y-92687728D01*
X72134563Y-92424639D01*
X72199289Y-92131017D01*
X72229552Y-91986609D01*
X72291884Y-91695279D01*
X72352674Y-91432269D01*
X72411767Y-91198137D01*
X72469007Y-90993442D01*
X72524237Y-90818742D01*
X72577302Y-90674597D01*
X72626508Y-90564598D01*
X72661874Y-90497874D01*
X72688748Y-90459859D01*
X72711284Y-90450139D01*
X72733638Y-90468300D01*
X72759965Y-90513931D01*
X72777184Y-90549608D01*
X72813072Y-90635370D01*
X72852396Y-90745879D01*
X72893126Y-90874609D01*
X72933233Y-91015030D01*
X72970689Y-91160614D01*
X72982495Y-91210281D01*
X72999063Y-91284859D01*
X73007652Y-91333547D01*
X73008721Y-91361063D01*
X73002729Y-91372125D01*
X72998348Y-91373000D01*
X72987154Y-91380398D01*
X72980311Y-91405901D01*
X72977011Y-91454466D01*
X72976375Y-91507937D01*
X72976375Y-91642875D01*
X73027969Y-91643057D01*
X73079563Y-91643240D01*
X73162357Y-92020088D01*
X73210844Y-92234126D01*
X73255985Y-92418789D01*
X73298514Y-92576189D01*
X73339167Y-92708438D01*
X73378679Y-92817648D01*
X73417787Y-92905931D01*
X73457225Y-92975398D01*
X73497728Y-93028163D01*
X73521549Y-93051551D01*
X73584192Y-93096679D01*
X73642860Y-93115230D01*
X73706546Y-93109606D01*
X73722466Y-93105260D01*
X73779185Y-93077313D01*
X73833541Y-93027434D01*
X73886060Y-92954372D01*
X73937263Y-92856875D01*
X73987676Y-92733691D01*
X74037822Y-92583569D01*
X74088225Y-92405254D01*
X74139409Y-92197497D01*
X74181537Y-92008000D01*
X74206448Y-91892156D01*
X74226090Y-91803728D01*
X74241616Y-91739037D01*
X74254181Y-91694404D01*
X74264937Y-91666152D01*
X74275040Y-91650602D01*
X74285641Y-91644075D01*
X74296064Y-91642875D01*
X74318546Y-91633777D01*
X74325707Y-91602021D01*
X74325750Y-91597798D01*
X74339768Y-91555419D01*
X74380552Y-91527834D01*
X74446201Y-91516190D01*
X74461435Y-91515875D01*
X74516250Y-91515875D01*
X74892743Y-91515875D01*
X74885727Y-91276625D01*
X74885420Y-91272979D01*
X74503563Y-91272979D01*
X74411994Y-91282429D01*
X74342747Y-91295867D01*
X74271445Y-91319215D01*
X74242247Y-91332440D01*
X74187251Y-91355810D01*
X74133616Y-91370469D01*
X74109973Y-91373000D01*
X74055875Y-91373000D01*
X74055875Y-91459991D01*
X74051554Y-91522708D01*
X74040585Y-91583254D01*
X74033451Y-91606834D01*
X74023427Y-91640011D01*
X74008171Y-91698683D01*
X73989028Y-91777285D01*
X73967343Y-91870252D01*
X73944459Y-91972019D01*
X73937168Y-92005238D01*
X73898732Y-92172509D01*
X73858583Y-92330862D01*
X73818004Y-92475979D01*
X73778281Y-92603542D01*
X73740701Y-92709232D01*
X73706547Y-92788732D01*
X73700334Y-92800933D01*
X73663076Y-92871554D01*
X73639148Y-92824746D01*
X73614348Y-92771738D01*
X73589193Y-92708296D01*
X73563052Y-92632054D01*
X73535294Y-92540649D01*
X73505288Y-92431713D01*
X73472403Y-92302883D01*
X73436008Y-92151792D01*
X73395472Y-91976076D01*
X73350165Y-91773370D01*
X73311161Y-91595250D01*
X73281436Y-91460226D01*
X73251023Y-91325138D01*
X73221267Y-91195751D01*
X73193517Y-91077833D01*
X73169119Y-90977150D01*
X73149420Y-90899469D01*
X73143195Y-90876264D01*
X73089848Y-90695911D01*
X73036914Y-90545855D01*
X72983502Y-90424668D01*
X72928718Y-90330924D01*
X72871672Y-90263195D01*
X72811471Y-90220055D01*
X72747222Y-90200077D01*
X72719240Y-90198250D01*
X72655386Y-90206672D01*
X72595079Y-90232936D01*
X72537533Y-90278535D01*
X72481959Y-90344962D01*
X72427569Y-90433711D01*
X72373576Y-90546275D01*
X72319193Y-90684147D01*
X72263630Y-90848821D01*
X72206101Y-91041791D01*
X72145819Y-91264550D01*
X72135229Y-91305531D01*
X72117902Y-91373000D01*
X71896875Y-91373000D01*
X71896875Y-91642875D01*
X72054832Y-91642875D01*
X72045410Y-91694468D01*
X72004537Y-91907815D01*
X71959828Y-92122337D01*
X71912279Y-92334241D01*
X71862887Y-92539731D01*
X71812648Y-92735015D01*
X71762557Y-92916298D01*
X71713611Y-93079786D01*
X71666806Y-93221684D01*
X71623138Y-93338199D01*
X71599437Y-93393093D01*
X71571175Y-93452791D01*
X71550604Y-93489200D01*
X71532557Y-93508063D01*
X71511866Y-93515120D01*
X71488686Y-93516125D01*
X71457733Y-93513797D01*
X71436439Y-93502222D01*
X71417575Y-93474507D01*
X71395463Y-93427282D01*
X71363854Y-93345541D01*
X71328511Y-93235575D01*
X71290346Y-93100571D01*
X71250266Y-92943711D01*
X71216772Y-92801718D01*
X71200437Y-92726719D01*
X71180425Y-92629537D01*
X71157808Y-92515898D01*
X71133663Y-92391523D01*
X71109061Y-92262137D01*
X71085079Y-92133464D01*
X71062790Y-92011226D01*
X71043268Y-91901149D01*
X71027588Y-91808954D01*
X71016823Y-91740367D01*
X71014643Y-91724722D01*
X71009117Y-91676981D01*
X71011025Y-91652727D01*
X71023367Y-91644009D01*
X71045518Y-91642875D01*
X71087250Y-91642875D01*
X71087250Y-91373000D01*
X70951621Y-91373000D01*
X70914868Y-91154718D01*
X70893464Y-91032095D01*
X70868007Y-90893673D01*
X70839533Y-90744493D01*
X70809076Y-90589594D01*
X70777672Y-90434017D01*
X70746355Y-90282802D01*
X70716161Y-90140990D01*
X70688123Y-90013620D01*
X70663277Y-89905732D01*
X70642658Y-89822368D01*
X70636879Y-89800811D01*
X70575600Y-89597757D01*
X70512293Y-89426040D01*
X70446653Y-89285295D01*
X70378375Y-89175156D01*
X70307157Y-89095259D01*
X70232694Y-89045237D01*
X70154682Y-89024725D01*
X70072817Y-89033357D01*
X70016613Y-89054802D01*
X69953300Y-89096062D01*
X69890442Y-89158804D01*
X69827717Y-89243906D01*
X69764803Y-89352242D01*
X69701376Y-89484691D01*
X69637115Y-89642129D01*
X69571697Y-89825433D01*
X69504799Y-90035479D01*
X69436099Y-90273145D01*
X69365274Y-90539307D01*
X69292002Y-90834842D01*
X69215960Y-91160627D01*
X69175241Y-91342170D01*
X69138112Y-91507655D01*
X69105901Y-91645809D01*
X69077482Y-91760473D01*
X69051731Y-91855485D01*
X69027521Y-91934685D01*
X69003727Y-92001911D01*
X68979221Y-92061003D01*
X68952879Y-92115801D01*
X68942588Y-92135482D01*
X68884660Y-92227297D01*
X68823686Y-92288454D01*
X68756979Y-92320044D01*
X68681851Y-92323156D01*
X68595616Y-92298880D01*
X68568729Y-92287145D01*
X68521541Y-92263339D01*
X68494734Y-92240841D01*
X68479385Y-92208730D01*
X68468365Y-92164268D01*
X68458676Y-92112873D01*
X68447147Y-92040632D01*
X68435414Y-91958256D01*
X68427538Y-91896875D01*
X68406012Y-91593150D01*
X68414794Y-91294167D01*
X68452593Y-91001561D01*
X68518119Y-90716966D01*
X68610082Y-90442017D01*
X68727192Y-90178347D01*
X68868159Y-89927592D01*
X69031693Y-89691385D01*
X69216504Y-89471362D01*
X69421301Y-89269156D01*
X69644795Y-89086403D01*
X69885695Y-88924736D01*
X70142712Y-88785790D01*
X70414554Y-88671200D01*
X70699933Y-88582599D01*
X70997558Y-88521623D01*
X71103028Y-88507270D01*
X71409155Y-88486444D01*
X71711220Y-88496151D01*
X72007414Y-88535257D01*
X72295925Y-88602625D01*
X72574943Y-88697118D01*
X72842656Y-88817601D01*
X73097254Y-88962939D01*
X73336926Y-89131994D01*
X73559861Y-89323631D01*
X73764248Y-89536713D01*
X73948277Y-89770105D01*
X74110136Y-90022671D01*
X74248015Y-90293274D01*
X74347039Y-90542444D01*
X74383450Y-90657141D01*
X74418492Y-90785792D01*
X74449736Y-90917983D01*
X74474753Y-91043299D01*
X74491115Y-91151328D01*
X74492961Y-91168208D01*
X74503563Y-91272979D01*
X74885420Y-91272979D01*
X74881143Y-91222187D01*
X74836273Y-90901376D01*
X74762649Y-90591228D01*
X74661773Y-90293059D01*
X74535147Y-90008186D01*
X74384271Y-89737926D01*
X74210648Y-89483596D01*
X74015778Y-89246512D01*
X73801164Y-89027992D01*
X73568306Y-88829352D01*
X73318706Y-88651909D01*
X73053866Y-88496980D01*
X72775286Y-88365882D01*
X72484470Y-88259931D01*
X72182916Y-88180444D01*
X71872128Y-88128739D01*
X71553607Y-88106131D01*
X71330528Y-88108168D01*
D11*
X79710000Y-77491422D02*
X79710000Y-78008578D01*
X78290000Y-77491422D02*
X78290000Y-78008578D01*
X65050000Y-64350000D02*
X59350000Y-64350000D01*
X65050000Y-68650000D02*
X59350000Y-68650000D01*
X65050000Y-64350000D02*
X65050000Y-68650000D01*
X57950000Y-73150000D02*
X63650000Y-73150000D01*
X57950000Y-68850000D02*
X63650000Y-68850000D01*
X57950000Y-73150000D02*
X57950000Y-68850000D01*
X70450000Y-44150000D02*
X76150000Y-44150000D01*
X70450000Y-39850000D02*
X76150000Y-39850000D01*
X70450000Y-44150000D02*
X70450000Y-39850000D01*
X62950000Y-44150000D02*
X68650000Y-44150000D01*
X62950000Y-39850000D02*
X68650000Y-39850000D01*
X62950000Y-44150000D02*
X62950000Y-39850000D01*
X73800000Y-35350000D02*
X68100000Y-35350000D01*
X73800000Y-39650000D02*
X68100000Y-39650000D01*
X73800000Y-35350000D02*
X73800000Y-39650000D01*
X70450000Y-35150000D02*
X76150000Y-35150000D01*
X70450000Y-30850000D02*
X76150000Y-30850000D01*
X70450000Y-35150000D02*
X70450000Y-30850000D01*
X62950000Y-35150000D02*
X68650000Y-35150000D01*
X62950000Y-30850000D02*
X68650000Y-30850000D01*
X62950000Y-35150000D02*
X62950000Y-30850000D01*
X74500000Y-59940000D02*
X77950000Y-59940000D01*
X74500000Y-59940000D02*
X72550000Y-59940000D01*
X74500000Y-70060000D02*
X76450000Y-70060000D01*
X74500000Y-70060000D02*
X72550000Y-70060000D01*
X69700000Y-80575000D02*
X68525000Y-80575000D01*
X69700000Y-76425000D02*
X68525000Y-76425000D01*
X76300000Y-80575000D02*
X77475000Y-80575000D01*
X69700000Y-75000000D02*
X69700000Y-76425000D01*
X68525000Y-76425000D02*
X68525000Y-80575000D01*
X77475000Y-76425000D02*
X77475000Y-80575000D01*
X76300000Y-76425000D02*
X77475000Y-76425000D01*
X68060000Y-58000000D02*
X68060000Y-61450000D01*
X68060000Y-58000000D02*
X68060000Y-56050000D01*
X57940000Y-58000000D02*
X57940000Y-59950000D01*
X57940000Y-58000000D02*
X57940000Y-56050000D01*
X54440000Y-40500000D02*
X54440000Y-37050000D01*
X54440000Y-40500000D02*
X54440000Y-42450000D01*
X59560000Y-40500000D02*
X59560000Y-38550000D01*
X59560000Y-40500000D02*
X59560000Y-42450000D01*
X74258578Y-59210000D02*
X73741422Y-59210000D01*
X74258578Y-57790000D02*
X73741422Y-57790000D01*
X75258578Y-74460000D02*
X74741422Y-74460000D01*
X75258578Y-73040000D02*
X74741422Y-73040000D01*
X86052064Y-52710000D02*
X81947936Y-52710000D01*
X86052064Y-49290000D02*
X81947936Y-49290000D01*
X53710000Y-38241422D02*
X53710000Y-38758578D01*
X52290000Y-38241422D02*
X52290000Y-38758578D01*
X53710000Y-42741422D02*
X53710000Y-43258578D01*
X52290000Y-42741422D02*
X52290000Y-43258578D01*
X61260000Y-38587221D02*
X61260000Y-38912779D01*
X60240000Y-38587221D02*
X60240000Y-38912779D01*
X54590000Y-46412779D02*
X54590000Y-46087221D01*
X55610000Y-46412779D02*
X55610000Y-46087221D01*
X79510000Y-81087221D02*
X79510000Y-81412779D01*
X78490000Y-81087221D02*
X78490000Y-81412779D01*
X70412779Y-59260000D02*
X70087221Y-59260000D01*
X70412779Y-58240000D02*
X70087221Y-58240000D01*
X74758578Y-72460000D02*
X74241422Y-72460000D01*
X74758578Y-71040000D02*
X74241422Y-71040000D01*
X71241422Y-73040000D02*
X71758578Y-73040000D01*
X71241422Y-74460000D02*
X71758578Y-74460000D01*
X67510000Y-78337221D02*
X67510000Y-78662779D01*
X66490000Y-78337221D02*
X66490000Y-78662779D01*
X67510000Y-81837221D02*
X67510000Y-82162779D01*
X66490000Y-81837221D02*
X66490000Y-82162779D01*
X70010000Y-54837221D02*
X70010000Y-55162779D01*
X68990000Y-54837221D02*
X68990000Y-55162779D01*
D12*
X81357142Y-77107142D02*
X81404761Y-77059523D01*
X81452380Y-76916666D01*
X81452380Y-76821428D01*
X81404761Y-76678571D01*
X81309523Y-76583333D01*
X81214285Y-76535714D01*
X81023809Y-76488095D01*
X80880952Y-76488095D01*
X80690476Y-76535714D01*
X80595238Y-76583333D01*
X80500000Y-76678571D01*
X80452380Y-76821428D01*
X80452380Y-76916666D01*
X80500000Y-77059523D01*
X80547619Y-77107142D01*
X81452380Y-78059523D02*
X81452380Y-77488095D01*
X81452380Y-77773809D02*
X80452380Y-77773809D01*
X80595238Y-77678571D01*
X80690476Y-77583333D01*
X80738095Y-77488095D01*
X80547619Y-78440476D02*
X80500000Y-78488095D01*
X80452380Y-78583333D01*
X80452380Y-78821428D01*
X80500000Y-78916666D01*
X80547619Y-78964285D01*
X80642857Y-79011904D01*
X80738095Y-79011904D01*
X80880952Y-78964285D01*
X81452380Y-78392857D01*
X81452380Y-79011904D01*
X57238095Y-66952380D02*
X57238095Y-65952380D01*
X57000000Y-65952380D01*
X56857142Y-66000000D01*
X56761904Y-66095238D01*
X56714285Y-66190476D01*
X56666666Y-66380952D01*
X56666666Y-66523809D01*
X56714285Y-66714285D01*
X56761904Y-66809523D01*
X56857142Y-66904761D01*
X57000000Y-66952380D01*
X57238095Y-66952380D01*
X56333333Y-65952380D02*
X55666666Y-65952380D01*
X56095238Y-66952380D01*
X57238095Y-71452380D02*
X57238095Y-70452380D01*
X57000000Y-70452380D01*
X56857142Y-70500000D01*
X56761904Y-70595238D01*
X56714285Y-70690476D01*
X56666666Y-70880952D01*
X56666666Y-71023809D01*
X56714285Y-71214285D01*
X56761904Y-71309523D01*
X56857142Y-71404761D01*
X57000000Y-71452380D01*
X57238095Y-71452380D01*
X55809523Y-70452380D02*
X56000000Y-70452380D01*
X56095238Y-70500000D01*
X56142857Y-70547619D01*
X56238095Y-70690476D01*
X56285714Y-70880952D01*
X56285714Y-71261904D01*
X56238095Y-71357142D01*
X56190476Y-71404761D01*
X56095238Y-71452380D01*
X55904761Y-71452380D01*
X55809523Y-71404761D01*
X55761904Y-71357142D01*
X55714285Y-71261904D01*
X55714285Y-71023809D01*
X55761904Y-70928571D01*
X55809523Y-70880952D01*
X55904761Y-70833333D01*
X56095238Y-70833333D01*
X56190476Y-70880952D01*
X56238095Y-70928571D01*
X56285714Y-71023809D01*
X74738095Y-45452380D02*
X74738095Y-44452380D01*
X74500000Y-44452380D01*
X74357142Y-44500000D01*
X74261904Y-44595238D01*
X74214285Y-44690476D01*
X74166666Y-44880952D01*
X74166666Y-45023809D01*
X74214285Y-45214285D01*
X74261904Y-45309523D01*
X74357142Y-45404761D01*
X74500000Y-45452380D01*
X74738095Y-45452380D01*
X73261904Y-44452380D02*
X73738095Y-44452380D01*
X73785714Y-44928571D01*
X73738095Y-44880952D01*
X73642857Y-44833333D01*
X73404761Y-44833333D01*
X73309523Y-44880952D01*
X73261904Y-44928571D01*
X73214285Y-45023809D01*
X73214285Y-45261904D01*
X73261904Y-45357142D01*
X73309523Y-45404761D01*
X73404761Y-45452380D01*
X73642857Y-45452380D01*
X73738095Y-45404761D01*
X73785714Y-45357142D01*
X67238095Y-45452380D02*
X67238095Y-44452380D01*
X67000000Y-44452380D01*
X66857142Y-44500000D01*
X66761904Y-44595238D01*
X66714285Y-44690476D01*
X66666666Y-44880952D01*
X66666666Y-45023809D01*
X66714285Y-45214285D01*
X66761904Y-45309523D01*
X66857142Y-45404761D01*
X67000000Y-45452380D01*
X67238095Y-45452380D01*
X65809523Y-44785714D02*
X65809523Y-45452380D01*
X66047619Y-44404761D02*
X66285714Y-45119047D01*
X65666666Y-45119047D01*
X66238095Y-37952380D02*
X66238095Y-36952380D01*
X66000000Y-36952380D01*
X65857142Y-37000000D01*
X65761904Y-37095238D01*
X65714285Y-37190476D01*
X65666666Y-37380952D01*
X65666666Y-37523809D01*
X65714285Y-37714285D01*
X65761904Y-37809523D01*
X65857142Y-37904761D01*
X66000000Y-37952380D01*
X66238095Y-37952380D01*
X65333333Y-36952380D02*
X64714285Y-36952380D01*
X65047619Y-37333333D01*
X64904761Y-37333333D01*
X64809523Y-37380952D01*
X64761904Y-37428571D01*
X64714285Y-37523809D01*
X64714285Y-37761904D01*
X64761904Y-37857142D01*
X64809523Y-37904761D01*
X64904761Y-37952380D01*
X65190476Y-37952380D01*
X65285714Y-37904761D01*
X65333333Y-37857142D01*
X74988095Y-30452380D02*
X74988095Y-29452380D01*
X74750000Y-29452380D01*
X74607142Y-29500000D01*
X74511904Y-29595238D01*
X74464285Y-29690476D01*
X74416666Y-29880952D01*
X74416666Y-30023809D01*
X74464285Y-30214285D01*
X74511904Y-30309523D01*
X74607142Y-30404761D01*
X74750000Y-30452380D01*
X74988095Y-30452380D01*
X74035714Y-29547619D02*
X73988095Y-29500000D01*
X73892857Y-29452380D01*
X73654761Y-29452380D01*
X73559523Y-29500000D01*
X73511904Y-29547619D01*
X73464285Y-29642857D01*
X73464285Y-29738095D01*
X73511904Y-29880952D01*
X74083333Y-30452380D01*
X73464285Y-30452380D01*
X67238095Y-30452380D02*
X67238095Y-29452380D01*
X67000000Y-29452380D01*
X66857142Y-29500000D01*
X66761904Y-29595238D01*
X66714285Y-29690476D01*
X66666666Y-29880952D01*
X66666666Y-30023809D01*
X66714285Y-30214285D01*
X66761904Y-30309523D01*
X66857142Y-30404761D01*
X67000000Y-30452380D01*
X67238095Y-30452380D01*
X65714285Y-30452380D02*
X66285714Y-30452380D01*
X66000000Y-30452380D02*
X66000000Y-29452380D01*
X66095238Y-29595238D01*
X66190476Y-29690476D01*
X66285714Y-29738095D01*
X70511904Y-64452380D02*
X70511904Y-65261904D01*
X70464285Y-65357142D01*
X70416666Y-65404761D01*
X70321428Y-65452380D01*
X70130952Y-65452380D01*
X70035714Y-65404761D01*
X69988095Y-65357142D01*
X69940476Y-65261904D01*
X69940476Y-64452380D01*
X69035714Y-64452380D02*
X69226190Y-64452380D01*
X69321428Y-64500000D01*
X69369047Y-64547619D01*
X69464285Y-64690476D01*
X69511904Y-64880952D01*
X69511904Y-65261904D01*
X69464285Y-65357142D01*
X69416666Y-65404761D01*
X69321428Y-65452380D01*
X69130952Y-65452380D01*
X69035714Y-65404761D01*
X68988095Y-65357142D01*
X68940476Y-65261904D01*
X68940476Y-65023809D01*
X68988095Y-64928571D01*
X69035714Y-64880952D01*
X69130952Y-64833333D01*
X69321428Y-64833333D01*
X69416666Y-64880952D01*
X69464285Y-64928571D01*
X69511904Y-65023809D01*
X72511904Y-82702380D02*
X72511904Y-83511904D01*
X72464285Y-83607142D01*
X72416666Y-83654761D01*
X72321428Y-83702380D01*
X72130952Y-83702380D01*
X72035714Y-83654761D01*
X71988095Y-83607142D01*
X71940476Y-83511904D01*
X71940476Y-82702380D01*
X71035714Y-83035714D02*
X71035714Y-83702380D01*
X71273809Y-82654761D02*
X71511904Y-83369047D01*
X70892857Y-83369047D01*
X56202380Y-57238095D02*
X57011904Y-57238095D01*
X57107142Y-57285714D01*
X57154761Y-57333333D01*
X57202380Y-57428571D01*
X57202380Y-57619047D01*
X57154761Y-57714285D01*
X57107142Y-57761904D01*
X57011904Y-57809523D01*
X56202380Y-57809523D01*
X56202380Y-58190476D02*
X56202380Y-58809523D01*
X56583333Y-58476190D01*
X56583333Y-58619047D01*
X56630952Y-58714285D01*
X56678571Y-58761904D01*
X56773809Y-58809523D01*
X57011904Y-58809523D01*
X57107142Y-58761904D01*
X57154761Y-58714285D01*
X57202380Y-58619047D01*
X57202380Y-58333333D01*
X57154761Y-58238095D01*
X57107142Y-58190476D01*
X57761904Y-35202380D02*
X57761904Y-36011904D01*
X57714285Y-36107142D01*
X57666666Y-36154761D01*
X57571428Y-36202380D01*
X57380952Y-36202380D01*
X57285714Y-36154761D01*
X57238095Y-36107142D01*
X57190476Y-36011904D01*
X57190476Y-35202380D01*
X56190476Y-36202380D02*
X56761904Y-36202380D01*
X56476190Y-36202380D02*
X56476190Y-35202380D01*
X56571428Y-35345238D01*
X56666666Y-35440476D01*
X56761904Y-35488095D01*
X77892857Y-58952380D02*
X78226190Y-58476190D01*
X78464285Y-58952380D02*
X78464285Y-57952380D01*
X78083333Y-57952380D01*
X77988095Y-58000000D01*
X77940476Y-58047619D01*
X77892857Y-58142857D01*
X77892857Y-58285714D01*
X77940476Y-58380952D01*
X77988095Y-58428571D01*
X78083333Y-58476190D01*
X78464285Y-58476190D01*
X77511904Y-58047619D02*
X77464285Y-58000000D01*
X77369047Y-57952380D01*
X77130952Y-57952380D01*
X77035714Y-58000000D01*
X76988095Y-58047619D01*
X76940476Y-58142857D01*
X76940476Y-58238095D01*
X76988095Y-58380952D01*
X77559523Y-58952380D01*
X76940476Y-58952380D01*
X76607142Y-57952380D02*
X75940476Y-57952380D01*
X76369047Y-58952380D01*
X79142857Y-74202380D02*
X79476190Y-73726190D01*
X79714285Y-74202380D02*
X79714285Y-73202380D01*
X79333333Y-73202380D01*
X79238095Y-73250000D01*
X79190476Y-73297619D01*
X79142857Y-73392857D01*
X79142857Y-73535714D01*
X79190476Y-73630952D01*
X79238095Y-73678571D01*
X79333333Y-73726190D01*
X79714285Y-73726190D01*
X78190476Y-74202380D02*
X78761904Y-74202380D01*
X78476190Y-74202380D02*
X78476190Y-73202380D01*
X78571428Y-73345238D01*
X78666666Y-73440476D01*
X78761904Y-73488095D01*
X77714285Y-74202380D02*
X77523809Y-74202380D01*
X77428571Y-74154761D01*
X77380952Y-74107142D01*
X77285714Y-73964285D01*
X77238095Y-73773809D01*
X77238095Y-73392857D01*
X77285714Y-73297619D01*
X77333333Y-73250000D01*
X77428571Y-73202380D01*
X77619047Y-73202380D01*
X77714285Y-73250000D01*
X77761904Y-73297619D01*
X77809523Y-73392857D01*
X77809523Y-73630952D01*
X77761904Y-73726190D01*
X77714285Y-73773809D01*
X77619047Y-73821428D01*
X77428571Y-73821428D01*
X77333333Y-73773809D01*
X77285714Y-73726190D01*
X77238095Y-73630952D01*
X84642857Y-48832380D02*
X84976190Y-48356190D01*
X85214285Y-48832380D02*
X85214285Y-47832380D01*
X84833333Y-47832380D01*
X84738095Y-47880000D01*
X84690476Y-47927619D01*
X84642857Y-48022857D01*
X84642857Y-48165714D01*
X84690476Y-48260952D01*
X84738095Y-48308571D01*
X84833333Y-48356190D01*
X85214285Y-48356190D01*
X83690476Y-48832380D02*
X84261904Y-48832380D01*
X83976190Y-48832380D02*
X83976190Y-47832380D01*
X84071428Y-47975238D01*
X84166666Y-48070476D01*
X84261904Y-48118095D01*
X83357142Y-47832380D02*
X82738095Y-47832380D01*
X83071428Y-48213333D01*
X82928571Y-48213333D01*
X82833333Y-48260952D01*
X82785714Y-48308571D01*
X82738095Y-48403809D01*
X82738095Y-48641904D01*
X82785714Y-48737142D01*
X82833333Y-48784761D01*
X82928571Y-48832380D01*
X83214285Y-48832380D01*
X83309523Y-48784761D01*
X83357142Y-48737142D01*
X51802380Y-38333333D02*
X51326190Y-38000000D01*
X51802380Y-37761904D02*
X50802380Y-37761904D01*
X50802380Y-38142857D01*
X50850000Y-38238095D01*
X50897619Y-38285714D01*
X50992857Y-38333333D01*
X51135714Y-38333333D01*
X51230952Y-38285714D01*
X51278571Y-38238095D01*
X51326190Y-38142857D01*
X51326190Y-37761904D01*
X51230952Y-38904761D02*
X51183333Y-38809523D01*
X51135714Y-38761904D01*
X51040476Y-38714285D01*
X50992857Y-38714285D01*
X50897619Y-38761904D01*
X50850000Y-38809523D01*
X50802380Y-38904761D01*
X50802380Y-39095238D01*
X50850000Y-39190476D01*
X50897619Y-39238095D01*
X50992857Y-39285714D01*
X51040476Y-39285714D01*
X51135714Y-39238095D01*
X51183333Y-39190476D01*
X51230952Y-39095238D01*
X51230952Y-38904761D01*
X51278571Y-38809523D01*
X51326190Y-38761904D01*
X51421428Y-38714285D01*
X51611904Y-38714285D01*
X51707142Y-38761904D01*
X51754761Y-38809523D01*
X51802380Y-38904761D01*
X51802380Y-39095238D01*
X51754761Y-39190476D01*
X51707142Y-39238095D01*
X51611904Y-39285714D01*
X51421428Y-39285714D01*
X51326190Y-39238095D01*
X51278571Y-39190476D01*
X51230952Y-39095238D01*
X51802380Y-42833333D02*
X51326190Y-42500000D01*
X51802380Y-42261904D02*
X50802380Y-42261904D01*
X50802380Y-42642857D01*
X50850000Y-42738095D01*
X50897619Y-42785714D01*
X50992857Y-42833333D01*
X51135714Y-42833333D01*
X51230952Y-42785714D01*
X51278571Y-42738095D01*
X51326190Y-42642857D01*
X51326190Y-42261904D01*
X51135714Y-43690476D02*
X51802380Y-43690476D01*
X50754761Y-43452380D02*
X51469047Y-43214285D01*
X51469047Y-43833333D01*
X62607142Y-38107142D02*
X62654761Y-38059523D01*
X62702380Y-37916666D01*
X62702380Y-37821428D01*
X62654761Y-37678571D01*
X62559523Y-37583333D01*
X62464285Y-37535714D01*
X62273809Y-37488095D01*
X62130952Y-37488095D01*
X61940476Y-37535714D01*
X61845238Y-37583333D01*
X61750000Y-37678571D01*
X61702380Y-37821428D01*
X61702380Y-37916666D01*
X61750000Y-38059523D01*
X61797619Y-38107142D01*
X62702380Y-39059523D02*
X62702380Y-38488095D01*
X62702380Y-38773809D02*
X61702380Y-38773809D01*
X61845238Y-38678571D01*
X61940476Y-38583333D01*
X61988095Y-38488095D01*
X61702380Y-39392857D02*
X61702380Y-40059523D01*
X62702380Y-39630952D01*
X56887142Y-45607142D02*
X56934761Y-45559523D01*
X56982380Y-45416666D01*
X56982380Y-45321428D01*
X56934761Y-45178571D01*
X56839523Y-45083333D01*
X56744285Y-45035714D01*
X56553809Y-44988095D01*
X56410952Y-44988095D01*
X56220476Y-45035714D01*
X56125238Y-45083333D01*
X56030000Y-45178571D01*
X55982380Y-45321428D01*
X55982380Y-45416666D01*
X56030000Y-45559523D01*
X56077619Y-45607142D01*
X56982380Y-46559523D02*
X56982380Y-45988095D01*
X56982380Y-46273809D02*
X55982380Y-46273809D01*
X56125238Y-46178571D01*
X56220476Y-46083333D01*
X56268095Y-45988095D01*
X55982380Y-47464285D02*
X55982380Y-46988095D01*
X56458571Y-46940476D01*
X56410952Y-46988095D01*
X56363333Y-47083333D01*
X56363333Y-47321428D01*
X56410952Y-47416666D01*
X56458571Y-47464285D01*
X56553809Y-47511904D01*
X56791904Y-47511904D01*
X56887142Y-47464285D01*
X56934761Y-47416666D01*
X56982380Y-47321428D01*
X56982380Y-47083333D01*
X56934761Y-46988095D01*
X56887142Y-46940476D01*
X81357142Y-80607142D02*
X81404761Y-80559523D01*
X81452380Y-80416666D01*
X81452380Y-80321428D01*
X81404761Y-80178571D01*
X81309523Y-80083333D01*
X81214285Y-80035714D01*
X81023809Y-79988095D01*
X80880952Y-79988095D01*
X80690476Y-80035714D01*
X80595238Y-80083333D01*
X80500000Y-80178571D01*
X80452380Y-80321428D01*
X80452380Y-80416666D01*
X80500000Y-80559523D01*
X80547619Y-80607142D01*
X81452380Y-81559523D02*
X81452380Y-80988095D01*
X81452380Y-81273809D02*
X80452380Y-81273809D01*
X80595238Y-81178571D01*
X80690476Y-81083333D01*
X80738095Y-80988095D01*
X80452380Y-81892857D02*
X80452380Y-82511904D01*
X80833333Y-82178571D01*
X80833333Y-82321428D01*
X80880952Y-82416666D01*
X80928571Y-82464285D01*
X81023809Y-82511904D01*
X81261904Y-82511904D01*
X81357142Y-82464285D01*
X81404761Y-82416666D01*
X81452380Y-82321428D01*
X81452380Y-82035714D01*
X81404761Y-81940476D01*
X81357142Y-81892857D01*
X69857142Y-60357142D02*
X69904761Y-60309523D01*
X69952380Y-60166666D01*
X69952380Y-60071428D01*
X69904761Y-59928571D01*
X69809523Y-59833333D01*
X69714285Y-59785714D01*
X69523809Y-59738095D01*
X69380952Y-59738095D01*
X69190476Y-59785714D01*
X69095238Y-59833333D01*
X69000000Y-59928571D01*
X68952380Y-60071428D01*
X68952380Y-60166666D01*
X69000000Y-60309523D01*
X69047619Y-60357142D01*
X69952380Y-61309523D02*
X69952380Y-60738095D01*
X69952380Y-61023809D02*
X68952380Y-61023809D01*
X69095238Y-60928571D01*
X69190476Y-60833333D01*
X69238095Y-60738095D01*
X69952380Y-62261904D02*
X69952380Y-61690476D01*
X69952380Y-61976190D02*
X68952380Y-61976190D01*
X69095238Y-61880952D01*
X69190476Y-61785714D01*
X69238095Y-61690476D01*
X78392857Y-72107142D02*
X78440476Y-72154761D01*
X78583333Y-72202380D01*
X78678571Y-72202380D01*
X78821428Y-72154761D01*
X78916666Y-72059523D01*
X78964285Y-71964285D01*
X79011904Y-71773809D01*
X79011904Y-71630952D01*
X78964285Y-71440476D01*
X78916666Y-71345238D01*
X78821428Y-71250000D01*
X78678571Y-71202380D01*
X78583333Y-71202380D01*
X78440476Y-71250000D01*
X78392857Y-71297619D01*
X77440476Y-72202380D02*
X78011904Y-72202380D01*
X77726190Y-72202380D02*
X77726190Y-71202380D01*
X77821428Y-71345238D01*
X77916666Y-71440476D01*
X78011904Y-71488095D01*
X76821428Y-71202380D02*
X76726190Y-71202380D01*
X76630952Y-71250000D01*
X76583333Y-71297619D01*
X76535714Y-71392857D01*
X76488095Y-71583333D01*
X76488095Y-71821428D01*
X76535714Y-72011904D01*
X76583333Y-72107142D01*
X76630952Y-72154761D01*
X76726190Y-72202380D01*
X76821428Y-72202380D01*
X76916666Y-72154761D01*
X76964285Y-72107142D01*
X77011904Y-72011904D01*
X77059523Y-71821428D01*
X77059523Y-71583333D01*
X77011904Y-71392857D01*
X76964285Y-71297619D01*
X76916666Y-71250000D01*
X76821428Y-71202380D01*
X68666666Y-74107142D02*
X68714285Y-74154761D01*
X68857142Y-74202380D01*
X68952380Y-74202380D01*
X69095238Y-74154761D01*
X69190476Y-74059523D01*
X69238095Y-73964285D01*
X69285714Y-73773809D01*
X69285714Y-73630952D01*
X69238095Y-73440476D01*
X69190476Y-73345238D01*
X69095238Y-73250000D01*
X68952380Y-73202380D01*
X68857142Y-73202380D01*
X68714285Y-73250000D01*
X68666666Y-73297619D01*
X68190476Y-74202380D02*
X68000000Y-74202380D01*
X67904761Y-74154761D01*
X67857142Y-74107142D01*
X67761904Y-73964285D01*
X67714285Y-73773809D01*
X67714285Y-73392857D01*
X67761904Y-73297619D01*
X67809523Y-73250000D01*
X67904761Y-73202380D01*
X68095238Y-73202380D01*
X68190476Y-73250000D01*
X68238095Y-73297619D01*
X68285714Y-73392857D01*
X68285714Y-73630952D01*
X68238095Y-73726190D01*
X68190476Y-73773809D01*
X68095238Y-73821428D01*
X67904761Y-73821428D01*
X67809523Y-73773809D01*
X67761904Y-73726190D01*
X67714285Y-73630952D01*
X66107142Y-78333333D02*
X66154761Y-78285714D01*
X66202380Y-78142857D01*
X66202380Y-78047619D01*
X66154761Y-77904761D01*
X66059523Y-77809523D01*
X65964285Y-77761904D01*
X65773809Y-77714285D01*
X65630952Y-77714285D01*
X65440476Y-77761904D01*
X65345238Y-77809523D01*
X65250000Y-77904761D01*
X65202380Y-78047619D01*
X65202380Y-78142857D01*
X65250000Y-78285714D01*
X65297619Y-78333333D01*
X65630952Y-78904761D02*
X65583333Y-78809523D01*
X65535714Y-78761904D01*
X65440476Y-78714285D01*
X65392857Y-78714285D01*
X65297619Y-78761904D01*
X65250000Y-78809523D01*
X65202380Y-78904761D01*
X65202380Y-79095238D01*
X65250000Y-79190476D01*
X65297619Y-79238095D01*
X65392857Y-79285714D01*
X65440476Y-79285714D01*
X65535714Y-79238095D01*
X65583333Y-79190476D01*
X65630952Y-79095238D01*
X65630952Y-78904761D01*
X65678571Y-78809523D01*
X65726190Y-78761904D01*
X65821428Y-78714285D01*
X66011904Y-78714285D01*
X66107142Y-78761904D01*
X66154761Y-78809523D01*
X66202380Y-78904761D01*
X66202380Y-79095238D01*
X66154761Y-79190476D01*
X66107142Y-79238095D01*
X66011904Y-79285714D01*
X65821428Y-79285714D01*
X65726190Y-79238095D01*
X65678571Y-79190476D01*
X65630952Y-79095238D01*
X66107142Y-81833333D02*
X66154761Y-81785714D01*
X66202380Y-81642857D01*
X66202380Y-81547619D01*
X66154761Y-81404761D01*
X66059523Y-81309523D01*
X65964285Y-81261904D01*
X65773809Y-81214285D01*
X65630952Y-81214285D01*
X65440476Y-81261904D01*
X65345238Y-81309523D01*
X65250000Y-81404761D01*
X65202380Y-81547619D01*
X65202380Y-81642857D01*
X65250000Y-81785714D01*
X65297619Y-81833333D01*
X65202380Y-82690476D02*
X65202380Y-82500000D01*
X65250000Y-82404761D01*
X65297619Y-82357142D01*
X65440476Y-82261904D01*
X65630952Y-82214285D01*
X66011904Y-82214285D01*
X66107142Y-82261904D01*
X66154761Y-82309523D01*
X66202380Y-82404761D01*
X66202380Y-82595238D01*
X66154761Y-82690476D01*
X66107142Y-82738095D01*
X66011904Y-82785714D01*
X65773809Y-82785714D01*
X65678571Y-82738095D01*
X65630952Y-82690476D01*
X65583333Y-82595238D01*
X65583333Y-82404761D01*
X65630952Y-82309523D01*
X65678571Y-82261904D01*
X65773809Y-82214285D01*
X71357142Y-54833333D02*
X71404761Y-54785714D01*
X71452380Y-54642857D01*
X71452380Y-54547619D01*
X71404761Y-54404761D01*
X71309523Y-54309523D01*
X71214285Y-54261904D01*
X71023809Y-54214285D01*
X70880952Y-54214285D01*
X70690476Y-54261904D01*
X70595238Y-54309523D01*
X70500000Y-54404761D01*
X70452380Y-54547619D01*
X70452380Y-54642857D01*
X70500000Y-54785714D01*
X70547619Y-54833333D01*
X70452380Y-55738095D02*
X70452380Y-55261904D01*
X70928571Y-55214285D01*
X70880952Y-55261904D01*
X70833333Y-55357142D01*
X70833333Y-55595238D01*
X70880952Y-55690476D01*
X70928571Y-55738095D01*
X71023809Y-55785714D01*
X71261904Y-55785714D01*
X71357142Y-55738095D01*
X71404761Y-55690476D01*
X71452380Y-55595238D01*
X71452380Y-55357142D01*
X71404761Y-55261904D01*
X71357142Y-55214285D01*
M02*
