%TF.GenerationSoftware,KiCad,Pcbnew,(5.1.2)-1*%
%TF.CreationDate,2019-07-03T22:54:06-07:00*%
%TF.ProjectId,Keithley1950,4b656974-686c-4657-9931-3935302e6b69,A*%
%TF.SameCoordinates,Original*%
%TF.FileFunction,Legend,Top*%
%TF.FilePolarity,Positive*%
%FSLAX46Y46*%
G04 Gerber Fmt 4.6, Leading zero omitted, Abs format (unit mm)*
G04 Created by KiCad (PCBNEW (5.1.2)-1) date 2019-07-03 22:54:06*
%MOMM*%
%LPD*%
G04 APERTURE LIST*
%ADD10C,0.150000*%
%ADD11C,0.010000*%
%ADD12C,0.120000*%
%ADD13C,0.254000*%
G04 APERTURE END LIST*
D10*
X73119047Y-30702380D02*
X72785714Y-30226190D01*
X72547619Y-30702380D02*
X72547619Y-29702380D01*
X72928571Y-29702380D01*
X73023809Y-29750000D01*
X73071428Y-29797619D01*
X73119047Y-29892857D01*
X73119047Y-30035714D01*
X73071428Y-30130952D01*
X73023809Y-30178571D01*
X72928571Y-30226190D01*
X72547619Y-30226190D01*
X73547619Y-30178571D02*
X73880952Y-30178571D01*
X74023809Y-30702380D02*
X73547619Y-30702380D01*
X73547619Y-29702380D01*
X74023809Y-29702380D01*
X74309523Y-29702380D02*
X74642857Y-30702380D01*
X74976190Y-29702380D01*
X76023809Y-30416666D02*
X76500000Y-30416666D01*
X75928571Y-30702380D02*
X76261904Y-29702380D01*
X76595238Y-30702380D01*
X69738095Y-25552380D02*
X69738095Y-24552380D01*
X70309523Y-25552380D02*
X69880952Y-24980952D01*
X70309523Y-24552380D02*
X69738095Y-25123809D01*
X71119047Y-25504761D02*
X71023809Y-25552380D01*
X70833333Y-25552380D01*
X70738095Y-25504761D01*
X70690476Y-25409523D01*
X70690476Y-25028571D01*
X70738095Y-24933333D01*
X70833333Y-24885714D01*
X71023809Y-24885714D01*
X71119047Y-24933333D01*
X71166666Y-25028571D01*
X71166666Y-25123809D01*
X70690476Y-25219047D01*
X71595238Y-25552380D02*
X71595238Y-24885714D01*
X71595238Y-24552380D02*
X71547619Y-24600000D01*
X71595238Y-24647619D01*
X71642857Y-24600000D01*
X71595238Y-24552380D01*
X71595238Y-24647619D01*
X71928571Y-24885714D02*
X72309523Y-24885714D01*
X72071428Y-24552380D02*
X72071428Y-25409523D01*
X72119047Y-25504761D01*
X72214285Y-25552380D01*
X72309523Y-25552380D01*
X72642857Y-25552380D02*
X72642857Y-24552380D01*
X73071428Y-25552380D02*
X73071428Y-25028571D01*
X73023809Y-24933333D01*
X72928571Y-24885714D01*
X72785714Y-24885714D01*
X72690476Y-24933333D01*
X72642857Y-24980952D01*
X73690476Y-25552380D02*
X73595238Y-25504761D01*
X73547619Y-25409523D01*
X73547619Y-24552380D01*
X74452380Y-25504761D02*
X74357142Y-25552380D01*
X74166666Y-25552380D01*
X74071428Y-25504761D01*
X74023809Y-25409523D01*
X74023809Y-25028571D01*
X74071428Y-24933333D01*
X74166666Y-24885714D01*
X74357142Y-24885714D01*
X74452380Y-24933333D01*
X74500000Y-25028571D01*
X74500000Y-25123809D01*
X74023809Y-25219047D01*
X74833333Y-24885714D02*
X75071428Y-25552380D01*
X75309523Y-24885714D02*
X75071428Y-25552380D01*
X74976190Y-25790476D01*
X74928571Y-25838095D01*
X74833333Y-25885714D01*
X76452380Y-25552380D02*
X76452380Y-24552380D01*
X76690476Y-24552380D01*
X76833333Y-24600000D01*
X76928571Y-24695238D01*
X76976190Y-24790476D01*
X77023809Y-24980952D01*
X77023809Y-25123809D01*
X76976190Y-25314285D01*
X76928571Y-25409523D01*
X76833333Y-25504761D01*
X76690476Y-25552380D01*
X76452380Y-25552380D01*
X77452380Y-25552380D02*
X77452380Y-24552380D01*
X77785714Y-25266666D01*
X78119047Y-24552380D01*
X78119047Y-25552380D01*
X78595238Y-25552380D02*
X78595238Y-24552380D01*
X78928571Y-25266666D01*
X79261904Y-24552380D01*
X79261904Y-25552380D01*
X70238095Y-26202380D02*
X70428571Y-26202380D01*
X70523809Y-26250000D01*
X70619047Y-26345238D01*
X70666666Y-26535714D01*
X70666666Y-26869047D01*
X70619047Y-27059523D01*
X70523809Y-27154761D01*
X70428571Y-27202380D01*
X70238095Y-27202380D01*
X70142857Y-27154761D01*
X70047619Y-27059523D01*
X70000000Y-26869047D01*
X70000000Y-26535714D01*
X70047619Y-26345238D01*
X70142857Y-26250000D01*
X70238095Y-26202380D01*
X71095238Y-26535714D02*
X71095238Y-27535714D01*
X71095238Y-26583333D02*
X71190476Y-26535714D01*
X71380952Y-26535714D01*
X71476190Y-26583333D01*
X71523809Y-26630952D01*
X71571428Y-26726190D01*
X71571428Y-27011904D01*
X71523809Y-27107142D01*
X71476190Y-27154761D01*
X71380952Y-27202380D01*
X71190476Y-27202380D01*
X71095238Y-27154761D01*
X71857142Y-26535714D02*
X72238095Y-26535714D01*
X72000000Y-26202380D02*
X72000000Y-27059523D01*
X72047619Y-27154761D01*
X72142857Y-27202380D01*
X72238095Y-27202380D01*
X72571428Y-27202380D02*
X72571428Y-26535714D01*
X72571428Y-26202380D02*
X72523809Y-26250000D01*
X72571428Y-26297619D01*
X72619047Y-26250000D01*
X72571428Y-26202380D01*
X72571428Y-26297619D01*
X73190476Y-27202380D02*
X73095238Y-27154761D01*
X73047619Y-27107142D01*
X73000000Y-27011904D01*
X73000000Y-26726190D01*
X73047619Y-26630952D01*
X73095238Y-26583333D01*
X73190476Y-26535714D01*
X73333333Y-26535714D01*
X73428571Y-26583333D01*
X73476190Y-26630952D01*
X73523809Y-26726190D01*
X73523809Y-27011904D01*
X73476190Y-27107142D01*
X73428571Y-27154761D01*
X73333333Y-27202380D01*
X73190476Y-27202380D01*
X73952380Y-26535714D02*
X73952380Y-27202380D01*
X73952380Y-26630952D02*
X74000000Y-26583333D01*
X74095238Y-26535714D01*
X74238095Y-26535714D01*
X74333333Y-26583333D01*
X74380952Y-26678571D01*
X74380952Y-27202380D01*
X76142857Y-27202380D02*
X75571428Y-27202380D01*
X75857142Y-27202380D02*
X75857142Y-26202380D01*
X75761904Y-26345238D01*
X75666666Y-26440476D01*
X75571428Y-26488095D01*
X76619047Y-27202380D02*
X76809523Y-27202380D01*
X76904761Y-27154761D01*
X76952380Y-27107142D01*
X77047619Y-26964285D01*
X77095238Y-26773809D01*
X77095238Y-26392857D01*
X77047619Y-26297619D01*
X77000000Y-26250000D01*
X76904761Y-26202380D01*
X76714285Y-26202380D01*
X76619047Y-26250000D01*
X76571428Y-26297619D01*
X76523809Y-26392857D01*
X76523809Y-26630952D01*
X76571428Y-26726190D01*
X76619047Y-26773809D01*
X76714285Y-26821428D01*
X76904761Y-26821428D01*
X77000000Y-26773809D01*
X77047619Y-26726190D01*
X77095238Y-26630952D01*
X78000000Y-26202380D02*
X77523809Y-26202380D01*
X77476190Y-26678571D01*
X77523809Y-26630952D01*
X77619047Y-26583333D01*
X77857142Y-26583333D01*
X77952380Y-26630952D01*
X78000000Y-26678571D01*
X78047619Y-26773809D01*
X78047619Y-27011904D01*
X78000000Y-27107142D01*
X77952380Y-27154761D01*
X77857142Y-27202380D01*
X77619047Y-27202380D01*
X77523809Y-27154761D01*
X77476190Y-27107142D01*
X78666666Y-26202380D02*
X78761904Y-26202380D01*
X78857142Y-26250000D01*
X78904761Y-26297619D01*
X78952380Y-26392857D01*
X79000000Y-26583333D01*
X79000000Y-26821428D01*
X78952380Y-27011904D01*
X78904761Y-27107142D01*
X78857142Y-27154761D01*
X78761904Y-27202380D01*
X78666666Y-27202380D01*
X78571428Y-27154761D01*
X78523809Y-27107142D01*
X78476190Y-27011904D01*
X78428571Y-26821428D01*
X78428571Y-26583333D01*
X78476190Y-26392857D01*
X78523809Y-26297619D01*
X78571428Y-26250000D01*
X78666666Y-26202380D01*
X66023809Y-28566666D02*
X66500000Y-28566666D01*
X65928571Y-28852380D02*
X66261904Y-27852380D01*
X66595238Y-28852380D01*
X67500000Y-28757142D02*
X67452380Y-28804761D01*
X67309523Y-28852380D01*
X67214285Y-28852380D01*
X67071428Y-28804761D01*
X66976190Y-28709523D01*
X66928571Y-28614285D01*
X66880952Y-28423809D01*
X66880952Y-28280952D01*
X66928571Y-28090476D01*
X66976190Y-27995238D01*
X67071428Y-27900000D01*
X67214285Y-27852380D01*
X67309523Y-27852380D01*
X67452380Y-27900000D01*
X67500000Y-27947619D01*
X68547619Y-27852380D02*
X69119047Y-27852380D01*
X68833333Y-28852380D02*
X68833333Y-27852380D01*
X70023809Y-28852380D02*
X69690476Y-28376190D01*
X69452380Y-28852380D02*
X69452380Y-27852380D01*
X69833333Y-27852380D01*
X69928571Y-27900000D01*
X69976190Y-27947619D01*
X70023809Y-28042857D01*
X70023809Y-28185714D01*
X69976190Y-28280952D01*
X69928571Y-28328571D01*
X69833333Y-28376190D01*
X69452380Y-28376190D01*
X70452380Y-28852380D02*
X70452380Y-27852380D01*
X70785714Y-28566666D01*
X71119047Y-27852380D01*
X71119047Y-28852380D01*
X71547619Y-28804761D02*
X71690476Y-28852380D01*
X71928571Y-28852380D01*
X72023809Y-28804761D01*
X72071428Y-28757142D01*
X72119047Y-28661904D01*
X72119047Y-28566666D01*
X72071428Y-28471428D01*
X72023809Y-28423809D01*
X71928571Y-28376190D01*
X71738095Y-28328571D01*
X71642857Y-28280952D01*
X71595238Y-28233333D01*
X71547619Y-28138095D01*
X71547619Y-28042857D01*
X71595238Y-27947619D01*
X71642857Y-27900000D01*
X71738095Y-27852380D01*
X71976190Y-27852380D01*
X72119047Y-27900000D01*
X72595238Y-28804761D02*
X72595238Y-28852380D01*
X72547619Y-28947619D01*
X72500000Y-28995238D01*
X73738095Y-28566666D02*
X74214285Y-28566666D01*
X73642857Y-28852380D02*
X73976190Y-27852380D01*
X74309523Y-28852380D01*
X75214285Y-28757142D02*
X75166666Y-28804761D01*
X75023809Y-28852380D01*
X74928571Y-28852380D01*
X74785714Y-28804761D01*
X74690476Y-28709523D01*
X74642857Y-28614285D01*
X74595238Y-28423809D01*
X74595238Y-28280952D01*
X74642857Y-28090476D01*
X74690476Y-27995238D01*
X74785714Y-27900000D01*
X74928571Y-27852380D01*
X75023809Y-27852380D01*
X75166666Y-27900000D01*
X75214285Y-27947619D01*
X76357142Y-27804761D02*
X75500000Y-29090476D01*
X76690476Y-28852380D02*
X76690476Y-27852380D01*
X76928571Y-27852380D01*
X77071428Y-27900000D01*
X77166666Y-27995238D01*
X77214285Y-28090476D01*
X77261904Y-28280952D01*
X77261904Y-28423809D01*
X77214285Y-28614285D01*
X77166666Y-28709523D01*
X77071428Y-28804761D01*
X76928571Y-28852380D01*
X76690476Y-28852380D01*
X78261904Y-28757142D02*
X78214285Y-28804761D01*
X78071428Y-28852380D01*
X77976190Y-28852380D01*
X77833333Y-28804761D01*
X77738095Y-28709523D01*
X77690476Y-28614285D01*
X77642857Y-28423809D01*
X77642857Y-28280952D01*
X77690476Y-28090476D01*
X77738095Y-27995238D01*
X77833333Y-27900000D01*
X77976190Y-27852380D01*
X78071428Y-27852380D01*
X78214285Y-27900000D01*
X78261904Y-27947619D01*
X79404761Y-28566666D02*
X79880952Y-28566666D01*
X79309523Y-28852380D02*
X79642857Y-27852380D01*
X79976190Y-28852380D01*
X80309523Y-28852380D02*
X80309523Y-27852380D01*
X80642857Y-28566666D01*
X80976190Y-27852380D01*
X80976190Y-28852380D01*
X81452380Y-28852380D02*
X81452380Y-27852380D01*
X81833333Y-27852380D01*
X81928571Y-27900000D01*
X81976190Y-27947619D01*
X82023809Y-28042857D01*
X82023809Y-28185714D01*
X81976190Y-28280952D01*
X81928571Y-28328571D01*
X81833333Y-28376190D01*
X81452380Y-28376190D01*
X82404761Y-28804761D02*
X82547619Y-28852380D01*
X82785714Y-28852380D01*
X82880952Y-28804761D01*
X82928571Y-28757142D01*
X82976190Y-28661904D01*
X82976190Y-28566666D01*
X82928571Y-28471428D01*
X82880952Y-28423809D01*
X82785714Y-28376190D01*
X82595238Y-28328571D01*
X82500000Y-28280952D01*
X82452380Y-28233333D01*
X82404761Y-28138095D01*
X82404761Y-28042857D01*
X82452380Y-27947619D01*
X82500000Y-27900000D01*
X82595238Y-27852380D01*
X82833333Y-27852380D01*
X82976190Y-27900000D01*
D11*
G36*
X69804542Y-65594312D02*
G01*
X69910071Y-65622608D01*
X69999679Y-65667585D01*
X70005133Y-65671341D01*
X70054309Y-65717219D01*
X70097844Y-65777104D01*
X70106805Y-65793460D01*
X70146500Y-65871983D01*
X70146500Y-66818250D01*
X69924250Y-66818250D01*
X69924250Y-66770625D01*
X69919002Y-66735077D01*
X69901459Y-66725489D01*
X69868918Y-66741585D01*
X69842476Y-66762269D01*
X69778858Y-66800915D01*
X69690498Y-66829395D01*
X69629697Y-66841289D01*
X69589521Y-66840902D01*
X69533056Y-66832127D01*
X69484814Y-66820244D01*
X69426018Y-66800796D01*
X69374166Y-66779754D01*
X69346620Y-66765331D01*
X69268409Y-66697418D01*
X69214385Y-66615474D01*
X69184917Y-66524921D01*
X69181436Y-66453125D01*
X69384500Y-66453125D01*
X69393831Y-66517502D01*
X69423437Y-66565472D01*
X69475730Y-66598536D01*
X69553127Y-66618198D01*
X69658041Y-66625960D01*
X69662312Y-66626036D01*
X69726117Y-66624045D01*
X69787038Y-66617280D01*
X69816625Y-66611169D01*
X69865358Y-66591671D01*
X69897392Y-66561529D01*
X69915749Y-66514867D01*
X69923450Y-66445812D01*
X69924250Y-66401967D01*
X69924250Y-66278500D01*
X69761531Y-66279191D01*
X69638465Y-66282587D01*
X69543661Y-66292544D01*
X69474051Y-66310478D01*
X69426566Y-66337805D01*
X69398138Y-66375938D01*
X69385698Y-66426295D01*
X69384500Y-66453125D01*
X69181436Y-66453125D01*
X69180371Y-66431182D01*
X69201116Y-66339682D01*
X69247520Y-66255843D01*
X69307894Y-66194271D01*
X69371031Y-66156300D01*
X69452994Y-66129205D01*
X69557312Y-66112246D01*
X69687515Y-66104684D01*
X69738386Y-66104122D01*
X69925585Y-66103875D01*
X69920949Y-65982488D01*
X69917623Y-65919677D01*
X69911698Y-65879940D01*
X69900403Y-65854605D01*
X69880965Y-65834996D01*
X69871492Y-65827707D01*
X69846682Y-65812237D01*
X69817375Y-65802362D01*
X69776103Y-65796889D01*
X69715400Y-65794626D01*
X69662312Y-65794312D01*
X69585043Y-65795138D01*
X69532047Y-65798407D01*
X69495870Y-65805305D01*
X69469060Y-65817020D01*
X69453400Y-65827575D01*
X69408847Y-65860839D01*
X69333173Y-65804343D01*
X69292866Y-65772747D01*
X69265416Y-65748353D01*
X69257500Y-65738128D01*
X69267889Y-65721548D01*
X69292925Y-65695129D01*
X69293416Y-65694667D01*
X69369121Y-65643148D01*
X69465382Y-65607114D01*
X69574902Y-65586804D01*
X69690387Y-65582457D01*
X69804542Y-65594312D01*
X69804542Y-65594312D01*
G37*
X69804542Y-65594312D02*
X69910071Y-65622608D01*
X69999679Y-65667585D01*
X70005133Y-65671341D01*
X70054309Y-65717219D01*
X70097844Y-65777104D01*
X70106805Y-65793460D01*
X70146500Y-65871983D01*
X70146500Y-66818250D01*
X69924250Y-66818250D01*
X69924250Y-66770625D01*
X69919002Y-66735077D01*
X69901459Y-66725489D01*
X69868918Y-66741585D01*
X69842476Y-66762269D01*
X69778858Y-66800915D01*
X69690498Y-66829395D01*
X69629697Y-66841289D01*
X69589521Y-66840902D01*
X69533056Y-66832127D01*
X69484814Y-66820244D01*
X69426018Y-66800796D01*
X69374166Y-66779754D01*
X69346620Y-66765331D01*
X69268409Y-66697418D01*
X69214385Y-66615474D01*
X69184917Y-66524921D01*
X69181436Y-66453125D01*
X69384500Y-66453125D01*
X69393831Y-66517502D01*
X69423437Y-66565472D01*
X69475730Y-66598536D01*
X69553127Y-66618198D01*
X69658041Y-66625960D01*
X69662312Y-66626036D01*
X69726117Y-66624045D01*
X69787038Y-66617280D01*
X69816625Y-66611169D01*
X69865358Y-66591671D01*
X69897392Y-66561529D01*
X69915749Y-66514867D01*
X69923450Y-66445812D01*
X69924250Y-66401967D01*
X69924250Y-66278500D01*
X69761531Y-66279191D01*
X69638465Y-66282587D01*
X69543661Y-66292544D01*
X69474051Y-66310478D01*
X69426566Y-66337805D01*
X69398138Y-66375938D01*
X69385698Y-66426295D01*
X69384500Y-66453125D01*
X69181436Y-66453125D01*
X69180371Y-66431182D01*
X69201116Y-66339682D01*
X69247520Y-66255843D01*
X69307894Y-66194271D01*
X69371031Y-66156300D01*
X69452994Y-66129205D01*
X69557312Y-66112246D01*
X69687515Y-66104684D01*
X69738386Y-66104122D01*
X69925585Y-66103875D01*
X69920949Y-65982488D01*
X69917623Y-65919677D01*
X69911698Y-65879940D01*
X69900403Y-65854605D01*
X69880965Y-65834996D01*
X69871492Y-65827707D01*
X69846682Y-65812237D01*
X69817375Y-65802362D01*
X69776103Y-65796889D01*
X69715400Y-65794626D01*
X69662312Y-65794312D01*
X69585043Y-65795138D01*
X69532047Y-65798407D01*
X69495870Y-65805305D01*
X69469060Y-65817020D01*
X69453400Y-65827575D01*
X69408847Y-65860839D01*
X69333173Y-65804343D01*
X69292866Y-65772747D01*
X69265416Y-65748353D01*
X69257500Y-65738128D01*
X69267889Y-65721548D01*
X69292925Y-65695129D01*
X69293416Y-65694667D01*
X69369121Y-65643148D01*
X69465382Y-65607114D01*
X69574902Y-65586804D01*
X69690387Y-65582457D01*
X69804542Y-65594312D01*
G36*
X72289625Y-66818250D02*
G01*
X72067375Y-66818250D01*
X72067375Y-66754750D01*
X72063648Y-66714989D01*
X72054338Y-66692871D01*
X72050569Y-66691250D01*
X72029193Y-66700514D01*
X71993851Y-66724054D01*
X71973388Y-66739768D01*
X71919699Y-66775144D01*
X71859707Y-66803976D01*
X71843351Y-66809704D01*
X71795729Y-66824474D01*
X71758513Y-66836240D01*
X71749875Y-66839055D01*
X71723216Y-66838649D01*
X71676915Y-66829812D01*
X71624967Y-66815623D01*
X71533650Y-66774613D01*
X71452670Y-66714361D01*
X71389154Y-66641441D01*
X71350230Y-66562428D01*
X71350147Y-66562153D01*
X71341043Y-66514373D01*
X71334326Y-66443581D01*
X71329952Y-66356244D01*
X71327878Y-66258827D01*
X71327970Y-66207062D01*
X71551437Y-66207062D01*
X71551881Y-66301512D01*
X71553649Y-66370185D01*
X71557398Y-66419047D01*
X71563784Y-66454063D01*
X71573462Y-66481200D01*
X71583727Y-66500750D01*
X71636000Y-66560231D01*
X71709246Y-66597855D01*
X71799797Y-66611783D01*
X71805437Y-66611825D01*
X71866791Y-66605829D01*
X71924120Y-66590670D01*
X71939285Y-66584069D01*
X71981770Y-66557028D01*
X72013332Y-66522157D01*
X72035425Y-66474799D01*
X72049501Y-66410296D01*
X72057015Y-66323991D01*
X72059421Y-66211225D01*
X72059437Y-66199125D01*
X72058811Y-66103949D01*
X72056536Y-66034590D01*
X72052013Y-65985133D01*
X72044645Y-65949662D01*
X72033833Y-65922261D01*
X72030885Y-65916641D01*
X71982745Y-65855719D01*
X71916353Y-65818272D01*
X71828982Y-65802919D01*
X71805437Y-65802368D01*
X71712813Y-65812795D01*
X71641799Y-65844995D01*
X71589669Y-65900351D01*
X71579989Y-65916641D01*
X71568527Y-65942484D01*
X71560516Y-65974866D01*
X71555388Y-66019569D01*
X71552573Y-66082372D01*
X71551504Y-66169057D01*
X71551437Y-66207062D01*
X71327970Y-66207062D01*
X71328058Y-66157799D01*
X71330449Y-66059627D01*
X71335006Y-65970777D01*
X71341685Y-65897717D01*
X71350442Y-65846914D01*
X71355135Y-65832845D01*
X71411073Y-65742629D01*
X71487184Y-65668095D01*
X71576856Y-65613781D01*
X71673478Y-65584229D01*
X71723076Y-65580155D01*
X71791159Y-65589126D01*
X71866577Y-65612930D01*
X71936960Y-65646538D01*
X71989940Y-65684919D01*
X71995919Y-65691105D01*
X72018648Y-65714188D01*
X72035996Y-65724816D01*
X72048683Y-65720113D01*
X72057426Y-65697206D01*
X72062947Y-65653219D01*
X72065962Y-65585277D01*
X72067191Y-65490505D01*
X72067375Y-65405375D01*
X72067375Y-65087875D01*
X72289625Y-65087875D01*
X72289625Y-66818250D01*
X72289625Y-66818250D01*
G37*
X72289625Y-66818250D02*
X72067375Y-66818250D01*
X72067375Y-66754750D01*
X72063648Y-66714989D01*
X72054338Y-66692871D01*
X72050569Y-66691250D01*
X72029193Y-66700514D01*
X71993851Y-66724054D01*
X71973388Y-66739768D01*
X71919699Y-66775144D01*
X71859707Y-66803976D01*
X71843351Y-66809704D01*
X71795729Y-66824474D01*
X71758513Y-66836240D01*
X71749875Y-66839055D01*
X71723216Y-66838649D01*
X71676915Y-66829812D01*
X71624967Y-66815623D01*
X71533650Y-66774613D01*
X71452670Y-66714361D01*
X71389154Y-66641441D01*
X71350230Y-66562428D01*
X71350147Y-66562153D01*
X71341043Y-66514373D01*
X71334326Y-66443581D01*
X71329952Y-66356244D01*
X71327878Y-66258827D01*
X71327970Y-66207062D01*
X71551437Y-66207062D01*
X71551881Y-66301512D01*
X71553649Y-66370185D01*
X71557398Y-66419047D01*
X71563784Y-66454063D01*
X71573462Y-66481200D01*
X71583727Y-66500750D01*
X71636000Y-66560231D01*
X71709246Y-66597855D01*
X71799797Y-66611783D01*
X71805437Y-66611825D01*
X71866791Y-66605829D01*
X71924120Y-66590670D01*
X71939285Y-66584069D01*
X71981770Y-66557028D01*
X72013332Y-66522157D01*
X72035425Y-66474799D01*
X72049501Y-66410296D01*
X72057015Y-66323991D01*
X72059421Y-66211225D01*
X72059437Y-66199125D01*
X72058811Y-66103949D01*
X72056536Y-66034590D01*
X72052013Y-65985133D01*
X72044645Y-65949662D01*
X72033833Y-65922261D01*
X72030885Y-65916641D01*
X71982745Y-65855719D01*
X71916353Y-65818272D01*
X71828982Y-65802919D01*
X71805437Y-65802368D01*
X71712813Y-65812795D01*
X71641799Y-65844995D01*
X71589669Y-65900351D01*
X71579989Y-65916641D01*
X71568527Y-65942484D01*
X71560516Y-65974866D01*
X71555388Y-66019569D01*
X71552573Y-66082372D01*
X71551504Y-66169057D01*
X71551437Y-66207062D01*
X71327970Y-66207062D01*
X71328058Y-66157799D01*
X71330449Y-66059627D01*
X71335006Y-65970777D01*
X71341685Y-65897717D01*
X71350442Y-65846914D01*
X71355135Y-65832845D01*
X71411073Y-65742629D01*
X71487184Y-65668095D01*
X71576856Y-65613781D01*
X71673478Y-65584229D01*
X71723076Y-65580155D01*
X71791159Y-65589126D01*
X71866577Y-65612930D01*
X71936960Y-65646538D01*
X71989940Y-65684919D01*
X71995919Y-65691105D01*
X72018648Y-65714188D01*
X72035996Y-65724816D01*
X72048683Y-65720113D01*
X72057426Y-65697206D01*
X72062947Y-65653219D01*
X72065962Y-65585277D01*
X72067191Y-65490505D01*
X72067375Y-65405375D01*
X72067375Y-65087875D01*
X72289625Y-65087875D01*
X72289625Y-66818250D01*
G36*
X74866523Y-65589943D02*
G01*
X74965785Y-65609814D01*
X75016846Y-65627581D01*
X75100746Y-65677807D01*
X75169666Y-65746428D01*
X75216215Y-65825592D01*
X75223951Y-65847627D01*
X75230436Y-65887306D01*
X75235543Y-65958083D01*
X75239249Y-66059335D01*
X75241533Y-66190438D01*
X75242371Y-66350769D01*
X75242375Y-66363685D01*
X75242375Y-66818250D01*
X75020125Y-66818250D01*
X75020125Y-66762687D01*
X75016722Y-66723376D01*
X75004009Y-66710082D01*
X74978229Y-66722318D01*
X74942958Y-66752686D01*
X74882995Y-66791826D01*
X74798439Y-66822251D01*
X74791173Y-66824124D01*
X74738519Y-66837033D01*
X74699802Y-66845926D01*
X74683487Y-66848869D01*
X74667037Y-66844272D01*
X74628504Y-66833334D01*
X74577813Y-66818875D01*
X74463827Y-66774370D01*
X74376404Y-66713320D01*
X74314606Y-66635043D01*
X74308318Y-66623396D01*
X74275162Y-66527094D01*
X74272836Y-66470055D01*
X74469494Y-66470055D01*
X74487875Y-66531205D01*
X74535065Y-66579799D01*
X74606447Y-66613600D01*
X74649424Y-66620999D01*
X74710936Y-66623684D01*
X74781284Y-66622169D01*
X74850769Y-66616965D01*
X74909693Y-66608584D01*
X74948357Y-66597538D01*
X74952372Y-66595334D01*
X74987255Y-66559497D01*
X75009139Y-66502547D01*
X75019170Y-66420802D01*
X75020125Y-66377247D01*
X75020125Y-66274358D01*
X74809781Y-66281675D01*
X74702240Y-66287105D01*
X74621841Y-66295933D01*
X74564024Y-66309759D01*
X74524232Y-66330182D01*
X74497905Y-66358803D01*
X74480487Y-66397222D01*
X74480466Y-66397286D01*
X74469494Y-66470055D01*
X74272836Y-66470055D01*
X74271191Y-66429742D01*
X74294460Y-66336540D01*
X74343024Y-66252690D01*
X74414941Y-66183393D01*
X74488312Y-66141788D01*
X74527332Y-66129319D01*
X74581542Y-66119965D01*
X74656024Y-66113135D01*
X74755857Y-66108241D01*
X74785968Y-66107232D01*
X75020125Y-66099945D01*
X75020125Y-65990063D01*
X75018584Y-65928514D01*
X75012280Y-65888799D01*
X74998690Y-65861084D01*
X74982211Y-65842267D01*
X74941321Y-65812899D01*
X74885900Y-65794936D01*
X74810540Y-65787310D01*
X74711674Y-65788860D01*
X74638370Y-65795327D01*
X74587429Y-65807377D01*
X74549639Y-65827253D01*
X74547481Y-65828823D01*
X74501503Y-65862816D01*
X74431407Y-65807540D01*
X74392108Y-65775021D01*
X74364639Y-65749421D01*
X74356608Y-65739331D01*
X74364564Y-65718947D01*
X74394445Y-65690682D01*
X74439090Y-65659385D01*
X74491337Y-65629903D01*
X74544025Y-65607086D01*
X74559257Y-65602144D01*
X74650825Y-65585417D01*
X74757392Y-65581580D01*
X74866523Y-65589943D01*
X74866523Y-65589943D01*
G37*
X74866523Y-65589943D02*
X74965785Y-65609814D01*
X75016846Y-65627581D01*
X75100746Y-65677807D01*
X75169666Y-65746428D01*
X75216215Y-65825592D01*
X75223951Y-65847627D01*
X75230436Y-65887306D01*
X75235543Y-65958083D01*
X75239249Y-66059335D01*
X75241533Y-66190438D01*
X75242371Y-66350769D01*
X75242375Y-66363685D01*
X75242375Y-66818250D01*
X75020125Y-66818250D01*
X75020125Y-66762687D01*
X75016722Y-66723376D01*
X75004009Y-66710082D01*
X74978229Y-66722318D01*
X74942958Y-66752686D01*
X74882995Y-66791826D01*
X74798439Y-66822251D01*
X74791173Y-66824124D01*
X74738519Y-66837033D01*
X74699802Y-66845926D01*
X74683487Y-66848869D01*
X74667037Y-66844272D01*
X74628504Y-66833334D01*
X74577813Y-66818875D01*
X74463827Y-66774370D01*
X74376404Y-66713320D01*
X74314606Y-66635043D01*
X74308318Y-66623396D01*
X74275162Y-66527094D01*
X74272836Y-66470055D01*
X74469494Y-66470055D01*
X74487875Y-66531205D01*
X74535065Y-66579799D01*
X74606447Y-66613600D01*
X74649424Y-66620999D01*
X74710936Y-66623684D01*
X74781284Y-66622169D01*
X74850769Y-66616965D01*
X74909693Y-66608584D01*
X74948357Y-66597538D01*
X74952372Y-66595334D01*
X74987255Y-66559497D01*
X75009139Y-66502547D01*
X75019170Y-66420802D01*
X75020125Y-66377247D01*
X75020125Y-66274358D01*
X74809781Y-66281675D01*
X74702240Y-66287105D01*
X74621841Y-66295933D01*
X74564024Y-66309759D01*
X74524232Y-66330182D01*
X74497905Y-66358803D01*
X74480487Y-66397222D01*
X74480466Y-66397286D01*
X74469494Y-66470055D01*
X74272836Y-66470055D01*
X74271191Y-66429742D01*
X74294460Y-66336540D01*
X74343024Y-66252690D01*
X74414941Y-66183393D01*
X74488312Y-66141788D01*
X74527332Y-66129319D01*
X74581542Y-66119965D01*
X74656024Y-66113135D01*
X74755857Y-66108241D01*
X74785968Y-66107232D01*
X75020125Y-66099945D01*
X75020125Y-65990063D01*
X75018584Y-65928514D01*
X75012280Y-65888799D01*
X74998690Y-65861084D01*
X74982211Y-65842267D01*
X74941321Y-65812899D01*
X74885900Y-65794936D01*
X74810540Y-65787310D01*
X74711674Y-65788860D01*
X74638370Y-65795327D01*
X74587429Y-65807377D01*
X74549639Y-65827253D01*
X74547481Y-65828823D01*
X74501503Y-65862816D01*
X74431407Y-65807540D01*
X74392108Y-65775021D01*
X74364639Y-65749421D01*
X74356608Y-65739331D01*
X74364564Y-65718947D01*
X74394445Y-65690682D01*
X74439090Y-65659385D01*
X74491337Y-65629903D01*
X74544025Y-65607086D01*
X74559257Y-65602144D01*
X74650825Y-65585417D01*
X74757392Y-65581580D01*
X74866523Y-65589943D01*
G36*
X77010809Y-65593730D02*
G01*
X77119861Y-65629623D01*
X77220186Y-65690820D01*
X77265799Y-65731232D01*
X77337022Y-65823387D01*
X77385548Y-65935301D01*
X77411835Y-66068318D01*
X77417250Y-66176093D01*
X77417250Y-66278500D01*
X76639375Y-66278500D01*
X76639375Y-66351744D01*
X76653010Y-66435485D01*
X76690393Y-66512085D01*
X76746236Y-66571577D01*
X76761514Y-66582026D01*
X76841736Y-66614476D01*
X76935140Y-66624984D01*
X77032506Y-66614107D01*
X77124615Y-66582404D01*
X77168054Y-66557413D01*
X77224839Y-66518878D01*
X77297922Y-66583208D01*
X77337528Y-66619202D01*
X77356351Y-66641851D01*
X77357889Y-66658265D01*
X77345641Y-66675554D01*
X77344170Y-66677189D01*
X77288141Y-66722897D01*
X77207444Y-66766309D01*
X77109140Y-66803904D01*
X77062704Y-66817542D01*
X77005458Y-66832601D01*
X76961625Y-66843602D01*
X76938844Y-66848643D01*
X76937323Y-66848746D01*
X76920747Y-66843380D01*
X76917187Y-66842196D01*
X76895007Y-66835402D01*
X76851331Y-66822428D01*
X76795154Y-66805944D01*
X76788838Y-66804101D01*
X76671683Y-66755622D01*
X76576818Y-66684909D01*
X76504124Y-66591769D01*
X76453480Y-66476006D01*
X76424767Y-66337430D01*
X76417501Y-66207062D01*
X76427564Y-66053274D01*
X76429410Y-66045387D01*
X76639375Y-66045387D01*
X76639375Y-66103875D01*
X77199180Y-66103875D01*
X77190647Y-66040256D01*
X77176859Y-65981822D01*
X77154532Y-65923681D01*
X77151749Y-65918124D01*
X77109979Y-65855992D01*
X77057491Y-65816425D01*
X76986967Y-65795091D01*
X76934223Y-65789320D01*
X76870350Y-65787749D01*
X76823848Y-65794523D01*
X76780884Y-65812130D01*
X76767708Y-65819282D01*
X76705676Y-65871137D01*
X76661395Y-65942601D01*
X76640359Y-66023996D01*
X76639375Y-66045387D01*
X76429410Y-66045387D01*
X76458362Y-65921691D01*
X76510811Y-65809710D01*
X76585828Y-65714733D01*
X76593609Y-65707035D01*
X76684429Y-65639795D01*
X76787778Y-65598625D01*
X76898343Y-65583334D01*
X77010809Y-65593730D01*
X77010809Y-65593730D01*
G37*
X77010809Y-65593730D02*
X77119861Y-65629623D01*
X77220186Y-65690820D01*
X77265799Y-65731232D01*
X77337022Y-65823387D01*
X77385548Y-65935301D01*
X77411835Y-66068318D01*
X77417250Y-66176093D01*
X77417250Y-66278500D01*
X76639375Y-66278500D01*
X76639375Y-66351744D01*
X76653010Y-66435485D01*
X76690393Y-66512085D01*
X76746236Y-66571577D01*
X76761514Y-66582026D01*
X76841736Y-66614476D01*
X76935140Y-66624984D01*
X77032506Y-66614107D01*
X77124615Y-66582404D01*
X77168054Y-66557413D01*
X77224839Y-66518878D01*
X77297922Y-66583208D01*
X77337528Y-66619202D01*
X77356351Y-66641851D01*
X77357889Y-66658265D01*
X77345641Y-66675554D01*
X77344170Y-66677189D01*
X77288141Y-66722897D01*
X77207444Y-66766309D01*
X77109140Y-66803904D01*
X77062704Y-66817542D01*
X77005458Y-66832601D01*
X76961625Y-66843602D01*
X76938844Y-66848643D01*
X76937323Y-66848746D01*
X76920747Y-66843380D01*
X76917187Y-66842196D01*
X76895007Y-66835402D01*
X76851331Y-66822428D01*
X76795154Y-66805944D01*
X76788838Y-66804101D01*
X76671683Y-66755622D01*
X76576818Y-66684909D01*
X76504124Y-66591769D01*
X76453480Y-66476006D01*
X76424767Y-66337430D01*
X76417501Y-66207062D01*
X76427564Y-66053274D01*
X76429410Y-66045387D01*
X76639375Y-66045387D01*
X76639375Y-66103875D01*
X77199180Y-66103875D01*
X77190647Y-66040256D01*
X77176859Y-65981822D01*
X77154532Y-65923681D01*
X77151749Y-65918124D01*
X77109979Y-65855992D01*
X77057491Y-65816425D01*
X76986967Y-65795091D01*
X76934223Y-65789320D01*
X76870350Y-65787749D01*
X76823848Y-65794523D01*
X76780884Y-65812130D01*
X76767708Y-65819282D01*
X76705676Y-65871137D01*
X76661395Y-65942601D01*
X76640359Y-66023996D01*
X76639375Y-66045387D01*
X76429410Y-66045387D01*
X76458362Y-65921691D01*
X76510811Y-65809710D01*
X76585828Y-65714733D01*
X76593609Y-65707035D01*
X76684429Y-65639795D01*
X76787778Y-65598625D01*
X76898343Y-65583334D01*
X77010809Y-65593730D01*
G36*
X68209750Y-63659125D02*
G01*
X68213365Y-63702404D01*
X68226972Y-63719361D01*
X68254713Y-63711176D01*
X68295007Y-63683428D01*
X68389567Y-63628652D01*
X68489786Y-63600747D01*
X68590856Y-63598114D01*
X68687969Y-63619156D01*
X68776316Y-63662273D01*
X68851090Y-63725869D01*
X68907483Y-63808343D01*
X68938538Y-63897348D01*
X68946057Y-63952048D01*
X68951364Y-64030298D01*
X68954460Y-64123979D01*
X68955344Y-64224967D01*
X68954017Y-64325141D01*
X68950478Y-64416379D01*
X68944727Y-64490561D01*
X68938538Y-64532151D01*
X68902676Y-64627423D01*
X68841832Y-64709984D01*
X68761705Y-64775285D01*
X68667996Y-64818778D01*
X68566404Y-64835915D01*
X68557727Y-64836011D01*
X68458665Y-64824462D01*
X68367452Y-64787890D01*
X68305884Y-64747665D01*
X68267329Y-64722283D01*
X68236861Y-64708013D01*
X68230478Y-64706875D01*
X68224557Y-64712548D01*
X68219817Y-64731437D01*
X68216145Y-64766344D01*
X68213424Y-64820070D01*
X68211542Y-64895416D01*
X68210383Y-64995186D01*
X68209834Y-65122180D01*
X68209750Y-65214875D01*
X68209878Y-65361874D01*
X68210534Y-65479744D01*
X68212119Y-65571104D01*
X68215037Y-65638574D01*
X68219691Y-65684773D01*
X68226485Y-65712321D01*
X68235821Y-65723838D01*
X68248102Y-65721945D01*
X68263732Y-65709259D01*
X68282695Y-65688874D01*
X68314476Y-65662597D01*
X68362297Y-65632974D01*
X68392312Y-65617592D01*
X68493604Y-65586296D01*
X68595923Y-65584353D01*
X68694547Y-65609892D01*
X68784756Y-65661039D01*
X68861829Y-65735924D01*
X68917976Y-65826062D01*
X68928879Y-65850002D01*
X68937441Y-65873122D01*
X68943948Y-65899455D01*
X68948682Y-65933035D01*
X68951928Y-65977894D01*
X68953970Y-66038066D01*
X68955093Y-66117584D01*
X68955580Y-66220481D01*
X68955715Y-66350791D01*
X68955719Y-66361843D01*
X68955875Y-66818250D01*
X68733625Y-66818250D01*
X68733600Y-66401531D01*
X68733374Y-66272847D01*
X68732557Y-66171877D01*
X68730911Y-66094589D01*
X68728197Y-66036948D01*
X68724180Y-65994922D01*
X68718621Y-65964476D01*
X68711283Y-65941577D01*
X68705819Y-65929566D01*
X68655824Y-65862189D01*
X68586379Y-65819762D01*
X68498110Y-65802642D01*
X68481246Y-65802274D01*
X68388565Y-65811971D01*
X68317750Y-65842373D01*
X68264973Y-65895530D01*
X68245468Y-65928644D01*
X68234571Y-65951558D01*
X68226148Y-65974600D01*
X68219880Y-66002043D01*
X68215451Y-66038157D01*
X68212542Y-66087213D01*
X68210836Y-66153480D01*
X68210016Y-66241231D01*
X68209763Y-66354736D01*
X68209750Y-66408863D01*
X68209750Y-66818250D01*
X67987500Y-66818250D01*
X67987500Y-64177211D01*
X68212399Y-64177211D01*
X68213491Y-64313102D01*
X68227414Y-64421543D01*
X68254939Y-64504454D01*
X68296839Y-64563754D01*
X68353886Y-64601364D01*
X68387306Y-64612383D01*
X68457265Y-64619515D01*
X68536657Y-64612667D01*
X68608425Y-64593765D01*
X68627507Y-64585223D01*
X68666358Y-64557313D01*
X68695085Y-64516646D01*
X68714867Y-64459077D01*
X68726884Y-64380462D01*
X68732314Y-64276659D01*
X68732927Y-64214750D01*
X68729502Y-64088933D01*
X68717847Y-63991121D01*
X68695891Y-63918172D01*
X68661561Y-63866942D01*
X68612787Y-63834290D01*
X68547498Y-63817073D01*
X68467553Y-63812149D01*
X68386509Y-63819425D01*
X68323439Y-63843476D01*
X68276448Y-63887015D01*
X68243639Y-63952756D01*
X68223117Y-64043410D01*
X68212985Y-64161692D01*
X68212399Y-64177211D01*
X67987500Y-64177211D01*
X67987500Y-63595625D01*
X68209750Y-63595625D01*
X68209750Y-63659125D01*
X68209750Y-63659125D01*
G37*
X68209750Y-63659125D02*
X68213365Y-63702404D01*
X68226972Y-63719361D01*
X68254713Y-63711176D01*
X68295007Y-63683428D01*
X68389567Y-63628652D01*
X68489786Y-63600747D01*
X68590856Y-63598114D01*
X68687969Y-63619156D01*
X68776316Y-63662273D01*
X68851090Y-63725869D01*
X68907483Y-63808343D01*
X68938538Y-63897348D01*
X68946057Y-63952048D01*
X68951364Y-64030298D01*
X68954460Y-64123979D01*
X68955344Y-64224967D01*
X68954017Y-64325141D01*
X68950478Y-64416379D01*
X68944727Y-64490561D01*
X68938538Y-64532151D01*
X68902676Y-64627423D01*
X68841832Y-64709984D01*
X68761705Y-64775285D01*
X68667996Y-64818778D01*
X68566404Y-64835915D01*
X68557727Y-64836011D01*
X68458665Y-64824462D01*
X68367452Y-64787890D01*
X68305884Y-64747665D01*
X68267329Y-64722283D01*
X68236861Y-64708013D01*
X68230478Y-64706875D01*
X68224557Y-64712548D01*
X68219817Y-64731437D01*
X68216145Y-64766344D01*
X68213424Y-64820070D01*
X68211542Y-64895416D01*
X68210383Y-64995186D01*
X68209834Y-65122180D01*
X68209750Y-65214875D01*
X68209878Y-65361874D01*
X68210534Y-65479744D01*
X68212119Y-65571104D01*
X68215037Y-65638574D01*
X68219691Y-65684773D01*
X68226485Y-65712321D01*
X68235821Y-65723838D01*
X68248102Y-65721945D01*
X68263732Y-65709259D01*
X68282695Y-65688874D01*
X68314476Y-65662597D01*
X68362297Y-65632974D01*
X68392312Y-65617592D01*
X68493604Y-65586296D01*
X68595923Y-65584353D01*
X68694547Y-65609892D01*
X68784756Y-65661039D01*
X68861829Y-65735924D01*
X68917976Y-65826062D01*
X68928879Y-65850002D01*
X68937441Y-65873122D01*
X68943948Y-65899455D01*
X68948682Y-65933035D01*
X68951928Y-65977894D01*
X68953970Y-66038066D01*
X68955093Y-66117584D01*
X68955580Y-66220481D01*
X68955715Y-66350791D01*
X68955719Y-66361843D01*
X68955875Y-66818250D01*
X68733625Y-66818250D01*
X68733600Y-66401531D01*
X68733374Y-66272847D01*
X68732557Y-66171877D01*
X68730911Y-66094589D01*
X68728197Y-66036948D01*
X68724180Y-65994922D01*
X68718621Y-65964476D01*
X68711283Y-65941577D01*
X68705819Y-65929566D01*
X68655824Y-65862189D01*
X68586379Y-65819762D01*
X68498110Y-65802642D01*
X68481246Y-65802274D01*
X68388565Y-65811971D01*
X68317750Y-65842373D01*
X68264973Y-65895530D01*
X68245468Y-65928644D01*
X68234571Y-65951558D01*
X68226148Y-65974600D01*
X68219880Y-66002043D01*
X68215451Y-66038157D01*
X68212542Y-66087213D01*
X68210836Y-66153480D01*
X68210016Y-66241231D01*
X68209763Y-66354736D01*
X68209750Y-66408863D01*
X68209750Y-66818250D01*
X67987500Y-66818250D01*
X67987500Y-64177211D01*
X68212399Y-64177211D01*
X68213491Y-64313102D01*
X68227414Y-64421543D01*
X68254939Y-64504454D01*
X68296839Y-64563754D01*
X68353886Y-64601364D01*
X68387306Y-64612383D01*
X68457265Y-64619515D01*
X68536657Y-64612667D01*
X68608425Y-64593765D01*
X68627507Y-64585223D01*
X68666358Y-64557313D01*
X68695085Y-64516646D01*
X68714867Y-64459077D01*
X68726884Y-64380462D01*
X68732314Y-64276659D01*
X68732927Y-64214750D01*
X68729502Y-64088933D01*
X68717847Y-63991121D01*
X68695891Y-63918172D01*
X68661561Y-63866942D01*
X68612787Y-63834290D01*
X68547498Y-63817073D01*
X68467553Y-63812149D01*
X68386509Y-63819425D01*
X68323439Y-63843476D01*
X68276448Y-63887015D01*
X68243639Y-63952756D01*
X68223117Y-64043410D01*
X68212985Y-64161692D01*
X68212399Y-64177211D01*
X67987500Y-64177211D01*
X67987500Y-63595625D01*
X68209750Y-63595625D01*
X68209750Y-63659125D01*
G36*
X71083585Y-65586350D02*
G01*
X71144186Y-65601293D01*
X71198937Y-65621809D01*
X71237414Y-65644371D01*
X71246903Y-65654668D01*
X71242001Y-65673143D01*
X71220770Y-65708425D01*
X71187630Y-65753288D01*
X71183203Y-65758799D01*
X71145304Y-65804704D01*
X71120377Y-65829788D01*
X71101500Y-65837976D01*
X71081753Y-65833193D01*
X71065879Y-65825353D01*
X71001178Y-65805732D01*
X70924512Y-65802359D01*
X70849786Y-65814569D01*
X70795753Y-65838285D01*
X70764900Y-65860330D01*
X70740452Y-65883181D01*
X70721666Y-65910658D01*
X70707801Y-65946583D01*
X70698112Y-65994776D01*
X70691859Y-66059059D01*
X70688297Y-66143252D01*
X70686684Y-66251178D01*
X70686277Y-66386656D01*
X70686274Y-66401531D01*
X70686250Y-66818250D01*
X70464000Y-66818250D01*
X70464000Y-65595875D01*
X70686250Y-65595875D01*
X70686250Y-65659375D01*
X70692160Y-65705718D01*
X70709599Y-65722520D01*
X70738133Y-65709603D01*
X70759195Y-65688874D01*
X70811179Y-65647414D01*
X70882518Y-65612219D01*
X70960840Y-65588285D01*
X71027562Y-65580503D01*
X71083585Y-65586350D01*
X71083585Y-65586350D01*
G37*
X71083585Y-65586350D02*
X71144186Y-65601293D01*
X71198937Y-65621809D01*
X71237414Y-65644371D01*
X71246903Y-65654668D01*
X71242001Y-65673143D01*
X71220770Y-65708425D01*
X71187630Y-65753288D01*
X71183203Y-65758799D01*
X71145304Y-65804704D01*
X71120377Y-65829788D01*
X71101500Y-65837976D01*
X71081753Y-65833193D01*
X71065879Y-65825353D01*
X71001178Y-65805732D01*
X70924512Y-65802359D01*
X70849786Y-65814569D01*
X70795753Y-65838285D01*
X70764900Y-65860330D01*
X70740452Y-65883181D01*
X70721666Y-65910658D01*
X70707801Y-65946583D01*
X70698112Y-65994776D01*
X70691859Y-66059059D01*
X70688297Y-66143252D01*
X70686684Y-66251178D01*
X70686277Y-66386656D01*
X70686274Y-66401531D01*
X70686250Y-66818250D01*
X70464000Y-66818250D01*
X70464000Y-65595875D01*
X70686250Y-65595875D01*
X70686250Y-65659375D01*
X70692160Y-65705718D01*
X70709599Y-65722520D01*
X70738133Y-65709603D01*
X70759195Y-65688874D01*
X70811179Y-65647414D01*
X70882518Y-65612219D01*
X70960840Y-65588285D01*
X71027562Y-65580503D01*
X71083585Y-65586350D01*
G36*
X72814085Y-66024500D02*
G01*
X72850494Y-66157070D01*
X72880168Y-66261448D01*
X72903974Y-66340264D01*
X72922781Y-66396153D01*
X72937457Y-66431745D01*
X72948870Y-66449674D01*
X72955447Y-66453125D01*
X72965898Y-66444951D01*
X72980513Y-66418895D01*
X73000176Y-66372655D01*
X73025767Y-66303928D01*
X73058167Y-66210413D01*
X73098258Y-66089806D01*
X73119557Y-66024500D01*
X73258701Y-65595875D01*
X73413681Y-65595875D01*
X73524898Y-65941156D01*
X73558797Y-66046571D01*
X73591146Y-66147481D01*
X73620075Y-66238030D01*
X73643714Y-66312359D01*
X73660193Y-66364612D01*
X73664268Y-66377718D01*
X73682318Y-66426086D01*
X73700656Y-66459180D01*
X73712893Y-66469000D01*
X73719367Y-66468154D01*
X73725598Y-66463539D01*
X73732578Y-66452033D01*
X73741298Y-66430517D01*
X73752750Y-66395870D01*
X73767925Y-66344972D01*
X73787814Y-66274703D01*
X73813409Y-66181944D01*
X73845702Y-66063573D01*
X73869271Y-65976875D01*
X73896014Y-65878598D01*
X73920316Y-65789567D01*
X73940811Y-65714755D01*
X73956139Y-65659133D01*
X73964936Y-65627672D01*
X73966107Y-65623656D01*
X73976018Y-65608605D01*
X73999006Y-65600072D01*
X74042076Y-65596415D01*
X74084569Y-65595875D01*
X74139050Y-65597038D01*
X74178407Y-65600096D01*
X74194569Y-65604404D01*
X74194625Y-65604686D01*
X74189941Y-65621249D01*
X74176584Y-65664752D01*
X74155591Y-65731903D01*
X74128000Y-65819415D01*
X74094848Y-65923998D01*
X74057175Y-66042361D01*
X74016017Y-66171217D01*
X74004125Y-66208371D01*
X73962193Y-66339494D01*
X73923457Y-66460982D01*
X73888952Y-66569556D01*
X73859717Y-66661936D01*
X73836788Y-66734841D01*
X73821203Y-66784992D01*
X73813998Y-66809108D01*
X73813625Y-66810747D01*
X73799169Y-66814622D01*
X73761467Y-66817299D01*
X73714406Y-66818160D01*
X73615187Y-66818071D01*
X73487436Y-66385639D01*
X73443273Y-66238648D01*
X73406618Y-66122117D01*
X73377348Y-66035687D01*
X73355339Y-65978999D01*
X73340468Y-65951694D01*
X73336624Y-65948941D01*
X73327079Y-65955628D01*
X73313804Y-65980176D01*
X73295979Y-66024901D01*
X73272782Y-66092118D01*
X73243393Y-66184143D01*
X73206993Y-66303293D01*
X73184797Y-66377493D01*
X73056032Y-66810312D01*
X72863164Y-66819712D01*
X72759859Y-66497512D01*
X72700058Y-66310944D01*
X72649265Y-66152346D01*
X72606770Y-66019462D01*
X72571862Y-65910037D01*
X72543831Y-65821815D01*
X72521964Y-65752540D01*
X72505553Y-65699956D01*
X72493885Y-65661809D01*
X72486250Y-65635842D01*
X72481937Y-65619800D01*
X72480235Y-65611426D01*
X72480125Y-65609865D01*
X72494641Y-65602904D01*
X72532780Y-65597894D01*
X72586427Y-65595878D01*
X72588907Y-65595875D01*
X72697689Y-65595875D01*
X72814085Y-66024500D01*
X72814085Y-66024500D01*
G37*
X72814085Y-66024500D02*
X72850494Y-66157070D01*
X72880168Y-66261448D01*
X72903974Y-66340264D01*
X72922781Y-66396153D01*
X72937457Y-66431745D01*
X72948870Y-66449674D01*
X72955447Y-66453125D01*
X72965898Y-66444951D01*
X72980513Y-66418895D01*
X73000176Y-66372655D01*
X73025767Y-66303928D01*
X73058167Y-66210413D01*
X73098258Y-66089806D01*
X73119557Y-66024500D01*
X73258701Y-65595875D01*
X73413681Y-65595875D01*
X73524898Y-65941156D01*
X73558797Y-66046571D01*
X73591146Y-66147481D01*
X73620075Y-66238030D01*
X73643714Y-66312359D01*
X73660193Y-66364612D01*
X73664268Y-66377718D01*
X73682318Y-66426086D01*
X73700656Y-66459180D01*
X73712893Y-66469000D01*
X73719367Y-66468154D01*
X73725598Y-66463539D01*
X73732578Y-66452033D01*
X73741298Y-66430517D01*
X73752750Y-66395870D01*
X73767925Y-66344972D01*
X73787814Y-66274703D01*
X73813409Y-66181944D01*
X73845702Y-66063573D01*
X73869271Y-65976875D01*
X73896014Y-65878598D01*
X73920316Y-65789567D01*
X73940811Y-65714755D01*
X73956139Y-65659133D01*
X73964936Y-65627672D01*
X73966107Y-65623656D01*
X73976018Y-65608605D01*
X73999006Y-65600072D01*
X74042076Y-65596415D01*
X74084569Y-65595875D01*
X74139050Y-65597038D01*
X74178407Y-65600096D01*
X74194569Y-65604404D01*
X74194625Y-65604686D01*
X74189941Y-65621249D01*
X74176584Y-65664752D01*
X74155591Y-65731903D01*
X74128000Y-65819415D01*
X74094848Y-65923998D01*
X74057175Y-66042361D01*
X74016017Y-66171217D01*
X74004125Y-66208371D01*
X73962193Y-66339494D01*
X73923457Y-66460982D01*
X73888952Y-66569556D01*
X73859717Y-66661936D01*
X73836788Y-66734841D01*
X73821203Y-66784992D01*
X73813998Y-66809108D01*
X73813625Y-66810747D01*
X73799169Y-66814622D01*
X73761467Y-66817299D01*
X73714406Y-66818160D01*
X73615187Y-66818071D01*
X73487436Y-66385639D01*
X73443273Y-66238648D01*
X73406618Y-66122117D01*
X73377348Y-66035687D01*
X73355339Y-65978999D01*
X73340468Y-65951694D01*
X73336624Y-65948941D01*
X73327079Y-65955628D01*
X73313804Y-65980176D01*
X73295979Y-66024901D01*
X73272782Y-66092118D01*
X73243393Y-66184143D01*
X73206993Y-66303293D01*
X73184797Y-66377493D01*
X73056032Y-66810312D01*
X72863164Y-66819712D01*
X72759859Y-66497512D01*
X72700058Y-66310944D01*
X72649265Y-66152346D01*
X72606770Y-66019462D01*
X72571862Y-65910037D01*
X72543831Y-65821815D01*
X72521964Y-65752540D01*
X72505553Y-65699956D01*
X72493885Y-65661809D01*
X72486250Y-65635842D01*
X72481937Y-65619800D01*
X72480235Y-65611426D01*
X72480125Y-65609865D01*
X72494641Y-65602904D01*
X72532780Y-65597894D01*
X72586427Y-65595878D01*
X72588907Y-65595875D01*
X72697689Y-65595875D01*
X72814085Y-66024500D01*
G36*
X76225692Y-65592445D02*
G01*
X76301003Y-65625721D01*
X76319920Y-65639926D01*
X76335647Y-65654891D01*
X76339936Y-65669353D01*
X76330277Y-65690023D01*
X76304160Y-65723611D01*
X76276256Y-65756623D01*
X76236610Y-65802082D01*
X76210460Y-65826871D01*
X76191218Y-65834908D01*
X76172294Y-65830111D01*
X76161846Y-65824654D01*
X76124058Y-65812387D01*
X76069760Y-65804454D01*
X76036125Y-65802871D01*
X75944168Y-65814708D01*
X75870956Y-65851835D01*
X75815191Y-65914922D01*
X75813789Y-65917198D01*
X75804291Y-65934632D01*
X75796910Y-65954686D01*
X75791379Y-65981357D01*
X75787433Y-66018644D01*
X75784807Y-66070545D01*
X75783236Y-66141059D01*
X75782455Y-66234182D01*
X75782198Y-66353914D01*
X75782184Y-66393593D01*
X75782125Y-66818250D01*
X75559875Y-66818250D01*
X75559875Y-65595875D01*
X75782125Y-65595875D01*
X75782125Y-65659375D01*
X75785978Y-65699481D01*
X75795669Y-65721386D01*
X75799445Y-65722875D01*
X75820617Y-65713246D01*
X75855617Y-65688651D01*
X75878699Y-65669861D01*
X75956606Y-65619994D01*
X76045642Y-65590115D01*
X76137954Y-65580754D01*
X76225692Y-65592445D01*
X76225692Y-65592445D01*
G37*
X76225692Y-65592445D02*
X76301003Y-65625721D01*
X76319920Y-65639926D01*
X76335647Y-65654891D01*
X76339936Y-65669353D01*
X76330277Y-65690023D01*
X76304160Y-65723611D01*
X76276256Y-65756623D01*
X76236610Y-65802082D01*
X76210460Y-65826871D01*
X76191218Y-65834908D01*
X76172294Y-65830111D01*
X76161846Y-65824654D01*
X76124058Y-65812387D01*
X76069760Y-65804454D01*
X76036125Y-65802871D01*
X75944168Y-65814708D01*
X75870956Y-65851835D01*
X75815191Y-65914922D01*
X75813789Y-65917198D01*
X75804291Y-65934632D01*
X75796910Y-65954686D01*
X75791379Y-65981357D01*
X75787433Y-66018644D01*
X75784807Y-66070545D01*
X75783236Y-66141059D01*
X75782455Y-66234182D01*
X75782198Y-66353914D01*
X75782184Y-66393593D01*
X75782125Y-66818250D01*
X75559875Y-66818250D01*
X75559875Y-65595875D01*
X75782125Y-65595875D01*
X75782125Y-65659375D01*
X75785978Y-65699481D01*
X75795669Y-65721386D01*
X75799445Y-65722875D01*
X75820617Y-65713246D01*
X75855617Y-65688651D01*
X75878699Y-65669861D01*
X75956606Y-65619994D01*
X76045642Y-65590115D01*
X76137954Y-65580754D01*
X76225692Y-65592445D01*
G36*
X69763904Y-63604447D02*
G01*
X69873126Y-63635871D01*
X69969195Y-63694727D01*
X70009813Y-63731320D01*
X70083109Y-63822324D01*
X70134721Y-63928595D01*
X70165862Y-64053656D01*
X70177747Y-64201027D01*
X70177930Y-64218718D01*
X70178250Y-64294125D01*
X69380370Y-64294125D01*
X69388313Y-64364593D01*
X69412301Y-64463732D01*
X69458930Y-64540783D01*
X69527381Y-64595049D01*
X69616832Y-64625832D01*
X69704381Y-64633072D01*
X69772611Y-64629443D01*
X69826018Y-64617159D01*
X69881231Y-64591895D01*
X69897703Y-64582797D01*
X69985067Y-64533492D01*
X70053877Y-64594622D01*
X70092001Y-64629397D01*
X70109511Y-64650988D01*
X70109607Y-64667207D01*
X70095490Y-64685869D01*
X70092574Y-64689109D01*
X70017390Y-64751044D01*
X69920997Y-64798075D01*
X69811362Y-64827831D01*
X69696447Y-64837940D01*
X69614152Y-64831604D01*
X69505017Y-64805069D01*
X69413706Y-64759718D01*
X69345890Y-64706174D01*
X69274884Y-64620302D01*
X69222090Y-64514253D01*
X69187583Y-64393909D01*
X69171436Y-64265151D01*
X69173722Y-64133860D01*
X69176055Y-64119500D01*
X69380184Y-64119500D01*
X69956375Y-64119500D01*
X69946017Y-64052031D01*
X69919549Y-63952282D01*
X69874047Y-63877455D01*
X69808507Y-63826335D01*
X69738077Y-63801018D01*
X69641707Y-63793301D01*
X69555297Y-63814005D01*
X69482755Y-63860382D01*
X69427989Y-63929686D01*
X69394908Y-64019168D01*
X69390331Y-64045472D01*
X69380184Y-64119500D01*
X69176055Y-64119500D01*
X69194516Y-64005918D01*
X69233889Y-63887205D01*
X69291917Y-63783604D01*
X69333735Y-63733186D01*
X69408447Y-63668176D01*
X69488197Y-63626692D01*
X69582542Y-63604537D01*
X69638500Y-63599379D01*
X69763904Y-63604447D01*
X69763904Y-63604447D01*
G37*
X69763904Y-63604447D02*
X69873126Y-63635871D01*
X69969195Y-63694727D01*
X70009813Y-63731320D01*
X70083109Y-63822324D01*
X70134721Y-63928595D01*
X70165862Y-64053656D01*
X70177747Y-64201027D01*
X70177930Y-64218718D01*
X70178250Y-64294125D01*
X69380370Y-64294125D01*
X69388313Y-64364593D01*
X69412301Y-64463732D01*
X69458930Y-64540783D01*
X69527381Y-64595049D01*
X69616832Y-64625832D01*
X69704381Y-64633072D01*
X69772611Y-64629443D01*
X69826018Y-64617159D01*
X69881231Y-64591895D01*
X69897703Y-64582797D01*
X69985067Y-64533492D01*
X70053877Y-64594622D01*
X70092001Y-64629397D01*
X70109511Y-64650988D01*
X70109607Y-64667207D01*
X70095490Y-64685869D01*
X70092574Y-64689109D01*
X70017390Y-64751044D01*
X69920997Y-64798075D01*
X69811362Y-64827831D01*
X69696447Y-64837940D01*
X69614152Y-64831604D01*
X69505017Y-64805069D01*
X69413706Y-64759718D01*
X69345890Y-64706174D01*
X69274884Y-64620302D01*
X69222090Y-64514253D01*
X69187583Y-64393909D01*
X69171436Y-64265151D01*
X69173722Y-64133860D01*
X69176055Y-64119500D01*
X69380184Y-64119500D01*
X69956375Y-64119500D01*
X69946017Y-64052031D01*
X69919549Y-63952282D01*
X69874047Y-63877455D01*
X69808507Y-63826335D01*
X69738077Y-63801018D01*
X69641707Y-63793301D01*
X69555297Y-63814005D01*
X69482755Y-63860382D01*
X69427989Y-63929686D01*
X69394908Y-64019168D01*
X69390331Y-64045472D01*
X69380184Y-64119500D01*
X69176055Y-64119500D01*
X69194516Y-64005918D01*
X69233889Y-63887205D01*
X69291917Y-63783604D01*
X69333735Y-63733186D01*
X69408447Y-63668176D01*
X69488197Y-63626692D01*
X69582542Y-63604537D01*
X69638500Y-63599379D01*
X69763904Y-63604447D01*
G36*
X72740083Y-63599110D02*
G01*
X72826203Y-63610773D01*
X72857378Y-63617944D01*
X72914572Y-63637302D01*
X72975807Y-63664119D01*
X73032030Y-63693725D01*
X73074187Y-63721454D01*
X73091366Y-63738587D01*
X73087203Y-63758174D01*
X73066492Y-63792794D01*
X73042043Y-63824702D01*
X72983088Y-63895232D01*
X72908007Y-63857186D01*
X72819798Y-63822540D01*
X72725611Y-63802520D01*
X72632921Y-63797235D01*
X72549202Y-63806793D01*
X72481928Y-63831303D01*
X72455265Y-63850608D01*
X72429151Y-63881862D01*
X72419322Y-63917992D01*
X72419864Y-63958635D01*
X72426684Y-64005220D01*
X72442973Y-64039701D01*
X72473182Y-64064454D01*
X72521761Y-64081851D01*
X72593158Y-64094265D01*
X72691825Y-64104072D01*
X72692616Y-64104136D01*
X72806529Y-64116395D01*
X72894800Y-64133531D01*
X72963411Y-64157564D01*
X73018340Y-64190511D01*
X73059678Y-64228023D01*
X73109393Y-64296284D01*
X73137070Y-64375812D01*
X73145667Y-64465413D01*
X73132191Y-64562606D01*
X73090923Y-64649440D01*
X73024974Y-64722836D01*
X72937456Y-64779713D01*
X72831481Y-64816993D01*
X72781075Y-64826222D01*
X72729991Y-64833217D01*
X72687832Y-64839035D01*
X72678562Y-64840328D01*
X72645248Y-64840778D01*
X72594341Y-64837096D01*
X72559500Y-64833044D01*
X72436519Y-64805665D01*
X72316402Y-64759204D01*
X72210791Y-64698567D01*
X72174493Y-64670836D01*
X72130799Y-64634184D01*
X72199456Y-64566803D01*
X72268112Y-64499421D01*
X72360134Y-64554834D01*
X72451245Y-64597560D01*
X72551721Y-64624454D01*
X72654014Y-64635177D01*
X72750573Y-64629391D01*
X72833851Y-64606757D01*
X72883327Y-64578305D01*
X72910060Y-64550956D01*
X72922046Y-64516507D01*
X72924381Y-64471566D01*
X72921824Y-64421744D01*
X72911611Y-64384910D01*
X72889371Y-64358461D01*
X72850733Y-64339794D01*
X72791327Y-64326306D01*
X72706779Y-64315395D01*
X72653080Y-64310033D01*
X72560803Y-64299654D01*
X72491340Y-64287441D01*
X72435755Y-64271376D01*
X72385490Y-64249630D01*
X72301167Y-64192747D01*
X72241993Y-64121931D01*
X72207260Y-64041677D01*
X72196263Y-63956482D01*
X72208297Y-63870841D01*
X72242654Y-63789249D01*
X72298629Y-63716204D01*
X72375516Y-63656200D01*
X72472609Y-63613733D01*
X72485949Y-63609931D01*
X72557121Y-63598412D01*
X72646111Y-63594897D01*
X72740083Y-63599110D01*
X72740083Y-63599110D01*
G37*
X72740083Y-63599110D02*
X72826203Y-63610773D01*
X72857378Y-63617944D01*
X72914572Y-63637302D01*
X72975807Y-63664119D01*
X73032030Y-63693725D01*
X73074187Y-63721454D01*
X73091366Y-63738587D01*
X73087203Y-63758174D01*
X73066492Y-63792794D01*
X73042043Y-63824702D01*
X72983088Y-63895232D01*
X72908007Y-63857186D01*
X72819798Y-63822540D01*
X72725611Y-63802520D01*
X72632921Y-63797235D01*
X72549202Y-63806793D01*
X72481928Y-63831303D01*
X72455265Y-63850608D01*
X72429151Y-63881862D01*
X72419322Y-63917992D01*
X72419864Y-63958635D01*
X72426684Y-64005220D01*
X72442973Y-64039701D01*
X72473182Y-64064454D01*
X72521761Y-64081851D01*
X72593158Y-64094265D01*
X72691825Y-64104072D01*
X72692616Y-64104136D01*
X72806529Y-64116395D01*
X72894800Y-64133531D01*
X72963411Y-64157564D01*
X73018340Y-64190511D01*
X73059678Y-64228023D01*
X73109393Y-64296284D01*
X73137070Y-64375812D01*
X73145667Y-64465413D01*
X73132191Y-64562606D01*
X73090923Y-64649440D01*
X73024974Y-64722836D01*
X72937456Y-64779713D01*
X72831481Y-64816993D01*
X72781075Y-64826222D01*
X72729991Y-64833217D01*
X72687832Y-64839035D01*
X72678562Y-64840328D01*
X72645248Y-64840778D01*
X72594341Y-64837096D01*
X72559500Y-64833044D01*
X72436519Y-64805665D01*
X72316402Y-64759204D01*
X72210791Y-64698567D01*
X72174493Y-64670836D01*
X72130799Y-64634184D01*
X72199456Y-64566803D01*
X72268112Y-64499421D01*
X72360134Y-64554834D01*
X72451245Y-64597560D01*
X72551721Y-64624454D01*
X72654014Y-64635177D01*
X72750573Y-64629391D01*
X72833851Y-64606757D01*
X72883327Y-64578305D01*
X72910060Y-64550956D01*
X72922046Y-64516507D01*
X72924381Y-64471566D01*
X72921824Y-64421744D01*
X72911611Y-64384910D01*
X72889371Y-64358461D01*
X72850733Y-64339794D01*
X72791327Y-64326306D01*
X72706779Y-64315395D01*
X72653080Y-64310033D01*
X72560803Y-64299654D01*
X72491340Y-64287441D01*
X72435755Y-64271376D01*
X72385490Y-64249630D01*
X72301167Y-64192747D01*
X72241993Y-64121931D01*
X72207260Y-64041677D01*
X72196263Y-63956482D01*
X72208297Y-63870841D01*
X72242654Y-63789249D01*
X72298629Y-63716204D01*
X72375516Y-63656200D01*
X72472609Y-63613733D01*
X72485949Y-63609931D01*
X72557121Y-63598412D01*
X72646111Y-63594897D01*
X72740083Y-63599110D01*
G36*
X77302015Y-63596821D02*
G01*
X77421797Y-63625379D01*
X77535132Y-63681173D01*
X77571768Y-63706750D01*
X77612639Y-63739959D01*
X77641739Y-63767756D01*
X77650971Y-63780469D01*
X77642875Y-63799571D01*
X77615797Y-63830117D01*
X77586480Y-63856328D01*
X77516064Y-63914029D01*
X77433427Y-63862659D01*
X77382875Y-63833902D01*
X77339732Y-63818539D01*
X77289490Y-63812726D01*
X77243171Y-63812275D01*
X77137539Y-63824017D01*
X77053280Y-63857801D01*
X76989442Y-63914669D01*
X76945074Y-63995661D01*
X76919222Y-64101820D01*
X76912403Y-64174061D01*
X76915192Y-64307503D01*
X76938601Y-64417851D01*
X76982385Y-64504656D01*
X77046300Y-64567468D01*
X77130103Y-64605838D01*
X77149503Y-64610598D01*
X77259928Y-64620850D01*
X77361356Y-64601377D01*
X77442270Y-64561612D01*
X77515612Y-64515100D01*
X77585493Y-64572363D01*
X77623562Y-64605776D01*
X77648943Y-64632305D01*
X77655375Y-64643282D01*
X77642791Y-64663702D01*
X77609977Y-64694103D01*
X77564334Y-64728827D01*
X77513266Y-64762222D01*
X77466525Y-64787538D01*
X77345968Y-64826819D01*
X77215538Y-64835947D01*
X77160076Y-64831093D01*
X77038841Y-64800328D01*
X76932514Y-64742765D01*
X76843097Y-64660614D01*
X76772596Y-64556087D01*
X76723015Y-64431395D01*
X76700501Y-64324093D01*
X76694039Y-64190218D01*
X76709943Y-64057324D01*
X76746270Y-63932488D01*
X76801074Y-63822784D01*
X76858485Y-63749034D01*
X76954023Y-63671608D01*
X77063126Y-63620232D01*
X77180791Y-63595205D01*
X77302015Y-63596821D01*
X77302015Y-63596821D01*
G37*
X77302015Y-63596821D02*
X77421797Y-63625379D01*
X77535132Y-63681173D01*
X77571768Y-63706750D01*
X77612639Y-63739959D01*
X77641739Y-63767756D01*
X77650971Y-63780469D01*
X77642875Y-63799571D01*
X77615797Y-63830117D01*
X77586480Y-63856328D01*
X77516064Y-63914029D01*
X77433427Y-63862659D01*
X77382875Y-63833902D01*
X77339732Y-63818539D01*
X77289490Y-63812726D01*
X77243171Y-63812275D01*
X77137539Y-63824017D01*
X77053280Y-63857801D01*
X76989442Y-63914669D01*
X76945074Y-63995661D01*
X76919222Y-64101820D01*
X76912403Y-64174061D01*
X76915192Y-64307503D01*
X76938601Y-64417851D01*
X76982385Y-64504656D01*
X77046300Y-64567468D01*
X77130103Y-64605838D01*
X77149503Y-64610598D01*
X77259928Y-64620850D01*
X77361356Y-64601377D01*
X77442270Y-64561612D01*
X77515612Y-64515100D01*
X77585493Y-64572363D01*
X77623562Y-64605776D01*
X77648943Y-64632305D01*
X77655375Y-64643282D01*
X77642791Y-64663702D01*
X77609977Y-64694103D01*
X77564334Y-64728827D01*
X77513266Y-64762222D01*
X77466525Y-64787538D01*
X77345968Y-64826819D01*
X77215538Y-64835947D01*
X77160076Y-64831093D01*
X77038841Y-64800328D01*
X76932514Y-64742765D01*
X76843097Y-64660614D01*
X76772596Y-64556087D01*
X76723015Y-64431395D01*
X76700501Y-64324093D01*
X76694039Y-64190218D01*
X76709943Y-64057324D01*
X76746270Y-63932488D01*
X76801074Y-63822784D01*
X76858485Y-63749034D01*
X76954023Y-63671608D01*
X77063126Y-63620232D01*
X77180791Y-63595205D01*
X77302015Y-63596821D01*
G36*
X78303979Y-63598991D02*
G01*
X78431786Y-63620456D01*
X78542565Y-63668171D01*
X78635150Y-63741480D01*
X78696380Y-63819764D01*
X78727719Y-63883657D01*
X78756611Y-63967652D01*
X78779984Y-64060103D01*
X78794769Y-64149369D01*
X78798375Y-64206520D01*
X78798375Y-64294125D01*
X78000693Y-64294125D01*
X78007988Y-64382095D01*
X78025446Y-64467624D01*
X78064812Y-64534645D01*
X78128043Y-64589476D01*
X78203073Y-64622982D01*
X78292624Y-64635537D01*
X78387735Y-64627558D01*
X78479440Y-64599460D01*
X78532845Y-64570691D01*
X78592754Y-64531300D01*
X78663814Y-64590699D01*
X78701978Y-64623946D01*
X78727771Y-64648992D01*
X78734874Y-64658642D01*
X78723593Y-64672764D01*
X78695088Y-64698559D01*
X78678704Y-64712004D01*
X78567747Y-64780650D01*
X78442497Y-64822551D01*
X78307501Y-64836519D01*
X78223550Y-64830977D01*
X78101737Y-64801093D01*
X77998281Y-64745895D01*
X77914033Y-64666558D01*
X77849843Y-64564254D01*
X77806563Y-64440159D01*
X77785042Y-64295445D01*
X77782684Y-64222687D01*
X77787998Y-64119500D01*
X78004625Y-64119500D01*
X78560250Y-64119500D01*
X78560250Y-64067301D01*
X78548317Y-64002563D01*
X78517251Y-63933138D01*
X78474147Y-63872230D01*
X78438088Y-63840014D01*
X78358425Y-63804942D01*
X78268640Y-63794276D01*
X78178872Y-63807976D01*
X78106123Y-63841334D01*
X78066288Y-63882141D01*
X78032601Y-63942815D01*
X78010557Y-64011479D01*
X78004973Y-64059968D01*
X78004625Y-64119500D01*
X77787998Y-64119500D01*
X77789460Y-64091126D01*
X77811173Y-63978648D01*
X77850105Y-63875219D01*
X77871068Y-63834027D01*
X77923064Y-63755388D01*
X77986794Y-63694531D01*
X78071110Y-63643515D01*
X78097604Y-63630833D01*
X78148166Y-63610036D01*
X78193265Y-63599304D01*
X78245997Y-63596617D01*
X78303979Y-63598991D01*
X78303979Y-63598991D01*
G37*
X78303979Y-63598991D02*
X78431786Y-63620456D01*
X78542565Y-63668171D01*
X78635150Y-63741480D01*
X78696380Y-63819764D01*
X78727719Y-63883657D01*
X78756611Y-63967652D01*
X78779984Y-64060103D01*
X78794769Y-64149369D01*
X78798375Y-64206520D01*
X78798375Y-64294125D01*
X78000693Y-64294125D01*
X78007988Y-64382095D01*
X78025446Y-64467624D01*
X78064812Y-64534645D01*
X78128043Y-64589476D01*
X78203073Y-64622982D01*
X78292624Y-64635537D01*
X78387735Y-64627558D01*
X78479440Y-64599460D01*
X78532845Y-64570691D01*
X78592754Y-64531300D01*
X78663814Y-64590699D01*
X78701978Y-64623946D01*
X78727771Y-64648992D01*
X78734874Y-64658642D01*
X78723593Y-64672764D01*
X78695088Y-64698559D01*
X78678704Y-64712004D01*
X78567747Y-64780650D01*
X78442497Y-64822551D01*
X78307501Y-64836519D01*
X78223550Y-64830977D01*
X78101737Y-64801093D01*
X77998281Y-64745895D01*
X77914033Y-64666558D01*
X77849843Y-64564254D01*
X77806563Y-64440159D01*
X77785042Y-64295445D01*
X77782684Y-64222687D01*
X77787998Y-64119500D01*
X78004625Y-64119500D01*
X78560250Y-64119500D01*
X78560250Y-64067301D01*
X78548317Y-64002563D01*
X78517251Y-63933138D01*
X78474147Y-63872230D01*
X78438088Y-63840014D01*
X78358425Y-63804942D01*
X78268640Y-63794276D01*
X78178872Y-63807976D01*
X78106123Y-63841334D01*
X78066288Y-63882141D01*
X78032601Y-63942815D01*
X78010557Y-64011479D01*
X78004973Y-64059968D01*
X78004625Y-64119500D01*
X77787998Y-64119500D01*
X77789460Y-64091126D01*
X77811173Y-63978648D01*
X77850105Y-63875219D01*
X77871068Y-63834027D01*
X77923064Y-63755388D01*
X77986794Y-63694531D01*
X78071110Y-63643515D01*
X78097604Y-63630833D01*
X78148166Y-63610036D01*
X78193265Y-63599304D01*
X78245997Y-63596617D01*
X78303979Y-63598991D01*
G36*
X67338897Y-63601494D02*
G01*
X67445069Y-63637353D01*
X67541765Y-63696945D01*
X67624470Y-63779232D01*
X67688670Y-63883176D01*
X67694778Y-63896735D01*
X67706954Y-63929284D01*
X67715510Y-63965676D01*
X67721042Y-64012081D01*
X67724147Y-64074670D01*
X67725423Y-64159613D01*
X67725562Y-64214750D01*
X67725002Y-64313776D01*
X67722924Y-64387235D01*
X67718730Y-64441298D01*
X67711824Y-64482135D01*
X67701607Y-64515915D01*
X67694778Y-64532764D01*
X67631448Y-64643435D01*
X67547575Y-64730163D01*
X67461008Y-64785051D01*
X67402930Y-64811636D01*
X67353556Y-64826264D01*
X67298330Y-64832108D01*
X67242808Y-64832621D01*
X67172865Y-64828730D01*
X67105437Y-64819734D01*
X67055233Y-64807616D01*
X66988238Y-64772981D01*
X66917608Y-64718973D01*
X66853525Y-64654804D01*
X66806171Y-64589684D01*
X66798723Y-64575555D01*
X66781216Y-64528882D01*
X66762579Y-64462544D01*
X66745991Y-64388332D01*
X66741070Y-64361593D01*
X66729264Y-64287131D01*
X66726717Y-64259397D01*
X66958270Y-64259397D01*
X66958432Y-64263561D01*
X66967714Y-64377754D01*
X66986710Y-64465028D01*
X67017613Y-64529310D01*
X67062617Y-64574527D01*
X67123914Y-64604605D01*
X67153730Y-64613339D01*
X67222238Y-64620058D01*
X67300253Y-64612349D01*
X67370979Y-64592403D01*
X67392187Y-64582220D01*
X67428298Y-64551531D01*
X67463683Y-64505574D01*
X67475531Y-64484866D01*
X67490811Y-64451179D01*
X67501021Y-64416767D01*
X67507130Y-64374257D01*
X67510106Y-64316274D01*
X67510915Y-64235444D01*
X67510901Y-64215355D01*
X67509781Y-64124259D01*
X67506248Y-64057754D01*
X67499486Y-64008720D01*
X67488678Y-63970035D01*
X67480481Y-63950081D01*
X67432725Y-63879977D01*
X67365301Y-63833567D01*
X67280855Y-63811957D01*
X67182031Y-63816251D01*
X67166951Y-63819032D01*
X67093246Y-63842874D01*
X67036805Y-63882926D01*
X66996358Y-63941895D01*
X66970633Y-64022491D01*
X66958361Y-64127422D01*
X66958270Y-64259397D01*
X66726717Y-64259397D01*
X66724034Y-64230198D01*
X66725379Y-64177264D01*
X66733299Y-64114797D01*
X66741070Y-64067906D01*
X66763784Y-63959098D01*
X66791992Y-63874159D01*
X66829451Y-63805255D01*
X66879915Y-63744552D01*
X66909718Y-63716156D01*
X67008659Y-63646699D01*
X67116178Y-63605129D01*
X67227762Y-63590406D01*
X67338897Y-63601494D01*
X67338897Y-63601494D01*
G37*
X67338897Y-63601494D02*
X67445069Y-63637353D01*
X67541765Y-63696945D01*
X67624470Y-63779232D01*
X67688670Y-63883176D01*
X67694778Y-63896735D01*
X67706954Y-63929284D01*
X67715510Y-63965676D01*
X67721042Y-64012081D01*
X67724147Y-64074670D01*
X67725423Y-64159613D01*
X67725562Y-64214750D01*
X67725002Y-64313776D01*
X67722924Y-64387235D01*
X67718730Y-64441298D01*
X67711824Y-64482135D01*
X67701607Y-64515915D01*
X67694778Y-64532764D01*
X67631448Y-64643435D01*
X67547575Y-64730163D01*
X67461008Y-64785051D01*
X67402930Y-64811636D01*
X67353556Y-64826264D01*
X67298330Y-64832108D01*
X67242808Y-64832621D01*
X67172865Y-64828730D01*
X67105437Y-64819734D01*
X67055233Y-64807616D01*
X66988238Y-64772981D01*
X66917608Y-64718973D01*
X66853525Y-64654804D01*
X66806171Y-64589684D01*
X66798723Y-64575555D01*
X66781216Y-64528882D01*
X66762579Y-64462544D01*
X66745991Y-64388332D01*
X66741070Y-64361593D01*
X66729264Y-64287131D01*
X66726717Y-64259397D01*
X66958270Y-64259397D01*
X66958432Y-64263561D01*
X66967714Y-64377754D01*
X66986710Y-64465028D01*
X67017613Y-64529310D01*
X67062617Y-64574527D01*
X67123914Y-64604605D01*
X67153730Y-64613339D01*
X67222238Y-64620058D01*
X67300253Y-64612349D01*
X67370979Y-64592403D01*
X67392187Y-64582220D01*
X67428298Y-64551531D01*
X67463683Y-64505574D01*
X67475531Y-64484866D01*
X67490811Y-64451179D01*
X67501021Y-64416767D01*
X67507130Y-64374257D01*
X67510106Y-64316274D01*
X67510915Y-64235444D01*
X67510901Y-64215355D01*
X67509781Y-64124259D01*
X67506248Y-64057754D01*
X67499486Y-64008720D01*
X67488678Y-63970035D01*
X67480481Y-63950081D01*
X67432725Y-63879977D01*
X67365301Y-63833567D01*
X67280855Y-63811957D01*
X67182031Y-63816251D01*
X67166951Y-63819032D01*
X67093246Y-63842874D01*
X67036805Y-63882926D01*
X66996358Y-63941895D01*
X66970633Y-64022491D01*
X66958361Y-64127422D01*
X66958270Y-64259397D01*
X66726717Y-64259397D01*
X66724034Y-64230198D01*
X66725379Y-64177264D01*
X66733299Y-64114797D01*
X66741070Y-64067906D01*
X66763784Y-63959098D01*
X66791992Y-63874159D01*
X66829451Y-63805255D01*
X66879915Y-63744552D01*
X66909718Y-63716156D01*
X67008659Y-63646699D01*
X67116178Y-63605129D01*
X67227762Y-63590406D01*
X67338897Y-63601494D01*
G36*
X70638625Y-63667062D02*
G01*
X70641899Y-63714200D01*
X70654160Y-63734469D01*
X70679062Y-63728735D01*
X70720262Y-63697866D01*
X70730624Y-63688889D01*
X70807237Y-63634101D01*
X70887986Y-63604532D01*
X70983396Y-63595973D01*
X71094717Y-63611443D01*
X71194856Y-63655034D01*
X71279339Y-63723836D01*
X71343694Y-63814937D01*
X71354671Y-63837603D01*
X71365578Y-63862928D01*
X71374133Y-63887325D01*
X71380626Y-63914884D01*
X71385344Y-63949701D01*
X71388575Y-63995868D01*
X71390608Y-64057479D01*
X71391730Y-64138626D01*
X71392230Y-64243404D01*
X71392394Y-64373500D01*
X71392687Y-64825937D01*
X71286706Y-64830604D01*
X71180724Y-64835272D01*
X71175581Y-64417854D01*
X71173862Y-64290713D01*
X71171994Y-64191165D01*
X71169642Y-64115052D01*
X71166476Y-64058220D01*
X71162162Y-64016510D01*
X71156368Y-63985767D01*
X71148763Y-63961834D01*
X71139014Y-63940554D01*
X71137139Y-63936937D01*
X71088371Y-63871369D01*
X71022391Y-63830469D01*
X70936285Y-63812624D01*
X70910580Y-63811567D01*
X70816144Y-63822744D01*
X70740735Y-63859237D01*
X70683954Y-63921251D01*
X70678874Y-63929561D01*
X70669111Y-63948114D01*
X70661448Y-63969297D01*
X70655569Y-63997138D01*
X70651164Y-64035665D01*
X70647920Y-64088907D01*
X70645523Y-64160891D01*
X70643662Y-64255647D01*
X70642023Y-64377201D01*
X70641646Y-64409218D01*
X70636731Y-64833875D01*
X70416375Y-64833875D01*
X70416375Y-63595625D01*
X70638625Y-63595625D01*
X70638625Y-63667062D01*
X70638625Y-63667062D01*
G37*
X70638625Y-63667062D02*
X70641899Y-63714200D01*
X70654160Y-63734469D01*
X70679062Y-63728735D01*
X70720262Y-63697866D01*
X70730624Y-63688889D01*
X70807237Y-63634101D01*
X70887986Y-63604532D01*
X70983396Y-63595973D01*
X71094717Y-63611443D01*
X71194856Y-63655034D01*
X71279339Y-63723836D01*
X71343694Y-63814937D01*
X71354671Y-63837603D01*
X71365578Y-63862928D01*
X71374133Y-63887325D01*
X71380626Y-63914884D01*
X71385344Y-63949701D01*
X71388575Y-63995868D01*
X71390608Y-64057479D01*
X71391730Y-64138626D01*
X71392230Y-64243404D01*
X71392394Y-64373500D01*
X71392687Y-64825937D01*
X71286706Y-64830604D01*
X71180724Y-64835272D01*
X71175581Y-64417854D01*
X71173862Y-64290713D01*
X71171994Y-64191165D01*
X71169642Y-64115052D01*
X71166476Y-64058220D01*
X71162162Y-64016510D01*
X71156368Y-63985767D01*
X71148763Y-63961834D01*
X71139014Y-63940554D01*
X71137139Y-63936937D01*
X71088371Y-63871369D01*
X71022391Y-63830469D01*
X70936285Y-63812624D01*
X70910580Y-63811567D01*
X70816144Y-63822744D01*
X70740735Y-63859237D01*
X70683954Y-63921251D01*
X70678874Y-63929561D01*
X70669111Y-63948114D01*
X70661448Y-63969297D01*
X70655569Y-63997138D01*
X70651164Y-64035665D01*
X70647920Y-64088907D01*
X70645523Y-64160891D01*
X70643662Y-64255647D01*
X70642023Y-64377201D01*
X70641646Y-64409218D01*
X70636731Y-64833875D01*
X70416375Y-64833875D01*
X70416375Y-63595625D01*
X70638625Y-63595625D01*
X70638625Y-63667062D01*
G36*
X73938919Y-63602201D02*
G01*
X74039454Y-63634330D01*
X74129939Y-63692054D01*
X74179396Y-63737073D01*
X74234441Y-63798584D01*
X74274782Y-63860594D01*
X74302436Y-63929522D01*
X74319424Y-64011789D01*
X74327762Y-64113815D01*
X74329562Y-64214750D01*
X74326720Y-64337396D01*
X74316852Y-64435103D01*
X74297942Y-64514281D01*
X74267977Y-64581341D01*
X74224942Y-64642695D01*
X74179553Y-64692176D01*
X74100661Y-64760050D01*
X74019437Y-64803925D01*
X73926922Y-64827345D01*
X73821270Y-64833875D01*
X73750359Y-64831182D01*
X73694468Y-64820571D01*
X73637134Y-64798239D01*
X73609866Y-64785051D01*
X73506038Y-64716190D01*
X73424643Y-64625376D01*
X73374504Y-64532250D01*
X73360275Y-64477938D01*
X73350209Y-64400182D01*
X73344305Y-64307017D01*
X73342662Y-64212179D01*
X73559625Y-64212179D01*
X73559625Y-64214750D01*
X73560326Y-64306672D01*
X73562891Y-64373197D01*
X73568008Y-64420657D01*
X73576370Y-64455382D01*
X73588665Y-64483703D01*
X73589016Y-64484361D01*
X73643453Y-64555092D01*
X73716555Y-64600504D01*
X73752074Y-64611592D01*
X73802790Y-64622297D01*
X73840374Y-64624657D01*
X73881266Y-64618488D01*
X73917665Y-64609754D01*
X73996457Y-64574408D01*
X74057476Y-64515161D01*
X74095484Y-64437280D01*
X74097858Y-64428507D01*
X74107271Y-64370327D01*
X74112858Y-64292719D01*
X74114604Y-64206192D01*
X74112497Y-64121254D01*
X74106521Y-64048414D01*
X74098420Y-64003972D01*
X74060736Y-63921786D01*
X74000864Y-63860472D01*
X73922349Y-63823402D01*
X73904103Y-63819069D01*
X73802543Y-63811249D01*
X73714534Y-63830419D01*
X73642428Y-63875638D01*
X73589016Y-63945138D01*
X73576618Y-63973383D01*
X73568169Y-64007878D01*
X73562981Y-64054955D01*
X73560363Y-64120945D01*
X73559625Y-64212179D01*
X73342662Y-64212179D01*
X73342563Y-64206473D01*
X73344983Y-64106583D01*
X73351566Y-64015381D01*
X73362310Y-63940898D01*
X73374504Y-63897250D01*
X73433740Y-63791977D01*
X73515347Y-63705614D01*
X73614459Y-63641480D01*
X73726213Y-63602896D01*
X73820860Y-63592658D01*
X73938919Y-63602201D01*
X73938919Y-63602201D01*
G37*
X73938919Y-63602201D02*
X74039454Y-63634330D01*
X74129939Y-63692054D01*
X74179396Y-63737073D01*
X74234441Y-63798584D01*
X74274782Y-63860594D01*
X74302436Y-63929522D01*
X74319424Y-64011789D01*
X74327762Y-64113815D01*
X74329562Y-64214750D01*
X74326720Y-64337396D01*
X74316852Y-64435103D01*
X74297942Y-64514281D01*
X74267977Y-64581341D01*
X74224942Y-64642695D01*
X74179553Y-64692176D01*
X74100661Y-64760050D01*
X74019437Y-64803925D01*
X73926922Y-64827345D01*
X73821270Y-64833875D01*
X73750359Y-64831182D01*
X73694468Y-64820571D01*
X73637134Y-64798239D01*
X73609866Y-64785051D01*
X73506038Y-64716190D01*
X73424643Y-64625376D01*
X73374504Y-64532250D01*
X73360275Y-64477938D01*
X73350209Y-64400182D01*
X73344305Y-64307017D01*
X73342662Y-64212179D01*
X73559625Y-64212179D01*
X73559625Y-64214750D01*
X73560326Y-64306672D01*
X73562891Y-64373197D01*
X73568008Y-64420657D01*
X73576370Y-64455382D01*
X73588665Y-64483703D01*
X73589016Y-64484361D01*
X73643453Y-64555092D01*
X73716555Y-64600504D01*
X73752074Y-64611592D01*
X73802790Y-64622297D01*
X73840374Y-64624657D01*
X73881266Y-64618488D01*
X73917665Y-64609754D01*
X73996457Y-64574408D01*
X74057476Y-64515161D01*
X74095484Y-64437280D01*
X74097858Y-64428507D01*
X74107271Y-64370327D01*
X74112858Y-64292719D01*
X74114604Y-64206192D01*
X74112497Y-64121254D01*
X74106521Y-64048414D01*
X74098420Y-64003972D01*
X74060736Y-63921786D01*
X74000864Y-63860472D01*
X73922349Y-63823402D01*
X73904103Y-63819069D01*
X73802543Y-63811249D01*
X73714534Y-63830419D01*
X73642428Y-63875638D01*
X73589016Y-63945138D01*
X73576618Y-63973383D01*
X73568169Y-64007878D01*
X73562981Y-64054955D01*
X73560363Y-64120945D01*
X73559625Y-64212179D01*
X73342662Y-64212179D01*
X73342563Y-64206473D01*
X73344983Y-64106583D01*
X73351566Y-64015381D01*
X73362310Y-63940898D01*
X73374504Y-63897250D01*
X73433740Y-63791977D01*
X73515347Y-63705614D01*
X73614459Y-63641480D01*
X73726213Y-63602896D01*
X73820860Y-63592658D01*
X73938919Y-63602201D01*
G36*
X74805812Y-63603562D02*
G01*
X74813750Y-64032187D01*
X74816521Y-64169998D01*
X74819665Y-64279802D01*
X74823925Y-64365342D01*
X74830045Y-64430359D01*
X74838772Y-64478594D01*
X74850849Y-64513788D01*
X74867022Y-64539685D01*
X74888035Y-64560024D01*
X74914633Y-64578548D01*
X74923632Y-64584198D01*
X74969662Y-64606381D01*
X75022967Y-64616709D01*
X75080045Y-64618367D01*
X75161776Y-64610400D01*
X75222225Y-64585403D01*
X75269438Y-64538517D01*
X75301906Y-64484300D01*
X75312801Y-64461686D01*
X75321224Y-64438904D01*
X75327491Y-64411693D01*
X75331920Y-64375790D01*
X75334829Y-64326935D01*
X75336536Y-64260865D01*
X75337357Y-64173321D01*
X75337611Y-64060040D01*
X75337625Y-64005011D01*
X75337625Y-63595625D01*
X75559875Y-63595625D01*
X75559875Y-64833875D01*
X75337625Y-64833875D01*
X75337625Y-64762437D01*
X75332816Y-64712452D01*
X75317574Y-64692283D01*
X75290672Y-64701480D01*
X75257048Y-64732781D01*
X75185347Y-64788393D01*
X75096787Y-64822561D01*
X74998815Y-64834272D01*
X74898875Y-64822511D01*
X74816842Y-64792755D01*
X74760562Y-64758496D01*
X74708580Y-64716748D01*
X74687167Y-64694425D01*
X74661043Y-64660832D01*
X74640138Y-64627627D01*
X74623875Y-64590893D01*
X74611679Y-64546715D01*
X74602971Y-64491177D01*
X74597178Y-64420364D01*
X74593720Y-64330358D01*
X74592024Y-64217245D01*
X74591511Y-64077109D01*
X74591500Y-64044509D01*
X74591500Y-63594174D01*
X74805812Y-63603562D01*
X74805812Y-63603562D01*
G37*
X74805812Y-63603562D02*
X74813750Y-64032187D01*
X74816521Y-64169998D01*
X74819665Y-64279802D01*
X74823925Y-64365342D01*
X74830045Y-64430359D01*
X74838772Y-64478594D01*
X74850849Y-64513788D01*
X74867022Y-64539685D01*
X74888035Y-64560024D01*
X74914633Y-64578548D01*
X74923632Y-64584198D01*
X74969662Y-64606381D01*
X75022967Y-64616709D01*
X75080045Y-64618367D01*
X75161776Y-64610400D01*
X75222225Y-64585403D01*
X75269438Y-64538517D01*
X75301906Y-64484300D01*
X75312801Y-64461686D01*
X75321224Y-64438904D01*
X75327491Y-64411693D01*
X75331920Y-64375790D01*
X75334829Y-64326935D01*
X75336536Y-64260865D01*
X75337357Y-64173321D01*
X75337611Y-64060040D01*
X75337625Y-64005011D01*
X75337625Y-63595625D01*
X75559875Y-63595625D01*
X75559875Y-64833875D01*
X75337625Y-64833875D01*
X75337625Y-64762437D01*
X75332816Y-64712452D01*
X75317574Y-64692283D01*
X75290672Y-64701480D01*
X75257048Y-64732781D01*
X75185347Y-64788393D01*
X75096787Y-64822561D01*
X74998815Y-64834272D01*
X74898875Y-64822511D01*
X74816842Y-64792755D01*
X74760562Y-64758496D01*
X74708580Y-64716748D01*
X74687167Y-64694425D01*
X74661043Y-64660832D01*
X74640138Y-64627627D01*
X74623875Y-64590893D01*
X74611679Y-64546715D01*
X74602971Y-64491177D01*
X74597178Y-64420364D01*
X74593720Y-64330358D01*
X74592024Y-64217245D01*
X74591511Y-64077109D01*
X74591500Y-64044509D01*
X74591500Y-63594174D01*
X74805812Y-63603562D01*
G36*
X76083750Y-63658399D02*
G01*
X76086537Y-63700554D01*
X76097367Y-63719229D01*
X76113556Y-63722625D01*
X76147722Y-63711085D01*
X76165149Y-63696286D01*
X76208859Y-63661077D01*
X76273289Y-63629945D01*
X76347407Y-63607014D01*
X76420183Y-63596409D01*
X76433000Y-63596128D01*
X76488437Y-63601123D01*
X76546808Y-63613956D01*
X76599674Y-63631745D01*
X76638600Y-63651606D01*
X76655145Y-63670655D01*
X76655250Y-63672086D01*
X76645456Y-63693312D01*
X76620565Y-63728483D01*
X76587313Y-63769649D01*
X76552438Y-63808861D01*
X76522674Y-63838169D01*
X76504805Y-63849625D01*
X76478959Y-63839419D01*
X76467395Y-63830045D01*
X76441093Y-63819045D01*
X76394256Y-63811995D01*
X76356936Y-63810466D01*
X76261407Y-63822684D01*
X76185636Y-63859558D01*
X76128974Y-63921419D01*
X76123999Y-63929561D01*
X76114233Y-63948139D01*
X76106559Y-63969389D01*
X76100662Y-63997339D01*
X76096225Y-64036018D01*
X76092932Y-64089453D01*
X76090469Y-64161672D01*
X76088518Y-64256703D01*
X76086763Y-64378575D01*
X76086374Y-64409218D01*
X76081061Y-64833875D01*
X75978720Y-64833875D01*
X75912401Y-64830650D01*
X75875688Y-64821103D01*
X75868742Y-64813974D01*
X75867125Y-64794072D01*
X75865844Y-64746049D01*
X75864919Y-64673531D01*
X75864370Y-64580146D01*
X75864218Y-64469520D01*
X75864484Y-64345280D01*
X75865187Y-64211054D01*
X75865271Y-64198818D01*
X75869437Y-63603562D01*
X75976593Y-63598868D01*
X76083750Y-63594174D01*
X76083750Y-63658399D01*
X76083750Y-63658399D01*
G37*
X76083750Y-63658399D02*
X76086537Y-63700554D01*
X76097367Y-63719229D01*
X76113556Y-63722625D01*
X76147722Y-63711085D01*
X76165149Y-63696286D01*
X76208859Y-63661077D01*
X76273289Y-63629945D01*
X76347407Y-63607014D01*
X76420183Y-63596409D01*
X76433000Y-63596128D01*
X76488437Y-63601123D01*
X76546808Y-63613956D01*
X76599674Y-63631745D01*
X76638600Y-63651606D01*
X76655145Y-63670655D01*
X76655250Y-63672086D01*
X76645456Y-63693312D01*
X76620565Y-63728483D01*
X76587313Y-63769649D01*
X76552438Y-63808861D01*
X76522674Y-63838169D01*
X76504805Y-63849625D01*
X76478959Y-63839419D01*
X76467395Y-63830045D01*
X76441093Y-63819045D01*
X76394256Y-63811995D01*
X76356936Y-63810466D01*
X76261407Y-63822684D01*
X76185636Y-63859558D01*
X76128974Y-63921419D01*
X76123999Y-63929561D01*
X76114233Y-63948139D01*
X76106559Y-63969389D01*
X76100662Y-63997339D01*
X76096225Y-64036018D01*
X76092932Y-64089453D01*
X76090469Y-64161672D01*
X76088518Y-64256703D01*
X76086763Y-64378575D01*
X76086374Y-64409218D01*
X76081061Y-64833875D01*
X75978720Y-64833875D01*
X75912401Y-64830650D01*
X75875688Y-64821103D01*
X75868742Y-64813974D01*
X75867125Y-64794072D01*
X75865844Y-64746049D01*
X75864919Y-64673531D01*
X75864370Y-64580146D01*
X75864218Y-64469520D01*
X75864484Y-64345280D01*
X75865187Y-64211054D01*
X75865271Y-64198818D01*
X75869437Y-63603562D01*
X75976593Y-63598868D01*
X76083750Y-63594174D01*
X76083750Y-63658399D01*
G36*
X72909367Y-54150039D02*
G01*
X73032226Y-54150274D01*
X73129692Y-54150884D01*
X73204944Y-54152044D01*
X73261162Y-54153932D01*
X73301522Y-54156725D01*
X73329206Y-54160600D01*
X73347390Y-54165734D01*
X73359254Y-54172306D01*
X73367977Y-54180490D01*
X73371231Y-54184179D01*
X73392790Y-54212264D01*
X73400875Y-54228590D01*
X73403689Y-54245977D01*
X73411709Y-54291107D01*
X73424299Y-54360515D01*
X73440824Y-54450736D01*
X73460650Y-54558304D01*
X73483141Y-54679754D01*
X73507662Y-54811621D01*
X73511551Y-54832491D01*
X73542432Y-54996379D01*
X73568603Y-55131194D01*
X73590568Y-55239184D01*
X73608828Y-55322596D01*
X73623889Y-55383676D01*
X73636251Y-55424673D01*
X73646419Y-55447832D01*
X73650458Y-55453076D01*
X73672120Y-55465872D01*
X73719240Y-55488609D01*
X73787766Y-55519503D01*
X73873649Y-55556771D01*
X73972839Y-55598630D01*
X74081287Y-55643298D01*
X74097109Y-55649727D01*
X74229181Y-55702806D01*
X74334883Y-55744089D01*
X74416925Y-55774514D01*
X74478021Y-55795022D01*
X74520882Y-55806554D01*
X74548220Y-55810048D01*
X74556879Y-55809084D01*
X74578895Y-55797986D01*
X74623882Y-55770812D01*
X74688733Y-55729595D01*
X74770337Y-55676364D01*
X74865587Y-55613153D01*
X74971373Y-55541993D01*
X75084586Y-55464915D01*
X75106213Y-55450089D01*
X75614200Y-55101472D01*
X76055500Y-55542517D01*
X76152533Y-55640072D01*
X76241859Y-55730996D01*
X76321106Y-55812789D01*
X76387901Y-55882953D01*
X76439873Y-55938989D01*
X76474650Y-55978398D01*
X76489860Y-55998681D01*
X76490298Y-56000572D01*
X76480100Y-56017090D01*
X76453879Y-56056745D01*
X76413660Y-56116552D01*
X76361467Y-56193525D01*
X76299326Y-56284679D01*
X76229262Y-56387029D01*
X76153298Y-56497589D01*
X76145737Y-56508572D01*
X76056867Y-56638015D01*
X75984671Y-56744164D01*
X75927520Y-56829667D01*
X75883781Y-56897172D01*
X75851825Y-56949327D01*
X75830021Y-56988780D01*
X75816737Y-57018179D01*
X75810342Y-57040171D01*
X75809109Y-57055125D01*
X75815727Y-57083915D01*
X75833478Y-57136831D01*
X75860376Y-57209162D01*
X75894438Y-57296198D01*
X75933678Y-57393228D01*
X75976111Y-57495544D01*
X76019754Y-57598433D01*
X76062621Y-57697187D01*
X76102727Y-57787096D01*
X76138088Y-57863448D01*
X76166719Y-57921534D01*
X76186636Y-57956643D01*
X76191767Y-57963249D01*
X76210025Y-57972922D01*
X76249221Y-57985364D01*
X76311107Y-58000966D01*
X76397434Y-58020117D01*
X76509955Y-58043207D01*
X76650422Y-58070626D01*
X76809045Y-58100609D01*
X76942186Y-58125671D01*
X77065711Y-58149281D01*
X77176090Y-58170737D01*
X77269794Y-58189338D01*
X77343293Y-58204381D01*
X77393057Y-58215166D01*
X77415556Y-58220991D01*
X77416264Y-58221328D01*
X77421225Y-58239120D01*
X77425306Y-58286127D01*
X77428518Y-58362824D01*
X77430876Y-58469682D01*
X77432392Y-58607174D01*
X77433078Y-58775773D01*
X77433125Y-58840055D01*
X77432952Y-58999434D01*
X77432369Y-59129871D01*
X77431274Y-59234173D01*
X77429569Y-59315147D01*
X77427154Y-59375599D01*
X77423928Y-59418337D01*
X77419792Y-59446167D01*
X77414647Y-59461896D01*
X77410840Y-59466856D01*
X77390580Y-59473920D01*
X77342715Y-59485891D01*
X77270875Y-59502003D01*
X77178695Y-59521488D01*
X77069806Y-59543578D01*
X76947841Y-59567505D01*
X76816432Y-59592502D01*
X76815191Y-59592735D01*
X76658685Y-59622560D01*
X76522754Y-59649518D01*
X76409388Y-59673173D01*
X76320578Y-59693090D01*
X76258313Y-59708833D01*
X76224582Y-59719968D01*
X76219532Y-59723028D01*
X76204831Y-59747129D01*
X76181232Y-59796515D01*
X76150523Y-59866575D01*
X76114492Y-59952696D01*
X76074929Y-60050266D01*
X76033622Y-60154674D01*
X75992360Y-60261308D01*
X75952930Y-60365556D01*
X75917123Y-60462805D01*
X75886726Y-60548445D01*
X75863529Y-60617862D01*
X75849319Y-60666446D01*
X75845625Y-60687122D01*
X75847763Y-60708079D01*
X75855447Y-60733253D01*
X75870583Y-60765860D01*
X75895074Y-60809117D01*
X75930825Y-60866241D01*
X75979741Y-60940447D01*
X76043727Y-61034953D01*
X76101723Y-61119593D01*
X76172203Y-61222238D01*
X76240642Y-61322104D01*
X76303847Y-61414517D01*
X76358623Y-61494801D01*
X76401778Y-61558282D01*
X76430102Y-61600263D01*
X76502381Y-61708340D01*
X76066955Y-62143982D01*
X75969883Y-62240629D01*
X75879378Y-62329832D01*
X75797974Y-62409158D01*
X75728208Y-62476177D01*
X75672615Y-62528458D01*
X75633729Y-62563570D01*
X75614086Y-62579083D01*
X75612600Y-62579625D01*
X75595533Y-62570919D01*
X75555474Y-62546164D01*
X75495519Y-62507404D01*
X75418765Y-62456685D01*
X75328309Y-62396050D01*
X75227248Y-62327543D01*
X75131643Y-62262125D01*
X75000799Y-62172656D01*
X74893427Y-62100307D01*
X74807228Y-62043653D01*
X74739905Y-62001264D01*
X74689161Y-61971714D01*
X74652698Y-61953574D01*
X74628218Y-61945418D01*
X74620626Y-61944625D01*
X74584971Y-61952627D01*
X74526177Y-61975506D01*
X74448189Y-62011566D01*
X74358276Y-62057354D01*
X74283911Y-62095921D01*
X74219811Y-62127792D01*
X74170990Y-62150583D01*
X74142461Y-62161909D01*
X74137299Y-62162466D01*
X74130107Y-62146892D01*
X74111790Y-62104351D01*
X74083343Y-62037221D01*
X74045760Y-61947882D01*
X74000038Y-61838712D01*
X73947171Y-61712089D01*
X73944844Y-61706500D01*
X75139187Y-61706500D01*
X75140186Y-61786632D01*
X75144030Y-61843485D01*
X75151993Y-61885489D01*
X75165346Y-61921075D01*
X75174242Y-61938722D01*
X75226973Y-62012538D01*
X75299371Y-62081192D01*
X75380183Y-62135044D01*
X75428290Y-62156331D01*
X75493035Y-62170582D01*
X75576270Y-62177663D01*
X75667294Y-62177811D01*
X75755404Y-62171263D01*
X75829898Y-62158256D01*
X75865468Y-62146659D01*
X75925000Y-62120870D01*
X75925000Y-61912340D01*
X75841656Y-61954962D01*
X75761938Y-61985062D01*
X75677917Y-61998967D01*
X75598825Y-61996364D01*
X75533894Y-61976940D01*
X75516053Y-61965985D01*
X75450926Y-61900069D01*
X75407492Y-61818648D01*
X75395167Y-61770869D01*
X75392326Y-61666206D01*
X75417302Y-61571345D01*
X75468479Y-61490618D01*
X75516053Y-61447014D01*
X75573765Y-61421566D01*
X75648904Y-61413050D01*
X75732237Y-61421152D01*
X75814532Y-61445560D01*
X75841656Y-61458037D01*
X75925000Y-61500659D01*
X75925000Y-61292129D01*
X75865468Y-61266518D01*
X75797546Y-61247031D01*
X75710253Y-61235617D01*
X75615005Y-61232603D01*
X75523221Y-61238313D01*
X75446318Y-61253071D01*
X75441730Y-61254469D01*
X75349597Y-61297220D01*
X75263960Y-61361936D01*
X75195270Y-61440031D01*
X75174242Y-61474277D01*
X75157782Y-61509796D01*
X75147338Y-61547603D01*
X75141635Y-61596127D01*
X75139401Y-61663800D01*
X75139187Y-61706500D01*
X73944844Y-61706500D01*
X73888154Y-61570393D01*
X73823982Y-61416001D01*
X73755650Y-61251293D01*
X73707085Y-61134053D01*
X73625200Y-60936160D01*
X73554729Y-60765515D01*
X73494894Y-60620052D01*
X73444917Y-60497702D01*
X73404021Y-60396399D01*
X73371427Y-60314076D01*
X73346358Y-60248664D01*
X73328037Y-60198096D01*
X73315685Y-60160306D01*
X73308525Y-60133225D01*
X73305779Y-60114787D01*
X73306669Y-60102923D01*
X73310417Y-60095567D01*
X73314900Y-60091576D01*
X73339874Y-60073830D01*
X73384087Y-60042466D01*
X73440869Y-60002217D01*
X73492238Y-59965823D01*
X73659807Y-59830278D01*
X73799216Y-59680510D01*
X73911308Y-59515218D01*
X73996923Y-59333102D01*
X74004030Y-59309375D01*
X76480625Y-59309375D01*
X76755320Y-59309375D01*
X76855754Y-59309148D01*
X76930250Y-59308030D01*
X76984620Y-59305361D01*
X77024677Y-59300481D01*
X77056231Y-59292730D01*
X77085095Y-59281449D01*
X77111021Y-59269008D01*
X77179035Y-59223730D01*
X77221076Y-59166011D01*
X77240401Y-59090304D01*
X77242565Y-59045038D01*
X77231901Y-58969130D01*
X77202926Y-58903785D01*
X77159980Y-58857562D01*
X77142315Y-58847422D01*
X77105432Y-58830617D01*
X77158153Y-58777896D01*
X77189972Y-58741966D01*
X77205626Y-58708087D01*
X77210590Y-58661951D01*
X77210815Y-58640243D01*
X77198238Y-58549345D01*
X77160772Y-58477913D01*
X77098609Y-58426305D01*
X77096483Y-58425131D01*
X77072024Y-58414383D01*
X77040231Y-58406337D01*
X76996022Y-58400479D01*
X76934316Y-58396293D01*
X76850031Y-58393267D01*
X76762406Y-58391324D01*
X76480625Y-58386053D01*
X76480625Y-59309375D01*
X74004030Y-59309375D01*
X74056902Y-59132862D01*
X74068959Y-59074740D01*
X74079247Y-58985234D01*
X74081762Y-58875814D01*
X74077100Y-58757195D01*
X74065854Y-58640091D01*
X74048620Y-58535217D01*
X74036193Y-58484488D01*
X73966650Y-58297719D01*
X73870816Y-58125220D01*
X73751451Y-57969575D01*
X73611315Y-57833366D01*
X73453171Y-57719176D01*
X73279780Y-57629587D01*
X73093902Y-57567183D01*
X73043102Y-57555570D01*
X72936794Y-57540321D01*
X72812449Y-57533015D01*
X72682772Y-57533653D01*
X72560466Y-57542234D01*
X72472772Y-57555570D01*
X72284058Y-57610368D01*
X72107103Y-57693032D01*
X71944666Y-57800979D01*
X71799509Y-57931627D01*
X71674393Y-58082393D01*
X71572079Y-58250694D01*
X71495328Y-58433947D01*
X71479681Y-58484488D01*
X71459264Y-58577442D01*
X71444493Y-58688802D01*
X71435962Y-58807855D01*
X71434266Y-58923887D01*
X71440000Y-59026183D01*
X71446915Y-59074740D01*
X71500027Y-59280166D01*
X71578544Y-59467112D01*
X71683307Y-59636879D01*
X71815158Y-59790765D01*
X71974938Y-59930073D01*
X72023636Y-59965823D01*
X72085751Y-60009833D01*
X72140781Y-60048844D01*
X72182054Y-60078127D01*
X72200974Y-60091576D01*
X72206435Y-60096829D01*
X72209652Y-60104952D01*
X72209849Y-60118014D01*
X72206248Y-60138081D01*
X72198072Y-60167220D01*
X72184541Y-60207500D01*
X72164880Y-60260987D01*
X72138309Y-60329748D01*
X72104051Y-60415852D01*
X72061329Y-60521365D01*
X72009364Y-60648355D01*
X71947379Y-60798890D01*
X71874596Y-60975036D01*
X71808789Y-61134053D01*
X71738187Y-61304442D01*
X71671066Y-61466139D01*
X71608419Y-61616766D01*
X71551243Y-61753945D01*
X71500531Y-61875297D01*
X71457280Y-61978442D01*
X71422484Y-62061003D01*
X71397138Y-62120601D01*
X71382237Y-62154857D01*
X71378575Y-62162466D01*
X71362667Y-62158093D01*
X71323842Y-62141006D01*
X71267115Y-62113590D01*
X71197498Y-62078231D01*
X71157598Y-62057354D01*
X71064806Y-62010164D01*
X70987396Y-61974518D01*
X70929313Y-61952109D01*
X70895248Y-61944625D01*
X70875331Y-61948825D01*
X70844444Y-61962379D01*
X70800291Y-61986713D01*
X70740574Y-62023255D01*
X70662996Y-62073432D01*
X70565260Y-62138673D01*
X70445066Y-62220403D01*
X70384231Y-62262125D01*
X70276379Y-62335882D01*
X70176397Y-62403575D01*
X70087381Y-62463157D01*
X70012429Y-62512586D01*
X69954637Y-62549815D01*
X69917103Y-62572802D01*
X69903274Y-62579625D01*
X69888203Y-62568747D01*
X69853331Y-62537736D01*
X69801194Y-62489021D01*
X69734327Y-62425035D01*
X69655265Y-62348206D01*
X69566544Y-62260967D01*
X69470698Y-62165748D01*
X69448919Y-62143982D01*
X69013493Y-61708340D01*
X69085772Y-61600263D01*
X69114123Y-61558243D01*
X69142482Y-61516525D01*
X69527375Y-61516525D01*
X69536096Y-61594350D01*
X69564130Y-61657427D01*
X69614280Y-61708279D01*
X69689351Y-61749431D01*
X69792147Y-61783407D01*
X69835953Y-61794245D01*
X69911014Y-61813047D01*
X69960611Y-61829898D01*
X69990657Y-61847704D01*
X70007063Y-61869373D01*
X70011366Y-61880508D01*
X70011116Y-61926243D01*
X69982794Y-61965450D01*
X69933137Y-61991936D01*
X69869267Y-62000673D01*
X69787951Y-61993425D01*
X69698313Y-61971593D01*
X69627752Y-61945017D01*
X69584952Y-61926562D01*
X69555915Y-61914938D01*
X69549169Y-61912875D01*
X69544497Y-61927015D01*
X69542656Y-61962822D01*
X69543263Y-62010377D01*
X69545933Y-62059760D01*
X69550281Y-62101051D01*
X69555923Y-62124332D01*
X69557436Y-62126143D01*
X69614947Y-62149705D01*
X69694790Y-62166551D01*
X69788216Y-62176440D01*
X69886475Y-62179132D01*
X69980817Y-62174387D01*
X70062491Y-62161966D01*
X70122687Y-62141658D01*
X70191076Y-62089151D01*
X70235796Y-62016035D01*
X70256127Y-61923643D01*
X70257363Y-61892242D01*
X70251792Y-61813978D01*
X70232201Y-61751934D01*
X70195015Y-61702743D01*
X70136661Y-61663034D01*
X70053565Y-61629439D01*
X69947195Y-61599810D01*
X69858874Y-61576116D01*
X69799197Y-61554024D01*
X69765296Y-61531278D01*
X69754299Y-61505624D01*
X69763338Y-61474807D01*
X69771233Y-61461574D01*
X69811053Y-61429137D01*
X69875262Y-61413691D01*
X69961207Y-61415586D01*
X70031471Y-61427120D01*
X70089991Y-61440215D01*
X70138800Y-61452423D01*
X70166343Y-61460767D01*
X70181298Y-61463364D01*
X70189691Y-61452157D01*
X70193354Y-61421047D01*
X70194125Y-61368320D01*
X70194125Y-61264868D01*
X70080484Y-61245700D01*
X70005544Y-61237011D01*
X69917883Y-61232590D01*
X69836354Y-61233381D01*
X69835629Y-61233419D01*
X69762707Y-61239082D01*
X69711052Y-61248666D01*
X69670209Y-61264769D01*
X69642189Y-61281486D01*
X69578462Y-61340666D01*
X69540416Y-61417478D01*
X69527386Y-61513285D01*
X69527375Y-61516525D01*
X69142482Y-61516525D01*
X69157287Y-61494748D01*
X69212071Y-61414453D01*
X69275280Y-61322033D01*
X69343722Y-61222163D01*
X69414151Y-61119593D01*
X69490478Y-61008045D01*
X69550331Y-60919170D01*
X69595613Y-60849751D01*
X69628230Y-60796572D01*
X69650085Y-60756416D01*
X69663083Y-60726068D01*
X69669130Y-60702310D01*
X69670250Y-60687122D01*
X69664449Y-60658364D01*
X69648241Y-60605110D01*
X69623414Y-60531972D01*
X69591756Y-60443563D01*
X69555056Y-60344494D01*
X69515102Y-60239377D01*
X69473684Y-60132825D01*
X69432590Y-60029448D01*
X69393609Y-59933860D01*
X69358529Y-59850672D01*
X69329138Y-59784495D01*
X69307227Y-59739942D01*
X69296342Y-59723028D01*
X69274555Y-59713854D01*
X69223439Y-59699898D01*
X69144984Y-59681594D01*
X69041180Y-59659379D01*
X68914016Y-59633687D01*
X68765482Y-59604954D01*
X68700683Y-59592735D01*
X68569204Y-59567732D01*
X68447136Y-59543791D01*
X68338110Y-59521681D01*
X68245759Y-59502168D01*
X68173716Y-59486022D01*
X68125613Y-59474009D01*
X68105083Y-59466896D01*
X68105034Y-59466856D01*
X68099200Y-59457312D01*
X68094440Y-59437435D01*
X68090652Y-59404419D01*
X68087738Y-59355457D01*
X68086281Y-59309375D01*
X68257375Y-59309375D01*
X68495500Y-59309375D01*
X68495500Y-58991875D01*
X68626468Y-58991786D01*
X68730198Y-58987921D01*
X68809951Y-58975313D01*
X68872720Y-58952205D01*
X68925502Y-58916841D01*
X68925790Y-58916599D01*
X68981151Y-58852215D01*
X69011741Y-58771519D01*
X69019375Y-58690249D01*
X69008088Y-58593436D01*
X68973244Y-58515870D01*
X68925790Y-58463900D01*
X68889677Y-58437526D01*
X68849363Y-58417945D01*
X68799629Y-58404219D01*
X68735257Y-58395411D01*
X68651029Y-58390582D01*
X68541725Y-58388795D01*
X68507406Y-58388713D01*
X68257375Y-58388625D01*
X68257375Y-59309375D01*
X68086281Y-59309375D01*
X68085597Y-59287743D01*
X68084129Y-59198469D01*
X68083235Y-59084829D01*
X68082815Y-58944016D01*
X68082750Y-58840055D01*
X68083158Y-58660806D01*
X68084391Y-58512825D01*
X68086461Y-58395637D01*
X68089383Y-58308771D01*
X68093168Y-58251755D01*
X68097829Y-58224114D01*
X68099610Y-58221328D01*
X68118540Y-58216157D01*
X68165166Y-58205940D01*
X68235958Y-58191378D01*
X68327386Y-58173174D01*
X68435919Y-58152028D01*
X68558029Y-58128644D01*
X68690186Y-58103722D01*
X68706829Y-58100609D01*
X68875085Y-58068778D01*
X69013753Y-58041641D01*
X69124586Y-58018808D01*
X69209334Y-57999890D01*
X69269749Y-57984498D01*
X69307585Y-57972240D01*
X69324107Y-57963249D01*
X69339931Y-57938779D01*
X69365274Y-57889425D01*
X69398150Y-57819899D01*
X69436575Y-57734911D01*
X69478563Y-57639170D01*
X69522131Y-57537387D01*
X69565293Y-57434271D01*
X69606065Y-57334534D01*
X69642462Y-57242885D01*
X69672499Y-57164035D01*
X69694191Y-57102693D01*
X69705555Y-57063570D01*
X69706765Y-57055125D01*
X69704976Y-57037372D01*
X69697694Y-57014481D01*
X69683289Y-56983803D01*
X69660129Y-56942692D01*
X69626583Y-56888499D01*
X69581022Y-56818576D01*
X69521814Y-56730275D01*
X69447328Y-56620949D01*
X69370137Y-56508572D01*
X69293711Y-56397377D01*
X69222989Y-56294106D01*
X69159996Y-56201742D01*
X69106757Y-56123272D01*
X69065295Y-56061681D01*
X69037636Y-56019953D01*
X69025805Y-56001074D01*
X69025576Y-56000572D01*
X69035001Y-55985975D01*
X69064644Y-55951566D01*
X69112133Y-55899845D01*
X69175096Y-55833310D01*
X69251161Y-55754460D01*
X69337957Y-55665793D01*
X69424247Y-55578750D01*
X69622625Y-55578750D01*
X69622625Y-56499500D01*
X69860750Y-56499500D01*
X69860750Y-56439141D01*
X75274125Y-56439141D01*
X75547968Y-56432930D01*
X75650118Y-56430246D01*
X75726299Y-56427035D01*
X75782291Y-56422593D01*
X75823875Y-56416213D01*
X75856831Y-56407193D01*
X75886939Y-56394827D01*
X75895987Y-56390502D01*
X75989183Y-56331134D01*
X76065736Y-56254754D01*
X76108848Y-56187809D01*
X76124787Y-56146870D01*
X76134309Y-56097081D01*
X76138662Y-56029754D01*
X76139312Y-55975625D01*
X76135379Y-55875923D01*
X76121608Y-55798828D01*
X76095038Y-55735951D01*
X76052712Y-55678903D01*
X76024274Y-55649516D01*
X75977714Y-55607681D01*
X75932056Y-55576099D01*
X75881674Y-55553219D01*
X75820943Y-55537491D01*
X75744237Y-55527367D01*
X75645931Y-55521297D01*
X75547968Y-55518319D01*
X75274125Y-55512108D01*
X75274125Y-56439141D01*
X69860750Y-56439141D01*
X69860750Y-56118500D01*
X70241750Y-56118500D01*
X70241750Y-55943875D01*
X69860750Y-55943875D01*
X69860750Y-55753375D01*
X70273500Y-55753375D01*
X70273500Y-55578750D01*
X69622625Y-55578750D01*
X69424247Y-55578750D01*
X69433111Y-55569809D01*
X69460374Y-55542517D01*
X69901674Y-55101472D01*
X70409661Y-55450089D01*
X70523913Y-55528043D01*
X70631315Y-55600458D01*
X70728760Y-55665302D01*
X70813138Y-55720542D01*
X70881340Y-55764148D01*
X70930257Y-55794088D01*
X70956782Y-55808330D01*
X70958995Y-55809084D01*
X70979622Y-55809238D01*
X71014422Y-55801822D01*
X71066107Y-55785897D01*
X71137391Y-55760522D01*
X71230984Y-55724758D01*
X71349599Y-55677665D01*
X71418765Y-55649727D01*
X71528200Y-55604802D01*
X71628956Y-55562427D01*
X71716980Y-55524386D01*
X71788223Y-55492463D01*
X71838631Y-55468444D01*
X71864156Y-55454111D01*
X71865520Y-55452972D01*
X71874857Y-55437281D01*
X71886116Y-55404994D01*
X71899805Y-55353837D01*
X71916436Y-55281539D01*
X71936515Y-55185828D01*
X71960554Y-55064430D01*
X71989060Y-54915074D01*
X72004427Y-54833069D01*
X72029197Y-54699972D01*
X72052034Y-54576734D01*
X72072299Y-54466828D01*
X72089358Y-54373727D01*
X72095388Y-54340500D01*
X72289625Y-54340500D01*
X72289625Y-55150125D01*
X72479392Y-55150125D01*
X72488062Y-54588127D01*
X72664032Y-54983437D01*
X72820092Y-54983437D01*
X72996062Y-54588127D01*
X73004732Y-55150125D01*
X73194500Y-55150125D01*
X73194500Y-54340500D01*
X73061900Y-54340499D01*
X72929301Y-54340499D01*
X72845453Y-54527031D01*
X72812947Y-54599086D01*
X72784530Y-54661591D01*
X72763053Y-54708313D01*
X72751363Y-54733020D01*
X72750766Y-54734187D01*
X72740573Y-54728681D01*
X72720309Y-54696921D01*
X72691743Y-54642112D01*
X72656646Y-54567459D01*
X72647763Y-54547656D01*
X72555601Y-54340500D01*
X72289625Y-54340500D01*
X72095388Y-54340500D01*
X72102575Y-54300904D01*
X72111313Y-54251831D01*
X72114936Y-54229981D01*
X72115000Y-54229272D01*
X72124371Y-54210521D01*
X72144643Y-54184179D01*
X72153001Y-54175313D01*
X72163255Y-54168130D01*
X72178582Y-54162453D01*
X72202162Y-54158105D01*
X72237173Y-54154909D01*
X72286794Y-54152687D01*
X72354204Y-54151263D01*
X72442581Y-54150459D01*
X72555105Y-54150098D01*
X72694953Y-54150003D01*
X72757937Y-54150000D01*
X72909367Y-54150039D01*
X72909367Y-54150039D01*
G37*
X72909367Y-54150039D02*
X73032226Y-54150274D01*
X73129692Y-54150884D01*
X73204944Y-54152044D01*
X73261162Y-54153932D01*
X73301522Y-54156725D01*
X73329206Y-54160600D01*
X73347390Y-54165734D01*
X73359254Y-54172306D01*
X73367977Y-54180490D01*
X73371231Y-54184179D01*
X73392790Y-54212264D01*
X73400875Y-54228590D01*
X73403689Y-54245977D01*
X73411709Y-54291107D01*
X73424299Y-54360515D01*
X73440824Y-54450736D01*
X73460650Y-54558304D01*
X73483141Y-54679754D01*
X73507662Y-54811621D01*
X73511551Y-54832491D01*
X73542432Y-54996379D01*
X73568603Y-55131194D01*
X73590568Y-55239184D01*
X73608828Y-55322596D01*
X73623889Y-55383676D01*
X73636251Y-55424673D01*
X73646419Y-55447832D01*
X73650458Y-55453076D01*
X73672120Y-55465872D01*
X73719240Y-55488609D01*
X73787766Y-55519503D01*
X73873649Y-55556771D01*
X73972839Y-55598630D01*
X74081287Y-55643298D01*
X74097109Y-55649727D01*
X74229181Y-55702806D01*
X74334883Y-55744089D01*
X74416925Y-55774514D01*
X74478021Y-55795022D01*
X74520882Y-55806554D01*
X74548220Y-55810048D01*
X74556879Y-55809084D01*
X74578895Y-55797986D01*
X74623882Y-55770812D01*
X74688733Y-55729595D01*
X74770337Y-55676364D01*
X74865587Y-55613153D01*
X74971373Y-55541993D01*
X75084586Y-55464915D01*
X75106213Y-55450089D01*
X75614200Y-55101472D01*
X76055500Y-55542517D01*
X76152533Y-55640072D01*
X76241859Y-55730996D01*
X76321106Y-55812789D01*
X76387901Y-55882953D01*
X76439873Y-55938989D01*
X76474650Y-55978398D01*
X76489860Y-55998681D01*
X76490298Y-56000572D01*
X76480100Y-56017090D01*
X76453879Y-56056745D01*
X76413660Y-56116552D01*
X76361467Y-56193525D01*
X76299326Y-56284679D01*
X76229262Y-56387029D01*
X76153298Y-56497589D01*
X76145737Y-56508572D01*
X76056867Y-56638015D01*
X75984671Y-56744164D01*
X75927520Y-56829667D01*
X75883781Y-56897172D01*
X75851825Y-56949327D01*
X75830021Y-56988780D01*
X75816737Y-57018179D01*
X75810342Y-57040171D01*
X75809109Y-57055125D01*
X75815727Y-57083915D01*
X75833478Y-57136831D01*
X75860376Y-57209162D01*
X75894438Y-57296198D01*
X75933678Y-57393228D01*
X75976111Y-57495544D01*
X76019754Y-57598433D01*
X76062621Y-57697187D01*
X76102727Y-57787096D01*
X76138088Y-57863448D01*
X76166719Y-57921534D01*
X76186636Y-57956643D01*
X76191767Y-57963249D01*
X76210025Y-57972922D01*
X76249221Y-57985364D01*
X76311107Y-58000966D01*
X76397434Y-58020117D01*
X76509955Y-58043207D01*
X76650422Y-58070626D01*
X76809045Y-58100609D01*
X76942186Y-58125671D01*
X77065711Y-58149281D01*
X77176090Y-58170737D01*
X77269794Y-58189338D01*
X77343293Y-58204381D01*
X77393057Y-58215166D01*
X77415556Y-58220991D01*
X77416264Y-58221328D01*
X77421225Y-58239120D01*
X77425306Y-58286127D01*
X77428518Y-58362824D01*
X77430876Y-58469682D01*
X77432392Y-58607174D01*
X77433078Y-58775773D01*
X77433125Y-58840055D01*
X77432952Y-58999434D01*
X77432369Y-59129871D01*
X77431274Y-59234173D01*
X77429569Y-59315147D01*
X77427154Y-59375599D01*
X77423928Y-59418337D01*
X77419792Y-59446167D01*
X77414647Y-59461896D01*
X77410840Y-59466856D01*
X77390580Y-59473920D01*
X77342715Y-59485891D01*
X77270875Y-59502003D01*
X77178695Y-59521488D01*
X77069806Y-59543578D01*
X76947841Y-59567505D01*
X76816432Y-59592502D01*
X76815191Y-59592735D01*
X76658685Y-59622560D01*
X76522754Y-59649518D01*
X76409388Y-59673173D01*
X76320578Y-59693090D01*
X76258313Y-59708833D01*
X76224582Y-59719968D01*
X76219532Y-59723028D01*
X76204831Y-59747129D01*
X76181232Y-59796515D01*
X76150523Y-59866575D01*
X76114492Y-59952696D01*
X76074929Y-60050266D01*
X76033622Y-60154674D01*
X75992360Y-60261308D01*
X75952930Y-60365556D01*
X75917123Y-60462805D01*
X75886726Y-60548445D01*
X75863529Y-60617862D01*
X75849319Y-60666446D01*
X75845625Y-60687122D01*
X75847763Y-60708079D01*
X75855447Y-60733253D01*
X75870583Y-60765860D01*
X75895074Y-60809117D01*
X75930825Y-60866241D01*
X75979741Y-60940447D01*
X76043727Y-61034953D01*
X76101723Y-61119593D01*
X76172203Y-61222238D01*
X76240642Y-61322104D01*
X76303847Y-61414517D01*
X76358623Y-61494801D01*
X76401778Y-61558282D01*
X76430102Y-61600263D01*
X76502381Y-61708340D01*
X76066955Y-62143982D01*
X75969883Y-62240629D01*
X75879378Y-62329832D01*
X75797974Y-62409158D01*
X75728208Y-62476177D01*
X75672615Y-62528458D01*
X75633729Y-62563570D01*
X75614086Y-62579083D01*
X75612600Y-62579625D01*
X75595533Y-62570919D01*
X75555474Y-62546164D01*
X75495519Y-62507404D01*
X75418765Y-62456685D01*
X75328309Y-62396050D01*
X75227248Y-62327543D01*
X75131643Y-62262125D01*
X75000799Y-62172656D01*
X74893427Y-62100307D01*
X74807228Y-62043653D01*
X74739905Y-62001264D01*
X74689161Y-61971714D01*
X74652698Y-61953574D01*
X74628218Y-61945418D01*
X74620626Y-61944625D01*
X74584971Y-61952627D01*
X74526177Y-61975506D01*
X74448189Y-62011566D01*
X74358276Y-62057354D01*
X74283911Y-62095921D01*
X74219811Y-62127792D01*
X74170990Y-62150583D01*
X74142461Y-62161909D01*
X74137299Y-62162466D01*
X74130107Y-62146892D01*
X74111790Y-62104351D01*
X74083343Y-62037221D01*
X74045760Y-61947882D01*
X74000038Y-61838712D01*
X73947171Y-61712089D01*
X73944844Y-61706500D01*
X75139187Y-61706500D01*
X75140186Y-61786632D01*
X75144030Y-61843485D01*
X75151993Y-61885489D01*
X75165346Y-61921075D01*
X75174242Y-61938722D01*
X75226973Y-62012538D01*
X75299371Y-62081192D01*
X75380183Y-62135044D01*
X75428290Y-62156331D01*
X75493035Y-62170582D01*
X75576270Y-62177663D01*
X75667294Y-62177811D01*
X75755404Y-62171263D01*
X75829898Y-62158256D01*
X75865468Y-62146659D01*
X75925000Y-62120870D01*
X75925000Y-61912340D01*
X75841656Y-61954962D01*
X75761938Y-61985062D01*
X75677917Y-61998967D01*
X75598825Y-61996364D01*
X75533894Y-61976940D01*
X75516053Y-61965985D01*
X75450926Y-61900069D01*
X75407492Y-61818648D01*
X75395167Y-61770869D01*
X75392326Y-61666206D01*
X75417302Y-61571345D01*
X75468479Y-61490618D01*
X75516053Y-61447014D01*
X75573765Y-61421566D01*
X75648904Y-61413050D01*
X75732237Y-61421152D01*
X75814532Y-61445560D01*
X75841656Y-61458037D01*
X75925000Y-61500659D01*
X75925000Y-61292129D01*
X75865468Y-61266518D01*
X75797546Y-61247031D01*
X75710253Y-61235617D01*
X75615005Y-61232603D01*
X75523221Y-61238313D01*
X75446318Y-61253071D01*
X75441730Y-61254469D01*
X75349597Y-61297220D01*
X75263960Y-61361936D01*
X75195270Y-61440031D01*
X75174242Y-61474277D01*
X75157782Y-61509796D01*
X75147338Y-61547603D01*
X75141635Y-61596127D01*
X75139401Y-61663800D01*
X75139187Y-61706500D01*
X73944844Y-61706500D01*
X73888154Y-61570393D01*
X73823982Y-61416001D01*
X73755650Y-61251293D01*
X73707085Y-61134053D01*
X73625200Y-60936160D01*
X73554729Y-60765515D01*
X73494894Y-60620052D01*
X73444917Y-60497702D01*
X73404021Y-60396399D01*
X73371427Y-60314076D01*
X73346358Y-60248664D01*
X73328037Y-60198096D01*
X73315685Y-60160306D01*
X73308525Y-60133225D01*
X73305779Y-60114787D01*
X73306669Y-60102923D01*
X73310417Y-60095567D01*
X73314900Y-60091576D01*
X73339874Y-60073830D01*
X73384087Y-60042466D01*
X73440869Y-60002217D01*
X73492238Y-59965823D01*
X73659807Y-59830278D01*
X73799216Y-59680510D01*
X73911308Y-59515218D01*
X73996923Y-59333102D01*
X74004030Y-59309375D01*
X76480625Y-59309375D01*
X76755320Y-59309375D01*
X76855754Y-59309148D01*
X76930250Y-59308030D01*
X76984620Y-59305361D01*
X77024677Y-59300481D01*
X77056231Y-59292730D01*
X77085095Y-59281449D01*
X77111021Y-59269008D01*
X77179035Y-59223730D01*
X77221076Y-59166011D01*
X77240401Y-59090304D01*
X77242565Y-59045038D01*
X77231901Y-58969130D01*
X77202926Y-58903785D01*
X77159980Y-58857562D01*
X77142315Y-58847422D01*
X77105432Y-58830617D01*
X77158153Y-58777896D01*
X77189972Y-58741966D01*
X77205626Y-58708087D01*
X77210590Y-58661951D01*
X77210815Y-58640243D01*
X77198238Y-58549345D01*
X77160772Y-58477913D01*
X77098609Y-58426305D01*
X77096483Y-58425131D01*
X77072024Y-58414383D01*
X77040231Y-58406337D01*
X76996022Y-58400479D01*
X76934316Y-58396293D01*
X76850031Y-58393267D01*
X76762406Y-58391324D01*
X76480625Y-58386053D01*
X76480625Y-59309375D01*
X74004030Y-59309375D01*
X74056902Y-59132862D01*
X74068959Y-59074740D01*
X74079247Y-58985234D01*
X74081762Y-58875814D01*
X74077100Y-58757195D01*
X74065854Y-58640091D01*
X74048620Y-58535217D01*
X74036193Y-58484488D01*
X73966650Y-58297719D01*
X73870816Y-58125220D01*
X73751451Y-57969575D01*
X73611315Y-57833366D01*
X73453171Y-57719176D01*
X73279780Y-57629587D01*
X73093902Y-57567183D01*
X73043102Y-57555570D01*
X72936794Y-57540321D01*
X72812449Y-57533015D01*
X72682772Y-57533653D01*
X72560466Y-57542234D01*
X72472772Y-57555570D01*
X72284058Y-57610368D01*
X72107103Y-57693032D01*
X71944666Y-57800979D01*
X71799509Y-57931627D01*
X71674393Y-58082393D01*
X71572079Y-58250694D01*
X71495328Y-58433947D01*
X71479681Y-58484488D01*
X71459264Y-58577442D01*
X71444493Y-58688802D01*
X71435962Y-58807855D01*
X71434266Y-58923887D01*
X71440000Y-59026183D01*
X71446915Y-59074740D01*
X71500027Y-59280166D01*
X71578544Y-59467112D01*
X71683307Y-59636879D01*
X71815158Y-59790765D01*
X71974938Y-59930073D01*
X72023636Y-59965823D01*
X72085751Y-60009833D01*
X72140781Y-60048844D01*
X72182054Y-60078127D01*
X72200974Y-60091576D01*
X72206435Y-60096829D01*
X72209652Y-60104952D01*
X72209849Y-60118014D01*
X72206248Y-60138081D01*
X72198072Y-60167220D01*
X72184541Y-60207500D01*
X72164880Y-60260987D01*
X72138309Y-60329748D01*
X72104051Y-60415852D01*
X72061329Y-60521365D01*
X72009364Y-60648355D01*
X71947379Y-60798890D01*
X71874596Y-60975036D01*
X71808789Y-61134053D01*
X71738187Y-61304442D01*
X71671066Y-61466139D01*
X71608419Y-61616766D01*
X71551243Y-61753945D01*
X71500531Y-61875297D01*
X71457280Y-61978442D01*
X71422484Y-62061003D01*
X71397138Y-62120601D01*
X71382237Y-62154857D01*
X71378575Y-62162466D01*
X71362667Y-62158093D01*
X71323842Y-62141006D01*
X71267115Y-62113590D01*
X71197498Y-62078231D01*
X71157598Y-62057354D01*
X71064806Y-62010164D01*
X70987396Y-61974518D01*
X70929313Y-61952109D01*
X70895248Y-61944625D01*
X70875331Y-61948825D01*
X70844444Y-61962379D01*
X70800291Y-61986713D01*
X70740574Y-62023255D01*
X70662996Y-62073432D01*
X70565260Y-62138673D01*
X70445066Y-62220403D01*
X70384231Y-62262125D01*
X70276379Y-62335882D01*
X70176397Y-62403575D01*
X70087381Y-62463157D01*
X70012429Y-62512586D01*
X69954637Y-62549815D01*
X69917103Y-62572802D01*
X69903274Y-62579625D01*
X69888203Y-62568747D01*
X69853331Y-62537736D01*
X69801194Y-62489021D01*
X69734327Y-62425035D01*
X69655265Y-62348206D01*
X69566544Y-62260967D01*
X69470698Y-62165748D01*
X69448919Y-62143982D01*
X69013493Y-61708340D01*
X69085772Y-61600263D01*
X69114123Y-61558243D01*
X69142482Y-61516525D01*
X69527375Y-61516525D01*
X69536096Y-61594350D01*
X69564130Y-61657427D01*
X69614280Y-61708279D01*
X69689351Y-61749431D01*
X69792147Y-61783407D01*
X69835953Y-61794245D01*
X69911014Y-61813047D01*
X69960611Y-61829898D01*
X69990657Y-61847704D01*
X70007063Y-61869373D01*
X70011366Y-61880508D01*
X70011116Y-61926243D01*
X69982794Y-61965450D01*
X69933137Y-61991936D01*
X69869267Y-62000673D01*
X69787951Y-61993425D01*
X69698313Y-61971593D01*
X69627752Y-61945017D01*
X69584952Y-61926562D01*
X69555915Y-61914938D01*
X69549169Y-61912875D01*
X69544497Y-61927015D01*
X69542656Y-61962822D01*
X69543263Y-62010377D01*
X69545933Y-62059760D01*
X69550281Y-62101051D01*
X69555923Y-62124332D01*
X69557436Y-62126143D01*
X69614947Y-62149705D01*
X69694790Y-62166551D01*
X69788216Y-62176440D01*
X69886475Y-62179132D01*
X69980817Y-62174387D01*
X70062491Y-62161966D01*
X70122687Y-62141658D01*
X70191076Y-62089151D01*
X70235796Y-62016035D01*
X70256127Y-61923643D01*
X70257363Y-61892242D01*
X70251792Y-61813978D01*
X70232201Y-61751934D01*
X70195015Y-61702743D01*
X70136661Y-61663034D01*
X70053565Y-61629439D01*
X69947195Y-61599810D01*
X69858874Y-61576116D01*
X69799197Y-61554024D01*
X69765296Y-61531278D01*
X69754299Y-61505624D01*
X69763338Y-61474807D01*
X69771233Y-61461574D01*
X69811053Y-61429137D01*
X69875262Y-61413691D01*
X69961207Y-61415586D01*
X70031471Y-61427120D01*
X70089991Y-61440215D01*
X70138800Y-61452423D01*
X70166343Y-61460767D01*
X70181298Y-61463364D01*
X70189691Y-61452157D01*
X70193354Y-61421047D01*
X70194125Y-61368320D01*
X70194125Y-61264868D01*
X70080484Y-61245700D01*
X70005544Y-61237011D01*
X69917883Y-61232590D01*
X69836354Y-61233381D01*
X69835629Y-61233419D01*
X69762707Y-61239082D01*
X69711052Y-61248666D01*
X69670209Y-61264769D01*
X69642189Y-61281486D01*
X69578462Y-61340666D01*
X69540416Y-61417478D01*
X69527386Y-61513285D01*
X69527375Y-61516525D01*
X69142482Y-61516525D01*
X69157287Y-61494748D01*
X69212071Y-61414453D01*
X69275280Y-61322033D01*
X69343722Y-61222163D01*
X69414151Y-61119593D01*
X69490478Y-61008045D01*
X69550331Y-60919170D01*
X69595613Y-60849751D01*
X69628230Y-60796572D01*
X69650085Y-60756416D01*
X69663083Y-60726068D01*
X69669130Y-60702310D01*
X69670250Y-60687122D01*
X69664449Y-60658364D01*
X69648241Y-60605110D01*
X69623414Y-60531972D01*
X69591756Y-60443563D01*
X69555056Y-60344494D01*
X69515102Y-60239377D01*
X69473684Y-60132825D01*
X69432590Y-60029448D01*
X69393609Y-59933860D01*
X69358529Y-59850672D01*
X69329138Y-59784495D01*
X69307227Y-59739942D01*
X69296342Y-59723028D01*
X69274555Y-59713854D01*
X69223439Y-59699898D01*
X69144984Y-59681594D01*
X69041180Y-59659379D01*
X68914016Y-59633687D01*
X68765482Y-59604954D01*
X68700683Y-59592735D01*
X68569204Y-59567732D01*
X68447136Y-59543791D01*
X68338110Y-59521681D01*
X68245759Y-59502168D01*
X68173716Y-59486022D01*
X68125613Y-59474009D01*
X68105083Y-59466896D01*
X68105034Y-59466856D01*
X68099200Y-59457312D01*
X68094440Y-59437435D01*
X68090652Y-59404419D01*
X68087738Y-59355457D01*
X68086281Y-59309375D01*
X68257375Y-59309375D01*
X68495500Y-59309375D01*
X68495500Y-58991875D01*
X68626468Y-58991786D01*
X68730198Y-58987921D01*
X68809951Y-58975313D01*
X68872720Y-58952205D01*
X68925502Y-58916841D01*
X68925790Y-58916599D01*
X68981151Y-58852215D01*
X69011741Y-58771519D01*
X69019375Y-58690249D01*
X69008088Y-58593436D01*
X68973244Y-58515870D01*
X68925790Y-58463900D01*
X68889677Y-58437526D01*
X68849363Y-58417945D01*
X68799629Y-58404219D01*
X68735257Y-58395411D01*
X68651029Y-58390582D01*
X68541725Y-58388795D01*
X68507406Y-58388713D01*
X68257375Y-58388625D01*
X68257375Y-59309375D01*
X68086281Y-59309375D01*
X68085597Y-59287743D01*
X68084129Y-59198469D01*
X68083235Y-59084829D01*
X68082815Y-58944016D01*
X68082750Y-58840055D01*
X68083158Y-58660806D01*
X68084391Y-58512825D01*
X68086461Y-58395637D01*
X68089383Y-58308771D01*
X68093168Y-58251755D01*
X68097829Y-58224114D01*
X68099610Y-58221328D01*
X68118540Y-58216157D01*
X68165166Y-58205940D01*
X68235958Y-58191378D01*
X68327386Y-58173174D01*
X68435919Y-58152028D01*
X68558029Y-58128644D01*
X68690186Y-58103722D01*
X68706829Y-58100609D01*
X68875085Y-58068778D01*
X69013753Y-58041641D01*
X69124586Y-58018808D01*
X69209334Y-57999890D01*
X69269749Y-57984498D01*
X69307585Y-57972240D01*
X69324107Y-57963249D01*
X69339931Y-57938779D01*
X69365274Y-57889425D01*
X69398150Y-57819899D01*
X69436575Y-57734911D01*
X69478563Y-57639170D01*
X69522131Y-57537387D01*
X69565293Y-57434271D01*
X69606065Y-57334534D01*
X69642462Y-57242885D01*
X69672499Y-57164035D01*
X69694191Y-57102693D01*
X69705555Y-57063570D01*
X69706765Y-57055125D01*
X69704976Y-57037372D01*
X69697694Y-57014481D01*
X69683289Y-56983803D01*
X69660129Y-56942692D01*
X69626583Y-56888499D01*
X69581022Y-56818576D01*
X69521814Y-56730275D01*
X69447328Y-56620949D01*
X69370137Y-56508572D01*
X69293711Y-56397377D01*
X69222989Y-56294106D01*
X69159996Y-56201742D01*
X69106757Y-56123272D01*
X69065295Y-56061681D01*
X69037636Y-56019953D01*
X69025805Y-56001074D01*
X69025576Y-56000572D01*
X69035001Y-55985975D01*
X69064644Y-55951566D01*
X69112133Y-55899845D01*
X69175096Y-55833310D01*
X69251161Y-55754460D01*
X69337957Y-55665793D01*
X69424247Y-55578750D01*
X69622625Y-55578750D01*
X69622625Y-56499500D01*
X69860750Y-56499500D01*
X69860750Y-56439141D01*
X75274125Y-56439141D01*
X75547968Y-56432930D01*
X75650118Y-56430246D01*
X75726299Y-56427035D01*
X75782291Y-56422593D01*
X75823875Y-56416213D01*
X75856831Y-56407193D01*
X75886939Y-56394827D01*
X75895987Y-56390502D01*
X75989183Y-56331134D01*
X76065736Y-56254754D01*
X76108848Y-56187809D01*
X76124787Y-56146870D01*
X76134309Y-56097081D01*
X76138662Y-56029754D01*
X76139312Y-55975625D01*
X76135379Y-55875923D01*
X76121608Y-55798828D01*
X76095038Y-55735951D01*
X76052712Y-55678903D01*
X76024274Y-55649516D01*
X75977714Y-55607681D01*
X75932056Y-55576099D01*
X75881674Y-55553219D01*
X75820943Y-55537491D01*
X75744237Y-55527367D01*
X75645931Y-55521297D01*
X75547968Y-55518319D01*
X75274125Y-55512108D01*
X75274125Y-56439141D01*
X69860750Y-56439141D01*
X69860750Y-56118500D01*
X70241750Y-56118500D01*
X70241750Y-55943875D01*
X69860750Y-55943875D01*
X69860750Y-55753375D01*
X70273500Y-55753375D01*
X70273500Y-55578750D01*
X69622625Y-55578750D01*
X69424247Y-55578750D01*
X69433111Y-55569809D01*
X69460374Y-55542517D01*
X69901674Y-55101472D01*
X70409661Y-55450089D01*
X70523913Y-55528043D01*
X70631315Y-55600458D01*
X70728760Y-55665302D01*
X70813138Y-55720542D01*
X70881340Y-55764148D01*
X70930257Y-55794088D01*
X70956782Y-55808330D01*
X70958995Y-55809084D01*
X70979622Y-55809238D01*
X71014422Y-55801822D01*
X71066107Y-55785897D01*
X71137391Y-55760522D01*
X71230984Y-55724758D01*
X71349599Y-55677665D01*
X71418765Y-55649727D01*
X71528200Y-55604802D01*
X71628956Y-55562427D01*
X71716980Y-55524386D01*
X71788223Y-55492463D01*
X71838631Y-55468444D01*
X71864156Y-55454111D01*
X71865520Y-55452972D01*
X71874857Y-55437281D01*
X71886116Y-55404994D01*
X71899805Y-55353837D01*
X71916436Y-55281539D01*
X71936515Y-55185828D01*
X71960554Y-55064430D01*
X71989060Y-54915074D01*
X72004427Y-54833069D01*
X72029197Y-54699972D01*
X72052034Y-54576734D01*
X72072299Y-54466828D01*
X72089358Y-54373727D01*
X72095388Y-54340500D01*
X72289625Y-54340500D01*
X72289625Y-55150125D01*
X72479392Y-55150125D01*
X72488062Y-54588127D01*
X72664032Y-54983437D01*
X72820092Y-54983437D01*
X72996062Y-54588127D01*
X73004732Y-55150125D01*
X73194500Y-55150125D01*
X73194500Y-54340500D01*
X73061900Y-54340499D01*
X72929301Y-54340499D01*
X72845453Y-54527031D01*
X72812947Y-54599086D01*
X72784530Y-54661591D01*
X72763053Y-54708313D01*
X72751363Y-54733020D01*
X72750766Y-54734187D01*
X72740573Y-54728681D01*
X72720309Y-54696921D01*
X72691743Y-54642112D01*
X72656646Y-54567459D01*
X72647763Y-54547656D01*
X72555601Y-54340500D01*
X72289625Y-54340500D01*
X72095388Y-54340500D01*
X72102575Y-54300904D01*
X72111313Y-54251831D01*
X72114936Y-54229981D01*
X72115000Y-54229272D01*
X72124371Y-54210521D01*
X72144643Y-54184179D01*
X72153001Y-54175313D01*
X72163255Y-54168130D01*
X72178582Y-54162453D01*
X72202162Y-54158105D01*
X72237173Y-54154909D01*
X72286794Y-54152687D01*
X72354204Y-54151263D01*
X72442581Y-54150459D01*
X72555105Y-54150098D01*
X72694953Y-54150003D01*
X72757937Y-54150000D01*
X72909367Y-54150039D01*
G36*
X68650666Y-58571948D02*
G01*
X68712482Y-58597175D01*
X68748575Y-58637625D01*
X68757508Y-58691994D01*
X68749258Y-58730667D01*
X68721121Y-58775958D01*
X68670759Y-58804142D01*
X68595531Y-58816457D01*
X68564568Y-58817250D01*
X68495500Y-58817250D01*
X68495500Y-58563250D01*
X68564568Y-58563250D01*
X68650666Y-58571948D01*
X68650666Y-58571948D01*
G37*
X68650666Y-58571948D02*
X68712482Y-58597175D01*
X68748575Y-58637625D01*
X68757508Y-58691994D01*
X68749258Y-58730667D01*
X68721121Y-58775958D01*
X68670759Y-58804142D01*
X68595531Y-58816457D01*
X68564568Y-58817250D01*
X68495500Y-58817250D01*
X68495500Y-58563250D01*
X68564568Y-58563250D01*
X68650666Y-58571948D01*
G36*
X76831255Y-58916283D02*
G01*
X76907190Y-58925623D01*
X76956501Y-58942896D01*
X76983986Y-58971479D01*
X76994441Y-59014751D01*
X76994975Y-59031562D01*
X76988798Y-59080039D01*
X76967070Y-59112786D01*
X76924994Y-59133183D01*
X76857771Y-59144606D01*
X76831255Y-59146841D01*
X76718750Y-59154891D01*
X76718750Y-58908233D01*
X76831255Y-58916283D01*
X76831255Y-58916283D01*
G37*
X76831255Y-58916283D02*
X76907190Y-58925623D01*
X76956501Y-58942896D01*
X76983986Y-58971479D01*
X76994441Y-59014751D01*
X76994975Y-59031562D01*
X76988798Y-59080039D01*
X76967070Y-59112786D01*
X76924994Y-59133183D01*
X76857771Y-59144606D01*
X76831255Y-59146841D01*
X76718750Y-59154891D01*
X76718750Y-58908233D01*
X76831255Y-58916283D01*
G36*
X76816361Y-58550619D02*
G01*
X76876768Y-58557615D01*
X76915080Y-58569984D01*
X76940880Y-58591000D01*
X76943361Y-58593973D01*
X76964783Y-58626866D01*
X76972750Y-58650562D01*
X76963428Y-58676867D01*
X76943361Y-58707151D01*
X76918350Y-58729314D01*
X76881880Y-58742473D01*
X76824367Y-58749899D01*
X76816361Y-58750505D01*
X76718750Y-58757566D01*
X76718750Y-58543558D01*
X76816361Y-58550619D01*
X76816361Y-58550619D01*
G37*
X76816361Y-58550619D02*
X76876768Y-58557615D01*
X76915080Y-58569984D01*
X76940880Y-58591000D01*
X76943361Y-58593973D01*
X76964783Y-58626866D01*
X76972750Y-58650562D01*
X76963428Y-58676867D01*
X76943361Y-58707151D01*
X76918350Y-58729314D01*
X76881880Y-58742473D01*
X76824367Y-58749899D01*
X76816361Y-58750505D01*
X76718750Y-58757566D01*
X76718750Y-58543558D01*
X76816361Y-58550619D01*
G36*
X75608855Y-55695449D02*
G01*
X75713172Y-55715288D01*
X75791017Y-55751309D01*
X75844231Y-55805323D01*
X75874651Y-55879137D01*
X75884089Y-55966227D01*
X75874827Y-56065264D01*
X75843765Y-56142289D01*
X75789507Y-56198784D01*
X75710654Y-56236229D01*
X75610668Y-56255611D01*
X75512250Y-56265897D01*
X75512250Y-55685352D01*
X75608855Y-55695449D01*
X75608855Y-55695449D01*
G37*
X75608855Y-55695449D02*
X75713172Y-55715288D01*
X75791017Y-55751309D01*
X75844231Y-55805323D01*
X75874651Y-55879137D01*
X75884089Y-55966227D01*
X75874827Y-56065264D01*
X75843765Y-56142289D01*
X75789507Y-56198784D01*
X75710654Y-56236229D01*
X75610668Y-56255611D01*
X75512250Y-56265897D01*
X75512250Y-55685352D01*
X75608855Y-55695449D01*
D12*
X65060000Y-71250000D02*
X65060000Y-67800000D01*
X65060000Y-71250000D02*
X65060000Y-73200000D01*
X59940000Y-71250000D02*
X59940000Y-69300000D01*
X59940000Y-71250000D02*
X59940000Y-73200000D01*
X44250000Y-62310000D02*
X47700000Y-62310000D01*
X44250000Y-62310000D02*
X42300000Y-62310000D01*
X44250000Y-52190000D02*
X46200000Y-52190000D01*
X44250000Y-52190000D02*
X42300000Y-52190000D01*
X71250000Y-43935000D02*
X74700000Y-43935000D01*
X71250000Y-43935000D02*
X69300000Y-43935000D01*
X71250000Y-35065000D02*
X73200000Y-35065000D01*
X71250000Y-35065000D02*
X69300000Y-35065000D01*
X70450000Y-72000000D02*
G75*
G03X70450000Y-72000000I-1450000J0D01*
G01*
X77450000Y-75500000D02*
G75*
G03X77450000Y-75500000I-1450000J0D01*
G01*
X70450000Y-75500000D02*
G75*
G03X70450000Y-75500000I-1450000J0D01*
G01*
X73950000Y-74000000D02*
G75*
G03X73950000Y-74000000I-1450000J0D01*
G01*
X56950000Y-49000000D02*
G75*
G03X56950000Y-49000000I-1450000J0D01*
G01*
X63741422Y-56710000D02*
X64258578Y-56710000D01*
X63741422Y-55290000D02*
X64258578Y-55290000D01*
X54741422Y-74210000D02*
X55258578Y-74210000D01*
X54741422Y-72790000D02*
X55258578Y-72790000D01*
X60210000Y-79258578D02*
X60210000Y-78741422D01*
X58790000Y-79258578D02*
X58790000Y-78741422D01*
X60241422Y-67210000D02*
X60758578Y-67210000D01*
X60241422Y-65790000D02*
X60758578Y-65790000D01*
X60241422Y-65210000D02*
X60758578Y-65210000D01*
X60241422Y-63790000D02*
X60758578Y-63790000D01*
X55258578Y-68790000D02*
X54741422Y-68790000D01*
X55258578Y-70210000D02*
X54741422Y-70210000D01*
X63741422Y-67210000D02*
X64258578Y-67210000D01*
X63741422Y-65790000D02*
X64258578Y-65790000D01*
X55258578Y-65790000D02*
X54741422Y-65790000D01*
X55258578Y-67210000D02*
X54741422Y-67210000D01*
X54491422Y-56210000D02*
X55008578Y-56210000D01*
X54491422Y-54790000D02*
X55008578Y-54790000D01*
X59947936Y-27790000D02*
X64052064Y-27790000D01*
X59947936Y-21190000D02*
X64052064Y-21190000D01*
X59947936Y-22790000D02*
X64052064Y-22790000D01*
X59947936Y-26210000D02*
X64052064Y-26210000D01*
X55008578Y-52540000D02*
X54491422Y-52540000D01*
X55008578Y-53960000D02*
X54491422Y-53960000D01*
X59552064Y-30290000D02*
X55447936Y-30290000D01*
X59552064Y-33710000D02*
X55447936Y-33710000D01*
X68552064Y-30290000D02*
X64447936Y-30290000D01*
X68552064Y-33710000D02*
X64447936Y-33710000D01*
X63241422Y-37210000D02*
X63758578Y-37210000D01*
X63241422Y-35790000D02*
X63758578Y-35790000D01*
X72241422Y-70210000D02*
X72758578Y-70210000D01*
X72241422Y-68790000D02*
X72758578Y-68790000D01*
X58741422Y-37210000D02*
X59258578Y-37210000D01*
X58741422Y-35790000D02*
X59258578Y-35790000D01*
X59258578Y-39290000D02*
X58741422Y-39290000D01*
X59258578Y-40710000D02*
X58741422Y-40710000D01*
X87460000Y-51508578D02*
X87460000Y-50991422D01*
X86040000Y-51508578D02*
X86040000Y-50991422D01*
X63758578Y-39290000D02*
X63241422Y-39290000D01*
X63758578Y-40710000D02*
X63241422Y-40710000D01*
X63241422Y-44210000D02*
X63758578Y-44210000D01*
X63241422Y-42790000D02*
X63758578Y-42790000D01*
X58741422Y-44210000D02*
X59258578Y-44210000D01*
X58741422Y-42790000D02*
X59258578Y-42790000D01*
X77710000Y-35821078D02*
X77710000Y-35303922D01*
X76290000Y-35821078D02*
X76290000Y-35303922D01*
X77710000Y-39758578D02*
X77710000Y-39241422D01*
X76290000Y-39758578D02*
X76290000Y-39241422D01*
X63240000Y-57920000D02*
X64700000Y-57920000D01*
X63240000Y-61080000D02*
X65400000Y-61080000D01*
X63240000Y-61080000D02*
X63240000Y-60150000D01*
X63240000Y-57920000D02*
X63240000Y-58850000D01*
X61260000Y-61080000D02*
X59800000Y-61080000D01*
X61260000Y-57920000D02*
X59100000Y-57920000D01*
X61260000Y-57920000D02*
X61260000Y-58850000D01*
X61260000Y-61080000D02*
X61260000Y-60150000D01*
X49990000Y-54920000D02*
X51450000Y-54920000D01*
X49990000Y-58080000D02*
X52150000Y-58080000D01*
X49990000Y-58080000D02*
X49990000Y-57150000D01*
X49990000Y-54920000D02*
X49990000Y-55850000D01*
X49990000Y-51170000D02*
X51450000Y-51170000D01*
X49990000Y-54330000D02*
X52150000Y-54330000D01*
X49990000Y-54330000D02*
X49990000Y-53400000D01*
X49990000Y-51170000D02*
X49990000Y-52100000D01*
X75740000Y-67920000D02*
X77200000Y-67920000D01*
X75740000Y-71080000D02*
X77900000Y-71080000D01*
X75740000Y-71080000D02*
X75740000Y-70150000D01*
X75740000Y-67920000D02*
X75740000Y-68850000D01*
X53740000Y-38420000D02*
X55200000Y-38420000D01*
X53740000Y-41580000D02*
X55900000Y-41580000D01*
X53740000Y-41580000D02*
X53740000Y-40650000D01*
X53740000Y-38420000D02*
X53740000Y-39350000D01*
X86510000Y-48830000D02*
X85050000Y-48830000D01*
X86510000Y-45670000D02*
X84350000Y-45670000D01*
X86510000Y-45670000D02*
X86510000Y-46600000D01*
X86510000Y-48830000D02*
X86510000Y-47900000D01*
X53740000Y-42920000D02*
X55200000Y-42920000D01*
X53740000Y-46080000D02*
X55900000Y-46080000D01*
X53740000Y-46080000D02*
X53740000Y-45150000D01*
X53740000Y-42920000D02*
X53740000Y-43850000D01*
X41050000Y-92850000D02*
X37050000Y-92850000D01*
X41050000Y-89250000D02*
X41050000Y-92850000D01*
X37050000Y-89250000D02*
X41050000Y-89250000D01*
X37050000Y-92850000D02*
X37050000Y-89250000D01*
X41050000Y-92850000D02*
X37050000Y-89250000D01*
X39050000Y-92850000D02*
X39050000Y-97050000D01*
X39050000Y-85050000D02*
X39050000Y-89250000D01*
X35650000Y-91050000D02*
X35650000Y-94650000D01*
X42450000Y-91050000D02*
X42450000Y-94650000D01*
X42450000Y-94650000D02*
X35650000Y-94650000D01*
X43950000Y-91050000D02*
X48550000Y-88550000D01*
X42450000Y-91050000D02*
X43950000Y-91050000D01*
X39050000Y-85050000D02*
X36550000Y-85050000D01*
X35650000Y-91050000D02*
X34850000Y-91050000D01*
X36550000Y-97050000D02*
X39050000Y-97050000D01*
X47150000Y-86800000D02*
X47150000Y-89300000D01*
X47150000Y-95200000D02*
X47150000Y-92750000D01*
X51400000Y-98800000D02*
X31600000Y-98800000D01*
X51400000Y-83200000D02*
X51400000Y-98800000D01*
X31600000Y-83200000D02*
X51400000Y-83200000D01*
X31600000Y-83200000D02*
X31600000Y-89800000D01*
X31600000Y-92200000D02*
X31600000Y-98800000D01*
X68550000Y-92850000D02*
X64550000Y-92850000D01*
X68550000Y-89250000D02*
X68550000Y-92850000D01*
X64550000Y-89250000D02*
X68550000Y-89250000D01*
X64550000Y-92850000D02*
X64550000Y-89250000D01*
X68550000Y-92850000D02*
X64550000Y-89250000D01*
X66550000Y-92850000D02*
X66550000Y-97050000D01*
X66550000Y-85050000D02*
X66550000Y-89250000D01*
X63150000Y-91050000D02*
X63150000Y-94650000D01*
X69950000Y-91050000D02*
X69950000Y-94650000D01*
X69950000Y-94650000D02*
X63150000Y-94650000D01*
X71450000Y-91050000D02*
X76050000Y-88550000D01*
X69950000Y-91050000D02*
X71450000Y-91050000D01*
X66550000Y-85050000D02*
X64050000Y-85050000D01*
X63150000Y-91050000D02*
X62350000Y-91050000D01*
X64050000Y-97050000D02*
X66550000Y-97050000D01*
X74650000Y-86800000D02*
X74650000Y-89300000D01*
X74650000Y-95200000D02*
X74650000Y-92750000D01*
X78900000Y-98800000D02*
X59100000Y-98800000D01*
X78900000Y-83200000D02*
X78900000Y-98800000D01*
X59100000Y-83200000D02*
X78900000Y-83200000D01*
X59100000Y-83200000D02*
X59100000Y-89800000D01*
X59100000Y-92200000D02*
X59100000Y-98800000D01*
X51600000Y-74850000D02*
X31700000Y-74850000D01*
X31700000Y-74850000D02*
X31700000Y-69650000D01*
X31700000Y-69650000D02*
X51600000Y-69650000D01*
X51600000Y-69650000D02*
X51600000Y-74850000D01*
X50700000Y-69450000D02*
X51800000Y-69450000D01*
X51800000Y-69450000D02*
X51800000Y-70450000D01*
X51600000Y-68100000D02*
X31700000Y-68100000D01*
X31700000Y-68100000D02*
X31700000Y-62900000D01*
X31700000Y-62900000D02*
X51600000Y-62900000D01*
X51600000Y-62900000D02*
X51600000Y-68100000D01*
X50700000Y-62700000D02*
X51800000Y-62700000D01*
X51800000Y-62700000D02*
X51800000Y-63700000D01*
X41300000Y-30600000D02*
X37300000Y-30600000D01*
X41300000Y-27000000D02*
X41300000Y-30600000D01*
X37300000Y-27000000D02*
X41300000Y-27000000D01*
X37300000Y-30600000D02*
X37300000Y-27000000D01*
X41300000Y-30600000D02*
X37300000Y-27000000D01*
X39300000Y-30600000D02*
X39300000Y-34800000D01*
X39300000Y-22800000D02*
X39300000Y-27000000D01*
X35900000Y-28800000D02*
X35900000Y-32400000D01*
X42700000Y-28800000D02*
X42700000Y-32400000D01*
X42700000Y-32400000D02*
X35900000Y-32400000D01*
X44200000Y-28800000D02*
X48800000Y-26300000D01*
X42700000Y-28800000D02*
X44200000Y-28800000D01*
X39300000Y-22800000D02*
X36800000Y-22800000D01*
X35900000Y-28800000D02*
X35100000Y-28800000D01*
X36800000Y-34800000D02*
X39300000Y-34800000D01*
X47400000Y-24550000D02*
X47400000Y-27050000D01*
X47400000Y-32950000D02*
X47400000Y-30500000D01*
X51650000Y-36550000D02*
X31850000Y-36550000D01*
X51650000Y-20950000D02*
X51650000Y-36550000D01*
X31850000Y-20950000D02*
X51650000Y-20950000D01*
X31850000Y-20950000D02*
X31850000Y-27550000D01*
X31850000Y-29950000D02*
X31850000Y-36550000D01*
X51600000Y-43350000D02*
X31700000Y-43350000D01*
X31700000Y-43350000D02*
X31700000Y-38150000D01*
X31700000Y-38150000D02*
X51600000Y-38150000D01*
X51600000Y-38150000D02*
X51600000Y-43350000D01*
X50700000Y-37950000D02*
X51800000Y-37950000D01*
X51800000Y-37950000D02*
X51800000Y-38950000D01*
X51600000Y-50100000D02*
X31700000Y-50100000D01*
X31700000Y-50100000D02*
X31700000Y-44900000D01*
X31700000Y-44900000D02*
X51600000Y-44900000D01*
X51600000Y-44900000D02*
X51600000Y-50100000D01*
X50700000Y-44700000D02*
X51800000Y-44700000D01*
X51800000Y-44700000D02*
X51800000Y-45700000D01*
X89300000Y-88800000D02*
X89300000Y-88400000D01*
X88660000Y-88800000D02*
X89300000Y-88800000D01*
X84992000Y-82258000D02*
X85388000Y-82653000D01*
X82346000Y-79612000D02*
X82726000Y-79992000D01*
X85274000Y-82007000D02*
X85654000Y-82387000D01*
X82612000Y-79346000D02*
X83008000Y-79741000D01*
X85281000Y-87548000D02*
X85388000Y-87654000D01*
X82346000Y-84612000D02*
X82453000Y-84719000D01*
X85547000Y-87282000D02*
X85654000Y-87388000D01*
X82612000Y-84346000D02*
X82719000Y-84453000D01*
X79940000Y-78440000D02*
X89060000Y-78440000D01*
X79940000Y-88560000D02*
X89060000Y-88560000D01*
X89060000Y-88560000D02*
X89060000Y-78440000D01*
X79940000Y-88560000D02*
X79940000Y-78440000D01*
X87500000Y-88560000D02*
X87500000Y-78440000D01*
X88600000Y-88560000D02*
X88600000Y-78440000D01*
X86180000Y-81000000D02*
G75*
G03X86180000Y-81000000I-2180000J0D01*
G01*
X86180000Y-86000000D02*
G75*
G03X86180000Y-86000000I-2180000J0D01*
G01*
X89300000Y-44800000D02*
X89300000Y-44400000D01*
X88660000Y-44800000D02*
X89300000Y-44800000D01*
X84992000Y-33258000D02*
X85388000Y-33653000D01*
X82346000Y-30612000D02*
X82726000Y-30992000D01*
X85274000Y-33007000D02*
X85654000Y-33387000D01*
X82612000Y-30346000D02*
X83008000Y-30741000D01*
X84992000Y-38258000D02*
X85388000Y-38653000D01*
X82346000Y-35612000D02*
X82726000Y-35992000D01*
X85274000Y-38007000D02*
X85654000Y-38387000D01*
X82612000Y-35346000D02*
X83008000Y-35741000D01*
X85281000Y-43548000D02*
X85388000Y-43654000D01*
X82346000Y-40612000D02*
X82453000Y-40719000D01*
X85547000Y-43282000D02*
X85654000Y-43388000D01*
X82612000Y-40346000D02*
X82719000Y-40453000D01*
X79940000Y-29440000D02*
X89060000Y-29440000D01*
X79940000Y-44560000D02*
X89060000Y-44560000D01*
X89060000Y-44560000D02*
X89060000Y-29440000D01*
X79940000Y-44560000D02*
X79940000Y-29440000D01*
X87500000Y-44560000D02*
X87500000Y-29440000D01*
X88600000Y-44560000D02*
X88600000Y-29440000D01*
X86180000Y-32000000D02*
G75*
G03X86180000Y-32000000I-2180000J0D01*
G01*
X86180000Y-37000000D02*
G75*
G03X86180000Y-37000000I-2180000J0D01*
G01*
X86180000Y-42000000D02*
G75*
G03X86180000Y-42000000I-2180000J0D01*
G01*
X78940000Y-73390000D02*
X89440000Y-73390000D01*
X78940000Y-55370000D02*
X78940000Y-73390000D01*
X89440000Y-55370000D02*
X78940000Y-55370000D01*
X89440000Y-73390000D02*
X89440000Y-55370000D01*
X81940000Y-73330000D02*
X83190000Y-73330000D01*
X81940000Y-55430000D02*
X81940000Y-73330000D01*
X86440000Y-55430000D02*
X81940000Y-55430000D01*
X86440000Y-73330000D02*
X86440000Y-55430000D01*
X85190000Y-73330000D02*
X86440000Y-73330000D01*
X83190000Y-73330000D02*
G75*
G02X85190000Y-73330000I1000000J0D01*
G01*
D13*
X65301446Y-81703005D02*
G75*
G03X67000000Y-79000000I-1301446J2703005D01*
G01*
X61003335Y-79000000D02*
G75*
G03X62700000Y-81700000I2996665J0D01*
G01*
X62000000Y-76000000D02*
X61000000Y-79000000D01*
X67000000Y-79000000D02*
X66000000Y-76000000D01*
X62000000Y-76000000D02*
X62800000Y-76000000D01*
X66000000Y-76000000D02*
X65200000Y-76000000D01*
X62500000Y-79350000D02*
X65500000Y-79350000D01*
X65500000Y-78650000D02*
X62500000Y-78650000D01*
X64000000Y-78650000D02*
X64000000Y-77800000D01*
X64000000Y-79350000D02*
X64000000Y-80200000D01*
X65150000Y-80050000D02*
X62750000Y-77900000D01*
X62750000Y-77900000D02*
X62450000Y-78200000D01*
X62450000Y-78200000D02*
X63000000Y-77650000D01*
D12*
X32380000Y-81620000D02*
X32380000Y-76380000D01*
X50620000Y-81620000D02*
X50620000Y-76380000D01*
X50620000Y-76380000D02*
X32380000Y-76380000D01*
X50620000Y-81620000D02*
X32380000Y-81620000D01*
X60241422Y-63210000D02*
X60758578Y-63210000D01*
X60241422Y-61790000D02*
X60758578Y-61790000D01*
D13*
X56301446Y-81703005D02*
G75*
G03X58000000Y-79000000I-1301446J2703005D01*
G01*
X52003335Y-79000000D02*
G75*
G03X53700000Y-81700000I2996665J0D01*
G01*
X53000000Y-76000000D02*
X52000000Y-79000000D01*
X58000000Y-79000000D02*
X57000000Y-76000000D01*
X53000000Y-76000000D02*
X53800000Y-76000000D01*
X57000000Y-76000000D02*
X56200000Y-76000000D01*
X53500000Y-79350000D02*
X56500000Y-79350000D01*
X56500000Y-78650000D02*
X53500000Y-78650000D01*
X55000000Y-78650000D02*
X55000000Y-77800000D01*
X55000000Y-79350000D02*
X55000000Y-80200000D01*
X56150000Y-80050000D02*
X53750000Y-77900000D01*
X53750000Y-77900000D02*
X53450000Y-78200000D01*
X53450000Y-78200000D02*
X54000000Y-77650000D01*
D12*
X55258578Y-70790000D02*
X54741422Y-70790000D01*
X55258578Y-72210000D02*
X54741422Y-72210000D01*
X55258578Y-63790000D02*
X54741422Y-63790000D01*
X55258578Y-65210000D02*
X54741422Y-65210000D01*
X58240000Y-69587221D02*
X58240000Y-69912779D01*
X59260000Y-69587221D02*
X59260000Y-69912779D01*
X65740000Y-73837221D02*
X65740000Y-74162779D01*
X66760000Y-73837221D02*
X66760000Y-74162779D01*
X42662779Y-50740000D02*
X42337221Y-50740000D01*
X42662779Y-51760000D02*
X42337221Y-51760000D01*
X76312500Y-81747500D02*
X76312500Y-81122500D01*
X76625000Y-81435000D02*
X76000000Y-81435000D01*
X75760000Y-78054437D02*
X74695563Y-76990000D01*
X75760000Y-81445563D02*
X74695563Y-82510000D01*
X75760000Y-81445563D02*
X75760000Y-80810000D01*
X75760000Y-78054437D02*
X75760000Y-78690000D01*
X74695563Y-76990000D02*
X70240000Y-76990000D01*
X74695563Y-82510000D02*
X70240000Y-82510000D01*
X70240000Y-82510000D02*
X70240000Y-80810000D01*
X70240000Y-76990000D02*
X70240000Y-78690000D01*
X83290000Y-50991422D02*
X83290000Y-51508578D01*
X84710000Y-50991422D02*
X84710000Y-51508578D01*
X59758750Y-54043750D02*
X60546250Y-54043750D01*
X60152500Y-54437500D02*
X60152500Y-53650000D01*
X64345563Y-53410000D02*
X65410000Y-52345563D01*
X59654437Y-53410000D02*
X58590000Y-52345563D01*
X59654437Y-53410000D02*
X60940000Y-53410000D01*
X64345563Y-53410000D02*
X63060000Y-53410000D01*
X65410000Y-52345563D02*
X65410000Y-46590000D01*
X58590000Y-52345563D02*
X58590000Y-46590000D01*
X58590000Y-46590000D02*
X60940000Y-46590000D01*
X65410000Y-46590000D02*
X63060000Y-46590000D01*
X72741250Y-45956250D02*
X71953750Y-45956250D01*
X72347500Y-45562500D02*
X72347500Y-46350000D01*
X68154437Y-46590000D02*
X67090000Y-47654437D01*
X72845563Y-46590000D02*
X73910000Y-47654437D01*
X72845563Y-46590000D02*
X71560000Y-46590000D01*
X68154437Y-46590000D02*
X69440000Y-46590000D01*
X67090000Y-47654437D02*
X67090000Y-53410000D01*
X73910000Y-47654437D02*
X73910000Y-53410000D01*
X73910000Y-53410000D02*
X71560000Y-53410000D01*
X67090000Y-53410000D02*
X69440000Y-53410000D01*
X76758750Y-54043750D02*
X77546250Y-54043750D01*
X77152500Y-54437500D02*
X77152500Y-53650000D01*
X81345563Y-53410000D02*
X82410000Y-52345563D01*
X76654437Y-53410000D02*
X75590000Y-52345563D01*
X76654437Y-53410000D02*
X77940000Y-53410000D01*
X81345563Y-53410000D02*
X80060000Y-53410000D01*
X82410000Y-52345563D02*
X82410000Y-46590000D01*
X75590000Y-52345563D02*
X75590000Y-46590000D01*
X75590000Y-46590000D02*
X77940000Y-46590000D01*
X82410000Y-46590000D02*
X80060000Y-46590000D01*
D10*
X58702380Y-73261904D02*
X59511904Y-73261904D01*
X59607142Y-73214285D01*
X59654761Y-73166666D01*
X59702380Y-73071428D01*
X59702380Y-72880952D01*
X59654761Y-72785714D01*
X59607142Y-72738095D01*
X59511904Y-72690476D01*
X58702380Y-72690476D01*
X58702380Y-72309523D02*
X58702380Y-71642857D01*
X59702380Y-72071428D01*
X38238095Y-52952380D02*
X38238095Y-53761904D01*
X38285714Y-53857142D01*
X38333333Y-53904761D01*
X38428571Y-53952380D01*
X38619047Y-53952380D01*
X38714285Y-53904761D01*
X38761904Y-53857142D01*
X38809523Y-53761904D01*
X38809523Y-52952380D01*
X39761904Y-52952380D02*
X39285714Y-52952380D01*
X39238095Y-53428571D01*
X39285714Y-53380952D01*
X39380952Y-53333333D01*
X39619047Y-53333333D01*
X39714285Y-53380952D01*
X39761904Y-53428571D01*
X39809523Y-53523809D01*
X39809523Y-53761904D01*
X39761904Y-53857142D01*
X39714285Y-53904761D01*
X39619047Y-53952380D01*
X39380952Y-53952380D01*
X39285714Y-53904761D01*
X39238095Y-53857142D01*
X70488095Y-33702380D02*
X70488095Y-34511904D01*
X70535714Y-34607142D01*
X70583333Y-34654761D01*
X70678571Y-34702380D01*
X70869047Y-34702380D01*
X70964285Y-34654761D01*
X71011904Y-34607142D01*
X71059523Y-34511904D01*
X71059523Y-33702380D01*
X71488095Y-33797619D02*
X71535714Y-33750000D01*
X71630952Y-33702380D01*
X71869047Y-33702380D01*
X71964285Y-33750000D01*
X72011904Y-33797619D01*
X72059523Y-33892857D01*
X72059523Y-33988095D01*
X72011904Y-34130952D01*
X71440476Y-34702380D01*
X72059523Y-34702380D01*
X67738095Y-69304380D02*
X68309523Y-69304380D01*
X68023809Y-70304380D02*
X68023809Y-69304380D01*
X68642857Y-70304380D02*
X68642857Y-69304380D01*
X69023809Y-69304380D01*
X69119047Y-69352000D01*
X69166666Y-69399619D01*
X69214285Y-69494857D01*
X69214285Y-69637714D01*
X69166666Y-69732952D01*
X69119047Y-69780571D01*
X69023809Y-69828190D01*
X68642857Y-69828190D01*
X70119047Y-69304380D02*
X69642857Y-69304380D01*
X69595238Y-69780571D01*
X69642857Y-69732952D01*
X69738095Y-69685333D01*
X69976190Y-69685333D01*
X70071428Y-69732952D01*
X70119047Y-69780571D01*
X70166666Y-69875809D01*
X70166666Y-70113904D01*
X70119047Y-70209142D01*
X70071428Y-70256761D01*
X69976190Y-70304380D01*
X69738095Y-70304380D01*
X69642857Y-70256761D01*
X69595238Y-70209142D01*
X77988095Y-75202380D02*
X78559523Y-75202380D01*
X78273809Y-76202380D02*
X78273809Y-75202380D01*
X78892857Y-76202380D02*
X78892857Y-75202380D01*
X79273809Y-75202380D01*
X79369047Y-75250000D01*
X79416666Y-75297619D01*
X79464285Y-75392857D01*
X79464285Y-75535714D01*
X79416666Y-75630952D01*
X79369047Y-75678571D01*
X79273809Y-75726190D01*
X78892857Y-75726190D01*
X80321428Y-75535714D02*
X80321428Y-76202380D01*
X80083333Y-75154761D02*
X79845238Y-75869047D01*
X80464285Y-75869047D01*
X67238095Y-77452380D02*
X67809523Y-77452380D01*
X67523809Y-78452380D02*
X67523809Y-77452380D01*
X68142857Y-78452380D02*
X68142857Y-77452380D01*
X68523809Y-77452380D01*
X68619047Y-77500000D01*
X68666666Y-77547619D01*
X68714285Y-77642857D01*
X68714285Y-77785714D01*
X68666666Y-77880952D01*
X68619047Y-77928571D01*
X68523809Y-77976190D01*
X68142857Y-77976190D01*
X69047619Y-77452380D02*
X69666666Y-77452380D01*
X69333333Y-77833333D01*
X69476190Y-77833333D01*
X69571428Y-77880952D01*
X69619047Y-77928571D01*
X69666666Y-78023809D01*
X69666666Y-78261904D01*
X69619047Y-78357142D01*
X69571428Y-78404761D01*
X69476190Y-78452380D01*
X69190476Y-78452380D01*
X69095238Y-78404761D01*
X69047619Y-78357142D01*
X71988095Y-71202380D02*
X72559523Y-71202380D01*
X72273809Y-72202380D02*
X72273809Y-71202380D01*
X72892857Y-72202380D02*
X72892857Y-71202380D01*
X73273809Y-71202380D01*
X73369047Y-71250000D01*
X73416666Y-71297619D01*
X73464285Y-71392857D01*
X73464285Y-71535714D01*
X73416666Y-71630952D01*
X73369047Y-71678571D01*
X73273809Y-71726190D01*
X72892857Y-71726190D01*
X73845238Y-71297619D02*
X73892857Y-71250000D01*
X73988095Y-71202380D01*
X74226190Y-71202380D01*
X74321428Y-71250000D01*
X74369047Y-71297619D01*
X74416666Y-71392857D01*
X74416666Y-71488095D01*
X74369047Y-71630952D01*
X73797619Y-72202380D01*
X74416666Y-72202380D01*
X54238095Y-46304380D02*
X54809523Y-46304380D01*
X54523809Y-47304380D02*
X54523809Y-46304380D01*
X55142857Y-47304380D02*
X55142857Y-46304380D01*
X55523809Y-46304380D01*
X55619047Y-46352000D01*
X55666666Y-46399619D01*
X55714285Y-46494857D01*
X55714285Y-46637714D01*
X55666666Y-46732952D01*
X55619047Y-46780571D01*
X55523809Y-46828190D01*
X55142857Y-46828190D01*
X56666666Y-47304380D02*
X56095238Y-47304380D01*
X56380952Y-47304380D02*
X56380952Y-46304380D01*
X56285714Y-46447238D01*
X56190476Y-46542476D01*
X56095238Y-46590095D01*
X63357142Y-54802380D02*
X63023809Y-54326190D01*
X62785714Y-54802380D02*
X62785714Y-53802380D01*
X63166666Y-53802380D01*
X63261904Y-53850000D01*
X63309523Y-53897619D01*
X63357142Y-53992857D01*
X63357142Y-54135714D01*
X63309523Y-54230952D01*
X63261904Y-54278571D01*
X63166666Y-54326190D01*
X62785714Y-54326190D01*
X63738095Y-53897619D02*
X63785714Y-53850000D01*
X63880952Y-53802380D01*
X64119047Y-53802380D01*
X64214285Y-53850000D01*
X64261904Y-53897619D01*
X64309523Y-53992857D01*
X64309523Y-54088095D01*
X64261904Y-54230952D01*
X63690476Y-54802380D01*
X64309523Y-54802380D01*
X64880952Y-54230952D02*
X64785714Y-54183333D01*
X64738095Y-54135714D01*
X64690476Y-54040476D01*
X64690476Y-53992857D01*
X64738095Y-53897619D01*
X64785714Y-53850000D01*
X64880952Y-53802380D01*
X65071428Y-53802380D01*
X65166666Y-53850000D01*
X65214285Y-53897619D01*
X65261904Y-53992857D01*
X65261904Y-54040476D01*
X65214285Y-54135714D01*
X65166666Y-54183333D01*
X65071428Y-54230952D01*
X64880952Y-54230952D01*
X64785714Y-54278571D01*
X64738095Y-54326190D01*
X64690476Y-54421428D01*
X64690476Y-54611904D01*
X64738095Y-54707142D01*
X64785714Y-54754761D01*
X64880952Y-54802380D01*
X65071428Y-54802380D01*
X65166666Y-54754761D01*
X65214285Y-54707142D01*
X65261904Y-54611904D01*
X65261904Y-54421428D01*
X65214285Y-54326190D01*
X65166666Y-54278571D01*
X65071428Y-54230952D01*
X57952380Y-74142857D02*
X57476190Y-74476190D01*
X57952380Y-74714285D02*
X56952380Y-74714285D01*
X56952380Y-74333333D01*
X57000000Y-74238095D01*
X57047619Y-74190476D01*
X57142857Y-74142857D01*
X57285714Y-74142857D01*
X57380952Y-74190476D01*
X57428571Y-74238095D01*
X57476190Y-74333333D01*
X57476190Y-74714285D01*
X57047619Y-73761904D02*
X57000000Y-73714285D01*
X56952380Y-73619047D01*
X56952380Y-73380952D01*
X57000000Y-73285714D01*
X57047619Y-73238095D01*
X57142857Y-73190476D01*
X57238095Y-73190476D01*
X57380952Y-73238095D01*
X57952380Y-73809523D01*
X57952380Y-73190476D01*
X56952380Y-72333333D02*
X56952380Y-72523809D01*
X57000000Y-72619047D01*
X57047619Y-72666666D01*
X57190476Y-72761904D01*
X57380952Y-72809523D01*
X57761904Y-72809523D01*
X57857142Y-72761904D01*
X57904761Y-72714285D01*
X57952380Y-72619047D01*
X57952380Y-72428571D01*
X57904761Y-72333333D01*
X57857142Y-72285714D01*
X57761904Y-72238095D01*
X57523809Y-72238095D01*
X57428571Y-72285714D01*
X57380952Y-72333333D01*
X57333333Y-72428571D01*
X57333333Y-72619047D01*
X57380952Y-72714285D01*
X57428571Y-72761904D01*
X57523809Y-72809523D01*
X59702380Y-76642857D02*
X59226190Y-76976190D01*
X59702380Y-77214285D02*
X58702380Y-77214285D01*
X58702380Y-76833333D01*
X58750000Y-76738095D01*
X58797619Y-76690476D01*
X58892857Y-76642857D01*
X59035714Y-76642857D01*
X59130952Y-76690476D01*
X59178571Y-76738095D01*
X59226190Y-76833333D01*
X59226190Y-77214285D01*
X58797619Y-76261904D02*
X58750000Y-76214285D01*
X58702380Y-76119047D01*
X58702380Y-75880952D01*
X58750000Y-75785714D01*
X58797619Y-75738095D01*
X58892857Y-75690476D01*
X58988095Y-75690476D01*
X59130952Y-75738095D01*
X59702380Y-76309523D01*
X59702380Y-75690476D01*
X58702380Y-74785714D02*
X58702380Y-75261904D01*
X59178571Y-75309523D01*
X59130952Y-75261904D01*
X59083333Y-75166666D01*
X59083333Y-74928571D01*
X59130952Y-74833333D01*
X59178571Y-74785714D01*
X59273809Y-74738095D01*
X59511904Y-74738095D01*
X59607142Y-74785714D01*
X59654761Y-74833333D01*
X59702380Y-74928571D01*
X59702380Y-75166666D01*
X59654761Y-75261904D01*
X59607142Y-75309523D01*
X58452380Y-67142857D02*
X57976190Y-67476190D01*
X58452380Y-67714285D02*
X57452380Y-67714285D01*
X57452380Y-67333333D01*
X57500000Y-67238095D01*
X57547619Y-67190476D01*
X57642857Y-67142857D01*
X57785714Y-67142857D01*
X57880952Y-67190476D01*
X57928571Y-67238095D01*
X57976190Y-67333333D01*
X57976190Y-67714285D01*
X57547619Y-66761904D02*
X57500000Y-66714285D01*
X57452380Y-66619047D01*
X57452380Y-66380952D01*
X57500000Y-66285714D01*
X57547619Y-66238095D01*
X57642857Y-66190476D01*
X57738095Y-66190476D01*
X57880952Y-66238095D01*
X58452380Y-66809523D01*
X58452380Y-66190476D01*
X57785714Y-65333333D02*
X58452380Y-65333333D01*
X57404761Y-65571428D02*
X58119047Y-65809523D01*
X58119047Y-65190476D01*
X63107142Y-64952380D02*
X62773809Y-64476190D01*
X62535714Y-64952380D02*
X62535714Y-63952380D01*
X62916666Y-63952380D01*
X63011904Y-64000000D01*
X63059523Y-64047619D01*
X63107142Y-64142857D01*
X63107142Y-64285714D01*
X63059523Y-64380952D01*
X63011904Y-64428571D01*
X62916666Y-64476190D01*
X62535714Y-64476190D01*
X63488095Y-64047619D02*
X63535714Y-64000000D01*
X63630952Y-63952380D01*
X63869047Y-63952380D01*
X63964285Y-64000000D01*
X64011904Y-64047619D01*
X64059523Y-64142857D01*
X64059523Y-64238095D01*
X64011904Y-64380952D01*
X63440476Y-64952380D01*
X64059523Y-64952380D01*
X64392857Y-63952380D02*
X65011904Y-63952380D01*
X64678571Y-64333333D01*
X64821428Y-64333333D01*
X64916666Y-64380952D01*
X64964285Y-64428571D01*
X65011904Y-64523809D01*
X65011904Y-64761904D01*
X64964285Y-64857142D01*
X64916666Y-64904761D01*
X64821428Y-64952380D01*
X64535714Y-64952380D01*
X64440476Y-64904761D01*
X64392857Y-64857142D01*
X53202380Y-69392857D02*
X52726190Y-69726190D01*
X53202380Y-69964285D02*
X52202380Y-69964285D01*
X52202380Y-69583333D01*
X52250000Y-69488095D01*
X52297619Y-69440476D01*
X52392857Y-69392857D01*
X52535714Y-69392857D01*
X52630952Y-69440476D01*
X52678571Y-69488095D01*
X52726190Y-69583333D01*
X52726190Y-69964285D01*
X52297619Y-69011904D02*
X52250000Y-68964285D01*
X52202380Y-68869047D01*
X52202380Y-68630952D01*
X52250000Y-68535714D01*
X52297619Y-68488095D01*
X52392857Y-68440476D01*
X52488095Y-68440476D01*
X52630952Y-68488095D01*
X53202380Y-69059523D01*
X53202380Y-68440476D01*
X52297619Y-68059523D02*
X52250000Y-68011904D01*
X52202380Y-67916666D01*
X52202380Y-67678571D01*
X52250000Y-67583333D01*
X52297619Y-67535714D01*
X52392857Y-67488095D01*
X52488095Y-67488095D01*
X52630952Y-67535714D01*
X53202380Y-68107142D01*
X53202380Y-67488095D01*
X66702380Y-67392857D02*
X66226190Y-67726190D01*
X66702380Y-67964285D02*
X65702380Y-67964285D01*
X65702380Y-67583333D01*
X65750000Y-67488095D01*
X65797619Y-67440476D01*
X65892857Y-67392857D01*
X66035714Y-67392857D01*
X66130952Y-67440476D01*
X66178571Y-67488095D01*
X66226190Y-67583333D01*
X66226190Y-67964285D01*
X65797619Y-67011904D02*
X65750000Y-66964285D01*
X65702380Y-66869047D01*
X65702380Y-66630952D01*
X65750000Y-66535714D01*
X65797619Y-66488095D01*
X65892857Y-66440476D01*
X65988095Y-66440476D01*
X66130952Y-66488095D01*
X66702380Y-67059523D01*
X66702380Y-66440476D01*
X66702380Y-65488095D02*
X66702380Y-66059523D01*
X66702380Y-65773809D02*
X65702380Y-65773809D01*
X65845238Y-65869047D01*
X65940476Y-65964285D01*
X65988095Y-66059523D01*
X55107142Y-63452380D02*
X54773809Y-62976190D01*
X54535714Y-63452380D02*
X54535714Y-62452380D01*
X54916666Y-62452380D01*
X55011904Y-62500000D01*
X55059523Y-62547619D01*
X55107142Y-62642857D01*
X55107142Y-62785714D01*
X55059523Y-62880952D01*
X55011904Y-62928571D01*
X54916666Y-62976190D01*
X54535714Y-62976190D01*
X55488095Y-62547619D02*
X55535714Y-62500000D01*
X55630952Y-62452380D01*
X55869047Y-62452380D01*
X55964285Y-62500000D01*
X56011904Y-62547619D01*
X56059523Y-62642857D01*
X56059523Y-62738095D01*
X56011904Y-62880952D01*
X55440476Y-63452380D01*
X56059523Y-63452380D01*
X56678571Y-62452380D02*
X56773809Y-62452380D01*
X56869047Y-62500000D01*
X56916666Y-62547619D01*
X56964285Y-62642857D01*
X57011904Y-62833333D01*
X57011904Y-63071428D01*
X56964285Y-63261904D01*
X56916666Y-63357142D01*
X56869047Y-63404761D01*
X56773809Y-63452380D01*
X56678571Y-63452380D01*
X56583333Y-63404761D01*
X56535714Y-63357142D01*
X56488095Y-63261904D01*
X56440476Y-63071428D01*
X56440476Y-62833333D01*
X56488095Y-62642857D01*
X56535714Y-62547619D01*
X56583333Y-62500000D01*
X56678571Y-62452380D01*
X54107142Y-52202380D02*
X53773809Y-51726190D01*
X53535714Y-52202380D02*
X53535714Y-51202380D01*
X53916666Y-51202380D01*
X54011904Y-51250000D01*
X54059523Y-51297619D01*
X54107142Y-51392857D01*
X54107142Y-51535714D01*
X54059523Y-51630952D01*
X54011904Y-51678571D01*
X53916666Y-51726190D01*
X53535714Y-51726190D01*
X55059523Y-52202380D02*
X54488095Y-52202380D01*
X54773809Y-52202380D02*
X54773809Y-51202380D01*
X54678571Y-51345238D01*
X54583333Y-51440476D01*
X54488095Y-51488095D01*
X55630952Y-51630952D02*
X55535714Y-51583333D01*
X55488095Y-51535714D01*
X55440476Y-51440476D01*
X55440476Y-51392857D01*
X55488095Y-51297619D01*
X55535714Y-51250000D01*
X55630952Y-51202380D01*
X55821428Y-51202380D01*
X55916666Y-51250000D01*
X55964285Y-51297619D01*
X56011904Y-51392857D01*
X56011904Y-51440476D01*
X55964285Y-51535714D01*
X55916666Y-51583333D01*
X55821428Y-51630952D01*
X55630952Y-51630952D01*
X55535714Y-51678571D01*
X55488095Y-51726190D01*
X55440476Y-51821428D01*
X55440476Y-52011904D01*
X55488095Y-52107142D01*
X55535714Y-52154761D01*
X55630952Y-52202380D01*
X55821428Y-52202380D01*
X55916666Y-52154761D01*
X55964285Y-52107142D01*
X56011904Y-52011904D01*
X56011904Y-51821428D01*
X55964285Y-51726190D01*
X55916666Y-51678571D01*
X55821428Y-51630952D01*
X70107142Y-22702380D02*
X69773809Y-22226190D01*
X69535714Y-22702380D02*
X69535714Y-21702380D01*
X69916666Y-21702380D01*
X70011904Y-21750000D01*
X70059523Y-21797619D01*
X70107142Y-21892857D01*
X70107142Y-22035714D01*
X70059523Y-22130952D01*
X70011904Y-22178571D01*
X69916666Y-22226190D01*
X69535714Y-22226190D01*
X71059523Y-22702380D02*
X70488095Y-22702380D01*
X70773809Y-22702380D02*
X70773809Y-21702380D01*
X70678571Y-21845238D01*
X70583333Y-21940476D01*
X70488095Y-21988095D01*
X71392857Y-21702380D02*
X72059523Y-21702380D01*
X71630952Y-22702380D01*
X54107142Y-57702380D02*
X53773809Y-57226190D01*
X53535714Y-57702380D02*
X53535714Y-56702380D01*
X53916666Y-56702380D01*
X54011904Y-56750000D01*
X54059523Y-56797619D01*
X54107142Y-56892857D01*
X54107142Y-57035714D01*
X54059523Y-57130952D01*
X54011904Y-57178571D01*
X53916666Y-57226190D01*
X53535714Y-57226190D01*
X55059523Y-57702380D02*
X54488095Y-57702380D01*
X54773809Y-57702380D02*
X54773809Y-56702380D01*
X54678571Y-56845238D01*
X54583333Y-56940476D01*
X54488095Y-56988095D01*
X55916666Y-56702380D02*
X55726190Y-56702380D01*
X55630952Y-56750000D01*
X55583333Y-56797619D01*
X55488095Y-56940476D01*
X55440476Y-57130952D01*
X55440476Y-57511904D01*
X55488095Y-57607142D01*
X55535714Y-57654761D01*
X55630952Y-57702380D01*
X55821428Y-57702380D01*
X55916666Y-57654761D01*
X55964285Y-57607142D01*
X56011904Y-57511904D01*
X56011904Y-57273809D01*
X55964285Y-57178571D01*
X55916666Y-57130952D01*
X55821428Y-57083333D01*
X55630952Y-57083333D01*
X55535714Y-57130952D01*
X55488095Y-57178571D01*
X55440476Y-57273809D01*
X58857142Y-29952380D02*
X58523809Y-29476190D01*
X58285714Y-29952380D02*
X58285714Y-28952380D01*
X58666666Y-28952380D01*
X58761904Y-29000000D01*
X58809523Y-29047619D01*
X58857142Y-29142857D01*
X58857142Y-29285714D01*
X58809523Y-29380952D01*
X58761904Y-29428571D01*
X58666666Y-29476190D01*
X58285714Y-29476190D01*
X59809523Y-29952380D02*
X59238095Y-29952380D01*
X59523809Y-29952380D02*
X59523809Y-28952380D01*
X59428571Y-29095238D01*
X59333333Y-29190476D01*
X59238095Y-29238095D01*
X60714285Y-28952380D02*
X60238095Y-28952380D01*
X60190476Y-29428571D01*
X60238095Y-29380952D01*
X60333333Y-29333333D01*
X60571428Y-29333333D01*
X60666666Y-29380952D01*
X60714285Y-29428571D01*
X60761904Y-29523809D01*
X60761904Y-29761904D01*
X60714285Y-29857142D01*
X60666666Y-29904761D01*
X60571428Y-29952380D01*
X60333333Y-29952380D01*
X60238095Y-29904761D01*
X60190476Y-29857142D01*
X63607142Y-29952380D02*
X63273809Y-29476190D01*
X63035714Y-29952380D02*
X63035714Y-28952380D01*
X63416666Y-28952380D01*
X63511904Y-29000000D01*
X63559523Y-29047619D01*
X63607142Y-29142857D01*
X63607142Y-29285714D01*
X63559523Y-29380952D01*
X63511904Y-29428571D01*
X63416666Y-29476190D01*
X63035714Y-29476190D01*
X64559523Y-29952380D02*
X63988095Y-29952380D01*
X64273809Y-29952380D02*
X64273809Y-28952380D01*
X64178571Y-29095238D01*
X64083333Y-29190476D01*
X63988095Y-29238095D01*
X65416666Y-29285714D02*
X65416666Y-29952380D01*
X65178571Y-28904761D02*
X64940476Y-29619047D01*
X65559523Y-29619047D01*
X62857142Y-35302380D02*
X62523809Y-34826190D01*
X62285714Y-35302380D02*
X62285714Y-34302380D01*
X62666666Y-34302380D01*
X62761904Y-34350000D01*
X62809523Y-34397619D01*
X62857142Y-34492857D01*
X62857142Y-34635714D01*
X62809523Y-34730952D01*
X62761904Y-34778571D01*
X62666666Y-34826190D01*
X62285714Y-34826190D01*
X63809523Y-35302380D02*
X63238095Y-35302380D01*
X63523809Y-35302380D02*
X63523809Y-34302380D01*
X63428571Y-34445238D01*
X63333333Y-34540476D01*
X63238095Y-34588095D01*
X64190476Y-34397619D02*
X64238095Y-34350000D01*
X64333333Y-34302380D01*
X64571428Y-34302380D01*
X64666666Y-34350000D01*
X64714285Y-34397619D01*
X64761904Y-34492857D01*
X64761904Y-34588095D01*
X64714285Y-34730952D01*
X64142857Y-35302380D01*
X64761904Y-35302380D01*
X71857142Y-68302380D02*
X71523809Y-67826190D01*
X71285714Y-68302380D02*
X71285714Y-67302380D01*
X71666666Y-67302380D01*
X71761904Y-67350000D01*
X71809523Y-67397619D01*
X71857142Y-67492857D01*
X71857142Y-67635714D01*
X71809523Y-67730952D01*
X71761904Y-67778571D01*
X71666666Y-67826190D01*
X71285714Y-67826190D01*
X72809523Y-68302380D02*
X72238095Y-68302380D01*
X72523809Y-68302380D02*
X72523809Y-67302380D01*
X72428571Y-67445238D01*
X72333333Y-67540476D01*
X72238095Y-67588095D01*
X73761904Y-68302380D02*
X73190476Y-68302380D01*
X73476190Y-68302380D02*
X73476190Y-67302380D01*
X73380952Y-67445238D01*
X73285714Y-67540476D01*
X73190476Y-67588095D01*
X58357142Y-35302380D02*
X58023809Y-34826190D01*
X57785714Y-35302380D02*
X57785714Y-34302380D01*
X58166666Y-34302380D01*
X58261904Y-34350000D01*
X58309523Y-34397619D01*
X58357142Y-34492857D01*
X58357142Y-34635714D01*
X58309523Y-34730952D01*
X58261904Y-34778571D01*
X58166666Y-34826190D01*
X57785714Y-34826190D01*
X59309523Y-35302380D02*
X58738095Y-35302380D01*
X59023809Y-35302380D02*
X59023809Y-34302380D01*
X58928571Y-34445238D01*
X58833333Y-34540476D01*
X58738095Y-34588095D01*
X59928571Y-34302380D02*
X60023809Y-34302380D01*
X60119047Y-34350000D01*
X60166666Y-34397619D01*
X60214285Y-34492857D01*
X60261904Y-34683333D01*
X60261904Y-34921428D01*
X60214285Y-35111904D01*
X60166666Y-35207142D01*
X60119047Y-35254761D01*
X60023809Y-35302380D01*
X59928571Y-35302380D01*
X59833333Y-35254761D01*
X59785714Y-35207142D01*
X59738095Y-35111904D01*
X59690476Y-34921428D01*
X59690476Y-34683333D01*
X59738095Y-34492857D01*
X59785714Y-34397619D01*
X59833333Y-34350000D01*
X59928571Y-34302380D01*
X58833333Y-38702380D02*
X58500000Y-38226190D01*
X58261904Y-38702380D02*
X58261904Y-37702380D01*
X58642857Y-37702380D01*
X58738095Y-37750000D01*
X58785714Y-37797619D01*
X58833333Y-37892857D01*
X58833333Y-38035714D01*
X58785714Y-38130952D01*
X58738095Y-38178571D01*
X58642857Y-38226190D01*
X58261904Y-38226190D01*
X59309523Y-38702380D02*
X59500000Y-38702380D01*
X59595238Y-38654761D01*
X59642857Y-38607142D01*
X59738095Y-38464285D01*
X59785714Y-38273809D01*
X59785714Y-37892857D01*
X59738095Y-37797619D01*
X59690476Y-37750000D01*
X59595238Y-37702380D01*
X59404761Y-37702380D01*
X59309523Y-37750000D01*
X59261904Y-37797619D01*
X59214285Y-37892857D01*
X59214285Y-38130952D01*
X59261904Y-38226190D01*
X59309523Y-38273809D01*
X59404761Y-38321428D01*
X59595238Y-38321428D01*
X59690476Y-38273809D01*
X59738095Y-38226190D01*
X59785714Y-38130952D01*
X87202380Y-54166666D02*
X86726190Y-54500000D01*
X87202380Y-54738095D02*
X86202380Y-54738095D01*
X86202380Y-54357142D01*
X86250000Y-54261904D01*
X86297619Y-54214285D01*
X86392857Y-54166666D01*
X86535714Y-54166666D01*
X86630952Y-54214285D01*
X86678571Y-54261904D01*
X86726190Y-54357142D01*
X86726190Y-54738095D01*
X86202380Y-53833333D02*
X86202380Y-53166666D01*
X87202380Y-53595238D01*
X63333333Y-38702380D02*
X63000000Y-38226190D01*
X62761904Y-38702380D02*
X62761904Y-37702380D01*
X63142857Y-37702380D01*
X63238095Y-37750000D01*
X63285714Y-37797619D01*
X63333333Y-37892857D01*
X63333333Y-38035714D01*
X63285714Y-38130952D01*
X63238095Y-38178571D01*
X63142857Y-38226190D01*
X62761904Y-38226190D01*
X64190476Y-37702380D02*
X64000000Y-37702380D01*
X63904761Y-37750000D01*
X63857142Y-37797619D01*
X63761904Y-37940476D01*
X63714285Y-38130952D01*
X63714285Y-38511904D01*
X63761904Y-38607142D01*
X63809523Y-38654761D01*
X63904761Y-38702380D01*
X64095238Y-38702380D01*
X64190476Y-38654761D01*
X64238095Y-38607142D01*
X64285714Y-38511904D01*
X64285714Y-38273809D01*
X64238095Y-38178571D01*
X64190476Y-38130952D01*
X64095238Y-38083333D01*
X63904761Y-38083333D01*
X63809523Y-38130952D01*
X63761904Y-38178571D01*
X63714285Y-38273809D01*
X63333333Y-42202380D02*
X63000000Y-41726190D01*
X62761904Y-42202380D02*
X62761904Y-41202380D01*
X63142857Y-41202380D01*
X63238095Y-41250000D01*
X63285714Y-41297619D01*
X63333333Y-41392857D01*
X63333333Y-41535714D01*
X63285714Y-41630952D01*
X63238095Y-41678571D01*
X63142857Y-41726190D01*
X62761904Y-41726190D01*
X64238095Y-41202380D02*
X63761904Y-41202380D01*
X63714285Y-41678571D01*
X63761904Y-41630952D01*
X63857142Y-41583333D01*
X64095238Y-41583333D01*
X64190476Y-41630952D01*
X64238095Y-41678571D01*
X64285714Y-41773809D01*
X64285714Y-42011904D01*
X64238095Y-42107142D01*
X64190476Y-42154761D01*
X64095238Y-42202380D01*
X63857142Y-42202380D01*
X63761904Y-42154761D01*
X63714285Y-42107142D01*
X60083333Y-42202380D02*
X59750000Y-41726190D01*
X59511904Y-42202380D02*
X59511904Y-41202380D01*
X59892857Y-41202380D01*
X59988095Y-41250000D01*
X60035714Y-41297619D01*
X60083333Y-41392857D01*
X60083333Y-41535714D01*
X60035714Y-41630952D01*
X59988095Y-41678571D01*
X59892857Y-41726190D01*
X59511904Y-41726190D01*
X60416666Y-41202380D02*
X61035714Y-41202380D01*
X60702380Y-41583333D01*
X60845238Y-41583333D01*
X60940476Y-41630952D01*
X60988095Y-41678571D01*
X61035714Y-41773809D01*
X61035714Y-42011904D01*
X60988095Y-42107142D01*
X60940476Y-42154761D01*
X60845238Y-42202380D01*
X60559523Y-42202380D01*
X60464285Y-42154761D01*
X60416666Y-42107142D01*
X76833333Y-33452380D02*
X76500000Y-32976190D01*
X76261904Y-33452380D02*
X76261904Y-32452380D01*
X76642857Y-32452380D01*
X76738095Y-32500000D01*
X76785714Y-32547619D01*
X76833333Y-32642857D01*
X76833333Y-32785714D01*
X76785714Y-32880952D01*
X76738095Y-32928571D01*
X76642857Y-32976190D01*
X76261904Y-32976190D01*
X77214285Y-32547619D02*
X77261904Y-32500000D01*
X77357142Y-32452380D01*
X77595238Y-32452380D01*
X77690476Y-32500000D01*
X77738095Y-32547619D01*
X77785714Y-32642857D01*
X77785714Y-32738095D01*
X77738095Y-32880952D01*
X77166666Y-33452380D01*
X77785714Y-33452380D01*
X76833333Y-42702380D02*
X76500000Y-42226190D01*
X76261904Y-42702380D02*
X76261904Y-41702380D01*
X76642857Y-41702380D01*
X76738095Y-41750000D01*
X76785714Y-41797619D01*
X76833333Y-41892857D01*
X76833333Y-42035714D01*
X76785714Y-42130952D01*
X76738095Y-42178571D01*
X76642857Y-42226190D01*
X76261904Y-42226190D01*
X77785714Y-42702380D02*
X77214285Y-42702380D01*
X77500000Y-42702380D02*
X77500000Y-41702380D01*
X77404761Y-41845238D01*
X77309523Y-41940476D01*
X77214285Y-41988095D01*
X66654761Y-60047619D02*
X66559523Y-60000000D01*
X66464285Y-59904761D01*
X66321428Y-59761904D01*
X66226190Y-59714285D01*
X66130952Y-59714285D01*
X66178571Y-59952380D02*
X66083333Y-59904761D01*
X65988095Y-59809523D01*
X65940476Y-59619047D01*
X65940476Y-59285714D01*
X65988095Y-59095238D01*
X66083333Y-59000000D01*
X66178571Y-58952380D01*
X66369047Y-58952380D01*
X66464285Y-59000000D01*
X66559523Y-59095238D01*
X66607142Y-59285714D01*
X66607142Y-59619047D01*
X66559523Y-59809523D01*
X66464285Y-59904761D01*
X66369047Y-59952380D01*
X66178571Y-59952380D01*
X67178571Y-59380952D02*
X67083333Y-59333333D01*
X67035714Y-59285714D01*
X66988095Y-59190476D01*
X66988095Y-59142857D01*
X67035714Y-59047619D01*
X67083333Y-59000000D01*
X67178571Y-58952380D01*
X67369047Y-58952380D01*
X67464285Y-59000000D01*
X67511904Y-59047619D01*
X67559523Y-59142857D01*
X67559523Y-59190476D01*
X67511904Y-59285714D01*
X67464285Y-59333333D01*
X67369047Y-59380952D01*
X67178571Y-59380952D01*
X67083333Y-59428571D01*
X67035714Y-59476190D01*
X66988095Y-59571428D01*
X66988095Y-59761904D01*
X67035714Y-59857142D01*
X67083333Y-59904761D01*
X67178571Y-59952380D01*
X67369047Y-59952380D01*
X67464285Y-59904761D01*
X67511904Y-59857142D01*
X67559523Y-59761904D01*
X67559523Y-59571428D01*
X67511904Y-59476190D01*
X67464285Y-59428571D01*
X67369047Y-59380952D01*
X57404761Y-60547619D02*
X57309523Y-60500000D01*
X57214285Y-60404761D01*
X57071428Y-60261904D01*
X56976190Y-60214285D01*
X56880952Y-60214285D01*
X56928571Y-60452380D02*
X56833333Y-60404761D01*
X56738095Y-60309523D01*
X56690476Y-60119047D01*
X56690476Y-59785714D01*
X56738095Y-59595238D01*
X56833333Y-59500000D01*
X56928571Y-59452380D01*
X57119047Y-59452380D01*
X57214285Y-59500000D01*
X57309523Y-59595238D01*
X57357142Y-59785714D01*
X57357142Y-60119047D01*
X57309523Y-60309523D01*
X57214285Y-60404761D01*
X57119047Y-60452380D01*
X56928571Y-60452380D01*
X57690476Y-59452380D02*
X58357142Y-59452380D01*
X57928571Y-60452380D01*
X50654761Y-59547619D02*
X50559523Y-59500000D01*
X50464285Y-59404761D01*
X50321428Y-59261904D01*
X50226190Y-59214285D01*
X50130952Y-59214285D01*
X50178571Y-59452380D02*
X50083333Y-59404761D01*
X49988095Y-59309523D01*
X49940476Y-59119047D01*
X49940476Y-58785714D01*
X49988095Y-58595238D01*
X50083333Y-58500000D01*
X50178571Y-58452380D01*
X50369047Y-58452380D01*
X50464285Y-58500000D01*
X50559523Y-58595238D01*
X50607142Y-58785714D01*
X50607142Y-59119047D01*
X50559523Y-59309523D01*
X50464285Y-59404761D01*
X50369047Y-59452380D01*
X50178571Y-59452380D01*
X51464285Y-58452380D02*
X51273809Y-58452380D01*
X51178571Y-58500000D01*
X51130952Y-58547619D01*
X51035714Y-58690476D01*
X50988095Y-58880952D01*
X50988095Y-59261904D01*
X51035714Y-59357142D01*
X51083333Y-59404761D01*
X51178571Y-59452380D01*
X51369047Y-59452380D01*
X51464285Y-59404761D01*
X51511904Y-59357142D01*
X51559523Y-59261904D01*
X51559523Y-59023809D01*
X51511904Y-58928571D01*
X51464285Y-58880952D01*
X51369047Y-58833333D01*
X51178571Y-58833333D01*
X51083333Y-58880952D01*
X51035714Y-58928571D01*
X50988095Y-59023809D01*
X48404761Y-51797619D02*
X48309523Y-51750000D01*
X48214285Y-51654761D01*
X48071428Y-51511904D01*
X47976190Y-51464285D01*
X47880952Y-51464285D01*
X47928571Y-51702380D02*
X47833333Y-51654761D01*
X47738095Y-51559523D01*
X47690476Y-51369047D01*
X47690476Y-51035714D01*
X47738095Y-50845238D01*
X47833333Y-50750000D01*
X47928571Y-50702380D01*
X48119047Y-50702380D01*
X48214285Y-50750000D01*
X48309523Y-50845238D01*
X48357142Y-51035714D01*
X48357142Y-51369047D01*
X48309523Y-51559523D01*
X48214285Y-51654761D01*
X48119047Y-51702380D01*
X47928571Y-51702380D01*
X49261904Y-50702380D02*
X48785714Y-50702380D01*
X48738095Y-51178571D01*
X48785714Y-51130952D01*
X48880952Y-51083333D01*
X49119047Y-51083333D01*
X49214285Y-51130952D01*
X49261904Y-51178571D01*
X49309523Y-51273809D01*
X49309523Y-51511904D01*
X49261904Y-51607142D01*
X49214285Y-51654761D01*
X49119047Y-51702380D01*
X48880952Y-51702380D01*
X48785714Y-51654761D01*
X48738095Y-51607142D01*
X76404761Y-72547619D02*
X76309523Y-72500000D01*
X76214285Y-72404761D01*
X76071428Y-72261904D01*
X75976190Y-72214285D01*
X75880952Y-72214285D01*
X75928571Y-72452380D02*
X75833333Y-72404761D01*
X75738095Y-72309523D01*
X75690476Y-72119047D01*
X75690476Y-71785714D01*
X75738095Y-71595238D01*
X75833333Y-71500000D01*
X75928571Y-71452380D01*
X76119047Y-71452380D01*
X76214285Y-71500000D01*
X76309523Y-71595238D01*
X76357142Y-71785714D01*
X76357142Y-72119047D01*
X76309523Y-72309523D01*
X76214285Y-72404761D01*
X76119047Y-72452380D01*
X75928571Y-72452380D01*
X77214285Y-71785714D02*
X77214285Y-72452380D01*
X76976190Y-71404761D02*
X76738095Y-72119047D01*
X77357142Y-72119047D01*
X54404761Y-36297619D02*
X54309523Y-36250000D01*
X54214285Y-36154761D01*
X54071428Y-36011904D01*
X53976190Y-35964285D01*
X53880952Y-35964285D01*
X53928571Y-36202380D02*
X53833333Y-36154761D01*
X53738095Y-36059523D01*
X53690476Y-35869047D01*
X53690476Y-35535714D01*
X53738095Y-35345238D01*
X53833333Y-35250000D01*
X53928571Y-35202380D01*
X54119047Y-35202380D01*
X54214285Y-35250000D01*
X54309523Y-35345238D01*
X54357142Y-35535714D01*
X54357142Y-35869047D01*
X54309523Y-36059523D01*
X54214285Y-36154761D01*
X54119047Y-36202380D01*
X53928571Y-36202380D01*
X54690476Y-35202380D02*
X55309523Y-35202380D01*
X54976190Y-35583333D01*
X55119047Y-35583333D01*
X55214285Y-35630952D01*
X55261904Y-35678571D01*
X55309523Y-35773809D01*
X55309523Y-36011904D01*
X55261904Y-36107142D01*
X55214285Y-36154761D01*
X55119047Y-36202380D01*
X54833333Y-36202380D01*
X54738095Y-36154761D01*
X54690476Y-36107142D01*
X87904761Y-46297619D02*
X87809523Y-46250000D01*
X87714285Y-46154761D01*
X87571428Y-46011904D01*
X87476190Y-45964285D01*
X87380952Y-45964285D01*
X87428571Y-46202380D02*
X87333333Y-46154761D01*
X87238095Y-46059523D01*
X87190476Y-45869047D01*
X87190476Y-45535714D01*
X87238095Y-45345238D01*
X87333333Y-45250000D01*
X87428571Y-45202380D01*
X87619047Y-45202380D01*
X87714285Y-45250000D01*
X87809523Y-45345238D01*
X87857142Y-45535714D01*
X87857142Y-45869047D01*
X87809523Y-46059523D01*
X87714285Y-46154761D01*
X87619047Y-46202380D01*
X87428571Y-46202380D01*
X88238095Y-45297619D02*
X88285714Y-45250000D01*
X88380952Y-45202380D01*
X88619047Y-45202380D01*
X88714285Y-45250000D01*
X88761904Y-45297619D01*
X88809523Y-45392857D01*
X88809523Y-45488095D01*
X88761904Y-45630952D01*
X88190476Y-46202380D01*
X88809523Y-46202380D01*
X54404761Y-37797619D02*
X54309523Y-37750000D01*
X54214285Y-37654761D01*
X54071428Y-37511904D01*
X53976190Y-37464285D01*
X53880952Y-37464285D01*
X53928571Y-37702380D02*
X53833333Y-37654761D01*
X53738095Y-37559523D01*
X53690476Y-37369047D01*
X53690476Y-37035714D01*
X53738095Y-36845238D01*
X53833333Y-36750000D01*
X53928571Y-36702380D01*
X54119047Y-36702380D01*
X54214285Y-36750000D01*
X54309523Y-36845238D01*
X54357142Y-37035714D01*
X54357142Y-37369047D01*
X54309523Y-37559523D01*
X54214285Y-37654761D01*
X54119047Y-37702380D01*
X53928571Y-37702380D01*
X55309523Y-37702380D02*
X54738095Y-37702380D01*
X55023809Y-37702380D02*
X55023809Y-36702380D01*
X54928571Y-36845238D01*
X54833333Y-36940476D01*
X54738095Y-36988095D01*
X31202380Y-91738095D02*
X30202380Y-91738095D01*
X31202380Y-91166666D02*
X30630952Y-91595238D01*
X30202380Y-91166666D02*
X30773809Y-91738095D01*
X30202380Y-90833333D02*
X30202380Y-90166666D01*
X31202380Y-90595238D01*
X58452380Y-91738095D02*
X57452380Y-91738095D01*
X58452380Y-91166666D02*
X57880952Y-91595238D01*
X57452380Y-91166666D02*
X58023809Y-91738095D01*
X57452380Y-90309523D02*
X57452380Y-90500000D01*
X57500000Y-90595238D01*
X57547619Y-90642857D01*
X57690476Y-90738095D01*
X57880952Y-90785714D01*
X58261904Y-90785714D01*
X58357142Y-90738095D01*
X58404761Y-90690476D01*
X58452380Y-90595238D01*
X58452380Y-90404761D01*
X58404761Y-90309523D01*
X58357142Y-90261904D01*
X58261904Y-90214285D01*
X58023809Y-90214285D01*
X57928571Y-90261904D01*
X57880952Y-90309523D01*
X57833333Y-90404761D01*
X57833333Y-90595238D01*
X57880952Y-90690476D01*
X57928571Y-90738095D01*
X58023809Y-90785714D01*
X31202380Y-72988095D02*
X30202380Y-72988095D01*
X31202380Y-72416666D02*
X30630952Y-72845238D01*
X30202380Y-72416666D02*
X30773809Y-72988095D01*
X30202380Y-71511904D02*
X30202380Y-71988095D01*
X30678571Y-72035714D01*
X30630952Y-71988095D01*
X30583333Y-71892857D01*
X30583333Y-71654761D01*
X30630952Y-71559523D01*
X30678571Y-71511904D01*
X30773809Y-71464285D01*
X31011904Y-71464285D01*
X31107142Y-71511904D01*
X31154761Y-71559523D01*
X31202380Y-71654761D01*
X31202380Y-71892857D01*
X31154761Y-71988095D01*
X31107142Y-72035714D01*
X31202380Y-66238095D02*
X30202380Y-66238095D01*
X31202380Y-65666666D02*
X30630952Y-66095238D01*
X30202380Y-65666666D02*
X30773809Y-66238095D01*
X30535714Y-64809523D02*
X31202380Y-64809523D01*
X30154761Y-65047619D02*
X30869047Y-65285714D01*
X30869047Y-64666666D01*
X31452380Y-29488095D02*
X30452380Y-29488095D01*
X31452380Y-28916666D02*
X30880952Y-29345238D01*
X30452380Y-28916666D02*
X31023809Y-29488095D01*
X30452380Y-28583333D02*
X30452380Y-27964285D01*
X30833333Y-28297619D01*
X30833333Y-28154761D01*
X30880952Y-28059523D01*
X30928571Y-28011904D01*
X31023809Y-27964285D01*
X31261904Y-27964285D01*
X31357142Y-28011904D01*
X31404761Y-28059523D01*
X31452380Y-28154761D01*
X31452380Y-28440476D01*
X31404761Y-28535714D01*
X31357142Y-28583333D01*
X31202380Y-41488095D02*
X30202380Y-41488095D01*
X31202380Y-40916666D02*
X30630952Y-41345238D01*
X30202380Y-40916666D02*
X30773809Y-41488095D01*
X30297619Y-40535714D02*
X30250000Y-40488095D01*
X30202380Y-40392857D01*
X30202380Y-40154761D01*
X30250000Y-40059523D01*
X30297619Y-40011904D01*
X30392857Y-39964285D01*
X30488095Y-39964285D01*
X30630952Y-40011904D01*
X31202380Y-40583333D01*
X31202380Y-39964285D01*
X31202380Y-48238095D02*
X30202380Y-48238095D01*
X31202380Y-47666666D02*
X30630952Y-48095238D01*
X30202380Y-47666666D02*
X30773809Y-48238095D01*
X31202380Y-46714285D02*
X31202380Y-47285714D01*
X31202380Y-47000000D02*
X30202380Y-47000000D01*
X30345238Y-47095238D01*
X30440476Y-47190476D01*
X30488095Y-47285714D01*
X83666666Y-76952380D02*
X83666666Y-77666666D01*
X83619047Y-77809523D01*
X83523809Y-77904761D01*
X83380952Y-77952380D01*
X83285714Y-77952380D01*
X84047619Y-76952380D02*
X84666666Y-76952380D01*
X84333333Y-77333333D01*
X84476190Y-77333333D01*
X84571428Y-77380952D01*
X84619047Y-77428571D01*
X84666666Y-77523809D01*
X84666666Y-77761904D01*
X84619047Y-77857142D01*
X84571428Y-77904761D01*
X84476190Y-77952380D01*
X84190476Y-77952380D01*
X84095238Y-77904761D01*
X84047619Y-77857142D01*
X82166666Y-45202380D02*
X82166666Y-45916666D01*
X82119047Y-46059523D01*
X82023809Y-46154761D01*
X81880952Y-46202380D01*
X81785714Y-46202380D01*
X82595238Y-45297619D02*
X82642857Y-45250000D01*
X82738095Y-45202380D01*
X82976190Y-45202380D01*
X83071428Y-45250000D01*
X83119047Y-45297619D01*
X83166666Y-45392857D01*
X83166666Y-45488095D01*
X83119047Y-45630952D01*
X82547619Y-46202380D01*
X83166666Y-46202380D01*
X82916666Y-73782380D02*
X82916666Y-74496666D01*
X82869047Y-74639523D01*
X82773809Y-74734761D01*
X82630952Y-74782380D01*
X82535714Y-74782380D01*
X83916666Y-74782380D02*
X83345238Y-74782380D01*
X83630952Y-74782380D02*
X83630952Y-73782380D01*
X83535714Y-73925238D01*
X83440476Y-74020476D01*
X83345238Y-74068095D01*
X60107142Y-82607142D02*
X60059523Y-82654761D01*
X59916666Y-82702380D01*
X59821428Y-82702380D01*
X59678571Y-82654761D01*
X59583333Y-82559523D01*
X59535714Y-82464285D01*
X59488095Y-82273809D01*
X59488095Y-82130952D01*
X59535714Y-81940476D01*
X59583333Y-81845238D01*
X59678571Y-81750000D01*
X59821428Y-81702380D01*
X59916666Y-81702380D01*
X60059523Y-81750000D01*
X60107142Y-81797619D01*
X60488095Y-81797619D02*
X60535714Y-81750000D01*
X60630952Y-81702380D01*
X60869047Y-81702380D01*
X60964285Y-81750000D01*
X61011904Y-81797619D01*
X61059523Y-81892857D01*
X61059523Y-81988095D01*
X61011904Y-82130952D01*
X60440476Y-82702380D01*
X61059523Y-82702380D01*
X61916666Y-82035714D02*
X61916666Y-82702380D01*
X61678571Y-81654761D02*
X61440476Y-82369047D01*
X62059523Y-82369047D01*
X31607142Y-79642857D02*
X31654761Y-79690476D01*
X31702380Y-79833333D01*
X31702380Y-79928571D01*
X31654761Y-80071428D01*
X31559523Y-80166666D01*
X31464285Y-80214285D01*
X31273809Y-80261904D01*
X31130952Y-80261904D01*
X30940476Y-80214285D01*
X30845238Y-80166666D01*
X30750000Y-80071428D01*
X30702380Y-79928571D01*
X30702380Y-79833333D01*
X30750000Y-79690476D01*
X30797619Y-79642857D01*
X30797619Y-79261904D02*
X30750000Y-79214285D01*
X30702380Y-79119047D01*
X30702380Y-78880952D01*
X30750000Y-78785714D01*
X30797619Y-78738095D01*
X30892857Y-78690476D01*
X30988095Y-78690476D01*
X31130952Y-78738095D01*
X31702380Y-79309523D01*
X31702380Y-78690476D01*
X30702380Y-78357142D02*
X30702380Y-77738095D01*
X31083333Y-78071428D01*
X31083333Y-77928571D01*
X31130952Y-77833333D01*
X31178571Y-77785714D01*
X31273809Y-77738095D01*
X31511904Y-77738095D01*
X31607142Y-77785714D01*
X31654761Y-77833333D01*
X31702380Y-77928571D01*
X31702380Y-78214285D01*
X31654761Y-78309523D01*
X31607142Y-78357142D01*
X63107142Y-63607142D02*
X63059523Y-63654761D01*
X62916666Y-63702380D01*
X62821428Y-63702380D01*
X62678571Y-63654761D01*
X62583333Y-63559523D01*
X62535714Y-63464285D01*
X62488095Y-63273809D01*
X62488095Y-63130952D01*
X62535714Y-62940476D01*
X62583333Y-62845238D01*
X62678571Y-62750000D01*
X62821428Y-62702380D01*
X62916666Y-62702380D01*
X63059523Y-62750000D01*
X63107142Y-62797619D01*
X63488095Y-62797619D02*
X63535714Y-62750000D01*
X63630952Y-62702380D01*
X63869047Y-62702380D01*
X63964285Y-62750000D01*
X64011904Y-62797619D01*
X64059523Y-62892857D01*
X64059523Y-62988095D01*
X64011904Y-63130952D01*
X63440476Y-63702380D01*
X64059523Y-63702380D01*
X64440476Y-62797619D02*
X64488095Y-62750000D01*
X64583333Y-62702380D01*
X64821428Y-62702380D01*
X64916666Y-62750000D01*
X64964285Y-62797619D01*
X65011904Y-62892857D01*
X65011904Y-62988095D01*
X64964285Y-63130952D01*
X64392857Y-63702380D01*
X65011904Y-63702380D01*
X54357142Y-83607142D02*
X54309523Y-83654761D01*
X54166666Y-83702380D01*
X54071428Y-83702380D01*
X53928571Y-83654761D01*
X53833333Y-83559523D01*
X53785714Y-83464285D01*
X53738095Y-83273809D01*
X53738095Y-83130952D01*
X53785714Y-82940476D01*
X53833333Y-82845238D01*
X53928571Y-82750000D01*
X54071428Y-82702380D01*
X54166666Y-82702380D01*
X54309523Y-82750000D01*
X54357142Y-82797619D01*
X54738095Y-82797619D02*
X54785714Y-82750000D01*
X54880952Y-82702380D01*
X55119047Y-82702380D01*
X55214285Y-82750000D01*
X55261904Y-82797619D01*
X55309523Y-82892857D01*
X55309523Y-82988095D01*
X55261904Y-83130952D01*
X54690476Y-83702380D01*
X55309523Y-83702380D01*
X56261904Y-83702380D02*
X55690476Y-83702380D01*
X55976190Y-83702380D02*
X55976190Y-82702380D01*
X55880952Y-82845238D01*
X55785714Y-82940476D01*
X55690476Y-82988095D01*
X53107142Y-72392857D02*
X53154761Y-72440476D01*
X53202380Y-72583333D01*
X53202380Y-72678571D01*
X53154761Y-72821428D01*
X53059523Y-72916666D01*
X52964285Y-72964285D01*
X52773809Y-73011904D01*
X52630952Y-73011904D01*
X52440476Y-72964285D01*
X52345238Y-72916666D01*
X52250000Y-72821428D01*
X52202380Y-72678571D01*
X52202380Y-72583333D01*
X52250000Y-72440476D01*
X52297619Y-72392857D01*
X52297619Y-72011904D02*
X52250000Y-71964285D01*
X52202380Y-71869047D01*
X52202380Y-71630952D01*
X52250000Y-71535714D01*
X52297619Y-71488095D01*
X52392857Y-71440476D01*
X52488095Y-71440476D01*
X52630952Y-71488095D01*
X53202380Y-72059523D01*
X53202380Y-71440476D01*
X52202380Y-70821428D02*
X52202380Y-70726190D01*
X52250000Y-70630952D01*
X52297619Y-70583333D01*
X52392857Y-70535714D01*
X52583333Y-70488095D01*
X52821428Y-70488095D01*
X53011904Y-70535714D01*
X53107142Y-70583333D01*
X53154761Y-70630952D01*
X53202380Y-70726190D01*
X53202380Y-70821428D01*
X53154761Y-70916666D01*
X53107142Y-70964285D01*
X53011904Y-71011904D01*
X52821428Y-71059523D01*
X52583333Y-71059523D01*
X52392857Y-71011904D01*
X52297619Y-70964285D01*
X52250000Y-70916666D01*
X52202380Y-70821428D01*
X55107142Y-61857142D02*
X55059523Y-61904761D01*
X54916666Y-61952380D01*
X54821428Y-61952380D01*
X54678571Y-61904761D01*
X54583333Y-61809523D01*
X54535714Y-61714285D01*
X54488095Y-61523809D01*
X54488095Y-61380952D01*
X54535714Y-61190476D01*
X54583333Y-61095238D01*
X54678571Y-61000000D01*
X54821428Y-60952380D01*
X54916666Y-60952380D01*
X55059523Y-61000000D01*
X55107142Y-61047619D01*
X56059523Y-61952380D02*
X55488095Y-61952380D01*
X55773809Y-61952380D02*
X55773809Y-60952380D01*
X55678571Y-61095238D01*
X55583333Y-61190476D01*
X55488095Y-61238095D01*
X56535714Y-61952380D02*
X56726190Y-61952380D01*
X56821428Y-61904761D01*
X56869047Y-61857142D01*
X56964285Y-61714285D01*
X57011904Y-61523809D01*
X57011904Y-61142857D01*
X56964285Y-61047619D01*
X56916666Y-61000000D01*
X56821428Y-60952380D01*
X56630952Y-60952380D01*
X56535714Y-61000000D01*
X56488095Y-61047619D01*
X56440476Y-61142857D01*
X56440476Y-61380952D01*
X56488095Y-61476190D01*
X56535714Y-61523809D01*
X56630952Y-61571428D01*
X56821428Y-61571428D01*
X56916666Y-61523809D01*
X56964285Y-61476190D01*
X57011904Y-61380952D01*
X57857142Y-70392857D02*
X57904761Y-70440476D01*
X57952380Y-70583333D01*
X57952380Y-70678571D01*
X57904761Y-70821428D01*
X57809523Y-70916666D01*
X57714285Y-70964285D01*
X57523809Y-71011904D01*
X57380952Y-71011904D01*
X57190476Y-70964285D01*
X57095238Y-70916666D01*
X57000000Y-70821428D01*
X56952380Y-70678571D01*
X56952380Y-70583333D01*
X57000000Y-70440476D01*
X57047619Y-70392857D01*
X57952380Y-69440476D02*
X57952380Y-70011904D01*
X57952380Y-69726190D02*
X56952380Y-69726190D01*
X57095238Y-69821428D01*
X57190476Y-69916666D01*
X57238095Y-70011904D01*
X57380952Y-68869047D02*
X57333333Y-68964285D01*
X57285714Y-69011904D01*
X57190476Y-69059523D01*
X57142857Y-69059523D01*
X57047619Y-69011904D01*
X57000000Y-68964285D01*
X56952380Y-68869047D01*
X56952380Y-68678571D01*
X57000000Y-68583333D01*
X57047619Y-68535714D01*
X57142857Y-68488095D01*
X57190476Y-68488095D01*
X57285714Y-68535714D01*
X57333333Y-68583333D01*
X57380952Y-68678571D01*
X57380952Y-68869047D01*
X57428571Y-68964285D01*
X57476190Y-69011904D01*
X57571428Y-69059523D01*
X57761904Y-69059523D01*
X57857142Y-69011904D01*
X57904761Y-68964285D01*
X57952380Y-68869047D01*
X57952380Y-68678571D01*
X57904761Y-68583333D01*
X57857142Y-68535714D01*
X57761904Y-68488095D01*
X57571428Y-68488095D01*
X57476190Y-68535714D01*
X57428571Y-68583333D01*
X57380952Y-68678571D01*
X66607142Y-71642857D02*
X66654761Y-71690476D01*
X66702380Y-71833333D01*
X66702380Y-71928571D01*
X66654761Y-72071428D01*
X66559523Y-72166666D01*
X66464285Y-72214285D01*
X66273809Y-72261904D01*
X66130952Y-72261904D01*
X65940476Y-72214285D01*
X65845238Y-72166666D01*
X65750000Y-72071428D01*
X65702380Y-71928571D01*
X65702380Y-71833333D01*
X65750000Y-71690476D01*
X65797619Y-71642857D01*
X66702380Y-70690476D02*
X66702380Y-71261904D01*
X66702380Y-70976190D02*
X65702380Y-70976190D01*
X65845238Y-71071428D01*
X65940476Y-71166666D01*
X65988095Y-71261904D01*
X65702380Y-69833333D02*
X65702380Y-70023809D01*
X65750000Y-70119047D01*
X65797619Y-70166666D01*
X65940476Y-70261904D01*
X66130952Y-70309523D01*
X66511904Y-70309523D01*
X66607142Y-70261904D01*
X66654761Y-70214285D01*
X66702380Y-70119047D01*
X66702380Y-69928571D01*
X66654761Y-69833333D01*
X66607142Y-69785714D01*
X66511904Y-69738095D01*
X66273809Y-69738095D01*
X66178571Y-69785714D01*
X66130952Y-69833333D01*
X66083333Y-69928571D01*
X66083333Y-70119047D01*
X66130952Y-70214285D01*
X66178571Y-70261904D01*
X66273809Y-70309523D01*
X38357142Y-51857142D02*
X38309523Y-51904761D01*
X38166666Y-51952380D01*
X38071428Y-51952380D01*
X37928571Y-51904761D01*
X37833333Y-51809523D01*
X37785714Y-51714285D01*
X37738095Y-51523809D01*
X37738095Y-51380952D01*
X37785714Y-51190476D01*
X37833333Y-51095238D01*
X37928571Y-51000000D01*
X38071428Y-50952380D01*
X38166666Y-50952380D01*
X38309523Y-51000000D01*
X38357142Y-51047619D01*
X39309523Y-51952380D02*
X38738095Y-51952380D01*
X39023809Y-51952380D02*
X39023809Y-50952380D01*
X38928571Y-51095238D01*
X38833333Y-51190476D01*
X38738095Y-51238095D01*
X40166666Y-51285714D02*
X40166666Y-51952380D01*
X39928571Y-50904761D02*
X39690476Y-51619047D01*
X40309523Y-51619047D01*
X77333333Y-78357142D02*
X77285714Y-78404761D01*
X77142857Y-78452380D01*
X77047619Y-78452380D01*
X76904761Y-78404761D01*
X76809523Y-78309523D01*
X76761904Y-78214285D01*
X76714285Y-78023809D01*
X76714285Y-77880952D01*
X76761904Y-77690476D01*
X76809523Y-77595238D01*
X76904761Y-77500000D01*
X77047619Y-77452380D01*
X77142857Y-77452380D01*
X77285714Y-77500000D01*
X77333333Y-77547619D01*
X77666666Y-77452380D02*
X78333333Y-77452380D01*
X77904761Y-78452380D01*
X83107142Y-54166666D02*
X83154761Y-54214285D01*
X83202380Y-54357142D01*
X83202380Y-54452380D01*
X83154761Y-54595238D01*
X83059523Y-54690476D01*
X82964285Y-54738095D01*
X82773809Y-54785714D01*
X82630952Y-54785714D01*
X82440476Y-54738095D01*
X82345238Y-54690476D01*
X82250000Y-54595238D01*
X82202380Y-54452380D01*
X82202380Y-54357142D01*
X82250000Y-54214285D01*
X82297619Y-54166666D01*
X82535714Y-53309523D02*
X83202380Y-53309523D01*
X82154761Y-53547619D02*
X82869047Y-53785714D01*
X82869047Y-53166666D01*
X57833333Y-46107142D02*
X57785714Y-46154761D01*
X57642857Y-46202380D01*
X57547619Y-46202380D01*
X57404761Y-46154761D01*
X57309523Y-46059523D01*
X57261904Y-45964285D01*
X57214285Y-45773809D01*
X57214285Y-45630952D01*
X57261904Y-45440476D01*
X57309523Y-45345238D01*
X57404761Y-45250000D01*
X57547619Y-45202380D01*
X57642857Y-45202380D01*
X57785714Y-45250000D01*
X57833333Y-45297619D01*
X58166666Y-45202380D02*
X58785714Y-45202380D01*
X58452380Y-45583333D01*
X58595238Y-45583333D01*
X58690476Y-45630952D01*
X58738095Y-45678571D01*
X58785714Y-45773809D01*
X58785714Y-46011904D01*
X58738095Y-46107142D01*
X58690476Y-46154761D01*
X58595238Y-46202380D01*
X58309523Y-46202380D01*
X58214285Y-46154761D01*
X58166666Y-46107142D01*
X67833333Y-45857142D02*
X67785714Y-45904761D01*
X67642857Y-45952380D01*
X67547619Y-45952380D01*
X67404761Y-45904761D01*
X67309523Y-45809523D01*
X67261904Y-45714285D01*
X67214285Y-45523809D01*
X67214285Y-45380952D01*
X67261904Y-45190476D01*
X67309523Y-45095238D01*
X67404761Y-45000000D01*
X67547619Y-44952380D01*
X67642857Y-44952380D01*
X67785714Y-45000000D01*
X67833333Y-45047619D01*
X68214285Y-45047619D02*
X68261904Y-45000000D01*
X68357142Y-44952380D01*
X68595238Y-44952380D01*
X68690476Y-45000000D01*
X68738095Y-45047619D01*
X68785714Y-45142857D01*
X68785714Y-45238095D01*
X68738095Y-45380952D01*
X68166666Y-45952380D01*
X68785714Y-45952380D01*
X75333333Y-46107142D02*
X75285714Y-46154761D01*
X75142857Y-46202380D01*
X75047619Y-46202380D01*
X74904761Y-46154761D01*
X74809523Y-46059523D01*
X74761904Y-45964285D01*
X74714285Y-45773809D01*
X74714285Y-45630952D01*
X74761904Y-45440476D01*
X74809523Y-45345238D01*
X74904761Y-45250000D01*
X75047619Y-45202380D01*
X75142857Y-45202380D01*
X75285714Y-45250000D01*
X75333333Y-45297619D01*
X76285714Y-46202380D02*
X75714285Y-46202380D01*
X76000000Y-46202380D02*
X76000000Y-45202380D01*
X75904761Y-45345238D01*
X75809523Y-45440476D01*
X75714285Y-45488095D01*
M02*
